<?xml version="1.0" encoding="UTF-8" standalone="no"?>
<!-- Created with Inkscape (http://www.inkscape.org/) -->

<svg
   width="11.786714mm"
   height="10.951169mm"
   viewBox="0 0 11.786714 10.951169"
   version="1.1"
   id="svg1"
   xmlns="http://www.w3.org/2000/svg"
   xmlns:svg="http://www.w3.org/2000/svg">
  <defs
     id="defs1" />
  <path
     d="m 3.4575706,7.6719657 c -0.25951,0.695752 -0.32366,0.793566 -0.83489,1.273006 -0.65782,0.616926 -0.8882,0.952798 -0.7463,1.0880793 0.0655,0.06247 0.23366,-0.0056 0.53197,-0.2154403 0.23987,-0.16874 0.45043,-0.284871 0.46789,-0.258068 0.0745,0.114344 -0.28629,0.6340413 -0.49738,0.7164153 -0.27009,0.105408 -0.25565,0.243157 0.0292,0.279064 0.11023,0.01406 0.18749,-0.01082 0.17161,-0.05485 -0.0158,-0.04412 -0.0873,-0.07085 -0.15878,-0.05946 -0.0771,0.01235 -0.10042,-0.01015 -0.0573,-0.05532 0.0399,-0.04186 0.11503,-0.0486 0.16695,-0.01506 0.14148,0.09158 0.2349,0.02453 0.61415,-0.4405833 0.19037,-0.233487 0.38161,-0.417027 0.42498,-0.407876 0.0433,0.0091 0.0611,-0.01061 0.0394,-0.04381 -0.0217,-0.0333 0.0669,-0.121657 0.19686,-0.196419 0.12995,-0.07478 0.25877,-0.189599 0.28628,-0.255181 0.0275,-0.06563 0.0738,-0.133696 0.10287,-0.151354 0.0291,-0.01768 0.21402,-0.197661 0.41096,-0.40001 0.6347,-0.652097 2.25489,-1.772847 3.00852,-2.081124 0.26044,-0.106523 0.53299,-0.231669 0.60568,-0.278081 0.0727,-0.0464 0.16097,-0.07831 0.19619,-0.07088 0.0352,0.0074 0.19115,-0.05625 0.3465,-0.14149 0.50665,-0.278037 1.5773704,-0.519751 1.8067204,-0.40787 0.11314,0.05515 0.17603,0.131477 0.13981,0.169448 -0.0366,0.03837 -0.004,0.05928 0.0726,0.04699 0.16412,-0.02618 0.13159,-0.178498 -0.0462,-0.216012 -0.0684,-0.01443 -0.0969,-0.05498 -0.0634,-0.09012 0.0511,-0.05361 0.18278,-0.06447 0.75475,-0.06243 0.0238,-8.1e-5 0.1223,-0.0257 0.21893,-0.05728 0.24897,-0.08139 0.14782,-0.283971 -0.15113,-0.302603 -0.13421,-0.0084 -0.2481,-0.05031 -0.25299,-0.09365 -0.008,-0.06828 -1.2595504,-0.388826 -3.2302804,-0.827314 -0.49677,-0.110954 -0.61574,-0.168865 -0.77879,-0.38202 -0.1439,-0.188123 -0.23317,-0.239697 -0.35401,-0.204497 -0.20313,0.05914 -0.28302,0.04404 -0.2041,-0.03898 0.0335,-0.03514 -0.005,-0.0725 -0.0856,-0.08295 -0.0955,-0.01197 -0.12752,-0.06738 -0.092,-0.157823 0.0471,-0.120033 0.004,-0.142396 -0.3202,-0.165679 -0.2482,-0.01783 -0.46071,-0.08904 -0.62974,-0.210451 -0.1403,-0.100942 -0.35836,-0.247765 -0.48456,-0.326294 -0.1262,-0.07855 -0.33202,-0.210382 -0.45736,-0.29301 -0.12534,-0.08266 -0.26335,-0.166763 -0.30667,-0.186963 -0.27379,-0.127678 -1.69564,-1.02486505 -1.76708,-1.11502805 -0.0478,-0.06026 -0.13059,-0.09399 -0.18396,-0.07479 -0.0533,0.01921 -0.35217,-0.09526 -0.66399,-0.254388 -0.69197995,-0.353136 -1.65596995,-0.664461 -1.68157995,-0.543074 -0.01,0.04687 0.0167,0.09243 0.0589,0.101353 0.0423,0.0089 0.1263,0.09196 0.18663,0.184599 0.0603,0.09264 0.18779,0.193706 0.28326,0.224672 0.47425995,0.153831 0.72800995,0.287522 1.08220995,0.57010905 0.21289,0.169853 0.4008,0.337839 0.4176,0.373312 0.0305,0.0645 0.48318,0.371133 0.65557,0.444148 0.0502,0.02122 0.13374,0.08668 0.18563,0.14542 0.0519,0.05868 0.22086,0.209482 0.37546,0.335026 0.1546,0.125523 0.33223,0.316932 0.39476,0.425306 0.15187,0.263269 0.30334,1.038524 0.29407,1.50503 -0.006,0.301682 0.0585,0.786184 0.0292,1.017998 -0.0294,0.231814 -0.08,0.923494 -0.13027,1.093893 -0.0502,0.170398 -0.0512,0.349245 -0.37757,1.224376 z m 0.28985,0.914169 c 0.37802,-0.351332 0.6122,-0.503768 0.58644,-0.381715 -0.0336,0.159292 -0.40779,0.629171 -0.64501,0.80997 -0.20549,0.156608 -0.20826,0.156332 -0.19827,-0.02007 0.006,-0.09838 0.12115,-0.282075 0.25684,-0.408197 z m 0.36854,-0.989377 c 0.0246,-0.116681 3.0176,-2.08205 3.13343,-2.057607 0.0421,0.0089 0.059,-0.03252 0.0376,-0.09202 -0.0216,-0.06026 -0.008,-0.07826 0.0319,-0.0406 0.0389,0.03713 0.24478,-0.06943 0.45745,-0.236746 0.34381,-0.270473 0.40407,-0.289573 0.54353,-0.172262 0.17924,0.150776 0.25307,0.09837 -1.15937,0.823447 -0.39248,0.201497 -1.21201,0.698423 -1.82116,1.104282 -1.01404,0.675626 -1.25173,0.806092 -1.22333,0.671496 z m 0.15978,-1.020252 c 0.0107,-0.170733 0.28739,-0.392747 0.4475,-0.358964 0.15928,0.03361 0.1074,0.173484 -0.15339,0.413552 -0.23265,0.214161 -0.30996,0.19982 -0.29405,-0.05489 z m 0.75677,-1.071359 c 0.0373,-0.03914 0.26815,-0.153443 0.51301,-0.254077 0.24487,-0.100631 0.52592,-0.242483 0.62455,-0.315226 0.0986,-0.0727 0.17364,-0.105257 0.16668,-0.07224 -0.007,0.03297 0.0584,0.01334 0.14498,-0.04269 0.0867,-0.05651 0.20129,-0.09201 0.25462,-0.07895 0.14223,0.03512 -0.84676,0.608884 -1.27095,0.737619 -0.40684,0.123473 -0.53334,0.130957 -0.43289,0.02559 z m -0.58608,-0.294805 c 0.0158,-0.07485 0.31312,-0.196568 0.42331,-0.173316 0.0274,0.0058 -0.006,0.07664 -0.0738,0.157485 -0.12591,0.149659 -0.38014,0.161179 -0.34948,0.01589 z m 0.12401,-0.587699 c 0.0198,-0.09383 0.004,-0.15916 -0.0343,-0.145201 -0.0386,0.01393 -0.0335,-0.12867 0.0114,-0.316978 0.0685,-0.286054 0.11252,-0.340495 0.26944,-0.331024 0.16893,0.0102 0.17367,0.02591 0.0471,0.157429 -0.20704,0.215149 -0.0906,0.302305 0.28339,0.211986 0.1811,-0.04375 0.34524,-0.05503 0.36475,-0.02503 0.0195,0.02998 -0.0102,0.04486 -0.0661,0.03308 -0.0559,-0.01179 -0.0894,0.01241 -0.0744,0.0538 0.0329,0.09147 -0.62798,0.576751 -0.75031,0.550939 -0.0479,-0.0101 -0.0709,-0.09518 -0.0511,-0.188949 z m 1.33504,-0.175701 c 0.003,-0.01575 0.10487,-0.0819 0.22573,-0.147064 l 0.21969,-0.118484 -0.19714,0.153095 c -0.18527,0.14387 -0.26227,0.178744 -0.24828,0.112453 z m 1.3613,-0.100079 c 0.0798,-0.05195 0.19062,0.127503 0.12278,0.19871 -0.0462,0.04841 -0.0871,0.03089 -0.11603,-0.04963 -0.0246,-0.06836 -0.0276,-0.135482 -0.007,-0.149118 z m -1.51917,-0.381982 c 0.0319,-0.15121 0.25174,-0.201884 0.37324,-0.08605 0.0625,0.05948 0.0376,0.104402 -0.0898,0.161777 -0.23013,0.103712 -0.31645,0.08064 -0.28345,-0.07575 z m -0.34162,-0.324809 c 0.1562,-0.111165 0.18815,-0.07733 0.0819,0.08679 -0.0444,0.06851 -0.10934,0.0973 -0.14444,0.06385 -0.0351,-0.03346 -0.007,-0.101216 0.0624,-0.150653 z m -1.21318,-0.303412 c -0.0186,-0.05154 0.004,-0.08581 0.0491,-0.07621 0.0456,0.0096 0.098,0.05962 0.11655,0.111158 0.0186,0.05154 -0.004,0.08581 -0.0491,0.07621 -0.0456,-0.0096 -0.098,-0.05962 -0.11655,-0.111158 z m -2.21231,7.5891743 c 0.25281,-0.265179 0.1688,-0.656606 -0.13068,-0.608756 -0.0994,0.01591 -0.13668,0.08185 -0.12507,0.221243 0.0234,0.27916 0.16064,0.487223 0.2557,0.387503 z"
     style="display:inline;fill:#ffffff"
     id="arrow-sx1" />
</svg>
