<?xml version="1.0" encoding="UTF-8" standalone="no"?>
<!-- Created with Inkscape (http://www.inkscape.org/) -->

<svg
   width="7.8350401mm"
   height="8.268507mm"
   viewBox="0 0 7.8350401 8.268507"
   version="1.1"
   id="svg1"
   xmlns="http://www.w3.org/2000/svg"
   xmlns:svg="http://www.w3.org/2000/svg">
  <defs
     id="defs1" />
  <g
     id="layer1"
     transform="translate(-186.26667,-133.61535)">
    <path
       d="m 193.31788,139.75365 c 0.072,0.69304 0.0609,0.87991 -0.051,0.86157 -0.0875,-0.0143 -0.1719,-0.0924 -0.21766,-0.20117 -0.0683,-0.16262 -0.0721,-0.16184 -0.0438,0.009 0.017,0.10254 -0.012,0.19255 -0.0643,0.20011 -0.0524,0.007 -0.0119,0.0195 0.0907,0.0273 0.14125,0.0102 0.21357,0.0669 0.30037,0.23553 0.0629,0.12213 0.22852,0.32299 0.36804,0.44641 0.13951,0.12342 0.29901,0.30947 0.35443,0.41347 0.094,0.17647 0.0734,0.17881 -0.30792,0.0348 -0.27522,-0.10392 -0.39604,-0.18383 -0.36997,-0.24476 0.0213,-0.0497 -0.0118,-0.10944 -0.0736,-0.13259 -0.0617,-0.0232 -0.29056,-0.28098 -0.50843,-0.57286 -0.65376,-0.87573 -1.88798,-1.88188 -3.02566,-2.46655 -0.81556,-0.41913 -1.02158,-0.49093 -0.97849,-0.34101 0.0278,0.0969 0.008,0.10575 -0.0822,0.0375 -0.17704,-0.13344 -0.21192,-0.14902 -0.45447,-0.20314 -0.16106,-0.036 -0.22492,-0.0858 -0.23056,-0.18027 -0.0124,-0.20874 -0.25343,-0.36828 -0.47931,-0.31732 -0.52542,0.11856 -1.27086,0.13467 -1.27724,0.0276 -0.004,-0.0719 0.0782,-0.11449 0.22428,-0.11594 0.12707,-0.001 0.2991,-0.0789 0.38224,-0.1726 0.0831,-0.0937 0.25394,-0.17135 0.37954,-0.17257 0.12559,-0.001 0.25203,-0.0289 0.28095,-0.0615 0.0289,-0.0326 0.39588,-0.22119 0.81544,-0.4191 1.36557,-0.64416 2.32388,-1.1162 2.63793,-1.2994 0.16933,-0.0988 0.54652,-0.2863 0.83824,-0.41671 0.29172,-0.13041 0.5571,-0.26721 0.58975,-0.30401 0.0327,-0.0368 0.0743,-0.0174 0.0924,0.0432 0.0207,0.069 0.0405,0.0669 0.0531,-0.005 0.0171,-0.0986 0.21777,-0.23183 0.88392,-0.58877 0.17032,-0.0911 0.21642,-0.12274 0.34212,-0.23409 0.0701,-0.0621 0.0707,-0.009 0.002,0.14314 -0.13842,0.30499 -0.40024,0.4938 -0.52769,0.3807 -0.0536,-0.0476 -0.10532,-0.0416 -0.11488,0.0134 -0.01,0.055 -0.14027,0.17163 -0.29091,0.25882 -0.3897,0.22635 -0.33165,0.30396 0.12782,0.17093 0.36269,-0.10503 0.39947,-0.0978 0.46523,0.0909 0.0714,0.20506 0.0683,0.4212 -0.007,0.48079 -0.0221,0.0174 -0.0271,0.16443 -0.0112,0.32666 0.0159,0.16224 0.003,0.32451 -0.0294,0.36062 -0.0321,0.0361 -0.0801,0.35439 -0.10688,0.70731 m -0.48772,2.49418 c -0.0836,0.0447 -0.19923,0.073 -0.25695,0.063 -0.0577,-0.01 -0.13294,0.0133 -0.16717,0.0519 -0.0343,0.0386 -0.0263,0.068 0.0177,0.0653 0.0439,-0.003 0.0888,0.0775 0.1,0.17765 0.011,0.10029 0.13054,0.31473 0.26559,0.47641 l 0.24555,0.29398 -0.0264,-0.60474 c -0.0232,-0.53269 -0.0445,-0.59507 -0.17836,-0.52353 z m -0.76617,-0.28475 c -0.18972,-0.12143 -0.86198,-0.28455 -0.91707,-0.22248 -0.0575,0.0648 0.37883,0.26212 0.57538,0.2602 0.11787,-0.001 0.18751,0.0281 0.15472,0.0651 -0.0328,0.037 0.005,0.1 0.0834,0.13991 0.24417,0.12402 0.33693,-0.0933 0.10361,-0.24271 z m 0.10483,-1.18268 c -0.25662,-0.0265 -0.48759,-0.0246 -0.51326,0.004 -0.0257,0.029 -0.0829,0.0217 -0.12734,-0.0159 -0.0442,-0.0379 -0.35985,-0.063 -0.70109,-0.0562 -0.34122,0.007 -0.64535,-0.01 -0.67584,-0.0368 -0.0305,-0.0271 -0.22712,-0.0418 -0.43695,-0.0327 l -0.38152,0.0165 0.29334,0.17969 c 0.49238,0.30161 1.24096,0.36504 0.92998,0.0788 -0.098,-0.0897 -0.0748,-0.10355 0.15885,-0.094 0.1502,0.006 0.37251,0.0139 0.49398,0.0174 0.12148,0.003 0.48186,0.0135 0.80083,0.0224 0.71128,0.0198 0.78474,-0.0188 0.15897,-0.0835 z m 0.83149,-0.73674 0.003,-0.24942 -0.5028,-0.11198 c -0.27654,-0.0616 -0.59026,-0.0781 -0.69716,-0.0367 -0.10692,0.0414 -0.68769,0.10308 -1.29066,0.13703 -0.60297,0.034 -1.25172,0.1265 -1.44166,0.20567 -0.42293,0.17627 -0.47293,0.22806 -0.18264,0.18924 0.12193,-0.0163 0.66739,-0.0162 1.21214,3e-4 0.54475,0.0165 1.11974,0.0281 1.27776,0.0259 0.15803,-0.002 0.57103,0.0332 0.91779,0.0787 0.34676,0.0455 0.64647,0.0665 0.66603,0.0467 0.0192,-0.0201 0.0368,-0.14829 0.0384,-0.28546 z m 0.12227,-0.83447 c 0.008,-0.10204 -0.0174,-0.21351 -0.056,-0.24777 -0.0394,-0.035 -0.0115,-0.0927 0.0638,-0.13179 0.0895,-0.0464 0.0962,-0.076 0.0204,-0.0893 -0.0729,-0.0127 -0.0711,-0.0418 0.005,-0.0813 0.0652,-0.0339 0.13966,-0.14984 0.16551,-0.25762 0.0464,-0.19403 0.0437,-0.19564 -0.25488,-0.1501 -0.29602,0.0451 -0.66351,0.16066 -0.72257,0.2272 -0.0165,0.0185 0.12041,0.063 0.30406,0.0989 l 0.33395,0.0652 -0.26112,0.10498 c -0.14363,0.0577 -0.43237,0.0923 -0.64166,0.0767 -0.34368,-0.0256 -0.95992,0.16968 -0.95206,0.30163 0.002,0.0291 0.30093,0.0541 0.66488,0.0555 0.77268,0.003 1.11707,0.0798 1.05099,0.23439 -0.0521,0.12178 0.10778,0.16651 0.20061,0.0561 0.0361,-0.0422 0.0713,-0.16067 0.0791,-0.26268 z m -1.60158,0.0755 c -0.10009,-0.0238 -0.27187,-0.0221 -0.3817,0.004 -0.10986,0.0262 -0.20602,0.0168 -0.21376,-0.0208 -0.008,-0.0376 -0.0167,-0.0372 -0.0199,9.1e-4 -0.003,0.0381 -0.0802,0.0844 -0.17072,0.10319 -0.0907,0.0186 0.0818,0.0256 0.38328,0.0157 0.60364,-0.02 0.67458,-0.0382 0.40288,-0.10308 z m 0.90821,-1.28508 c -0.054,-0.009 -0.12775,0.0172 -0.16404,0.0592 -0.0396,0.0458 -0.008,0.0601 0.0798,0.0358 0.18659,-0.0519 0.20605,-0.0738 0.0843,-0.095 z m -0.44059,0.18165 c -0.2299,0.046 -0.46067,0.25704 -0.30973,0.28333 0.0548,0.01 0.10524,-0.0148 0.11208,-0.0541 0.007,-0.0393 0.0754,-0.0895 0.15218,-0.11182 0.22785,-0.0657 0.26481,-0.16131 0.0455,-0.11739 z m -1.15225,0.61218 c -0.0673,-0.0597 -0.73485,0.23391 -0.72966,0.32093 0.002,0.0352 0.15834,0.008 0.34721,-0.0609 0.38571,-0.14028 0.46026,-0.19095 0.38245,-0.26 z m 2.87099,-1.07461 c -0.22471,0.17548 -0.23224,0.17492 -0.14132,-0.0115 0.0634,-0.1299 0.15604,-0.20054 0.27185,-0.2075 0.0967,-0.006 0.16024,-5.8e-4 0.14132,0.0115 -0.0188,0.0122 -0.1413,0.10544 -0.27184,0.2075 z"
       style="display:inline;fill:#ffffff"
       id="arrow-sx2" />
  </g>
</svg>
