<?xml version="1.0" encoding="UTF-8" standalone="no"?>
<!-- Created with Inkscape (http://www.inkscape.org/) -->

<svg
   width="42.756741mm"
   height="30.829491mm"
   viewBox="0 0 42.756741 30.829491"
   version="1.1"
   id="svg1"
   xmlns="http://www.w3.org/2000/svg"
   xmlns:svg="http://www.w3.org/2000/svg">
  <defs
     id="defs1" />
  <g
     id="layer1"
     transform="translate(-44.475291,-112.02902)">
    <g
       id="g1">
      <path
         d="m 64.64102,136.12727 c -2.081032,-1.29019 -5.257085,-1.76293 -5.988721,-1.42549 -0.390984,0.18034 -0.377219,0.56103 -0.497681,1.05624 m 16.345605,-22.43997 -1.618668,0.14721 v 0.14721 l 1.47151,0.44146 0.14721,-0.73576 m -0.441474,7.94622 c -1.273706,-0.16685 -2.290741,-1.213 -3.279343,-1.96205 -1.708818,-1.2947 -3.51,-2.61827 -5.402631,-3.62975 l 0.294298,0.44146 -0.14721,0.14721 -1.618667,-1.03007 0.294298,-0.73576 c 2.555633,0.74101 4.638182,2.70207 6.769009,4.22474 0.923217,0.65972 1.944632,1.6235 3.090194,1.8085 -0.0087,-0.6897 0.151555,-1.70354 -0.112971,-2.34694 -0.343519,-0.83623 -2.540998,-2.36949 -3.418767,-2.50908 l 0.14721,-0.44146 3.090195,1.47153 c -0.176826,-1.54155 -2.573378,-1.95965 -3.237352,-3.3845 l -8.681975,0.44146 v 0.73575 h -0.14721 v -0.58861 l -1.618667,1.76583 c 1.408072,-0.46032 2.983914,0.92274 4.120247,1.64115 3.202905,2.0249 6.059289,5.27231 9.564905,6.74652 v 0.29431 c -1.182929,0.33567 -2.615612,-1.14556 -3.531651,-1.80919 -2.570724,-1.86235 -5.270977,-4.796 -8.387676,-5.69557 2.039355,2.66477 5.69729,4.96757 8.387676,6.97065 1.123367,0.83637 2.52805,1.62491 3.384493,2.74139 -1.20236,0.0537 -2.348687,-1.20467 -3.237353,-1.91355 -2.30607,-1.83957 -4.642909,-3.9815 -7.210447,-5.44406 0.448739,0.9557 1.413703,1.60469 2.207282,2.27178 1.456562,1.22438 2.955573,2.54716 4.561709,3.56729 1.042428,0.6621 2.46423,1.30001 3.090195,2.40146 -1.631929,0.0895 -3.443986,-1.75738 -4.56386,-2.796 -1.677452,-1.55577 -3.601819,-2.89811 -5.442484,-4.25029 -0.956917,-0.70298 -1.966653,-1.68207 -3.090194,-2.07716 l -0.14721,5.73894 v 2.20728 l 1.765825,0.88291 3.531651,2.2073 1.471527,1.32437 0.441456,-0.2943 v -0.14721 c -1.534495,-1.30977 -3.612225,-3.57783 -5.591775,-4.12026 l -0.14721,-0.73578 0.441457,0.14721 -1.324369,-2.64873 c 4.641253,2.19972 9.040093,6.10212 12.802239,9.56489 -0.813687,0.13905 -1.302748,-0.28828 -1.907196,-0.79762 -1.362657,-1.14833 -3.22463,-2.34042 -4.273198,-3.7641 l -0.882913,-0.73577 -4.561721,-2.79588 c 0.740291,1.58746 2.47511,2.58897 3.825967,3.60159 2.609255,1.95597 5.466225,3.82579 7.799061,6.11047 l -1.324369,-0.14721 1.471527,1.47153 -1.765825,-0.44146 v 0.14721 l 1.912966,0.88291 c 0.619829,-1.96008 0.538855,-4.28845 0.554097,-6.3281 0.02086,-2.78055 0.196153,-5.61329 0.03459,-8.38711 m 0,-6.47471 h -0.441456 l 0.14721,0.29432 h 0.14721 l 0.14721,-0.29432 m -0.588736,8.24044 c -1.164176,-0.39718 -3.620202,-1.57153 -3.678791,-2.94305 -0.737163,-0.0156 -1.726564,-0.52815 -1.765825,-1.32437 l -0.735778,-0.14721 -0.14721,-0.58861 6.474693,4.41456 -0.14721,0.58861 m 0.14721,-3.53165 c -0.825176,0.0369 -1.420864,-0.50291 -2.060124,-0.97546 -1.401398,-1.03596 -4.255141,-2.3372 -4.856025,-4.02771 0.902778,0.10063 1.348081,0.70655 2.060025,1.20095 1.501125,1.04243 4.039064,2.1139 4.856124,3.80222 m -0.588545,11.33073 -0.14721,0.14721 c -1.639298,-0.52346 -4.238502,-2.55742 -5.003178,-4.12028 -0.873932,-0.13122 -3.126837,-1.72036 -3.237358,-2.64874 -0.862143,-0.0645 -1.535746,-0.55024 -1.912965,-1.32437 l -1.912914,-1.03005 0.14721,-0.44146 h 0.294298 c 1.587053,1.7706 4.92382,2.52355 6.033231,4.70888 l 0.294316,-0.14721 1.618673,1.32437 3.825949,3.53167 m 0,-1.91299 -0.294298,0.14721 c -2.810652,-0.75508 -5.396497,-3.80704 -7.796333,-5.43646 -0.919568,-0.62435 -2.38741,-1.38866 -2.945783,-2.36261 -0.850794,-0.10637 -1.364674,-0.67854 -1.618667,-1.47153 l 3.531077,2.24317 6.035965,4.4912 3.088039,2.38907 m -0.588701,-15.59813 h -1.177229 v 0.14721 l 0.441457,0.44146 0.735772,-0.5886 m -0.883191,20.454 -0.882913,-0.5886 v 0.14721 l 0.735755,0.58862 0.14721,-0.14721 m -0.14721,1.03007 -1.765825,-1.91299 c -1.336987,-0.57337 -4.061769,-2.0717 -4.708867,-3.38449 -0.383077,0.0122 -1.761846,-0.54271 -1.471527,-0.88293 v -0.14721 c -0.440084,0.0733 -1.581891,-0.14721 -1.471527,-0.5886 l -2.354423,-0.73577 -0.588614,6.03327 h 0.294299 l 0.294315,-0.73578 3.678792,1.03007 v -0.14721 l -3.237335,-1.32436 0.14721,-0.5886 8.093377,3.67879 v -0.14721 l -2.943042,-1.76583 -0.14721,-0.14721 0.14721,-0.29429 -0.441456,0.14721 0.14721,-0.5886 4.708885,2.64874 -0.441457,-0.88292 -0.588614,-0.44145 -0.441456,0.14721 -0.14721,-0.73576 c 0.789511,0.58394 2.242129,1.82789 3.237352,1.76583 m -0.735755,-19.57126 -0.14721,0.29432 h -0.14721 l 0.294716,-0.29432 m -0.441509,-0.14721 c -0.726108,-0.14443 -1.28137,-0.51306 -1.618685,-1.17722 h 0.14721 l 1.471527,1.17722 m -1.17735,-0.88296 -0.14721,0.14721 0.14721,-0.14721 m -1.030192,18.8356 -0.294321,0.2943 h -0.14721 l -2.648738,-2.35442 H 64.34636 v -0.14721 l 0.294299,-0.14721 -1.177211,-0.5886 -1.030071,-0.29431 c 0,-0.77198 -1.83041,-0.51199 -1.471509,-1.61869 l 1.912966,1.17723 0.588614,0.73577 c 0.861935,0.0181 2.337111,0.88655 2.50158,1.76583 0.689524,-0.0269 1.146726,0.28081 1.471527,0.88291 l 0.588619,0.2943 m -0.588619,-0.2943 v 0 M 67.142257,118.46821 66.7008,118.321 l 0.14721,-0.44145 -0.294298,-0.14721 h -0.735755 v -0.14721 c 0.724475,-0.076 1.055133,0.22875 1.324369,0.88291 m 0,-3.53165 -0.14721,0.14721 0.14721,-0.14721 m -1.177281,2.50158 -2.060123,-1.03006 -0.735755,-0.73577 v -0.44145 l 1.324369,1.17722 0.294298,0.14721 1.177211,0.88292 m -0.245251,-1.07912 -0.09802,-0.049 0.09802,0.049 m -0.490469,13.14561 -0.14721,0.14721 0.14721,-0.14721 m -0.14721,-12.94941 -0.14721,0.14721 0.14721,-0.14721 m -0.294298,16.18677 -1.324369,-1.03007 v 0.29449 l -2.648738,-1.61867 -1.324369,-0.14721 v -0.44146 c 1.11572,-0.55785 3.531146,1.32418 4.267405,1.61869 0.573963,0.22957 0.831624,0.82215 1.177229,0.73575 l -0.14721,0.58862 m 0.969692,2.13218 -5.658028,-1.78686 -0.546276,1.13051 8.511683,1.65557 m -3.71858,-2.10135 -0.588614,-0.14721 v 0.14721 h 0.588614 m -0.882495,-18.24687 -0.14721,0.14721 0.14721,-0.14721 m -0.441457,3.38449 h -0.294246 v 0.2943 h 0.294298 v -0.2943 m 0,-3.82595 -1.177211,-0.29431 0.14721,-0.44146 1.030071,0.73577 m -0.588614,-0.29431 -0.14721,0.14721 0.14721,-0.14721 m -0.267725,3.93332 -2.099872,-1.88502 -0.133827,0.60045 2.141081,1.68637 m -0.96387,6.40701 -1.177211,-0.44146 c 0.396911,-0.12566 0.498255,-0.12514 0.588614,0.2943 l 0.441456,-0.2943 0.147211,0.44146 m -0.588597,-9.12343 -0.588615,-0.58861 v 0.73573 l 0.588615,-0.14721"
         style="display:inline;fill:#000000;stroke:none;stroke-width:1.73802"
         id="carousel-3" />
      <path
         d="m 44.475301,127.19598 h 0.67733 c 0.093,0.2812 0.21931,0.31644 0.508,0.33867 0.22785,-0.44378 0.73008,-0.41211 1.185,-0.42392 0.82943,-0.0215 1.82005,0.0337 2.62128,-0.18142 0.31649,-0.085 0.41484,-0.4272 0.0766,-0.58189 -0.31163,-0.14253 -0.68574,0.035 -1.00423,0.0545 -0.33431,0.0204 -0.67885,-0.0521 -1.016,-0.0526 -0.48777,-7.8e-4 -0.95505,-0.0464 -1.43934,-0.0847 l 0.14575,-2.79367 -0.22316,-0.88861 0.92408,-0.079 2.70933,0.0359 0.0847,-0.0847 -0.0847,-0.33867 -0.67733,0.0847 -0.0847,-0.42334 1.10067,0.0847 c -0.0786,-0.47083 -0.50839,-0.48877 -0.93127,-0.5044 -0.96044,-0.0355 -2.12239,-0.10789 -3.04806,0.16573 -0.18304,-0.32345 -0.56749,-0.5034 -0.59267,0 l -0.59267,0.254 c 0.17587,0.22036 0.48562,0.39207 0.57555,0.66754 0.28174,0.86296 -0.0844,2.18098 -0.20096,3.0578 -0.038,0.28579 0.0271,0.65218 -0.0869,0.91886 -0.15831,0.37028 -0.5581,0.31044 -0.62631,0.77447 m 5.08005,-4.82566 0.0847,0.0847 -0.0847,-0.0847 m 1.69381,6.09601 c 0.66528,0.47857 1.68829,0.19839 2.45566,0.10851 1.63122,-0.19106 3.1915,-0.10851 4.82567,-0.10851 -0.19194,-0.58405 -1.33616,-0.48539 -1.86266,-0.508 v -0.0847 l 1.86266,-0.254 -0.0847,-0.42333 c -1.2169,0.0855 -2.50923,0.11421 -3.72534,0.1451 -0.30877,0.008 -0.96792,0.23339 -1.22316,0.0465 -0.36401,-0.2666 -0.0532,-1.55228 -0.0477,-1.9708 0.0248,-1.9192 -0.25921,-3.83849 -0.16842,-5.75609 0.69499,0.21111 1.25177,-0.05 1.94733,-0.0813 0.5364,-0.0241 1.07562,0.13118 1.60834,0.0721 0.33288,-0.0369 0.45713,-0.18505 0.50833,-0.49872 l 1.43933,-0.33867 c -0.35171,-0.50167 -1.15122,-0.32663 -1.69333,-0.33991 -1.16586,-0.0285 -2.30533,-0.10215 -3.47133,0.003 -0.65993,0.0597 -0.83311,-0.16359 -1.43934,0.25182 l 0.16934,0.42334 0.254,-0.0847 0.007,6.604 -0.0805,1.34709 0.0777,0.78205 -1.35872,0.66486 m 2.20144,-9.56727 0.254,0.0847 v 0.0847 l -0.254,0.0847 v -0.254 m 4.82519,22.94484 -0.0847,0.42334 c 1.72925,0.40142 4.29147,-1.07037 3.76069,-3.13568 -0.14125,-0.54953 -0.7088,-0.77755 -1.05135,-1.18232 -0.89945,0.33287 -1.82235,0.41228 -2.60049,1.0582 -0.932,0.7736 -1.34336,2.21704 -0.0242,2.83646 m -0.42314,-1.35477 c 0.36889,-0.69444 1.50298,-1.31566 2.20133,-1.66139 0.33118,-0.16395 0.70521,-0.29475 0.93135,0.0527 -1.05122,0.18971 -2.11255,1.67229 -3.13268,1.60867 m 0.16933,0.508 c 1.07992,-0.66107 2.2138,-1.66224 3.47135,-1.94734 -0.63112,0.69106 -1.7517,1.05882 -2.52904,1.59718 -0.29743,0.20599 -0.582,0.56654 -0.94231,0.35016 m 1.10067,-4.826 0.0847,0.59266 c 0.28794,-0.17656 0.32791,-0.34692 0.33866,-0.67733 l 10.32935,0.0813 2.36942,0.16704 0.71549,0.16797 0.21709,-0.75502 h 0.0847 c -0.0201,0.47595 -0.18653,1.1219 0.254,1.43934 l 0.0847,-3.556 h -0.16933 c 0.38895,-1.31586 -0.0674,-2.9245 -0.01,-4.282 0.14172,-3.33482 0.52691,-6.71053 0.85537,-10.02758 0.0755,-0.76318 -0.0576,-1.64017 0.11327,-2.37732 0.21903,-0.94465 0.85825,-2.14962 0.5651,-3.1251 l 0.508,-0.0847 v -0.16933 l -2.37067,-0.26837 -4.01526,-0.40053 -8.68474,-0.51643 c -0.1365,-0.82071 -0.57337,0.002 -0.59268,0.42333 -0.19368,-0.0298 -0.69352,-0.16061 -0.78304,0.10387 -0.10279,0.30369 0.62506,0.49531 0.69288,0.83118 0.20553,1.0177 0.17388,2.35219 0.0758,3.38295 -0.42745,4.49143 -0.71533,9.14644 -0.61607,13.63891 0.0207,0.9343 -0.14368,1.8634 -0.16665,2.78642 -0.0251,1.00869 0.19507,2.02785 -0.98092,2.286 0.18372,0.49969 0.6467,0.47286 1.10067,0.33867 m -0.59258,5.24942 c 0.80568,-0.6867 2.00028,-1.55342 3.04801,-1.778 -0.32393,0.81806 -1.25793,0.91865 -1.94734,1.32298 -0.33342,0.19554 -0.69805,0.52518 -1.10067,0.45502 m 0.93134,-12.446 h 0.0847 v 0.762 l -0.0847,-0.762 m 0,12.78467 1.35467,-0.67734 c -0.2294,0.41924 -0.86825,0.82117 -1.35467,0.67734 m 0.33866,-10.83734 0.16934,-0.84666 h 0.0847 c 0.0817,0.89039 -0.23713,2.10631 0.25401,2.87866 0.42454,-1.56154 0.10637,-3.39603 0.0856,-4.99657 -0.0496,-3.81517 -0.27003,-7.52508 -0.008,-11.34409 0.0694,-1.01282 -0.12895,-2.14918 0.0922,-3.13267 l 6.86132,0.83106 6.43134,0.0156 c -0.27653,2.41829 -0.28831,4.88642 -0.44268,7.31727 -0.15131,2.38287 -0.43919,4.76991 -0.47873,7.16073 -0.0266,1.61093 0.0894,3.2113 0.0391,4.826 -0.0171,0.55 0.0532,1.44234 -0.22492,1.93478 -0.39266,0.69529 -2.23174,0.0282 -2.87213,0.0137 -2.4852,-0.0562 -4.96526,-0.0858 -7.45061,-0.0858 -0.57108,0 -2.21118,0.35129 -2.66159,-0.0173 -0.29133,-0.23839 0.046,-0.86216 0.0704,-1.16814 0.056,-0.70322 -10e-4,-1.41468 0.0656,-2.11661 0.0383,-0.40294 0.19515,-0.90762 -0.0144,-1.27 m 0.0847,-5.334 h 0.0847 l 0.0847,3.72534 c -0.38531,-0.9162 -0.39736,-2.76753 -0.16933,-3.72534 m 0,-0.16933 0.0847,0.0847 -0.0847,-0.0847 m 0.16933,4.14867 h 0.0847 v 0.42333 l -0.0847,-0.42333 m 0.42335,-16.67933 h 0.59266 v 0.0847 0.0847 l -0.59266,-0.16933 m 0.67737,0 1.43933,0.0847 v 0.0847 h -1.43933 v -0.16933 m 3.78814,29.20206 c 0.25917,0.62339 1.29408,0.80873 1.8845,0.762 1.34894,-0.10678 3.13084,-1.92854 2.55502,-3.39307 -0.29494,-0.75016 -1.34216,-0.94116 -2.04702,-0.78845 -1.25512,0.27192 -2.98638,1.99095 -2.3925,3.41952 m 2.1385,-1.43143 v 0.0847 l -1.524,0.84666 c 0.17772,-0.57754 0.98028,-0.81515 1.524,-0.93133 m -1.43934,0 1.10067,-0.508 v 0.0847 l -1.10067,0.42333 m 0.76203,1.60867 c 0.5851,-0.52647 1.32104,-0.94654 2.11667,-1.016 -0.44121,0.62593 -1.29875,1.35921 -2.11667,1.016 m 0.0565,-2.59644 0.0564,0.0282 -0.0564,-0.0282 m 0.19679,-25.93639 h 2.62467 v 0.0847 l -2.62467,-0.0847 m 0.59267,25.56933 0.16933,-0.0847 -0.16933,0.0847 m 0.254,0.508 0.93133,-0.42333 -0.0847,-0.16933 0.0847,-0.0847 c 0.40047,0.15569 0.9981,0.74314 0.25361,0.91722 -0.2954,0.0691 -0.90229,-0.1299 -1.18494,-0.23989 m 0,-0.67733 0.0847,0.0847 -0.0847,-0.0847 m 0.31045,-0.0564 0.0564,0.0282 -0.0564,-0.0282 m 1.04422,1.41111 -0.16934,0.254 0.16934,-0.254 m 0.59266,-27.26267 0.0847,0.0847 -0.0847,-0.0847 m 0.33873,0.0847 0.67733,0.0847 v 0.0847 l -0.67733,-0.16933 m 0.762,0.0847 h 0.508 v 0.0847 l -0.508,-0.0847 m 4.23333,28.10933 c -0.081,-0.5788 0.14482,-1.04163 -0.11118,-1.60867 -0.11915,-0.26388 -0.25675,-0.50711 -0.49037,-0.68537 -2.27612,-1.73689 -5.05776,3.65069 -1.93845,3.49041 0.34177,-0.0176 0.68746,0.009 1.016,-0.10491 0.61743,-0.21449 0.95926,-0.79805 1.524,-1.09146 m -1.52406,-0.93142 v 0.0847 c -0.53293,0.33633 -1.48873,1.11809 -2.11666,1.016 0.31865,-0.66311 1.41548,-1.03907 2.11666,-1.10067 m -1.69334,1.52396 c 0.69133,-0.59471 1.81973,-1.08579 2.70933,-1.27 -0.31655,0.52872 -2.08797,1.28998 -2.70933,1.27 m 1.01604,0.0847 1.10067,-0.42333 c -0.26901,0.31376 -0.68343,0.58451 -1.10067,0.42333 m 0.254,-2.11667 c 0.54279,-0.67047 1.14424,-0.64437 1.524,0.16934 l -0.0847,0.0847 -1.43933,-0.254 m 0.508,0.42334 0.0847,0.0847 -0.0847,-0.0847 m 0.16933,-0.0847 0.0847,0.0847 -0.0847,-0.0847 m 0.16934,-20.574 h 0.0847 v 0.93136 l -0.0847,-0.93133 m 0,-0.16933 0.0847,0.0847 -0.0847,-0.0847 m 0.0847,9.73666 0.254,0.254 c 1.5837,-0.29401 4.27931,-0.34047 5.588,0.508 l 0.34735,-0.68413 -0.25987,-0.75429 -0.15778,-2.54091 -0.1837,-6.68867 -0.254,-0.16933 h -0.0847 c -0.29348,0.35316 -0.35182,0.63211 -0.0847,1.016 -1.08583,-0.009 -2.58734,-0.54204 -3.62773,-0.25158 -0.57402,0.16024 0.16946,0.49774 0.4104,0.50558 0.26646,1.68524 2.50841,-0.25943 3.13711,0.52852 0.25939,0.32509 6.8e-4,1.43375 -0.0291,1.84215 -0.12071,1.65733 0.21062,3.34825 0.0295,4.995 -0.10104,0.91844 -2.10796,0.48216 -2.79884,0.51166 -0.4457,0.019 -0.97867,0.0428 -0.93133,0.58934 -0.4728,0.001 -1.00862,-0.0161 -1.35467,0.33866 m 0,-9.99066 0.0847,0.0847 -0.0847,-0.0847 m 0,-0.762 h 0.0847 v 0.33866 l -0.0847,-0.33866 m 0.33867,-4.40267 h 0.42333 l -0.508,2.286 0.0847,-2.286 m 3.52775,14.92912 0.0564,0.0282 -0.0564,-0.0282 m 0.36689,-0.11289 h 0.762 v 0.0847 l -0.762,-0.0847 m 3.97934,-6.43426 1.43933,0.47554 1.94734,-0.22154 0.0459,1.693 -0.29986,2.96367 0.33866,0.33866 c -1.06308,-0.0457 -1.91411,-0.21087 -2.96333,0.0847 l 0.0847,0.67733 1.01932,0.1259 2.19801,-0.29523 0.508,0.33867 -0.0847,-0.33867 1.016,-0.254 -0.0847,-0.33867 -0.92571,-0.43934 -0.0903,-1.50799 v -3.556 l 0.59266,-0.0847 c -0.21315,-0.38658 -0.60688,-0.36434 -1.01567,-0.33017 -0.70943,0.0593 -1.40698,0.3293 -2.11699,0.38185 -0.62041,0.0459 -1.14889,-0.27668 -1.60867,0.28699"
         style="display:inline;fill:#000000;stroke:none"
         id="carousel-2" />
    </g>
  </g>
</svg>
