<?xml version="1.0" encoding="UTF-8" standalone="no"?>
<!-- Created with Inkscape (http://www.inkscape.org/) -->

<svg
   width="15.164324mm"
   height="14.42971mm"
   viewBox="0 0 15.164324 14.42971"
   version="1.1"
   id="svg1"
   xmlns="http://www.w3.org/2000/svg"
   xmlns:svg="http://www.w3.org/2000/svg">
  <defs
     id="defs1" />
  <g
     id="layer1"
     transform="translate(-50.535414,-95.77875)">
    <path
       d="m 65.54023,97.599775 c -0.14902,0.06619 -0.1526,0.08923 -0.0313,0.200913 0.20216,0.186205 0.12826,0.3098 -0.18418,0.308131 -0.2259,-0.0013 -0.30399,0.04693 -0.4309,0.265668 -0.0852,0.146925 -0.32831,0.373308 -0.54012,0.503061 -0.2118,0.129762 -0.50605,0.35474 -0.65388,0.499948 -0.14782,0.145218 -0.42971,0.367934 -0.62642,0.494929 -0.19671,0.127005 -0.44277,0.327145 -0.54682,0.444775 -0.18832,0.21292 -0.41244,0.37939 -0.94419,0.70136 -0.15363,0.093 -0.36694,0.24301 -0.47403,0.33331 -0.10708,0.0903 -0.21996,0.16798 -0.25082,0.17263 -0.0309,0.004 -0.13731,0.0966 -0.23651,0.20435 -0.0992,0.10774 -0.24226,0.22788 -0.31786,0.26699 -0.0757,0.0391 -0.13329,0.10881 -0.12815,0.15492 0.005,0.0461 -0.061,0.13223 -0.14715,0.1914 -0.13219,0.0909 -0.15192,0.0836 -0.1271,-0.0467 0.0172,-0.09 -0.01,-0.069 -0.0647,0.0504 -0.0518,0.11266 -0.12337,0.18133 -0.15927,0.15262 -0.0359,-0.0287 -0.0599,0.002 -0.0533,0.0671 0.01,0.0983 -0.005,0.0987 -0.0837,0.002 -0.0769,-0.0943 -0.0916,-0.0791 -0.0753,0.0773 0.0109,0.10696 -0.0166,0.17689 -0.0619,0.15544 -0.0453,-0.0214 -0.0915,-0.007 -0.10298,0.0316 -0.041,0.13979 -0.77336,0.7817 -0.85024,0.74524 -0.0433,-0.0205 -0.0286,0.0603 0.0327,0.17966 0.15806,0.30794 0.81263,1.21244 0.91128,1.25921 0.0455,0.0215 0.0904,0.10863 0.0998,0.19351 0.009,0.0849 0.0764,0.16979 0.14879,0.1887 0.0724,0.0189 0.13931,0.10183 0.14871,0.18424 0.009,0.0825 0.16198,0.27617 0.33906,0.43054 0.28724,0.2504 0.86112,0.91891 1.20525,1.404 0.0687,0.0968 0.12158,0.1418 0.11763,0.10007 -0.004,-0.0417 0.11905,0.063 0.27335,0.23276 0.15431,0.16974 0.55605,0.50453 0.89277,0.74399 0.33671,0.23945 0.63967,0.49673 0.67321,0.57174 0.0337,0.075 0.17563,0.14849 0.31572,0.1633 0.23931,0.0253 0.37738,0.17011 0.18284,0.19177 -0.049,0.005 -0.0595,0.0478 -0.0233,0.094 0.0463,0.0591 -0.20693,0.097 -0.85396,0.12767 -0.5059,0.0239 -1.07233,0.0511 -1.25873,0.0602 -0.35073,0.0172 -0.49326,-0.005 -0.96948,-0.15124 -0.20146,-0.0619 -0.28671,-0.0583 -0.30187,0.0126 -0.0118,0.0555 -0.0885,0.0812 -0.175,0.0585 -0.0845,-0.0221 -0.13613,-0.0775 -0.11449,-0.1232 0.0217,-0.0457 -0.009,-0.17673 -0.0675,-0.29126 -0.0759,-0.14803 -0.1683,-0.20138 -0.31933,-0.18457 -0.11685,0.013 -0.21666,-0.0142 -0.22182,-0.0605 -0.005,-0.0463 0.0452,-0.0902 0.11189,-0.0977 0.0667,-0.007 0.13839,-0.0497 0.15935,-0.0939 0.0456,-0.0963 -0.23563,-0.62181 -0.47855,-0.89411 -0.0957,-0.10717 -0.42459,-0.56891 -0.73101,-1.02608 -0.75096,-1.12038 -1.27963,-1.81566 -1.37269,-1.8053 -0.0422,0.005 -0.13652,0.0885 -0.20944,0.18643 -0.0729,0.0979 -0.27071,0.31468 -0.43951,0.48188 -0.16881,0.16719 -0.5283,0.56509 -0.79886,0.88419 -0.61718,0.72795 -1.13905,1.30079 -1.73649,1.9061 -0.25653,0.2599 -0.46298,0.50332 -0.45879,0.54092 0.004,0.0376 -0.0519,0.075 -0.12464,0.0831 -0.0856,0.01 -0.11939,0.0809 -0.0958,0.20234 0.0743,0.38275 0.0541,0.42205 -0.20349,0.39967 -0.18762,-0.0162 -0.32103,0.0468 -0.55469,0.2623 -0.51517,0.47511 -0.60926,0.1282 -0.183,-0.67464 0.15524,-0.29238 0.24632,-0.5276 0.20242,-0.52272 -0.0439,0.005 -0.099,0.0494 -0.12247,0.0989 -0.0235,0.0495 -0.10681,0.0958 -0.18526,0.10294 -0.11567,0.0109 -0.1087,-0.0222 0.0372,-0.17407 0.0989,-0.10287 0.22223,-0.16694 0.27418,-0.14231 0.0539,0.0256 0.0651,0.007 0.0262,-0.0426 -0.10638,-0.13574 0.0802,-0.46072 0.21399,-0.37273 0.0739,0.0486 0.12532,0.0415 0.15526,-0.0213 0.0246,-0.0518 -0.004,-0.0894 -0.0656,-0.0833 -0.0717,0.007 -0.0817,-0.0141 -0.0282,-0.0608 0.0452,-0.0394 0.13365,-0.16858 0.19661,-0.28693 0.12777,-0.24024 1.55139,-2.16471 2.43898,-3.29703 0.66909,-0.85359 0.69406,-0.70714 -0.29836,-1.74996 -0.35575,-0.3738 -0.71028,-0.77519 -0.78786,-0.89197 -0.0776,-0.11678 -0.1624,-0.22913 -0.18848,-0.24965 -0.0262,-0.0205 -0.20009,-0.20557 -0.38667,-0.41122 -0.18659,-0.20565 -0.45048,-0.48295 -0.58642,-0.61623 -0.40741,-0.39941 -0.76923,-0.854364 -0.78735,-0.989973 -0.01,-0.07004 -0.0947,-0.201829 -0.18958,-0.292781 -0.23731,-0.227408 -1.38815,-0.896131 -1.51743,-0.881737 -0.0579,0.0065 -0.13483,-0.04566 -0.17106,-0.115714 -0.0913,-0.176432 -0.0884,-0.195869 0.0312,-0.211568 0.11324,-0.01462 0.34232,-0.559964 0.31991,-0.76114 -0.008,-0.06747 0.0599,-0.130949 0.14983,-0.140963 0.09,-0.01005 0.28432,-0.108927 0.43202,-0.21977 0.21699,-0.16289 0.25638,-0.240846 0.20528,-0.406208 -0.0451,-0.145974 -0.0263,-0.208755 0.0658,-0.219002 0.0709,-0.0079 0.14684,0.0242 0.16858,0.07129 0.0219,0.04727 0.10471,0.05203 0.18499,0.0105 0.10545,-0.0545 0.12561,-0.128356 0.0733,-0.268603 -0.0791,-0.212145 0.0264,-0.268615 0.20922,-0.111937 0.135,0.115694 0.45785,0.03657 0.71678,-0.175788 0.28394,-0.232796 0.4219,-0.06135 0.27987,0.347789 -0.0709,0.204093 -0.0793,0.34068 -0.0225,0.367533 0.0936,0.0444 0.10112,0.190702 0.0226,0.444974 -0.0313,0.101382 0.0727,0.278778 0.32822,0.559781 0.20573,0.226236 0.65937,0.762916 1.0081,1.192641 0.34871,0.429725 0.67101,0.815533 0.71621,0.857349 0.10937,0.10115 -0.0476,-0.21832 -0.16861,-0.343282 -0.0512,-0.05286 -0.0649,-0.09926 -0.0304,-0.103099 0.0345,-0.0038 0.0124,-0.05552 -0.0491,-0.114742 -0.0784,-0.0756 -0.0866,-0.127427 -0.0274,-0.173655 0.0462,-0.03624 0.0795,-0.03381 0.0739,0.0055 -0.006,0.03928 0.0967,0.209658 0.22728,0.378698 0.27538,0.356328 0.37192,0.66147 0.16653,0.526366 -0.10759,-0.07083 -0.10765,-0.05071 -4.9e-4,0.129283 0.07,0.117228 0.16133,0.209358 0.20291,0.204728 0.0416,-0.005 0.061,0.0224 0.0431,0.06 -0.0179,0.0376 0.034,0.1373 0.11491,0.22147 0.13999,0.14536 0.14304,0.14074 0.0607,-0.0921 -0.0477,-0.13477 -0.12839,-0.26476 -0.17915,-0.28887 -0.0631,-0.0299 -0.067,-0.0638 -0.0119,-0.106787 0.045,-0.0352 0.14182,0.07124 0.2198,0.241757 0.0766,0.1676 0.20529,0.34815 0.28582,0.40123 0.12904,0.0851 0.1234,0.0942 -0.0474,0.0771 -0.2237,-0.0224 -0.2335,0.10427 -0.0251,0.32424 0.0901,0.0951 0.13713,0.10838 0.12912,0.0364 -0.0131,-0.11564 0.35056,0.17422 0.38565,0.3076 0.0427,0.16245 0.0656,0.20273 0.22032,0.38839 0.0893,0.1072 0.22481,0.30296 0.30108,0.43503 0.18579,0.32168 0.57552,0.64813 0.61098,0.51179 0.015,-0.0576 0.084,-0.0899 0.1532,-0.0718 0.0692,0.0182 0.12167,-0.005 0.11636,-0.0532 -0.005,-0.0474 -0.059,-0.1 -0.11949,-0.11688 -0.0958,-0.0268 0.11942,-0.10375 0.27954,-0.10014 0.031,5.6e-4 0.0832,-0.11555 0.11589,-0.25838 0.0326,-0.14282 0.10138,-0.26437 0.15279,-0.27009 0.0514,-0.006 0.0714,0.0363 0.0444,0.0935 -0.0311,0.0656 -0.0147,0.0768 0.0444,0.0305 0.0514,-0.0403 0.17074,-0.23205 0.26497,-0.42601 0.0943,-0.19397 0.23295,-0.35954 0.30825,-0.36792 0.0753,-0.008 0.18414,-0.0876 0.24186,-0.176 0.0995,-0.1525 0.10334,-0.15269 0.0738,-0.004 -0.0181,0.0918 0.002,0.13175 0.0463,0.0963 0.0426,-0.0333 0.0693,-0.13417 0.0592,-0.22399 -0.0104,-0.0898 0.024,-0.16804 0.0755,-0.17377 0.0516,-0.006 0.20315,-0.16736 0.33688,-0.35917 0.24979,-0.358277 0.94655,-1.033696 0.95821,-0.928874 0.004,0.0322 0.074,-0.04989 0.15625,-0.182489 0.0823,-0.132613 0.20378,-0.247144 0.26984,-0.254498 0.0661,-0.0074 0.11576,-0.05244 0.11043,-0.100237 -0.005,-0.0478 0.0549,-0.12156 0.13374,-0.163964 0.29788,-0.160182 1.09016,-1.043126 1.12256,-1.250996 0.0186,-0.119202 0.0572,-0.257676 0.086,-0.307733 0.0856,-0.149101 0.19949,-0.777105 0.17045,-0.939338 -0.0553,-0.309384 0.21284,-0.280601 0.62282,0.06683 0.22311,0.189066 0.47758,0.348015 0.56549,0.35322 0.20992,0.01245 0.308,0.127707 0.27111,0.31865 -0.0476,0.246553 0.55596,0.685064 0.83022,0.603143 0.25868,-0.0773 0.29704,-0.02039 0.058,0.08582 z m -1.33152,0.422319 -0.21476,-0.211164 -0.23368,0.196643 -0.23368,0.196633 0.21155,-0.01285 c 0.11635,-0.007 0.25813,-0.02471 0.31522,-0.03811 0.0569,-0.01439 0.11017,0.03311 0.11811,0.104543 0.008,0.07146 0.0713,0.123579 0.14069,0.115855 0.17325,-0.01928 0.14839,-0.10376 -0.10338,-0.351356 z m -0.69057,-1.573946 c -0.0358,-0.02862 -0.055,0.03953 -0.0427,0.151375 0.012,0.111864 -0.0426,0.342424 -0.12184,0.512337 l -0.14416,0.308948 0.18289,-0.15527 c 0.1006,-0.08535 0.16597,-0.212005 0.14529,-0.281353 -0.0207,-0.06933 -0.005,-0.151971 0.0359,-0.183621 0.0804,-0.06299 0.048,-0.269882 -0.0553,-0.352422 z m -0.0463,2.221302 c -0.12792,0.0082 -0.17728,0.0288 -0.10984,0.04493 0.0883,0.02126 0.0695,0.06722 -0.067,0.164046 -0.22214,0.157556 -0.0815,0.165424 0.21718,0.01215 0.27011,-0.138639 0.2515,-0.240395 -0.0404,-0.221107 z m -0.60543,0.491696 c -0.0617,0.0771 -0.10924,0.16655 -0.10567,0.198662 0.004,0.0321 0.0582,0.0049 0.12107,-0.06036 0.063,-0.06538 0.11055,-0.154743 0.10567,-0.198662 -0.005,-0.04393 -0.0593,-0.01674 -0.12107,0.06036 z m -0.4444,0.384281 c -0.0976,0.08391 -0.31322,0.309486 -0.47928,0.501383 -0.37232,0.43028 -0.0701,0.25786 0.42493,-0.24243 0.33568,-0.339235 0.37706,-0.536404 0.0544,-0.258957 z m 0.51843,9.354263 c 0.0275,-0.0582 0.009,-0.0683 -0.0458,-0.0252 -0.12255,0.096 -0.0132,0.22423 0.16374,0.19214 0.12621,-0.0231 0.12503,-0.0279 -0.0114,-0.0477 -0.084,-0.0122 -0.13189,-0.0658 -0.10654,-0.11921 z m -1.17851,0.236 c -0.0695,0.008 -0.122,0.0519 -0.11684,0.0982 0.005,0.0463 0.0661,0.0779 0.13558,0.0701 0.0695,-0.008 0.12201,-0.0519 0.11686,-0.0982 -0.005,-0.0463 -0.0662,-0.0778 -0.1356,-0.0701 z m -0.35631,-0.36924 c -0.1352,-0.10811 -0.25022,-0.105 -0.23781,0.006 0.005,0.0446 0.0893,0.11329 0.18736,0.15252 0.19638,0.0785 0.22693,-0.0182 0.0504,-0.15896 z m -0.80794,-0.52342 c -0.0526,-0.0644 -0.0914,-0.0793 -0.0863,-0.033 0.005,0.0463 0.0523,0.13686 0.105,0.20128 0.0526,0.0645 0.0914,0.0793 0.0863,0.033 -0.005,-0.0463 -0.0523,-0.13687 -0.10501,-0.20129 z m -1.70085,-5.43317 c -0.10666,0.0119 -0.4934,0.4079 -0.44002,0.45059 0.0249,0.02 0.0917,-0.001 0.14842,-0.0462 0.10115,-0.0811 0.14371,-0.10042 0.30954,-0.14014 0.10131,-0.0243 0.0842,-0.2756 -0.018,-0.26422 z m -2.66771,1.44356 c -0.14931,-0.0708 -0.16006,0.009 -0.0156,0.11508 0.0714,0.0524 0.12567,0.0583 0.12063,0.0129 -0.005,-0.0454 -0.0523,-0.10297 -0.1051,-0.12797 z M 55.836,102.91634 c -0.42037,-0.46242 -0.52332,-0.46466 -0.16015,-0.004 0.17329,0.22007 0.34813,0.4158 0.38854,0.43496 0.15298,0.0725 0.0459,-0.12968 -0.2284,-0.43147 z m 0.0489,1.83656 c -0.0767,0.0527 -0.20537,0.18775 -0.28605,0.30013 -0.14285,0.19899 -0.13911,0.19822 0.14316,-0.0293 0.29047,-0.23417 0.4048,-0.45085 0.14289,-0.27079 z m -0.89717,-2.65784 c -0.0395,0.0472 0.23018,0.35767 0.30356,0.34951 0.0373,-0.004 -0.0105,-0.0909 -0.10589,-0.19285 -0.0956,-0.1019 -0.18449,-0.17241 -0.1977,-0.15666 z m -1.96459,-5.647638 c -0.13164,0.06808 -0.15144,0.218045 -0.027,0.204188 0.0639,-0.0071 0.10081,-0.07088 0.14321,-0.247545 0.003,-0.01058 -0.0499,0.0086 -0.11624,0.04332 z m -0.45587,0.386826 c -0.0728,0.03768 -0.1286,0.102261 -0.124,0.14359 0.0131,0.114812 0.24328,0.06348 0.27264,-0.06074 0.035,-0.147886 0.007,-0.163396 -0.14865,-0.08286 z m -0.96594,1.335677 c -0.0204,0.0023 -0.0563,0.04461 -0.0798,0.0941 -0.0235,0.04951 -0.003,0.08551 0.0464,0.08005 0.049,-0.0054 0.0849,-0.0478 0.0798,-0.0941 -0.005,-0.04631 -0.026,-0.08232 -0.0465,-0.08006 z"
       style="display:inline;fill:#ffffff"
       id="close1" />
  </g>
</svg>
