<?xml version="1.0" encoding="UTF-8" standalone="no"?>
<!-- Created with Inkscape (http://www.inkscape.org/) -->

<svg
   width="16.772795mm"
   height="17.698132mm"
   viewBox="0 0 16.772795 17.698132"
   version="1.1"
   id="svg1"
   xmlns="http://www.w3.org/2000/svg"
   xmlns:svg="http://www.w3.org/2000/svg">
  <defs
     id="defs1" />
  <g
     id="layer1"
     transform="translate(-96.837504,-139.7)">
    <path
       d="m 113.59362,142.17795 c -0.0105,0.0123 -0.0384,0.23199 -0.0619,0.48811 -0.0505,0.55059 -0.22978,1.20226 -0.35483,1.28987 -0.0488,0.0342 -0.0623,0.0628 -0.0298,0.0635 0.0938,0.002 -0.87351,1.79772 -1.11813,2.07563 -0.082,0.0931 -0.17346,0.25003 -0.20328,0.34866 -0.0298,0.0986 -0.12945,0.24742 -0.2214,0.33063 -0.0919,0.0832 -0.16717,0.20253 -0.16717,0.26516 0,0.0626 -0.0355,0.11388 -0.079,0.11388 -0.0434,0 -0.10078,0.0687 -0.12744,0.15273 -0.0978,0.30814 -0.72189,0.85726 -1.09941,0.96734 -0.3581,0.10442 -1.58174,1.07636 -2.15343,1.71046 -0.12307,0.13651 -0.34759,0.38258 -0.49893,0.54681 -0.15134,0.16423 -0.27516,0.32284 -0.27516,0.35246 0,0.0296 -0.0919,0.16082 -0.20424,0.29155 -0.23994,0.27923 -0.29243,0.38635 -0.60181,1.22798 -0.12838,0.34925 -0.41568,0.99695 -0.63846,1.43934 -0.22277,0.44238 -0.42677,0.87342 -0.45333,0.95786 -0.0282,0.0897 -0.0892,0.12826 -0.14665,0.0928 -0.0596,-0.0368 -0.0756,-0.0239 -0.0405,0.0328 0.0318,0.0515 -0.0164,0.25737 -0.10709,0.45758 -0.15919,0.35139 -0.28119,0.69589 -0.30883,0.87203 -0.007,0.0466 -0.0231,0.12276 -0.0352,0.16933 -0.012,0.0466 -0.0274,0.16087 -0.0341,0.254 -0.008,0.10781 -0.0833,0.17942 -0.20795,0.19708 -0.16887,0.0239 -0.18831,0.0618 -0.14144,0.27517 0.0424,0.19322 0.0246,0.24742 -0.0815,0.24742 -0.0823,0 -0.15528,-0.0972 -0.18514,-0.2465 -0.0287,-0.1436 -0.1162,-0.264 -0.20955,-0.28841 -0.12216,-0.0319 -0.16026,-0.11927 -0.16027,-0.36733 -10e-6,-0.20095 -0.0968,-0.50355 -0.25304,-0.7911 -0.13916,-0.25611 -0.46703,-0.8998 -0.72859,-1.43041 -0.26156,-0.53061 -0.59919,-1.14021 -0.75029,-1.35467 -0.25509,-0.36206 -1.06206,-1.93062 -1.06206,-2.0644 0,-0.0327 -0.20553,-0.43127 -0.45673,-0.88579 -0.2512,-0.45452 -0.50603,-0.96797 -0.5663,-1.14101 -0.0871,-0.24999 -0.13312,-0.29508 -0.22419,-0.21949 -0.18427,0.15293 -0.31595,-0.0388 -0.18924,-0.2756 0.0859,-0.16054 0.0801,-0.20978 -0.0345,-0.29359 -0.0757,-0.0554 -0.13772,-0.16821 -0.13772,-0.25071 0,-0.25274 -0.7057,-1.30707 -1.30055,-1.94304 -0.20998,-0.22449 -0.60147,-0.93365 -0.55112,-0.99832 0.01,-0.0125 -0.0251,-0.10246 -0.0773,-0.20003 -0.12929,-0.24159 -0.19667,-0.64249 -0.0977,-0.58133 0.0437,0.027 0.0794,-0.0294 0.0794,-0.12528 0,-0.0959 0.0422,-0.17433 0.0937,-0.17433 0.0516,0 0.0709,0.0596 0.0429,0.13237 -0.0599,0.15613 0.16511,0.62963 0.29922,0.62963 0.0661,0 0.0654,-0.033 -0.002,-0.11487 -0.0542,-0.0654 -0.0727,-0.22783 -0.0429,-0.37694 0.0461,-0.23047 0.0261,-0.26865 -0.16554,-0.31676 -0.2063,-0.0518 -0.21109,-0.0652 -0.0898,-0.25022 0.0705,-0.10754 0.0956,-0.21559 0.056,-0.24011 -0.11115,-0.0687 -0.24617,0.0497 -0.31767,0.27852 l -0.0648,0.20728 -0.1526,-0.18845 c -0.15864,-0.19592 -0.15694,-0.35537 0.0132,-1.23332 0.0973,-0.50191 0.43998,-1.21191 0.70572,-1.46202 0.10708,-0.10077 0.38085,-0.2843 0.60839,-0.40783 0.22754,-0.12354 0.55228,-0.30578 0.72164,-0.40499 0.28746,-0.16838 0.33238,-0.1723 0.67577,-0.059 0.53379,0.17616 1.18872,0.64912 2.07646,1.49952 0.15799,0.15134 0.27189,0.27516 0.25312,0.27516 -0.0188,0 0.098,0.14288 0.25957,0.3175 0.16153,0.17463 0.36538,0.45629 0.453,0.62591 0.0876,0.16962 0.31302,0.43997 0.50089,0.60079 0.18787,0.16081 0.34159,0.31847 0.34159,0.35035 0,0.0856 0.59188,0.59342 0.77351,0.66366 0.11903,0.046 0.18707,0.001 0.28391,-0.18579 0.1374,-0.26569 0.88592,-1.04274 1.69714,-1.76181 0.27781,-0.24625 0.92421,-0.68507 1.43644,-0.97516 0.51223,-0.29008 1.08427,-0.62633 1.27118,-0.74722 1.39085,-0.89949 2.64043,-1.15405 3.47828,-0.70856 0.21895,0.11642 0.44869,0.21167 0.51053,0.21167 0.14723,0 0.36507,0.33871 0.47524,0.73892 0.0777,0.28217 0.15483,1.25373 0.10428,1.31297 z m -0.46031,0.57104 c -0.0436,0.0689 -0.10351,0.26909 -0.13321,0.44486 -0.0297,0.17578 -0.0883,0.2984 -0.13019,0.2725 -0.0419,-0.0259 -0.0536,0.0118 -0.026,0.0838 0.0703,0.18325 0.18518,0.0872 0.27752,-0.23211 0.10942,-0.37838 0.11684,-0.73513 0.0118,-0.56907 z m -0.52421,-2.44574 c -0.3907,-0.24288 -0.45023,-0.25791 -0.56537,-0.14277 -0.11514,0.11514 -0.1115,0.1351 0.0345,0.18958 0.0898,0.0335 0.25845,0.12693 0.37487,0.20764 0.11642,0.0807 0.29739,0.17157 0.40217,0.20192 0.35647,0.10326 0.20633,-0.17508 -0.24618,-0.45637 z m -0.19333,4.22547 c -0.0205,0 -0.0609,0.0381 -0.0897,0.0847 -0.0288,0.0466 -0.012,0.0847 0.0373,0.0847 0.0493,0 0.0897,-0.0381 0.0897,-0.0847 0,-0.0466 -0.0168,-0.0847 -0.0373,-0.0847 z m -0.13173,-2.37066 c -0.0409,0 -0.0688,0.0743 -0.062,0.16501 0.009,0.12401 0.0394,0.14267 0.12081,0.0751 0.11094,-0.0921 0.0747,-0.24009 -0.0588,-0.24009 z m 0.0844,-0.59267 c -0.0466,0 -0.0847,0.054 -0.0847,0.12008 0,0.066 -0.0262,0.18986 -0.0582,0.27516 -0.0512,0.13653 -0.0411,0.14118 0.0847,0.0389 0.15468,-0.12582 0.196,-0.43413 0.0582,-0.43413 z m -0.12613,3.47133 c -0.0785,0 -0.66147,0.93395 -0.61313,0.98229 0.0266,0.0266 0.10274,-0.0406 0.16915,-0.14944 0.0664,-0.10882 0.20217,-0.3312 0.30167,-0.49418 0.19696,-0.32261 0.20371,-0.33867 0.14231,-0.33867 z m -0.5533,-1.35466 c -0.0477,0 -0.12297,0.0953 -0.16723,0.21166 -0.0443,0.11642 -0.11508,0.21167 -0.15737,0.21167 -0.0423,0 -0.1004,0.0667 -0.12915,0.14817 -0.0287,0.0815 -0.0762,0.20109 -0.10552,0.26578 -0.10749,0.23737 0.12773,8.5e-4 0.38413,-0.38624 0.29298,-0.44233 0.29637,-0.45104 0.17514,-0.45104 z m -0.073,-1.13877 c -0.0413,0.0442 -0.10007,0.17568 -0.13053,0.2921 l -0.0554,0.21167 0.12753,-0.21167 c 0.14213,-0.2359 0.17921,-0.42142 0.0584,-0.2921 z m -0.17885,-2.58657 c -0.0466,0 -0.0847,0.0381 -0.0847,0.0847 0,0.0466 0.0381,0.0847 0.0847,0.0847 0.0466,0 0.0847,-0.0381 0.0847,-0.0847 0,-0.0466 -0.0381,-0.0847 -0.0847,-0.0847 z m -0.6985,5.67393 c -0.38418,0.37647 -0.98067,0.90168 -1.32554,1.16712 -1.12933,0.86923 -1.54781,1.29304 -1.12979,1.14422 0.2272,-0.0809 1.12382,-0.74051 1.50283,-1.1056 0.67552,-0.6507 1.651,-1.71522 1.651,-1.80169 0,-0.0487 -0.31433,0.21947 -0.6985,0.59595 z m 0.46567,-4.17605 c -0.22362,0.0803 -0.40599,0.30043 -0.42032,0.50727 l -0.0128,0.18481 0.18481,-0.18324 c 0.14693,-0.14569 0.31576,-0.3821 0.38817,-0.54356 0.005,-0.0102 -0.0584,0.005 -0.13986,0.0347 z m -0.10584,-0.60888 c -0.0937,0.0848 -0.15132,0.17324 -0.12804,0.19652 0.0233,0.0233 0.11901,-0.0271 0.21271,-0.11185 0.0937,-0.0848 0.15132,-0.17323 0.12804,-0.19652 -0.0233,-0.0233 -0.119,0.0271 -0.21271,0.11185 z m 0.10584,1.40009 c -0.0349,0.002 -0.15875,0.12838 -0.27517,0.28153 -0.25019,0.32912 -1.35503,1.5691 -1.77958,1.99727 -0.16386,0.16524 -0.35436,0.37599 -0.42334,0.46832 -0.1246,0.16678 -0.12376,0.16681 0.12859,0.006 0.29037,-0.18547 0.30223,-0.19569 0.88847,-0.76618 0.23927,-0.23283 0.53729,-0.58519 0.66228,-0.78301 0.12498,-0.19783 0.27353,-0.35975 0.3301,-0.35984 0.11004,-1.6e-4 0.29887,-0.28987 0.23232,-0.35642 -0.0219,-0.0219 0.0366,-0.10905 0.12997,-0.19359 0.17132,-0.15504 0.2236,-0.29942 0.10636,-0.29372 z m -0.32322,5.0721 c -0.15984,0.17692 -0.29062,0.34759 -0.29062,0.37927 0,0.0317 0.0901,-0.0396 0.20021,-0.15843 0.11012,-0.11881 0.23536,-0.21603 0.27832,-0.21603 0.043,0 0.0836,-0.0735 0.0904,-0.16324 0.009,-0.12512 -0.0556,-0.0881 -0.27831,0.15843 z m -0.0366,-2.66219 c -0.0466,0.0288 -0.0847,0.0904 -0.0847,0.137 0,0.0466 0.0381,0.0611 0.0847,0.0323 0.0466,-0.0288 0.0847,-0.0904 0.0847,-0.137 0,-0.0466 -0.0381,-0.0611 -0.0847,-0.0323 z m -0.38106,-0.59845 c -0.32648,0.36683 -0.34569,0.40107 -0.19044,0.3395 0.1013,-0.0402 0.48691,-0.53834 0.48677,-0.62885 -4e-5,-0.0239 -0.13339,0.10627 -0.29633,0.28935 z m -0.0985,1.0921 c -0.17087,0.17088 -0.34667,0.31069 -0.39065,0.31069 -0.044,0 -0.25671,0.1464 -0.47272,0.32533 -0.21602,0.17893 -0.66819,0.48495 -1.00483,0.68004 -0.33665,0.19509 -0.74618,0.47756 -0.91008,0.62771 l -0.29799,0.273 0.25392,0.11239 c 0.23826,0.10547 0.27612,0.0951 0.61374,-0.16854 0.37001,-0.28891 0.85115,-0.71533 1.45207,-1.28695 0.1885,-0.17931 0.41634,-0.3402 0.50632,-0.35752 0.25275,-0.0487 0.521,-0.34467 0.54197,-0.598 l 0.0189,-0.22883 z m -0.6528,-0.20136 c -0.12467,0.0474 -0.24881,0.14389 -0.27588,0.21444 -0.0271,0.0705 -0.11775,0.12827 -0.20149,0.12827 -0.0838,0 -0.3178,0.13187 -0.52011,0.29304 -0.20231,0.16117 -0.52024,0.40985 -0.70651,0.55263 -0.18627,0.14278 -0.66277,0.51574 -1.05889,0.8288 -0.39612,0.31306 -0.85435,0.66943 -1.01828,0.79193 -0.16392,0.12251 -0.49724,0.41778 -0.7407,0.65617 -0.44176,0.43256 -0.44216,0.43343 -0.1976,0.43343 0.13477,0 0.33499,-0.0781 0.44492,-0.17352 l 0.19988,-0.17352 -0.28448,0.13818 c -0.43709,0.21231 -0.26681,0.0466 0.51995,-0.50593 0.39401,-0.27671 0.78389,-0.60356 0.8664,-0.72632 0.0825,-0.12276 0.28744,-0.31336 0.4554,-0.42356 0.16797,-0.11021 0.3897,-0.27443 0.49273,-0.36496 0.10303,-0.0905 0.26131,-0.20691 0.35173,-0.25864 0.39084,-0.2236 1.67905,-1.10112 1.85781,-1.26553 0.22476,-0.20672 0.14406,-0.26998 -0.18488,-0.14491 z m 0.23872,-2.02412 c -0.0724,0.0601 -0.17281,0.18857 -0.22316,0.28554 -0.0817,0.15731 -0.0675,0.1542 0.13163,-0.029 0.23573,-0.21683 0.31652,-0.4433 0.0915,-0.25658 z m -0.12238,-1.00644 c -0.1397,0.10328 -0.25404,0.2092 -0.2541,0.23536 -6e-5,0.0262 -0.0989,0.16188 -0.21956,0.30158 -0.12069,0.1397 -0.3947,0.49213 -0.60889,0.78317 -0.21419,0.29104 -0.42019,0.52916 -0.45778,0.52916 -0.0376,0 -0.0683,0.0583 -0.0683,0.12966 0,0.0713 -0.0586,0.15213 -0.13014,0.17959 -0.0716,0.0275 -0.18954,0.16483 -0.26216,0.30526 l -0.13202,0.25531 0.26473,-0.18851 c 0.2529,-0.18008 2.07781,-2.50255 2.11737,-2.69467 0.003,-0.013 -0.10942,0.0608 -0.24912,0.16409 z m -0.0168,-1.03974 c -0.22189,0.0821 -0.30564,0.26435 -0.12146,0.26435 0.10108,0 0.28801,-0.19291 0.30502,-0.31477 0.001,-0.0101 -0.0812,0.0125 -0.18356,0.0504 z m -0.27099,2.65284 c -0.0652,0.0601 -0.10579,0.12251 -0.0903,0.13882 0.0477,0.0502 0.20876,-0.0771 0.20876,-0.16498 0,-0.0457 -0.0533,-0.0339 -0.11846,0.0262 z m -0.25258,-1.7456 c -0.0644,0.0247 -0.24534,0.20025 -0.40216,0.3901 -0.28068,0.3398 -0.38699,0.47828 -1.03416,1.34701 l -0.32569,0.43719 0.26219,-0.18669 c 0.14421,-0.10269 0.2625,-0.21268 0.26289,-0.24443 3.8e-4,-0.0318 0.1701,-0.22919 0.37715,-0.43874 0.20705,-0.20955 0.37819,-0.4217 0.38031,-0.47145 0.002,-0.0497 0.13716,-0.24025 0.30011,-0.42334 0.3141,-0.35292 0.37117,-0.48325 0.17936,-0.40965 z m -0.43534,-0.38719 c -0.071,0.0589 -0.11161,0.12453 -0.0903,0.14584 0.0587,0.0587 0.21935,-0.0606 0.21935,-0.16291 0,-0.0561 -0.0486,-0.0497 -0.12905,0.0171 z m -0.72507,0.89945 c -0.36165,0.24548 -0.67673,0.62285 -0.52003,0.62285 0.11191,0 0.96985,-0.77119 0.91687,-0.82417 -0.0223,-0.0223 -0.20087,0.0683 -0.39684,0.20132 z m 0.15283,2.4079 c -0.0132,0.0194 -0.0799,0.11148 -0.14817,0.20461 -0.1149,0.15664 -0.1131,0.16062 0.024,0.0531 0.0815,-0.0639 0.14816,-0.15599 0.14816,-0.20461 0,-0.0486 -0.0108,-0.0725 -0.024,-0.0531 z m -0.18771,-3.0896 c -0.11642,0.0763 -0.21167,0.17241 -0.21167,0.21362 0,0.0412 -0.0703,0.0749 -0.15621,0.0749 -0.0859,0 -0.22312,0.0739 -0.3049,0.1643 -0.14406,0.15918 -0.14191,0.16248 0.069,0.10583 0.18986,-0.051 0.81546,-0.5573 0.81546,-0.65996 0,-0.0206 -0.0953,0.025 -0.21166,0.10128 z m -0.6946,6.93854 c -0.17677,0.13277 -0.34045,0.26245 -0.36374,0.2882 -0.0233,0.0257 -0.0968,0.0586 -0.16339,0.0731 -0.15018,0.0325 -0.59861,0.34703 -0.59861,0.41979 0,0.0294 0.0457,0.008 0.1016,-0.0481 0.14006,-0.14006 0.26517,-0.12762 0.20825,0.0207 -0.0545,0.14213 0.53443,-0.21355 0.98175,-0.59287 0.3921,-0.3325 0.24834,-0.47185 -0.16586,-0.16078 z m -0.57173,-4.36764 c -0.69234,0.68772 -1.0224,0.84801 -0.92217,0.44785 l 0.0582,-0.23254 -0.33187,0.29013 c -0.36017,0.31486 -1.28,1.2872 -1.45851,1.54177 -0.19526,0.27845 0.028,0.16859 0.37092,-0.18254 0.18281,-0.18718 0.58003,-0.49776 0.88272,-0.69018 0.30268,-0.19242 0.57832,-0.3917 0.61253,-0.44285 0.0342,-0.0512 0.0628,-0.06 0.0635,-0.0198 7.2e-4,0.0403 0.0952,0.0117 0.20999,-0.0635 0.26072,-0.17082 0.47542,-0.18141 0.25199,-0.0124 -0.0904,0.0684 -0.12925,0.12552 -0.0864,0.127 0.10132,0.004 0.38767,-0.25586 0.38767,-0.35113 0,-0.0405 0.13335,-0.26744 0.29633,-0.50438 0.16299,-0.23694 0.29634,-0.45414 0.29634,-0.48267 0,-0.0285 -0.2841,0.23032 -0.63133,0.57523 z m 0.50318,3.72898 c -0.0703,0 -0.41775,0.20565 -0.47214,0.27941 -0.0275,0.0373 -0.12961,0.0737 -0.22697,0.0811 -0.0974,0.007 -0.15835,0.0435 -0.13555,0.0804 0.0367,0.0594 -0.15506,0.10448 -0.32836,0.0771 -0.0349,-0.006 -0.0635,0.02 -0.0635,0.0567 0,0.0367 -0.25718,0.23672 -0.5715,0.4445 -0.46519,0.30751 -0.53675,0.38273 -0.3847,0.40436 0.11562,0.0164 0.36426,-0.10453 0.65255,-0.3175 0.25615,-0.18924 0.50548,-0.34407 0.55403,-0.34407 0.0486,0 0.0883,-0.0407 0.0883,-0.0904 0,-0.0516 0.0721,-0.0675 0.16805,-0.037 0.19222,0.061 0.76328,-0.32627 0.76328,-0.51764 0,-0.0643 -0.0196,-0.11695 -0.0435,-0.11695 z m -0.18835,-2.17513 c -0.10908,0.10909 -0.11531,0.14313 -0.0262,0.14313 0.18256,0 -0.49509,0.56784 -1.01196,0.84798 -0.25612,0.13882 -0.66907,0.38764 -0.91767,0.55293 -0.2486,0.1653 -0.42227,0.25109 -0.38592,0.19065 0.0687,-0.1142 -0.21422,0.0781 -0.31346,0.21308 -0.0793,0.1078 0.0171,0.4814 0.12409,0.481 0.0528,-2e-4 0.26045,-0.1095 0.4615,-0.24289 0.35502,-0.23553 0.60175,-0.43328 1.45664,-1.16743 0.22566,-0.1938 0.49278,-0.37854 0.5936,-0.41054 0.14617,-0.0464 0.1759,-0.1087 0.14672,-0.30754 -0.0201,-0.13715 -0.002,-0.27055 0.0396,-0.29645 0.0419,-0.0259 0.0537,-0.0696 0.0262,-0.0971 -0.0275,-0.0275 -0.11439,0.0144 -0.19311,0.0931 z m -0.41198,-0.16554 c -0.49684,0.29177 -0.99038,0.732 -0.82065,0.732 0.049,0 0.13793,-0.0589 0.19766,-0.13085 0.0597,-0.072 0.1605,-0.11093 0.22394,-0.0866 0.14499,0.0556 1.06195,-0.644 0.96764,-0.73831 -0.0382,-0.0382 -0.29404,0.0625 -0.56859,0.22375 z m -0.24524,-0.40321 c -0.11642,0.0763 -0.21167,0.15254 -0.21167,0.16947 0,0.0169 0.0953,-0.0126 0.21167,-0.0657 0.11642,-0.053 0.21167,-0.12931 0.21167,-0.16947 0,-0.0402 -0.0953,-0.0106 -0.21167,0.0657 z m -0.0228,-1.90026 c -0.30136,0.21463 -0.69688,0.56908 -0.69688,0.62453 0,0.0304 0.11192,-0.0338 0.24872,-0.1427 0.13679,-0.10891 0.34894,-0.26844 0.47145,-0.35451 0.12251,-0.0861 0.20356,-0.17568 0.1801,-0.19914 -0.0235,-0.0234 -0.11498,0.009 -0.20339,0.0718 z m -0.20913,6.94456 c -0.23611,0.16813 -0.2516,0.19964 -0.11143,0.22664 0.0896,0.0172 0.21297,-0.0372 0.27425,-0.12103 0.19228,-0.26296 0.12209,-0.30848 -0.16282,-0.10561 z m -0.0257,-6.2243 c -0.0719,0.0276 -0.11249,0.0683 -0.0903,0.0905 0.0222,0.0222 0.081,0.0152 0.13065,-0.0155 0.13508,-0.0835 0.10884,-0.13228 -0.0404,-0.075 z m -0.38699,5.35294 c -0.19579,0.19192 -0.38801,0.34894 -0.42717,0.34894 -0.0391,0 -0.0712,0.0381 -0.0712,0.0847 0,0.0466 0.0391,0.0847 0.0869,0.0847 0.11737,0 0.87303,-0.76163 0.81411,-0.82055 -0.0257,-0.0257 -0.20685,0.11036 -0.40264,0.30228 z m -0.13853,-3.70199 c -0.22119,0.15137 -0.45251,0.32465 -0.51404,0.38507 -0.0615,0.0604 -0.14726,0.10986 -0.1905,0.10986 -0.17523,0 -0.21241,0.0165 -0.37496,0.16662 -0.0931,0.086 -0.32903,0.23878 -0.52422,0.33951 -0.20924,0.10798 -0.33789,0.22743 -0.31347,0.29106 0.0228,0.0593 -0.0937,0.211 -0.25895,0.337 -0.1652,0.126 -0.30036,0.28006 -0.30036,0.34234 0,0.10871 -0.80973,0.77932 -1.69303,1.40214 -0.23115,0.16298 -0.43841,0.34274 -0.46059,0.39945 -0.0597,0.15268 0.0908,0.21136 0.22063,0.086 0.20028,-0.19329 1.119,-0.86603 1.46733,-1.07447 0.3923,-0.23475 0.57076,-0.40279 0.71605,-0.67428 0.0732,-0.13683 0.1305,-0.16772 0.19371,-0.10451 0.10082,0.10082 0.16019,0.061 0.97973,-0.65753 0.28793,-0.25244 0.52351,-0.52686 0.52351,-0.60983 0,-0.083 0.20742,-0.31459 0.46094,-0.5147 0.5691,-0.44922 0.6143,-0.59745 0.0682,-0.22377 z m -1.80116,1.80907 c -0.14089,0.12751 -0.16734,0.13093 -0.16734,0.0217 0,-0.16255 0.22156,-0.35614 0.2868,-0.25058 0.0263,0.0426 -0.0274,0.14561 -0.11946,0.2289 z m 1.79824,3.70531 c -0.0831,0.0127 -0.46353,0.20624 -0.84542,0.43012 -0.38189,0.22389 -0.78063,0.41924 -0.88608,0.43412 -0.10546,0.0149 -0.39697,0.0687 -0.6478,0.11968 -0.59318,0.12048 -0.60228,0.11954 -0.60228,-0.0624 0,-0.17788 0.25422,-0.32937 0.66587,-0.3968 0.15667,-0.0257 0.4092,-0.0986 0.56116,-0.16211 0.30593,-0.12783 0.47828,-0.31554 0.23573,-0.25674 -0.28775,0.0698 -1.67481,0.56651 -1.73469,0.62125 -0.0332,0.0303 0.0374,0.17991 0.15681,0.33246 0.17781,0.22721 0.23943,0.2588 0.34075,0.17472 0.10489,-0.087 0.11505,-0.0682 0.0669,0.1238 -0.0367,0.14617 -0.0227,0.22645 0.0396,0.22645 0.0983,0 0.86234,-0.30289 1.50854,-0.59806 0.41586,-0.18995 0.47792,-0.20035 0.395,-0.0662 -0.0377,0.061 -0.0232,0.0747 0.0387,0.0365 0.0545,-0.0337 0.0789,-0.094 0.0542,-0.13398 -0.0247,-0.04 0.0309,-0.0968 0.12364,-0.12623 0.13389,-0.0425 0.68054,-0.60245 0.68054,-0.69711 0,-0.0124 -0.068,-0.0121 -0.15109,5.4e-4 z m -0.69558,-3.02978 c -0.14776,0.0764 -0.254,0.19901 -0.254,0.29311 0,0.14403 0.0267,0.13684 0.24396,-0.0657 0.32089,-0.29916 0.32491,-0.39026 0.01,-0.22743 z m -0.48683,5.35299 c -0.28316,0.10704 -0.6985,0.3792 -0.6985,0.45769 0,0.15496 0.2589,0.17458 0.47087,0.0357 0.17258,-0.11308 0.30383,-0.30117 0.37043,-0.53088 0.003,-0.0102 -0.0613,0.007 -0.1428,0.0375 z m -0.0783,-0.15633 c -0.17163,0.0998 -0.1167,0.12391 0.0962,0.0422 0.0757,-0.029 0.11974,-0.0706 0.0979,-0.0924 -0.0218,-0.0218 -0.10916,8e-4 -0.19415,0.0502 z m 0.0572,-8.45633 c -0.0466,0 -0.0847,0.0454 -0.0847,0.10085 0,0.0555 -0.0559,0.0269 -0.12431,-0.0635 -0.0684,-0.0904 -0.12557,-0.12625 -0.1271,-0.0797 -0.002,0.0466 -0.0985,0.19595 -0.21548,0.33196 -0.12913,0.15015 -0.19395,0.30629 -0.16502,0.39746 0.032,0.10068 -0.0235,0.19676 -0.16822,0.2916 -0.11873,0.0778 -0.21587,0.19165 -0.21587,0.25301 0,0.0614 -0.075,0.13535 -0.16659,0.16443 -0.23692,0.0752 -1.18808,0.78796 -1.18808,0.89031 0,0.047 0.18269,-0.0387 0.40598,-0.19033 0.72408,-0.49185 0.75504,-0.50296 0.81439,-0.29226 0.0438,0.1555 0.0649,0.16468 0.12945,0.0562 0.0424,-0.0713 0.0894,-0.17983 0.10448,-0.24126 0.0151,-0.0614 0.17103,-0.25512 0.34662,-0.43043 0.20222,-0.20191 0.30078,-0.36688 0.26887,-0.45005 -0.0326,-0.0849 0.0416,-0.19928 0.20991,-0.32375 0.25196,-0.18628 0.34868,-0.4146 0.17563,-0.4146 z m -0.10583,7.7385 c -0.27809,0.0495 -0.48457,0.15533 -0.44092,0.22595 0.0276,0.0446 0.15559,0.0228 0.29756,-0.0506 0.26242,-0.1357 0.32065,-0.20692 0.14336,-0.17535 z m -0.42867,-2.36558 c -0.57789,0.25557 -1.43227,0.73187 -1.38952,0.77462 0.0171,0.0171 0.45817,-0.18318 0.98024,-0.44499 0.98757,-0.49525 1.23576,-0.69513 0.40928,-0.32963 z m 0.44984,-0.80092 c -0.0466,0 -0.0847,0.0168 -0.0847,0.0373 0,0.0205 0.0381,0.0609 0.0847,0.0897 0.0466,0.0288 0.0847,0.012 0.0847,-0.0373 0,-0.0493 -0.0381,-0.0897 -0.0847,-0.0897 z m -0.0687,-0.67733 c -0.0378,0 -0.15911,0.0842 -0.26961,0.18717 -0.31128,0.29001 -1.51953,1.08156 -1.98701,1.30174 -0.31748,0.14953 -0.43796,0.17287 -0.49238,0.0954 -0.0422,-0.0601 -0.0478,-0.0148 -0.0137,0.10906 0.0321,0.11642 0.0707,0.22555 0.0858,0.24253 0.1154,0.12998 2.36412,-1.3189 2.58802,-1.6675 0.17581,-0.27374 0.17403,-0.26836 0.0888,-0.26836 z m -0.50203,5.77199 c -0.12764,-0.19685 -0.24493,-0.31933 -0.26064,-0.27218 -0.0157,0.0471 0.0477,0.1928 0.14087,0.32369 0.0932,0.13088 0.16286,0.30831 0.15481,0.39428 -0.008,0.086 0.033,0.17313 0.0912,0.19366 0.18189,0.0642 0.11706,-0.26423 -0.12624,-0.63945 z m 0.0416,-6.26977 c -0.10478,0.0555 -0.3084,0.19015 -0.45249,0.29931 -0.1441,0.10916 -0.30136,0.19847 -0.34947,0.19847 -0.0481,0 -0.13456,0.0567 -0.1921,0.12607 -0.0575,0.0693 -0.12888,0.1144 -0.15853,0.10015 -0.0296,-0.0142 -0.14567,0.0624 -0.25782,0.17027 -0.24743,0.23804 -0.13278,0.25709 0.16158,0.0268 0.11641,-0.0911 0.25462,-0.16641 0.30713,-0.16745 0.0525,-0.001 0.1429,-0.059 0.20087,-0.12888 0.058,-0.0699 0.17693,-0.127 0.26436,-0.127 0.0874,0 0.15897,-0.0445 0.15897,-0.0988 0,-0.0543 0.023,-0.0758 0.051,-0.0477 0.0281,0.0281 0.14117,-0.0513 0.25133,-0.17639 0.2499,-0.28377 0.2513,-0.29989 0.0151,-0.17487 z m -0.35484,4.64644 c -0.13484,0 -0.2606,0.15362 -0.18646,0.22776 0.0696,0.0696 0.30847,-0.0391 0.30847,-0.14043 0,-0.048 -0.0549,-0.0873 -0.12201,-0.0873 z m -0.2802,-8.5212 c -0.11778,-0.018 -0.24858,0.0724 -0.40885,0.28254 -0.12962,0.16994 -0.19836,0.28592 -0.15276,0.25774 0.0456,-0.0282 0.12812,-0.0233 0.18339,0.0109 0.0751,0.0464 0.0672,0.10962 -0.031,0.24983 -0.0723,0.10325 -0.16699,0.16579 -0.21037,0.13898 -0.0434,-0.0268 -0.0789,0.0128 -0.0789,0.088 0,0.12257 0.0282,0.12089 0.27089,-0.0162 0.58896,-0.33255 0.84884,-0.94753 0.42757,-1.01182 z m -0.0211,9.19854 c -0.0466,0 -0.0847,0.0404 -0.0847,0.0897 0,0.0493 0.0381,0.0661 0.0847,0.0373 0.0466,-0.0288 0.0847,-0.0691 0.0847,-0.0897 0,-0.0205 -0.0381,-0.0373 -0.0847,-0.0373 z m -0.86783,-6.13551 c -0.67858,0.42028 -1.65562,1.26961 -1.5649,1.36033 0.0319,0.0319 0.27286,-0.12846 0.53553,-0.35627 0.26268,-0.22782 0.73986,-0.61551 1.0604,-0.86154 0.32054,-0.24603 0.5828,-0.46428 0.5828,-0.48501 0,-0.0207 -0.27622,0.13339 -0.61383,0.34249 z m 0.21167,-3.18001 c -0.40416,0.46711 -0.50211,0.62817 -0.35153,0.57797 0.12152,-0.0405 0.6541,-0.73589 0.66341,-0.86619 0.003,-0.0433 -0.13726,0.0864 -0.31188,0.28822 z m -0.16934,1.80873 c -0.12806,0.0647 -0.28576,0.0988 -0.35045,0.0759 -0.0647,-0.0229 -0.094,-0.003 -0.0651,0.0433 0.0289,0.0467 -0.40324,0.51368 -0.96028,1.03766 -0.55704,0.52397 -0.99248,0.98556 -0.96765,1.02573 0.063,0.10197 0.38095,-0.12161 0.94862,-0.66709 0.26659,-0.25616 0.7133,-0.65663 0.9927,-0.88994 0.2794,-0.23332 0.53599,-0.46639 0.5702,-0.51795 0.12222,-0.1842 0.0612,-0.22327 -0.16804,-0.10754 z m 0.006,-2.42419 c -0.10482,0.0402 -0.12837,0.0197 -0.0905,-0.079 0.086,-0.22408 -0.035,-0.24076 -0.20237,-0.0279 -0.21219,0.26975 -0.19991,0.31394 0.0747,0.2688 0.12805,-0.0211 0.2614,-0.0414 0.29633,-0.0452 0.0349,-0.004 0.0635,-0.0439 0.0635,-0.089 0,-0.0451 -0.0638,-0.0575 -0.1417,-0.0276 z m -0.43346,0.50387 c -0.0835,0.0218 -0.56929,0.46358 -1.0795,0.98166 -0.51022,0.51808 -0.76054,0.81317 -0.55627,0.65576 0.35122,-0.27065 1.7876,-1.59802 1.7876,-1.65194 0,-0.0138 -0.0683,-0.007 -0.15183,0.0145 z m -0.22885,1.5836 c -0.0759,0.0291 -0.1173,0.0866 -0.0919,0.12762 0.0494,0.0799 -0.64349,0.749 -1.41668,1.36795 -0.26035,0.20841 -0.47517,0.42974 -0.47737,0.49183 -0.007,0.18395 0.10319,0.10242 1.2226,-0.90844 0.70263,-0.63449 1.0399,-0.99348 0.98497,-1.04841 -0.0459,-0.0459 -0.14566,-0.0597 -0.22159,-0.0306 z m 0.16901,-2.77044 c -0.0699,0.0268 -0.127,0.0874 -0.127,0.13471 0,0.0496 0.0538,0.0413 0.127,-0.0194 0.0698,-0.058 0.127,-0.11859 0.127,-0.13471 0,-0.0161 -0.0572,-0.007 -0.127,0.0194 z m -0.0883,4.3194 c -0.0719,0.0276 -0.11249,0.0683 -0.0903,0.0905 0.0222,0.0222 0.081,0.0152 0.13065,-0.0155 0.13509,-0.0835 0.10884,-0.13228 -0.0404,-0.075 z m -0.16568,-3.78079 c -0.0699,0.058 -0.12579,0.14836 -0.12431,0.20087 10e-4,0.0525 0.0586,0.0215 0.127,-0.0689 0.15969,-0.21113 0.15858,-0.26583 -0.003,-0.13199 z m -0.20384,1.78884 c -0.0888,0.0639 -0.54102,0.45906 -1.00486,0.87816 -0.79951,0.72238 -1.06345,1.05834 -0.83148,1.05834 0.0898,0 0.76411,-0.53217 1.10052,-0.86858 0.0642,-0.0642 0.23348,-0.21496 0.37623,-0.33508 0.14276,-0.12012 0.3153,-0.34612 0.38342,-0.50221 0.16209,-0.3714 0.16277,-0.36484 -0.0238,-0.23063 z m -0.27491,-1.24659 c -0.0583,-0.0361 -0.0748,-0.0234 -0.0409,0.0315 0.0312,0.0505 0.0181,0.11583 -0.0293,0.14508 -0.0473,0.0292 -0.0861,0.0905 -0.0861,0.13619 0,0.0909 0.24555,-0.0989 0.25078,-0.19384 0.002,-0.0322 -0.0408,-0.0857 -0.0945,-0.11892 z m -0.18954,-0.91211 c -0.24239,0.0191 -0.28093,-0.002 -0.24662,-0.13287 0.0784,-0.29997 -0.14279,-0.26333 -0.52231,0.0865 -0.21071,0.19423 -0.38325,0.39592 -0.38341,0.44819 -4.7e-4,0.14704 -0.60224,0.81861 -0.68674,0.76639 -0.0412,-0.0255 -0.075,0.01 -0.075,0.0786 0,0.0687 -0.0402,0.13833 -0.0893,0.1547 -0.0491,0.0164 -0.0978,0.0862 -0.10822,0.15522 -0.0104,0.069 -0.0507,0.17641 -0.0896,0.23868 -0.04,0.064 -0.0339,0.15003 0.014,0.19791 0.0565,0.0565 0.16542,-0.0203 0.32705,-0.23066 0.44607,-0.58043 1.15229,-1.30518 1.22689,-1.25908 0.0406,0.0251 0.0738,0.005 0.0738,-0.044 0,-0.0493 0.0399,-0.0897 0.0887,-0.0897 0.10001,0 -0.33632,0.66568 -0.55564,0.8477 -0.24686,0.20487 -0.90808,1.10754 -0.85222,1.1634 0.0591,0.0591 0.53987,-0.42047 1.22893,-1.22608 0.24807,-0.29002 0.48414,-0.50684 0.52461,-0.48183 0.0405,0.025 0.078,-0.0235 0.0834,-0.10769 0.008,-0.13232 0.0159,-0.13011 0.0542,0.0162 0.037,0.14096 0.0626,0.11967 0.15307,-0.127 0.16252,-0.44318 0.14933,-0.47934 -0.16574,-0.45453 z m -0.62944,-1.78963 c -0.0575,0.0575 0.14718,0.28087 0.44354,0.48385 0.2367,0.16211 0.2299,0.14582 -0.0716,-0.17173 -0.18324,-0.19297 -0.3506,-0.33342 -0.3719,-0.31212 z m -0.19019,-0.68932 c -0.23578,-0.11152 -0.82134,-0.24364 -0.75153,-0.16958 0.12589,0.13355 1.02418,0.47302 0.99222,0.37497 -0.0194,-0.0595 -0.12771,-0.15196 -0.24069,-0.20539 z m 0.0106,1.74815 c -0.0978,0 -0.55178,0.58142 -0.49686,0.63633 0.0501,0.0501 0.57722,-0.46278 0.57722,-0.56171 0,-0.041 -0.0362,-0.0746 -0.0804,-0.0746 z m -0.61814,-1.51805 c -0.0349,-0.003 -0.0635,0.0703 -0.0635,0.16338 0,0.19253 0.12244,0.21923 0.2911,0.0635 0.0958,-0.0885 0.0918,-0.11528 -0.0247,-0.16338 -0.0767,-0.0316 -0.16794,-0.0602 -0.20286,-0.0635 z m -0.0489,1.5793 c -0.12447,0.14951 -0.33141,0.39691 -0.45985,0.54979 -0.67027,0.7978 -0.78083,0.99834 -0.54963,0.99702 0.22359,-0.001 1.40502,-1.64558 1.27666,-1.77685 -0.0225,-0.023 -0.1427,0.0805 -0.26718,0.23004 z m 0.0443,3.24075 c -0.0142,0 -0.14714,0.12527 -0.29554,0.27837 -0.21681,0.2237 -0.24086,0.2804 -0.12244,0.28868 0.0862,0.006 0.2041,-0.10069 0.28408,-0.25721 0.0752,-0.14713 0.14187,-0.27703 0.14817,-0.28868 0.006,-0.0116 -1.2e-4,-0.0212 -0.0143,-0.0212 z m -0.20711,-3.75318 c -0.0815,0.0283 -0.18626,0.0971 -0.23283,0.15285 -0.0466,0.0557 -0.16374,0.14344 -0.26039,0.1949 -0.1921,0.10229 -0.48822,0.75288 -0.37463,0.82308 0.0934,0.0577 0.98535,-1.00184 1.01345,-1.20383 10e-4,-0.0102 -0.0641,0.005 -0.1456,0.033 z m -0.43978,-1.07535 c -0.18741,0.1003 -0.29655,0.24692 -0.23192,0.31155 0.0442,0.0442 0.39654,-0.27057 0.39654,-0.35433 0,-0.0249 -0.0741,-0.006 -0.16462,0.0428 z m -0.22988,4.97669 c -0.0461,-0.14061 -0.19817,-0.21128 -0.19817,-0.0921 0,0.075 0.42103,0.7906 0.46515,0.7906 0.0191,0 -0.0223,-0.12382 -0.0919,-0.27516 -0.0696,-0.15134 -0.1484,-0.34184 -0.17512,-0.42334 z m 0.22516,-0.48683 c -0.0707,-0.10945 -0.0823,-0.10721 -0.0834,0.0162 -7.1e-4,0.0787 0.0368,0.16672 0.0834,0.1955 0.10716,0.0662 0.10716,-0.0459 0,-0.21167 z m -0.31119,-4.75603 c -0.21634,0.11578 -0.49789,0.43803 -0.38271,0.43803 0.0974,0 0.6024,-0.44379 0.56185,-0.49369 -0.0125,-0.0154 -0.0931,0.01 -0.17914,0.0557 z m -0.15447,4.64075 c -0.0699,0.0268 -0.127,0.0637 -0.127,0.082 0,0.0183 0.0571,0.0333 0.127,0.0333 0.0699,0 0.127,-0.0369 0.127,-0.082 0,-0.0451 -0.0572,-0.0601 -0.127,-0.0333 z m -0.25211,-2.8077 c -0.3032,0.35435 -0.34567,0.51509 -0.0608,0.23026 0.1656,-0.1656 0.35069,-0.4434 0.34953,-0.52461 -3.4e-4,-0.0233 -0.13025,0.10917 -0.28869,0.29435 z m 0.0404,1.82231 c -0.0466,0 -0.0847,0.0403 -0.0847,0.0897 0,0.0493 0.0381,0.0661 0.0847,0.0373 0.0466,-0.0288 0.0847,-0.0691 0.0847,-0.0897 0,-0.0205 -0.0381,-0.0373 -0.0847,-0.0373 z m -0.17272,-2.90231 c -0.19619,0.0513 -0.41773,0.43004 -0.35501,0.60693 0.0229,0.0647 0.004,0.0944 -0.0417,0.0661 -0.0497,-0.0307 -0.0673,0.033 -0.0434,0.15754 0.022,0.11501 0.0515,0.20911 0.0655,0.20911 0.0887,0 0.37861,-0.60791 0.32857,-0.68887 -0.0412,-0.0666 -0.0245,-0.0765 0.0508,-0.03 0.081,0.05 0.0974,0.0309 0.0591,-0.0689 -0.0292,-0.076 -0.0166,-0.16069 0.0279,-0.18821 0.13373,-0.0827 0.0919,-0.11171 -0.0918,-0.0637 z m -0.0555,2.00165 c -0.0902,0.0902 -0.10599,0.31524 -0.0183,0.26107 0.0425,-0.0262 0.0772,-0.10898 0.0772,-0.18385 0,-0.0749 -0.0265,-0.10961 -0.0589,-0.0772 z"
       style="display:inline;fill:#000000"
       id="path1-2" />
  </g>
</svg>
