<?xml version="1.0" encoding="UTF-8" standalone="no"?>
<!-- Created with Inkscape (http://www.inkscape.org/) -->

<svg
   width="108.09106mm"
   height="23.999998mm"
   viewBox="0 0 108.09106 23.999998"
   version="1.1"
   id="svg1"
   xmlns="http://www.w3.org/2000/svg"
   xmlns:svg="http://www.w3.org/2000/svg">
  <defs
     id="defs1" />
  <g
     id="layer1"
     transform="translate(-35.189578,-132.82084)">
    <g
       id="g2"
       transform="translate(27.51666,45.77287)"
       style="display:inline">
      <path
         d="m 32.47981,104.2498 c -0.06312,0.49357 -0.190336,0.92259 -0.282705,0.95337 -0.09241,0.0307 -0.125656,0.12415 -0.07408,0.20775 0.105392,0.17044 -0.627097,1.64971 -1.032441,2.0852 -0.144856,0.15552 -0.263328,0.31908 -0.263328,0.3633 0,0.12928 -0.623049,0.85281 -1.365282,1.58546 -0.554873,0.5477 -0.904498,0.74227 -1.805787,1.00483 -1.599882,0.46612 -2.384579,0.55844 -2.486595,0.29256 -0.08406,-0.2191 -0.232441,-0.22035 -2.38298,-0.0198 -3.292404,0.30697 -4.231589,0.3596 -5.502727,0.30833 -0.786281,-0.0317 -2.716212,-0.10655 -4.288734,-0.16653 -2.818036,-0.10736 -3.655469,-0.14032 -4.7888466,-0.18886 -0.4516726,-0.0194 -0.5648248,-0.0792 -0.5264327,-0.27855 0.03896,-0.20228 0.2600084,-0.26508 1.0870815,-0.30883 1.3294898,-0.0704 1.7083628,-0.27716 3.1145958,-1.7005 1.243186,-1.25832 1.473155,-1.72129 1.790931,-3.60554 0.09081,-0.53797 0.225864,-1.18128 0.30028,-1.42957 0.07448,-0.2483 0.183953,-0.99319 0.243353,-1.65532 0.126016,-1.40358 0.127088,-12.181447 0.0016,-12.384944 -0.04672,-0.07568 -0.476401,-0.179728 -0.954642,-0.231056 -0.478248,-0.05136 -1.140417,-0.142072 -1.471482,-0.201464 -0.331048,-0.05936 -0.771209,-0.103672 -0.978129,-0.09823 -0.420961,0.0112 -1.3610899,0.34776 -1.6754343,0.600056 -0.1130322,0.09088 -0.3579525,0.211705 -0.5441687,0.268793 -0.4860887,0.14912 -0.4518727,-0.364065 0.05832,-0.874241 0.4083446,-0.408361 0.679177,-0.504673 2.612748,-0.929242 0.620736,-0.136312 1.365626,-0.306544 1.655298,-0.378336 0.518217,-0.12832 2.043947,-0.345785 2.633436,-0.375145 0.165472,-0.0096 0.387016,0.05008 0.492184,0.12992 0.348377,0.263977 1.446458,0.266425 2.802196,0.0064 1.266978,-0.243144 1.386954,-0.242824 2.257227,0.0048 0.505513,0.144472 1.22385,0.326368 1.59629,0.404288 0.998474,0.208904 2.701692,1.06301 3.362365,1.686098 0.820865,0.774193 1.859139,1.611963 1.997739,1.611963 0.326248,0 1.506402,1.538962 2.009267,2.620147 0.884369,1.901443 1.014105,2.214443 1.284081,3.098156 0.138984,0.455225 0.309313,0.996954 0.378345,1.203858 0.06896,0.20692 0.204056,0.748649 0.300064,1.203866 0.09598,0.455184 0.241169,1.088273 0.322521,1.406803 0.20132,0.7882 0.263776,2.68829 0.124232,3.77931 z m -0.448745,-0.89738 c -0.08282,0.0512 -0.140936,0.34294 -0.129032,0.64843 l 0.02136,0.55541 0.107704,-0.60193 c 0.05936,-0.33105 0.117312,-0.62285 0.129216,-0.64843 0.01248,-0.0256 -0.0464,-0.005 -0.129216,0.0466 z m 0.04672,-0.94053 c -0.03784,0.1448 -0.03784,0.38184 0,0.52669 0.03784,0.1448 0.0688,0.0262 0.0688,-0.26333 0,-0.28969 -0.03096,-0.40819 -0.0688,-0.26336 z m -1.85617,-2.972024 c -0.161385,-1.441538 -0.782993,-3.665901 -1.198482,-4.288734 -0.138088,-0.206888 -0.499169,-0.816337 -0.802537,-1.354321 -0.889585,-1.577523 -2.196947,-3.141909 -3.036492,-3.633429 -0.928882,-0.543841 -1.660307,-0.881026 -1.911091,-0.881026 -0.104688,0 -0.699337,-0.161744 -1.321562,-0.359272 -1.701562,-0.540337 -2.287979,-0.648809 -3.649621,-0.675049 -1.139185,-0.02192 -2.067267,0.19588 -1.904034,0.446881 0.03216,0.04944 -0.02384,0.188664 -0.124056,0.309576 -0.138289,0.166712 -0.189417,2.68214 -0.211241,10.406406 -0.0204,7.267652 -0.07608,10.187162 -0.193744,10.188802 -0.09083,0.002 -0.0636,0.0662 0.06024,0.14464 0.126016,0.0797 1.903987,0.14384 4.03243,0.14576 3.755421,0.003 3.814749,-0.002 4.364462,-0.35467 0.306504,-0.19687 0.799857,-0.43425 1.096353,-0.52751 0.296497,-0.0933 0.872097,-0.49423 1.279106,-0.89105 0.924313,-0.90112 2.168203,-2.31873 2.169003,-2.47189 3.2e-4,-0.0632 0.239816,-0.47549 0.532225,-0.91587 0.35396,-0.53311 0.600688,-1.14837 0.738257,-1.84109 0.258944,-1.3037 0.269672,-1.7614 0.08086,-3.448106 z m -0.987866,7.049434 c -0.214272,0.31532 -0.358152,0.60475 -0.319744,0.64317 0.08283,0.0829 0.703121,-0.85497 0.706777,-1.06869 0.0016,-0.0813 -0.172752,0.11024 -0.387033,0.42552 z m -8.8e-5,-13.114386 c -0.214312,-0.430081 -0.45132,-0.781953 -0.52668,-0.781953 -0.07536,0 -0.137033,0.036 -0.137033,0.08031 0,0.09856 0.682481,1.415162 0.894538,1.72553 0.323136,0.472969 0.164576,-0.23036 -0.230849,-1.023825 z m -0.513224,14.040506 c -0.08283,0.0512 -0.150545,0.16068 -0.150545,0.24348 0,0.0829 0.06768,0.10863 0.150545,0.0574 0.08282,-0.0512 0.150536,-0.16067 0.150536,-0.24346 0,-0.0829 -0.06768,-0.10864 -0.150536,-0.0574 z M 25.108864,89.282356 c -0.165465,-0.08848 -0.300953,-0.1272 -0.300953,-0.08592 0,0.04144 0.135432,0.147672 0.300953,0.236313 0.165472,0.08848 0.30096,0.1272 0.30096,0.08592 0,-0.04144 -0.135432,-0.147681 -0.30096,-0.236313 z m -2.158971,-0.953577 c -0.483937,-0.126232 -0.837145,-0.186616 -0.784929,-0.134392 0.110184,0.11024 1.74277,0.633225 1.965778,0.629721 0.309969,-0.0048 -0.331512,-0.273937 -1.180849,-0.495329 z m -1.904035,-0.538361 c -0.148768,0.0048 -0.123168,0.05232 0.0752,0.137592 0.413697,0.177769 0.651273,0.177769 0.376217,0 -0.124064,-0.08016 -0.327305,-0.142232 -0.451449,-0.137592 z m -6.11028,6.467145 c -0.04392,-0.04384 -0.06456,0.745865 -0.04568,1.755147 0.01888,1.009297 0.091,1.800058 0.160312,1.757258 0.131888,-0.08144 0.02432,-3.373405 -0.114632,-3.512405 z m -0.05672,-4.807726 c -0.100241,0.19468 -0.100417,0.569232 -8e-4,1.487826 0.02952,0.272696 0.06592,0.210616 0.132584,-0.225721 0.111792,-0.732665 0.02488,-1.566146 -0.131704,-1.262105 z m -0.153393,19.184493 c 0,-0.63007 -0.30316,-0.29928 -0.447088,0.48781 -0.09384,0.5134 -0.06896,0.6131 0.168848,0.67528 0.323632,0.0846 0.640345,-0.34483 0.419361,-0.56869 -0.07768,-0.0786 -0.141113,-0.34611 -0.141113,-0.5944 z m 0.197233,-1.70797 c -0.03784,0.1448 -0.03784,0.38185 0,0.52668 0.03784,0.14479 0.0688,0.0262 0.0688,-0.26334 0,-0.28969 -0.03096,-0.40818 -0.0688,-0.26334 z m -1.437122,1.3538 c -0.181521,0.0605 -1.06945,1.61626 -0.97585,1.70986 0.02576,0.0258 0.191609,0.01 0.368497,-0.0371 0.197232,-0.0515 0.290288,-0.16567 0.240664,-0.29502 -0.0444,-0.116 -0.0032,-0.21087 0.09046,-0.21087 0.189433,0 0.438289,-0.52341 0.453153,-0.95308 0.0056,-0.15536 -0.072,-0.24868 -0.177024,-0.21371 z M 13.032543,88.279811 c -0.103432,0.04176 -0.01888,0.07584 0.188104,0.07584 0.206913,0 0.291553,-0.03408 0.188097,-0.07584 -0.103441,-0.04176 -0.272737,-0.04176 -0.376201,0 z"
         style="display:inline;fill:#0f0e47;fill-opacity:1;stroke-width:1.77734"
         id="D-3" />
      <path
         d="m 41.289684,107.40258 c -0.1735,1e-5 -0.18098,0.0486 -0.21997,1.42975 -0.012,0.42547 -0.0519,0.61818 -0.12114,0.5847 -0.0568,-0.0275 -0.17388,-0.0751 -0.26024,-0.10595 -0.093,-0.0332 -0.18214,-0.20459 -0.21862,-0.42052 -0.0339,-0.20048 -0.0965,-0.38606 -0.13906,-0.4124 -0.0427,-0.0263 -0.20289,0.0577 -0.35615,0.1866 -0.15327,0.12897 -0.30059,0.23448 -0.32737,0.23448 -0.0267,0 -0.147,0.0833 -0.26713,0.18507 -0.73465,0.62249 -1.14917,0.92249 -1.21684,0.88066 -0.0425,-0.0263 -0.0773,-0.004 -0.0773,0.0488 0,0.13086 -0.51498,0.39971 -1.02898,0.53719 -0.23152,0.062 -0.65247,0.19833 -0.93543,0.3031 -0.28551,0.10573 -0.74953,0.19187 -1.0426,0.19356 -0.52495,0.003 -0.53178,-5.5e-4 -1.13662,-0.59653 -0.36918,-0.36376 -0.6287,-0.70408 -0.65985,-0.86528 -0.13513,-0.69926 -0.15558,-1.41757 -0.0585,-2.05743 0.0925,-0.61035 0.0873,-0.71658 -0.0399,-0.81163 -0.13271,-0.0992 -0.1327,-0.16107 1.5e-4,-0.66555 0.1998,-0.75874 0.47278,-1.2691 1.20201,-2.24722 1.04975,-1.40805 1.67635,-1.97519 2.83076,-2.56218 0.74527,-0.37895 1.59815,-0.20525 2.69394,0.54867 0.48056,0.33065 0.51887,0.51388 0.26526,1.26898 -0.27667,0.82377 -1.83782,2.17605 -3.5869,3.10699 -1.27245,0.67727 -1.87071,0.96006 -2.14858,1.01563 -0.15808,0.0316 -0.31122,0.096 -0.34031,0.14306 -0.0291,0.0471 -0.023,0.44402 0.0135,0.88214 0.061,0.73208 0.0916,0.82338 0.37852,1.12757 0.33636,0.35664 0.23177,0.34377 1.39534,0.17171 2.08528,-0.30837 4.01204,-1.5493 4.69365,-3.02292 0.30769,-0.66524 0.57793,-0.86436 0.5163,-0.38043 -0.0526,0.41298 0.079,1.01866 0.22128,1.01866 0.074,0 0.13458,0.0631 0.13458,0.14032 0,0.0772 -0.0737,0.14031 -0.16369,0.14031 z m -1.90782,-5.28121 c -0.16669,-0.21192 -0.24982,-0.24545 -0.4911,-0.19814 -0.15975,0.0314 -0.34306,0.0633 -0.40738,0.071 -0.0643,0.008 -0.11692,0.041 -0.11692,0.0739 0,0.033 -0.16838,0.13424 -0.37418,0.22505 -0.20578,0.0908 -0.37416,0.21588 -0.37416,0.27797 0,0.0621 -0.0842,0.17357 -0.1871,0.24774 -0.10286,0.0741 -0.18708,0.19961 -0.18708,0.27878 0,0.0792 -0.0842,0.19651 -0.18708,0.26077 -0.10286,0.0643 -0.1871,0.15717 -0.1871,0.20644 0,0.0842 -0.32643,0.4785 -0.82774,0.99989 -0.12085,0.12569 -0.37949,0.41313 -0.57477,0.63876 -0.19529,0.22562 -0.38055,0.38474 -0.4117,0.35358 -0.0312,-0.0312 -0.0567,0.0193 -0.0567,0.1123 0,0.14718 0.0571,0.16157 0.44433,0.11178 1.06499,-0.13698 1.29762,-0.24748 2.68936,-1.27758 0.93184,-0.68969 1.04507,-0.8049 1.27579,-1.29809 0.21815,-0.46631 0.2104,-0.78301 -0.0265,-1.08421 z m -2.04117,-0.38015 c -0.0596,0.0368 -0.14703,0.16884 -0.19438,0.29338 -0.0474,0.12454 -0.18156,0.26887 -0.29825,0.32071 -0.33666,0.14956 -0.81837,0.52781 -0.75407,0.59211 0.0323,0.0323 -0.007,0.0586 -0.0873,0.0586 -0.0802,0 -0.17115,0.0659 -0.20202,0.14625 -0.0308,0.0804 -0.0986,0.12004 -0.15033,0.0881 -0.0518,-0.032 -0.0942,0.0285 -0.0942,0.13439 0,0.10595 -0.0421,0.1926 -0.0936,0.1926 -0.0515,0 -0.0936,0.0433 -0.0936,0.0964 0,0.0529 -0.17141,0.31313 -0.3809,0.57816 -0.36601,0.46305 -0.79482,1.19641 -0.69956,1.19641 0.0252,0 0.42951,-0.44691 0.89841,-0.99313 0.92224,-1.07433 2.0639,-2.23012 2.35869,-2.38788 0.16446,-0.0881 0.16883,-0.11331 0.0415,-0.2406 -0.0782,-0.0782 -0.19099,-0.11215 -0.25054,-0.0754 z m -0.77493,8.24471 c -0.16721,0.0292 -0.5067,0.11657 -0.7544,0.19427 -0.24772,0.0777 -0.59499,0.12438 -0.77173,0.10375 -0.39018,-0.0455 -0.42054,0.0591 -0.0541,0.18684 0.33217,0.11579 0.99392,0.001 1.5073,-0.26046 0.4564,-0.23284 0.47654,-0.29476 0.073,-0.2244 z m -0.0546,-6.54932 c -0.0429,-0.0265 -0.078,0.0113 -0.078,0.0839 0,0.0726 0.035,0.11038 0.078,0.0839 0.0429,-0.0265 0.0779,-0.0643 0.0779,-0.0839 0,-0.0197 -0.035,-0.0574 -0.0779,-0.0839 z m -1.59953,2.79561 c -0.40921,0.0692 -0.4922,0.18685 -0.19765,0.28034 0.1738,0.0551 0.7154,-0.20735 0.62152,-0.30124 -0.0239,-0.0239 -0.21461,-0.0145 -0.42387,0.0209 z m 0.24233,-1.18049 c -0.0691,0.0573 -0.14559,0.0841 -0.17009,0.0597 -0.0245,-0.0245 -0.18683,0.1022 -0.36071,0.28162 -0.25601,0.26414 -0.29329,0.34839 -0.19598,0.44293 0.0966,0.0938 0.15077,0.0742 0.27577,-0.0994 0.0856,-0.11889 0.24899,-0.32937 0.36312,-0.46773 0.23733,-0.2877 0.26989,-0.36808 0.0879,-0.21704 z"
         style="display:inline;fill:#0f0e47;fill-opacity:1;stroke-width:1.10484"
         id="e-12" />
      <path
         d="m 50.044859,108.19059 c -0.036,0 -0.18346,0.20222 -0.32781,0.44938 -0.14434,0.24715 -0.28848,0.44937 -0.32032,0.44937 -0.0318,0 -0.16488,0.0991 -0.29567,0.22039 -0.1308,0.12123 -0.23781,0.19507 -0.23781,0.16409 0,-0.031 -0.091,0.0244 -0.20222,0.12311 -0.49113,0.43574 -2.02506,1.21761 -2.58695,1.31861 -1.37861,0.24781 -1.83909,0.17413 -2.79175,-0.44669 -0.70394,-0.45874 -1.04935,-0.92132 -1.21396,-1.62575 -0.14109,-0.60373 -0.10308,-1.82455 0.0778,-2.50204 0.0877,-0.32829 0.0952,-0.49902 0.0267,-0.60802 -0.074,-0.11775 -0.0229,-0.29651 0.22889,-0.80177 0.17825,-0.35762 0.46135,-0.92829 0.62913,-1.26816 0.16777,-0.33986 0.45435,-0.78827 0.63683,-0.99646 0.53843,-0.61429 1.72676,-1.05578 3.19579,-1.1873 0.46541,-0.0417 0.56171,-0.0785 0.56171,-0.21428 0,-0.24417 0.15697,-0.29521 0.26828,-0.0873 0.0536,0.10021 0.0745,0.18228 0.0463,0.18228 -0.0282,0 -0.002,0.091 0.0574,0.20221 0.0598,0.11122 0.1333,0.32205 0.16345,0.4685 0.0377,0.18316 0.12191,0.28212 0.26981,0.31705 0.24494,0.0579 0.30581,0.1695 0.19119,0.35072 -0.0542,0.0858 -0.25339,0.12374 -0.63296,0.1206 -0.46199,-0.004 -0.67579,0.0531 -1.28995,0.34342 -0.86482,0.40883 -1.18556,0.59569 -1.49551,0.87127 -0.1251,0.11122 -0.25819,0.20221 -0.29577,0.20221 -0.0376,0 -0.0684,0.0557 -0.0684,0.12381 0,0.0682 -0.0605,0.17404 -0.13451,0.23544 -0.1651,0.13702 -0.67944,1.08674 -1.04661,1.93256 -0.30827,0.71013 -0.34063,1.17797 -0.11595,1.67624 0.15548,0.34479 0.28299,0.42925 1.2072,0.79965 0.52582,0.21074 1.74458,0.28716 2.47155,0.155 0.19773,-0.036 0.62239,-0.10414 0.94369,-0.15152 0.56672,-0.0835 0.60097,-0.10414 1.1459,-0.68635 0.30895,-0.33011 0.56172,-0.65387 0.56172,-0.71946 0,-0.15735 0.13144,-0.23264 0.29593,-0.16952 0.13508,0.0518 0.20665,0.75864 0.0769,0.75864 z m -2.44325,1.17019 c -0.0813,0.0435 -0.34642,0.10244 -0.58904,0.13094 -0.77748,0.0913 -1.01266,0.14096 -1.25026,0.26423 -0.23107,0.11989 -0.22991,0.12104 0.18419,0.18313 0.2292,0.0344 0.39784,0.0814 0.37476,0.10446 -0.0425,0.0425 -0.8712,-0.0751 -1.36756,-0.19387 -0.18619,-0.0446 -0.24182,-0.0356 -0.17976,0.0292 0.12486,0.13024 1.41634,0.35748 1.75185,0.30824 0.20497,-0.0301 0.26386,-0.0781 0.22947,-0.18716 -0.037,-0.11759 0.0212,-0.14743 0.2942,-0.15045 0.39603,-0.004 1.00873,-0.3771 0.81584,-0.49631 -0.0637,-0.0394 -0.18236,-0.036 -0.26369,0.007 z m -0.49092,-7.32092 c -0.25659,-0.0594 -0.26094,-0.0558 -0.0899,0.0754 0.0988,0.0758 0.25862,0.13916 0.355,0.14073 0.24338,0.004 0.068,-0.13895 -0.26513,-0.21614 z m -0.99661,0.16403 c -0.35921,-0.0901 -0.91625,0.14155 -1.37393,0.57148 -0.37736,0.35449 -0.38938,0.37776 -0.13081,0.25298 0.36059,-0.17399 1.16736,-0.46504 1.49026,-0.53761 0.31136,-0.07 0.31846,-0.21056 0.0144,-0.28685 z m -1.40308,1.24257 c -0.33495,0.18332 -0.64814,0.43539 -0.76684,0.61717 -0.11036,0.16901 -0.25191,0.36618 -0.31456,0.43817 -0.29533,0.33936 -0.43935,0.54786 -0.3699,0.53548 0.18407,-0.0328 0.30707,0.015 0.25509,0.099 -0.031,0.0502 -0.10424,0.0645 -0.16259,0.0317 -0.0782,-0.0439 -0.0777,-0.0289 0.002,0.0572 0.0774,0.0835 0.0816,0.16626 0.0152,0.29051 -0.0512,0.0955 -0.0728,0.19379 -0.0482,0.21839 0.0246,0.0246 0.12842,-0.14454 0.23074,-0.37584 0.25885,-0.58518 0.85571,-1.37008 1.36491,-1.7949 0.23606,-0.19695 0.41371,-0.37357 0.39478,-0.3925 -0.0189,-0.0189 -0.28918,0.10509 -0.60058,0.27549 z m -0.72563,6.43835 c -0.21126,-0.17659 -0.47414,-0.34966 -0.58418,-0.38459 -0.21263,-0.0675 -0.26471,-0.19459 -0.1019,-0.24885 0.0629,-0.021 0.0247,-0.20088 -0.10686,-0.50211 -0.22026,-0.50447 -0.34692,-0.48287 -0.34938,0.0596 -10e-4,0.22199 0.0832,0.39731 0.31319,0.65185 0.173,0.1915 0.31456,0.32313 0.31456,0.29252 0,-0.0306 0.16189,0.0906 0.35976,0.26937 0.34611,0.31269 0.53899,0.40365 0.53899,0.25418 0,-0.039 -0.17286,-0.21534 -0.38413,-0.39194 z m -0.0898,-0.78867 c -0.13872,-0.10629 -0.15201,-0.10297 -0.10275,0.0255 0.0311,0.0811 0.11969,0.14752 0.19679,0.14752 0.0771,0 0.12332,-0.0115 0.10275,-0.0255 -0.0206,-0.014 -0.10915,-0.0803 -0.19679,-0.14752 z m -1.0406,-3.10299 c -0.20978,0.2341 -0.54526,2.10757 -0.3774,2.10757 0.0358,0 0.13253,-0.31344 0.21505,-0.69653 0.13263,-0.61564 0.17336,-0.86254 0.22539,-1.36609 0.008,-0.0781 -0.0172,-0.0962 -0.0631,-0.0449 z"
         style="display:inline;fill:#0f0e47;fill-opacity:1;stroke-width:1.06151"
         id="c-6" />
      <path
         d="m 60.070652,101.81719 c -0.0219,0.0896 -0.0607,0.19648 -0.0862,0.23748 -0.0256,0.041 -0.0537,0.12123 -0.0626,0.17828 -0.0181,0.11675 -0.34799,0.61369 -0.4966,0.74818 -0.0535,0.0484 -0.0972,0.11352 -0.0972,0.14475 0,0.0312 -0.10687,0.1563 -0.23748,0.27794 -0.13061,0.12163 -0.23784,0.2527 -0.23829,0.29126 -6e-4,0.0524 -0.011,0.0541 -0.0411,0.007 -0.0268,-0.0422 -0.0633,-0.0113 -0.10929,0.0927 -0.038,0.0858 -0.0906,0.14263 -0.11703,0.12632 -0.0662,-0.0409 -0.31231,0.23418 -0.31231,0.349 0,0.0514 0.0264,0.10224 0.0587,0.11299 0.0648,0.0216 0.0757,0.31426 0.0248,0.66638 -0.0599,0.41436 -0.56406,1.8643 -0.85637,2.46284 -0.21535,0.44099 -0.26044,0.51403 -0.60876,0.98616 -0.19582,0.2654 -0.949,1.08719 -0.86158,0.94005 0.0259,-0.0436 -0.087,0.0514 -0.25077,0.21109 -0.36049,0.35135 -0.44417,0.42218 -0.49881,0.42218 -0.0231,0 -0.10922,0.0712 -0.1914,0.15832 -0.0822,0.0871 -0.19351,0.15832 -0.24739,0.15832 -0.0539,0 -0.11247,0.0235 -0.1302,0.0522 -0.0186,0.0301 0.008,0.0406 0.0629,0.0247 0.0523,-0.0151 0.0357,0.003 -0.0368,0.0387 -0.0726,0.0364 -0.1438,0.0804 -0.15831,0.0978 -0.0593,0.0712 -0.20597,0.093 -0.22991,0.0342 -0.016,-0.0392 -0.0272,-0.0328 -0.0298,0.0169 -0.005,0.0955 -0.36804,0.26289 -0.57184,0.2637 -0.0796,3.1e-4 -0.25413,0.0338 -0.38781,0.0743 -0.40633,0.12332 -1.6641,0.0312 -1.7632,-0.12912 -0.0174,-0.0282 -0.0923,-0.0514 -0.16627,-0.0514 -0.11351,0 -0.12983,-0.0187 -0.10447,-0.11979 0.0319,-0.12693 -0.0598,-0.45144 -0.16233,-0.57505 -0.0337,-0.0406 -0.0854,-0.13722 -0.11484,-0.2147 -0.0417,-0.10963 -0.0385,-0.13507 0.0145,-0.11474 0.0383,0.0147 0.0681,-0.0112 0.0681,-0.0592 0,-0.0567 -0.0324,-0.0768 -0.0967,-0.06 -0.0712,0.0186 -0.0967,-0.004 -0.0967,-0.0859 0,-0.0865 0.0141,-0.0971 0.0633,-0.0478 0.0926,0.0926 0.15911,0.0773 0.12694,-0.029 -0.0153,-0.0508 -0.0423,-0.21109 -0.0598,-0.35621 -0.0412,-0.34101 -0.0733,-0.44857 -0.134,-0.44857 -0.0661,0 -0.0631,0.24906 0.004,0.29025 0.0766,0.0474 0.0649,0.19793 -0.0132,0.16931 -0.0363,-0.0133 -0.0583,-0.0568 -0.049,-0.0968 0.0113,-0.0482 -5.7e-4,-0.0549 -0.0352,-0.0198 -0.0921,0.0931 -0.11367,0.39912 -0.0304,0.43106 0.0928,0.0356 0.0997,0.17583 0.009,0.17583 -0.13778,0 -0.20754,-0.21098 -0.16336,-0.49406 0.0233,-0.14913 0.0367,-0.30676 0.0298,-0.3503 -0.0565,-0.35748 -0.052,-0.88878 0.01,-1.14745 0.0745,-0.31297 0.28931,-0.87643 0.52822,-1.38564 0.0749,-0.15964 0.13641,-0.34987 0.13669,-0.42272 2.9e-4,-0.0729 0.06,-0.19656 0.13255,-0.27487 0.0726,-0.0783 0.18542,-0.22056 0.25067,-0.3161 0.48154,-0.70506 1.32358,-1.64883 1.91362,-2.14483 0.25201,-0.21185 0.8126,-0.56912 1.01189,-0.64489 0.0787,-0.0299 0.33427,-0.0505 0.56793,-0.0456 0.23365,0.005 0.65946,0.005 0.94622,6.2e-4 0.63697,-0.01 0.98088,0.0889 1.22995,0.35297 0.16373,0.17361 0.18527,0.18107 0.42073,0.14576 0.32778,-0.0492 1.39409,-0.60157 1.61357,-0.83594 0.16765,-0.17899 0.42452,-0.73459 0.45597,-0.98622 0.008,-0.0607 0.16318,-0.0729 0.16833,-0.0132 0.0328,0.3814 0.033,0.59678 4e-4,0.73022 z m -0.55159,0.70256 c -0.04,0.0332 -0.14058,0.16081 -0.22343,0.28352 -0.0829,0.1227 -0.22226,0.28246 -0.3098,0.35502 -0.0875,0.0726 -0.30165,0.26723 -0.4758,0.43259 -0.25128,0.23861 -0.30319,0.31413 -0.25151,0.36593 0.0517,0.0518 0.12843,6.3e-4 0.3722,-0.24788 0.47365,-0.48301 1.18523,-1.43558 0.88834,-1.18918 z m -1.27751,0.4483 c -0.0461,0.0177 -0.17668,0.047 -0.29025,0.0652 -0.19965,0.0319 -0.27138,0.1315 -0.14912,0.20706 0.067,0.0414 0.52315,-0.18032 0.52315,-0.25425 0,-0.0276 -0.0377,-0.0357 -0.0838,-0.018 z m -0.0217,0.45411 c -0.0291,0 -0.0528,0.0251 -0.0528,0.0559 0,0.0307 0.0237,0.0412 0.0528,0.0232 0.029,-0.018 0.0528,-0.0431 0.0528,-0.0559 0,-0.0128 -0.0237,-0.0232 -0.0528,-0.0232 z m -0.16139,1.06117 c -0.14985,-0.17994 -0.18526,-0.10155 -0.11273,0.24959 0.0347,0.16784 0.063,0.38486 0.063,0.48229 0,0.22964 0.0439,0.18186 0.10127,-0.11024 0.0715,-0.3638 0.0613,-0.48609 -0.0516,-0.62164 z m -0.21167,-0.50481 c -0.0638,0.0395 -0.064,0.23523 -2.2e-4,0.23523 0.0535,0 0.10337,-0.16031 0.0701,-0.22515 -0.0114,-0.0222 -0.0428,-0.0268 -0.0699,-0.0101 z m -0.17652,0.50642 c -0.0282,-0.0456 -0.0601,-0.0489 -0.10585,-0.0108 -0.0467,0.0388 -0.19328,10e-4 -0.50983,-0.13094 -0.95346,-0.39771 -1.67968,-0.48174 -2.26496,-0.26208 -0.13062,0.049 -0.27955,0.0885 -0.33098,0.0877 -0.0514,-6.2e-4 -0.0811,0.0186 -0.0659,0.0431 0.0151,0.0245 -0.1168,0.11122 -0.29324,0.19268 -0.17643,0.0815 -0.34386,0.19123 -0.37208,0.24394 -0.0282,0.0527 -0.0736,0.0821 -0.1009,0.0652 -0.045,-0.0278 -0.23128,0.15222 -0.83416,0.8061 -0.11374,0.12335 -0.19701,0.22428 -0.18506,0.22428 0.012,0 -0.10086,0.12468 -0.25071,0.27706 -0.60588,0.61612 -0.88325,1.07723 -1.08725,1.80746 -0.15676,0.56118 -0.0878,1.23091 0.18613,1.80694 0.0791,0.16638 0.22591,0.26037 0.31789,0.20352 0.025,-0.0155 0.0905,0.006 0.14559,0.0477 0.11537,0.0873 0.4213,0.10442 0.46962,0.0262 0.0217,-0.0352 0.067,-0.0346 0.13505,0.002 0.0713,0.0382 0.13465,0.0375 0.20898,-0.002 0.0587,-0.0314 0.12846,-0.0436 0.15515,-0.0271 0.0267,0.0165 0.12711,-0.0179 0.22319,-0.0765 0.20796,-0.12679 0.30661,-0.13572 0.30661,-0.0277 0,0.13114 0.16791,0.0901 0.46309,-0.1132 0.26251,-0.1808 0.28346,-0.18665 0.34876,-0.0974 0.0663,0.0907 0.085,0.089 0.41188,-0.0373 0.32466,-0.12547 1.72689,-1.01256 1.98339,-1.25475 0.066,-0.0623 0.10384,-0.13922 0.0842,-0.17101 -0.0197,-0.0318 -0.0117,-0.0429 0.0178,-0.0247 0.11135,0.0688 0.50197,-0.48862 0.75136,-1.07222 0.19712,-0.46129 0.26859,-0.78046 0.30133,-1.3457 0.0168,-0.29025 0.0372,-0.53514 0.0453,-0.5442 0.0221,-0.0247 -0.10801,-0.56083 -0.15438,-0.63586 z m -0.47317,-0.57841 c -0.13091,-0.0155 -0.13805,-0.008 -0.0793,0.0864 0.0545,0.0873 0.10263,0.10014 0.24891,0.0666 0.01,-0.002 0.008,-0.0337 -0.004,-0.07 -0.0119,-0.0363 -0.0864,-0.0736 -0.16552,-0.0829 z m 0.10623,-0.74242 c -0.0546,-0.0453 -0.0869,-0.0421 -0.13258,0.0129 -0.0462,0.0556 -0.0421,0.088 0.0171,0.13712 0.0769,0.0638 0.18766,0.036 0.18766,-0.047 0,-0.0237 -0.0325,-0.0701 -0.0722,-0.10308 z m -0.29725,0.83855 c -0.0583,-0.0312 -0.10555,-0.0348 -0.10555,-0.008 0,0.0267 0.0475,0.0609 0.10555,0.0761 0.058,0.0151 0.10554,0.0188 0.10554,0.008 0,-0.0108 -0.0475,-0.045 -0.10554,-0.0761 z m -0.60689,-1.37363 c -0.50217,-0.0176 -0.5544,-0.006 -0.35769,0.0796 0.0935,0.0406 0.21226,0.0743 0.26386,0.0749 0.0907,6.2e-4 0.19759,0.02 0.50194,0.0898 0.0793,0.0182 0.1862,0.0156 0.23747,-0.006 0.15492,-0.0646 -0.28129,-0.22574 -0.64558,-0.23848 z m 0.16397,0.63481 c -0.0404,0 -0.0872,0.0357 -0.10389,0.0792 -0.034,0.0885 -0.0253,0.0929 0.0939,0.0471 0.10311,-0.0396 0.10994,-0.12628 0.01,-0.12628 z m -0.42519,0.42405 c -0.16409,-0.003 -0.0246,0.0975 0.18371,0.13226 l 0.18306,0.0306 -0.13193,-0.0805 c -0.0726,-0.0443 -0.17825,-0.0813 -0.23484,-0.0824 z m 0.0748,-0.48417 c -0.0571,0.0685 -0.10326,0.15164 -0.10261,0.18471 6.2e-4,0.033 0.0476,6.2e-4 0.10437,-0.0718 0.1349,-0.17246 0.13331,-0.27502 -0.002,-0.11289 z m -0.3518,0.01 c -0.11473,0.0717 -0.29829,0.36706 -0.22808,0.36706 0.0257,0 0.10091,-0.0772 0.16715,-0.17151 0.0662,-0.0943 0.14058,-0.17992 0.16521,-0.1902 0.0246,-0.0103 0.0337,-0.0297 0.0202,-0.0433 -0.0135,-0.0135 -0.0695,0.004 -0.12451,0.0379 z m -0.224,-0.16224 c -0.12486,0.0668 -0.18414,0.15461 -0.13655,0.20219 0.0194,0.0194 0.0806,-0.0237 0.13604,-0.0959 0.12661,-0.16478 0.12665,-0.17384 5.1e-4,-0.10633 z m -0.0267,6.44424 c -0.0131,0.0121 -0.10954,0.0932 -0.21437,0.18031 -0.37945,0.31515 -0.63012,0.56004 -0.51625,0.50433 0.12305,-0.0602 0.75438,-0.62689 0.75438,-0.67713 0,-0.0162 -0.0107,-0.0196 -0.0238,-0.007 z m -0.13456,-6.04687 c -0.029,0.018 -0.0528,0.006 -0.0528,-0.0264 0,-0.0325 -0.0241,-0.0441 -0.0537,-0.0259 -0.0295,0.0182 -0.04,0.0552 -0.0233,0.0823 0.0167,0.0271 0.001,0.0491 -0.0343,0.0491 -0.0356,0 -0.0509,0.0138 -0.034,0.0307 0.0324,0.0324 0.25079,-0.0676 0.25079,-0.1148 0,-0.0152 -0.0238,-0.013 -0.0528,0.005 z m -0.55469,0.0345 c -0.037,0.0391 -0.0833,0.12447 -0.10286,0.18977 -0.0285,0.0951 -0.0148,0.11874 0.0686,0.11874 0.0761,0 0.0971,-0.0268 0.0781,-0.0996 -0.0143,-0.0548 1.6e-4,-0.11579 0.0322,-0.13558 0.032,-0.0198 0.0431,-0.0604 0.0248,-0.0902 -0.0216,-0.035 -0.0573,-0.0291 -0.10075,0.0168 z m -0.15334,6.11431 c -0.0266,-4.4e-4 -0.0354,0.0122 -0.0196,0.0279 0.0158,0.0158 -0.0337,0.0949 -0.10994,0.17573 -0.54202,0.57438 -0.56634,0.66701 -0.0565,0.21496 0.26969,-0.2391 0.35344,-0.34233 0.30344,-0.37404 -0.0379,-0.0241 -0.0908,-0.0442 -0.11743,-0.0446 z m -0.18961,-6.01639 c -0.0539,0.0539 -0.1599,0.13856 -0.23558,0.18815 -0.0757,0.0496 -0.16073,0.13335 -0.18898,0.18615 -0.0533,0.0996 -0.0318,0.0958 0.45145,-0.079 0.029,-0.0105 0.0569,-0.10329 0.062,-0.20618 0.009,-0.18227 0.007,-0.18456 -0.0888,-0.0891 z m -0.13427,-0.68419 c -0.10016,0.0831 -0.37353,0.60499 -0.28981,0.55324 0.0809,-0.05 0.42668,-0.5711 0.39799,-0.59979 -0.013,-0.013 -0.0617,0.008 -0.10818,0.0466 z m -0.87231,7.22986 c -0.0903,0.0484 -0.0998,0.0714 -0.0435,0.10619 0.0451,0.0279 0.1068,0.0128 0.16545,-0.0402 0.0515,-0.0466 0.0936,-0.0677 0.0936,-0.047 0,0.0207 0.0297,0.0185 0.066,-0.005 0.10965,-0.0709 -0.151,-0.0838 -0.28146,-0.014 z m 0.14953,-5.77562 c -0.0943,0.048 -0.20714,0.12607 -0.25067,0.17356 -0.23231,0.25336 -0.20332,0.26602 0.0924,0.0403 0.36741,-0.28046 0.41459,-0.34419 0.15832,-0.21387 z m -0.67732,5.81187 c -0.0605,0.0158 -0.12242,0.0611 -0.13758,0.10061 -0.0152,0.0395 -0.058,0.0718 -0.0952,0.0718 -0.0372,0 -0.12373,0.0493 -0.19226,0.10957 -0.0685,0.0603 -0.0949,0.0945 -0.0586,0.076 0.0363,-0.0185 0.066,-0.005 0.066,0.03 0,0.035 0.0552,0.004 0.12264,-0.0687 0.0675,-0.0728 0.1862,-0.17397 0.26387,-0.22486 0.16994,-0.11135 0.17697,-0.13264 0.0312,-0.0945 z m -0.29076,0.40448 c -0.30011,0.15976 -0.35825,0.30293 -0.11552,0.28443 0.12147,-0.009 0.17264,-0.0469 0.21018,-0.15457 0.0273,-0.0783 0.087,-0.15668 0.13265,-0.1742 0.0457,-0.0175 0.07,-0.0449 0.054,-0.0609 -0.016,-0.016 -0.14255,0.0314 -0.28129,0.10524 z m 0.0608,-5.77317 c -0.0919,0 -0.3941,0.23741 -0.45333,0.35614 -0.0398,0.0799 -0.0845,0.16894 -0.0993,0.19797 -0.034,0.0668 0.42195,-0.28747 0.50837,-0.39498 0.0652,-0.0811 0.0869,-0.15913 0.0443,-0.15913 z m -0.52666,0.66539 c -0.0758,0.0291 -0.16005,0.17897 -0.1006,0.17897 0.0269,0 0.16871,-0.1599 0.174,-0.19624 0.001,-0.006 -0.0321,10e-4 -0.0734,0.0173 z m -0.16054,4.84329 c -0.0715,0.0469 -0.16653,0.0852 -0.21109,0.0852 -0.0446,0 -0.081,0.0237 -0.081,0.0528 0,0.029 -0.0357,0.0528 -0.0792,0.0528 -0.0436,0 -0.0792,0.0358 -0.0792,0.0797 0,0.0574 0.0813,0.0257 0.29025,-0.11302 0.15964,-0.10599 0.29025,-0.20395 0.29025,-0.2177 0,-0.0137 -0.0585,0.0133 -0.13007,0.0603 z m -0.23934,-4.74348 c -0.0576,0.0871 -0.105,0.18884 -0.10519,0.22614 -2e-4,0.0373 -0.0392,0.1271 -0.0867,0.19955 -0.0475,0.0724 -0.0761,0.14192 -0.0636,0.15438 0.0125,0.0125 0.0658,-0.0655 0.11858,-0.17316 0.0527,-0.1077 0.12826,-0.25519 0.16779,-0.32775 0.10969,-0.20136 0.0876,-0.25803 -0.0309,-0.0792 z m -0.13709,4.57604 c -0.0557,-0.008 -0.14758,0.0188 -0.20432,0.0603 -0.086,0.0629 -0.0919,0.0891 -0.0353,0.15718 0.0373,0.0449 0.10171,0.0713 0.14313,0.0585 0.0414,-0.0128 0.10904,-0.0337 0.15027,-0.0464 0.10785,-0.0333 0.0661,-0.21155 -0.0537,-0.22954 z m -0.70727,-3.01925 c -0.0281,0.0436 -0.0512,0.10291 -0.0512,0.13194 0,0.029 0.023,0.0171 0.0512,-0.0264 0.0281,-0.0435 0.0512,-0.1029 0.0512,-0.13193 0,-0.0291 -0.023,-0.0171 -0.0512,0.0264 z m -0.15666,0.36942 c -0.0281,0 -0.0375,0.0356 -0.0207,0.0791 0.0167,0.0436 0.0397,0.0792 0.0511,0.0792 0.0114,0 0.0207,-0.0357 0.0207,-0.0792 0,-0.0436 -0.023,-0.0791 -0.0511,-0.0791 z"
         style="display:inline;fill:#0f0e47;fill-opacity:1;stroke-width:0.6233"
         id="o-1" />
      <path
         d="m 66.599237,102.15808 c -0.0345,0.22494 -0.0486,0.50507 -0.0314,0.62248 0.0172,0.11743 -4.6e-4,0.24536 -0.0394,0.28429 -0.0394,0.0394 -0.0747,0.41029 -0.0796,0.83567 -0.007,0.65878 -0.0259,0.77536 -0.13211,0.84046 -0.20556,0.126 -0.31687,-0.10898 -0.31172,-0.65809 0.002,-0.2607 -0.0255,-0.50395 -0.0622,-0.54056 -0.10508,-0.10509 -0.38903,-0.0363 -0.38903,0.0942 0,0.11565 -0.25264,0.39614 -0.35681,0.39614 -0.0609,0 -1.60534,1.56303 -2.00251,2.02654 -0.13539,0.15801 -0.27068,0.26514 -0.30063,0.23808 -0.03,-0.0271 -0.036,-0.0167 -0.0134,0.0231 0.0225,0.0398 -0.0499,0.1778 -0.16117,0.30675 -0.11122,0.12895 -0.22446,0.31114 -0.25166,0.40487 -0.0846,0.2917 -0.0537,1.91922 0.0429,2.25591 0.0494,0.17226 0.0949,0.44832 0.10099,0.61349 0.0117,0.31396 0.0917,0.43727 0.21658,0.33362 0.0471,-0.039 0.11896,-8e-4 0.19929,0.10615 0.0942,0.12544 0.18946,0.16729 0.38079,0.16729 0.19784,0 0.26318,0.0306 0.29082,0.13633 0.0202,0.0774 0.002,0.13796 -0.0431,0.1401 -0.0434,0.002 -0.43669,5.2e-4 -0.87409,-0.003 -0.74517,-0.006 -0.79806,0.002 -0.83963,0.13256 -0.06,0.18898 -0.16109,0.17605 -0.23967,-0.0307 -0.0583,-0.15339 -0.10241,-0.17041 -0.4414,-0.17041 -0.28945,0 -0.40911,-0.0325 -0.51712,-0.14053 -0.18661,-0.18661 -0.14584,-0.37699 0.0751,-0.35102 0.22743,0.0267 0.48862,-0.0437 0.44196,-0.11924 -0.0208,-0.0338 -0.006,-0.0807 0.0313,-0.10427 0.0381,-0.0235 0.0714,-0.002 0.0741,0.0464 0.006,0.11269 0.12066,-0.14776 0.1257,-0.28568 0.003,-0.0909 -0.003,-0.0909 -0.0623,0 -0.0884,0.13679 -0.0871,-0.009 0.002,-0.24422 0.36923,-0.97113 0.5595,-2.4968 0.64927,-5.20608 0.0217,-0.65446 0.0679,-1.43667 0.10256,-1.73823 0.0787,-0.68302 0.0229,-0.75132 -0.54929,-0.67295 -0.2063,0.0283 -0.45652,0.0525 -0.55604,0.054 -0.0995,0.002 -0.16673,0.0255 -0.14935,0.0537 0.0174,0.0281 -0.0144,0.0511 -0.0707,0.0511 -0.26041,0 -0.16782,-0.24721 0.11157,-0.29787 0.10169,-0.0184 0.21865,-0.0544 0.25992,-0.0799 0.072,-0.0445 0.60764,-0.0995 1.19326,-0.12255 0.28979,-0.0114 0.47451,-0.13703 0.51596,-0.35093 0.0135,-0.0692 0.0634,-0.13887 0.11126,-0.15478 0.0682,-0.0227 0.0783,0.1151 0.0469,0.64193 -0.022,0.36897 -0.051,1.06962 -0.0644,1.557 -0.0298,1.08346 -0.0954,1.68972 -0.18899,1.74841 -0.0388,0.0243 -0.0499,0.0981 -0.0246,0.16397 0.0289,0.0754 -0.004,0.17296 -0.0892,0.26355 -0.0822,0.0875 -0.11397,0.17807 -0.0811,0.23121 0.066,0.10681 0.11835,0.0483 0.35475,-0.39623 0.0897,-0.16872 0.22851,-0.39878 0.30842,-0.51125 0.0799,-0.11247 0.13262,-0.23899 0.1171,-0.28115 -0.0155,-0.0422 0.0728,-0.18824 0.19616,-0.32461 0.57608,-0.63665 0.81028,-0.84043 1.05315,-0.91633 0.14403,-0.045 0.38457,-0.17279 0.53453,-0.28393 0.14997,-0.11114 0.41694,-0.3024 0.59326,-0.42501 0.31938,-0.22211 0.3747,-0.29656 0.53288,-0.71715 0.0533,-0.14176 0.12943,-0.22154 0.21138,-0.22154 0.13993,0 0.1391,-0.01 0.0487,0.57941 z m -0.46356,0.3749 c -0.0361,0 -0.0986,0.0614 -0.13873,0.13634 -0.0575,0.10743 -0.0519,0.13633 0.0267,0.13633 0.0548,0 0.11367,-0.0537 0.13082,-0.11929 0.0172,-0.0656 0.0347,-0.12696 0.0391,-0.13633 0.004,-0.009 -0.0217,-0.0171 -0.0579,-0.0171 z m -0.99246,1.02386 c -0.0572,0.0474 -0.0898,0.10027 -0.0727,0.11743 0.0473,0.0473 0.1766,-0.0488 0.1766,-0.13116 0,-0.0452 -0.0391,-0.04 -0.1039,0.0138 z m -0.1945,0.20313 c -0.0142,0 -0.0678,0.0537 -0.11929,0.1193 -0.0848,0.10811 -0.0824,0.11052 0.0258,0.0258 0.11355,-0.0891 0.14966,-0.14503 0.0935,-0.14503 z m -1.02249,0.54534 c -0.0142,0 -0.0678,0.0537 -0.11929,0.11928 -0.0848,0.10812 -0.0824,0.11053 0.0258,0.0258 0.11356,-0.0891 0.14967,-0.14502 0.0936,-0.14502 z m -1.40888,-2.45398 c -0.0319,0 -0.0258,0.092 0.0134,0.2045 0.0392,0.11247 0.0974,0.20449 0.12924,0.20449 0.0319,0 0.0258,-0.092 -0.0134,-0.20449 -0.0392,-0.11248 -0.0974,-0.2045 -0.12924,-0.2045 z m -0.24609,7.88891 c -0.0187,0.0461 -0.0198,0.13817 -0.002,0.2045 0.0173,0.0663 0.0325,0.0286 0.034,-0.0839 0.002,-0.11248 -0.0127,-0.16674 -0.0314,-0.12059 z"
         style="display:inline;fill:#0f0e47;fill-opacity:1;stroke-width:0.805111"
         id="r-0" />
      <path
         d="m 92.125945,110.90796 c -0.0314,0.0193 -0.84245,0.0318 -1.80248,0.0275 -0.96004,-0.004 -2.05926,0.0193 -2.44272,0.0524 l -0.69721,0.0601 0.19095,-0.25827 c 0.17227,-0.23301 0.23491,-0.25828 0.64006,-0.25828 0.67717,0 0.72894,-0.0524 0.84178,-0.85136 0.0538,-0.38149 0.1388,-0.97548 0.18872,-1.31997 0.0979,-0.6762 0.18259,-5.65228 0.10268,-6.03938 -0.0473,-0.22961 -0.0599,-0.23447 -0.52241,-0.20299 -0.26062,0.0178 -0.51073,0.055 -0.55581,0.083 -0.0451,0.0279 -0.30764,0.0762 -0.58348,0.10739 -0.40536,0.0459 -0.52269,0.0313 -0.6119,-0.0762 -0.14921,-0.17979 -0.0617,-0.36904 0.2009,-0.43497 0.25258,-0.0634 0.3841,0.0235 0.20605,0.13607 -0.10304,0.0652 -0.0993,0.0779 0.0233,0.079 0.0804,7.1e-4 0.14614,-0.0426 0.14614,-0.0962 0,-0.0536 0.0248,-0.0727 0.0549,-0.0425 0.0302,0.0302 0.0969,0.0202 0.14806,-0.0223 0.0512,-0.0425 0.3741,-0.10309 0.71754,-0.13465 0.34345,-0.0316 0.65394,-0.0747 0.68998,-0.0958 0.036,-0.0211 0.0444,-0.22325 0.0185,-0.44921 -0.0381,-0.33332 -0.0229,-0.41084 0.0806,-0.41084 0.0867,0 0.12759,0.0821 0.12759,0.25603 0,0.48634 0.30313,0.74363 0.56619,0.48057 0.0754,-0.0754 0.14314,-0.0756 0.28812,-9.1e-4 0.10427,0.0537 0.48984,0.10743 0.85679,0.11941 0.52161,0.0171 0.67253,0.0497 0.69163,0.1499 0.0313,0.16422 -0.62126,0.34926 -0.97924,0.27767 -0.21776,-0.0436 -0.25432,-0.026 -0.25432,0.12167 0,0.0949 -0.0359,0.19475 -0.0799,0.2219 -0.0439,0.0271 -0.0587,0.10453 -0.0328,0.17195 0.0258,0.0675 0.0136,0.1226 -0.0271,0.1226 -0.19119,0 -0.29741,0.77087 -0.24496,1.77789 0.0292,0.56088 0.0569,1.09495 0.0617,1.18681 0.005,0.0918 0.0658,0.48646 0.13571,0.87689 0.0699,0.39042 0.136,0.82392 0.14676,0.96335 0.0108,0.13941 0.0418,0.36489 0.0691,0.50107 0.0272,0.13617 0.0715,0.48298 0.0984,0.77069 0.10294,1.10182 0.37556,1.6553 0.85381,1.73347 0.67327,0.11003 0.74529,0.13478 0.74529,0.25607 0,0.0689 -0.0257,0.1412 -0.0569,0.16057 z m -1.67805,-1.02384 c -0.083,-0.22163 -0.12246,-0.23379 -0.18981,-0.0583 -0.0337,0.0881 -0.0166,0.10968 0.0537,0.0675 0.0729,-0.0438 0.0707,-0.0217 -0.007,0.0746 -0.14092,0.17387 -0.0956,0.52 0.0691,0.52712 0.27437,0.0118 0.28249,-0.0547 0.0745,-0.61089 z m -0.77935,-7.87107 c -0.16446,0 -0.21825,0.10867 -0.12597,0.25452 0.0573,0.0907 0.077,0.0936 0.078,0.0119 7e-4,-0.0602 0.0389,-0.0861 0.0848,-0.0577 0.046,0.0284 0.0835,-0.007 0.0835,-0.0786 0,-0.0716 -0.0541,-0.1302 -0.12034,-0.1302 z m 2.41514,-0.20269 c -0.12984,-0.17162 -0.10921,-0.26752 0.038,-0.17655 0.049,0.0303 0.0879,0.11859 0.0864,0.19627 -0.002,0.12398 -0.0176,0.12158 -0.1244,-0.0197 z m -0.34292,-5.31574 c -0.0544,0.004 -0.0843,0.12114 -0.0709,0.27801 0.0128,0.14927 -1.2e-4,0.30899 -0.0287,0.35492 -0.0286,0.046 -0.0611,0.1211 -0.0722,0.16702 -0.19027,0.78785 -0.71439,1.58852 -1.20637,1.84293 -0.40148,0.20761 -0.8865,0.1794 -1.47318,-0.0857 -0.52367,-0.23661 -1.02058,-0.74378 -1.02185,-1.04294 -3.1e-4,-0.0713 -0.0753,-0.24244 -0.16648,-0.38024 -0.0917,-0.13848 -0.16616,-0.39182 -0.16647,-0.56639 -0.002,-0.99329 0.94055,-1.83294 2.2177,-1.97617 0.61777,-0.0692 0.65724,-0.0629 1.11106,0.17953 0.5958,0.31829 0.86346,0.61766 0.82287,0.92039 -0.0168,0.12519 0.01,0.24437 0.0591,0.26483 0.0606,0.0252 0.0591,0.0394 -0.005,0.0438 z m -0.79221,1.14981 c -0.47547,0.55604 -0.81415,0.86108 -0.95605,0.86108 -0.0661,0 -0.12012,0.0376 -0.12012,0.0836 0,0.13026 0.44314,0.098 0.65064,-0.0473 0.1027,-0.0719 0.26644,-0.28802 0.36385,-0.4802 0.0975,-0.19218 0.20402,-0.3682 0.2369,-0.39117 0.0615,-0.0429 0.15007,-0.24008 0.16173,-0.36 0.004,-0.0373 -0.14799,0.11307 -0.33695,0.33405 z m -0.16271,-0.9762 c -0.0431,0 -0.0783,0.049 -0.0783,0.10905 0,0.06 -0.14609,0.33244 -0.32464,0.60547 -0.32517,0.49724 -0.3232,0.65599 0.006,0.43778 0.27079,-0.1798 0.60628,-1.1523 0.39752,-1.1523 z m -0.87596,-0.0836 c -0.0511,0 -0.29006,0.54139 -0.28454,0.64454 0.004,0.0763 0.32187,-0.48907 0.32705,-0.5819 0.002,-0.0344 -0.0172,-0.0626 -0.0425,-0.0626 z m -0.28804,-1.08567 c -0.0928,0 -0.16702,0.0556 -0.16702,0.12527 0,0.15262 0.0535,0.15795 0.20913,0.0209 0.15628,-0.13759 0.15381,-0.14615 -0.0421,-0.14615 z m -0.34293,0.80131 c -0.0968,0.0875 -0.24165,0.29063 -0.322,0.45139 -0.1681,0.33635 -0.28624,0.86509 -0.1784,0.79844 0.0401,-0.0248 0.096,-0.16754 0.1243,-0.31732 0.0283,-0.14979 0.16396,-0.44145 0.3014,-0.64815 0.29643,-0.44579 0.3099,-0.49707 0.0747,-0.28436 z m -0.38786,1.89195 c -0.29176,-0.13769 -0.34412,-0.13182 -0.31952,0.0358 0.0114,0.0771 0.15389,0.18634 0.31682,0.24275 0.26409,0.0914 0.2923,0.0876 0.26003,-0.0358 -0.0199,-0.0762 -0.1357,-0.18536 -0.25733,-0.24276 z m -0.14183,-0.46698 c -0.0809,-0.0311 -0.10562,-0.006 -0.0746,0.0746 0.0255,0.0667 -9.9e-4,0.12102 -0.06,0.12102 -0.0585,0 -0.0867,0.0196 -0.0626,0.0437 0.0589,0.0589 0.31817,-0.0448 0.31817,-0.12724 0,-0.0361 -0.0545,-0.0865 -0.12102,-0.11208 z m -0.0789,-1.92583 c -0.12073,0.0464 -0.38468,0.43816 -0.38468,0.57106 0,0.0246 0.12853,-0.0956 0.28562,-0.26698 0.30418,-0.33192 0.32312,-0.39006 0.0991,-0.30408 z m -0.13414,1.11927 c -0.046,0 -0.0835,0.0166 -0.0835,0.0368 0,0.0202 0.0376,0.0601 0.0835,0.0885 0.046,0.0284 0.0836,0.0118 0.0836,-0.0368 0,-0.0486 -0.0376,-0.0885 -0.0836,-0.0885 z m -0.49517,-0.45514 c -0.0427,0.0436 -0.0994,0.19207 -0.12601,0.32987 -0.0453,0.23447 -0.0407,0.2318 0.0712,-0.0417 0.14714,-0.35938 0.1526,-0.38813 0.0547,-0.28811 z"
         style="display:inline;fill:#0f0e47;fill-opacity:1;stroke-width:0.986371"
         id="i-3" />
      <path
         d="m 102.16559,101.81719 c -0.0219,0.0896 -0.0607,0.19648 -0.0862,0.23748 -0.0256,0.041 -0.0537,0.12123 -0.0626,0.17828 -0.0181,0.11675 -0.34799,0.61369 -0.49661,0.74818 -0.0535,0.0484 -0.0972,0.11352 -0.0972,0.14475 0,0.0312 -0.10687,0.1563 -0.23748,0.27794 -0.13061,0.12163 -0.23784,0.2527 -0.23829,0.29126 -6e-4,0.0524 -0.011,0.0541 -0.0411,0.007 -0.0268,-0.0422 -0.0633,-0.0113 -0.10929,0.0927 -0.038,0.0858 -0.0906,0.14263 -0.11703,0.12632 -0.0662,-0.0409 -0.31232,0.23418 -0.31232,0.349 0,0.0514 0.0264,0.10224 0.0587,0.11299 0.0648,0.0216 0.0757,0.31426 0.0248,0.66638 -0.0599,0.41436 -0.564056,1.8643 -0.856366,2.46284 -0.21535,0.44099 -0.26044,0.51403 -0.60876,0.98616 -0.19582,0.2654 -0.949,1.08719 -0.86158,0.94005 0.0259,-0.0436 -0.087,0.0514 -0.25077,0.21109 -0.36049,0.35135 -0.44417,0.42218 -0.49881,0.42218 -0.0231,0 -0.10922,0.0712 -0.1914,0.15832 -0.0822,0.0871 -0.19351,0.15832 -0.24739,0.15832 -0.0539,0 -0.11247,0.0235 -0.1302,0.0522 -0.0186,0.0301 0.008,0.0406 0.0629,0.0247 0.0523,-0.0151 0.0357,0.003 -0.0368,0.0387 -0.0726,0.0364 -0.1438,0.0804 -0.15831,0.0978 -0.0593,0.0712 -0.20597,0.093 -0.22991,0.0342 -0.016,-0.0392 -0.0272,-0.0328 -0.0298,0.0169 -0.005,0.0955 -0.36804,0.26289 -0.57184,0.2637 -0.0796,3.1e-4 -0.25413,0.0338 -0.38781,0.0743 -0.40633,0.12332 -1.6641,0.0312 -1.7632,-0.12912 -0.0174,-0.0282 -0.0923,-0.0514 -0.16627,-0.0514 -0.11351,0 -0.12983,-0.0187 -0.10447,-0.11979 0.0319,-0.12693 -0.0598,-0.45144 -0.16233,-0.57505 -0.0337,-0.0406 -0.0854,-0.13722 -0.11484,-0.2147 -0.0417,-0.10963 -0.0385,-0.13507 0.0145,-0.11474 0.0383,0.0147 0.0681,-0.0112 0.0681,-0.0592 0,-0.0567 -0.0324,-0.0768 -0.0967,-0.06 -0.0712,0.0186 -0.0967,-0.004 -0.0967,-0.0859 0,-0.0865 0.0141,-0.0971 0.0633,-0.0478 0.0926,0.0926 0.15911,0.0773 0.12694,-0.029 -0.0153,-0.0508 -0.0423,-0.21109 -0.0598,-0.35621 -0.0412,-0.34101 -0.0733,-0.44857 -0.134,-0.44857 -0.0661,0 -0.0631,0.24906 0.004,0.29025 0.0766,0.0474 0.0649,0.19793 -0.0132,0.16931 -0.0363,-0.0133 -0.0583,-0.0568 -0.049,-0.0968 0.0113,-0.0482 -5.7e-4,-0.0549 -0.0352,-0.0198 -0.0921,0.0931 -0.11367,0.39912 -0.0304,0.43106 0.0928,0.0356 0.0997,0.17583 0.009,0.17583 -0.13778,0 -0.20754,-0.21098 -0.16336,-0.49406 0.0233,-0.14913 0.0367,-0.30676 0.0298,-0.3503 -0.0565,-0.35748 -0.052,-0.88878 0.01,-1.14745 0.0745,-0.31297 0.28931,-0.87643 0.52822,-1.38564 0.0749,-0.15964 0.13641,-0.34987 0.13669,-0.42272 2.9e-4,-0.0729 0.06,-0.19656 0.13255,-0.27487 0.0726,-0.0783 0.18542,-0.22056 0.25067,-0.3161 0.48154,-0.70506 1.32358,-1.64883 1.91362,-2.14483 0.25201,-0.21185 0.8126,-0.56912 1.01189,-0.64489 0.0787,-0.0299 0.33427,-0.0505 0.56793,-0.0456 0.23365,0.005 0.65946,0.005 0.94622,6.2e-4 0.63697,-0.01 0.98088,0.0889 1.22995,0.35297 0.16373,0.17361 0.18527,0.18107 0.42073,0.14576 0.327776,-0.0492 1.394096,-0.60157 1.613576,-0.83594 0.16766,-0.17899 0.42453,-0.73459 0.45598,-0.98622 0.008,-0.0607 0.16317,-0.0729 0.16832,-0.0132 0.0328,0.3814 0.033,0.59678 4e-4,0.73022 z m -0.55159,0.70256 c -0.04,0.0332 -0.14058,0.16081 -0.22343,0.28352 -0.0829,0.1227 -0.22226,0.28246 -0.3098,0.35502 -0.0875,0.0726 -0.30166,0.26723 -0.47581,0.43259 -0.25128,0.23861 -0.30319,0.31413 -0.25151,0.36593 0.0517,0.0518 0.12843,6.3e-4 0.3722,-0.24788 0.47366,-0.48301 1.18524,-1.43558 0.88835,-1.18918 z m -1.27752,0.4483 c -0.0461,0.0177 -0.17668,0.047 -0.29025,0.0652 -0.199652,0.0319 -0.271382,0.1315 -0.149122,0.20706 0.067,0.0414 0.523152,-0.18032 0.523152,-0.25425 0,-0.0276 -0.0377,-0.0357 -0.0838,-0.018 z m -0.0217,0.45411 c -0.0291,0 -0.0528,0.0251 -0.0528,0.0559 0,0.0307 0.0237,0.0412 0.0528,0.0232 0.029,-0.018 0.0528,-0.0431 0.0528,-0.0559 0,-0.0128 -0.0237,-0.0232 -0.0528,-0.0232 z m -0.16139,1.06117 c -0.14985,-0.17994 -0.185262,-0.10155 -0.11273,0.24959 0.0347,0.16784 0.063,0.38486 0.063,0.48229 0,0.22964 0.0439,0.18186 0.10127,-0.11024 0.0715,-0.3638 0.0613,-0.48609 -0.0516,-0.62164 z m -0.211672,-0.50481 c -0.0638,0.0395 -0.064,0.23523 -2.2e-4,0.23523 0.0535,0 0.103372,-0.16031 0.0701,-0.22515 -0.0114,-0.0222 -0.0428,-0.0268 -0.0699,-0.0101 z m -0.17652,0.50642 c -0.0282,-0.0456 -0.0601,-0.0489 -0.10585,-0.0108 -0.0467,0.0388 -0.19328,10e-4 -0.50983,-0.13094 -0.95346,-0.39771 -1.67968,-0.48174 -2.26496,-0.26208 -0.13062,0.049 -0.27955,0.0885 -0.33098,0.0877 -0.0514,-6.2e-4 -0.0811,0.0186 -0.0659,0.0431 0.0151,0.0245 -0.1168,0.11122 -0.29324,0.19268 -0.17643,0.0815 -0.34386,0.19123 -0.37208,0.24394 -0.0282,0.0527 -0.0736,0.0821 -0.1009,0.0652 -0.045,-0.0278 -0.23128,0.15222 -0.83416,0.8061 -0.11374,0.12335 -0.19701,0.22428 -0.18506,0.22428 0.012,0 -0.10086,0.12468 -0.25071,0.27706 -0.60588,0.61612 -0.88325,1.07723 -1.08725,1.80746 -0.15676,0.56118 -0.0878,1.23091 0.18613,1.80694 0.0791,0.16638 0.22591,0.26037 0.31789,0.20352 0.025,-0.0155 0.0905,0.006 0.14559,0.0477 0.11537,0.0873 0.4213,0.10442 0.46962,0.0262 0.0217,-0.0352 0.067,-0.0346 0.13505,0.002 0.0713,0.0382 0.13465,0.0375 0.20898,-0.002 0.0587,-0.0314 0.12846,-0.0436 0.15515,-0.0271 0.0267,0.0165 0.12711,-0.0179 0.22319,-0.0765 0.20796,-0.12679 0.30661,-0.13572 0.30661,-0.0277 0,0.13114 0.16791,0.0901 0.46309,-0.1132 0.26251,-0.1808 0.28346,-0.18665 0.34876,-0.0974 0.0663,0.0907 0.085,0.089 0.41188,-0.0373 0.32466,-0.12547 1.72689,-1.01256 1.98339,-1.25475 0.066,-0.0623 0.10384,-0.13922 0.0842,-0.17101 -0.0197,-0.0318 -0.0117,-0.0429 0.0178,-0.0247 0.11135,0.0688 0.50197,-0.48862 0.75136,-1.07222 0.19712,-0.46129 0.26859,-0.78046 0.30133,-1.3457 0.0168,-0.29025 0.0372,-0.53514 0.0453,-0.5442 0.0221,-0.0247 -0.10801,-0.56083 -0.15438,-0.63586 z m -0.47317,-0.57841 c -0.13091,-0.0155 -0.13805,-0.008 -0.0793,0.0864 0.0545,0.0873 0.10263,0.10014 0.24891,0.0666 0.01,-0.002 0.008,-0.0337 -0.004,-0.07 -0.0119,-0.0363 -0.0864,-0.0736 -0.16552,-0.0829 z m 0.10623,-0.74242 c -0.0546,-0.0453 -0.0869,-0.0421 -0.13258,0.0129 -0.0462,0.0556 -0.0421,0.088 0.0171,0.13712 0.0769,0.0638 0.18766,0.036 0.18766,-0.047 0,-0.0237 -0.0325,-0.0701 -0.0722,-0.10308 z m -0.29725,0.83855 c -0.0583,-0.0312 -0.10555,-0.0348 -0.10555,-0.008 0,0.0267 0.0475,0.0609 0.10555,0.0761 0.058,0.0151 0.10554,0.0188 0.10554,0.008 0,-0.0108 -0.0475,-0.045 -0.10554,-0.0761 z m -0.60689,-1.37363 c -0.50217,-0.0176 -0.5544,-0.006 -0.35769,0.0796 0.0935,0.0406 0.21226,0.0743 0.26386,0.0749 0.0907,6.2e-4 0.19759,0.02 0.50194,0.0898 0.0793,0.0182 0.1862,0.0156 0.23747,-0.006 0.15492,-0.0646 -0.28129,-0.22574 -0.64558,-0.23848 z m 0.16397,0.63481 c -0.0404,0 -0.0872,0.0357 -0.10389,0.0792 -0.034,0.0885 -0.0253,0.0929 0.0939,0.0471 0.10311,-0.0396 0.10994,-0.12628 0.01,-0.12628 z m -0.42519,0.42405 c -0.16409,-0.003 -0.0246,0.0975 0.18371,0.13226 l 0.18306,0.0306 -0.13193,-0.0805 c -0.0726,-0.0443 -0.17825,-0.0813 -0.23484,-0.0824 z m 0.0748,-0.48417 c -0.0571,0.0685 -0.10326,0.15164 -0.10261,0.18471 6.2e-4,0.033 0.0476,6.2e-4 0.10437,-0.0718 0.1349,-0.17246 0.13331,-0.27502 -0.002,-0.11289 z m -0.3518,0.01 c -0.11473,0.0717 -0.29829,0.36706 -0.22808,0.36706 0.0257,0 0.10091,-0.0772 0.16715,-0.17151 0.0662,-0.0943 0.14058,-0.17992 0.16521,-0.1902 0.0246,-0.0103 0.0337,-0.0297 0.0202,-0.0433 -0.0135,-0.0135 -0.0695,0.004 -0.12451,0.0379 z m -0.224,-0.16224 c -0.12486,0.0668 -0.18414,0.15461 -0.13655,0.20219 0.0194,0.0194 0.0806,-0.0237 0.13604,-0.0959 0.12661,-0.16478 0.12665,-0.17384 5.1e-4,-0.10633 z m -0.0267,6.44424 c -0.0131,0.0121 -0.10954,0.0932 -0.21437,0.18031 -0.37945,0.31515 -0.63012,0.56004 -0.51625,0.50433 0.12305,-0.0602 0.75438,-0.62689 0.75438,-0.67713 0,-0.0162 -0.0107,-0.0196 -0.0238,-0.007 z m -0.13456,-6.04687 c -0.029,0.018 -0.0528,0.006 -0.0528,-0.0264 0,-0.0325 -0.0241,-0.0441 -0.0537,-0.0259 -0.0295,0.0182 -0.04,0.0552 -0.0233,0.0823 0.0167,0.0271 0.001,0.0491 -0.0343,0.0491 -0.0356,0 -0.0509,0.0138 -0.034,0.0307 0.0324,0.0324 0.25079,-0.0676 0.25079,-0.1148 0,-0.0152 -0.0238,-0.013 -0.0528,0.005 z m -0.55469,0.0345 c -0.037,0.0391 -0.0833,0.12447 -0.10286,0.18977 -0.0285,0.0951 -0.0148,0.11874 0.0686,0.11874 0.0761,0 0.0971,-0.0268 0.0781,-0.0996 -0.0143,-0.0548 1.6e-4,-0.11579 0.0322,-0.13558 0.032,-0.0198 0.0431,-0.0604 0.0248,-0.0902 -0.0216,-0.035 -0.0573,-0.0291 -0.10075,0.0168 z m -0.15334,6.11431 c -0.0266,-4.4e-4 -0.0354,0.0122 -0.0196,0.0279 0.0158,0.0158 -0.0337,0.0949 -0.10994,0.17573 -0.54202,0.57438 -0.56634,0.66701 -0.0565,0.21496 0.26969,-0.2391 0.35344,-0.34233 0.30344,-0.37404 -0.0379,-0.0241 -0.0908,-0.0442 -0.11743,-0.0446 z m -0.18961,-6.01639 c -0.0539,0.0539 -0.1599,0.13856 -0.23558,0.18815 -0.0757,0.0496 -0.16073,0.13335 -0.18898,0.18615 -0.0533,0.0996 -0.0318,0.0958 0.45145,-0.079 0.029,-0.0105 0.0569,-0.10329 0.062,-0.20618 0.009,-0.18227 0.007,-0.18456 -0.0888,-0.0891 z m -0.13427,-0.68419 c -0.10016,0.0831 -0.37353,0.60499 -0.28981,0.55324 0.0809,-0.05 0.42668,-0.5711 0.39799,-0.59979 -0.013,-0.013 -0.0617,0.008 -0.10818,0.0466 z m -0.87231,7.22986 c -0.0903,0.0484 -0.0998,0.0714 -0.0435,0.10619 0.0451,0.0279 0.1068,0.0128 0.16545,-0.0402 0.0515,-0.0466 0.0936,-0.0677 0.0936,-0.047 0,0.0207 0.0297,0.0185 0.066,-0.005 0.10965,-0.0709 -0.151,-0.0838 -0.28146,-0.014 z m 0.14953,-5.77562 c -0.0943,0.048 -0.20714,0.12607 -0.25067,0.17356 -0.23231,0.25336 -0.20332,0.26602 0.0924,0.0403 0.36741,-0.28046 0.41459,-0.34419 0.15832,-0.21387 z m -0.67732,5.81187 c -0.0605,0.0158 -0.12242,0.0611 -0.13758,0.10061 -0.0152,0.0395 -0.058,0.0718 -0.0952,0.0718 -0.0372,0 -0.12373,0.0493 -0.19226,0.10957 -0.0685,0.0603 -0.0949,0.0945 -0.0586,0.076 0.0363,-0.0185 0.066,-0.005 0.066,0.03 0,0.035 0.0552,0.004 0.12264,-0.0687 0.0675,-0.0728 0.1862,-0.17397 0.26387,-0.22486 0.16994,-0.11135 0.17697,-0.13264 0.0312,-0.0945 z m -0.29076,0.40448 c -0.30011,0.15976 -0.35825,0.30293 -0.11552,0.28443 0.12147,-0.009 0.17264,-0.0469 0.21018,-0.15457 0.0273,-0.0783 0.087,-0.15668 0.13265,-0.1742 0.0457,-0.0175 0.07,-0.0449 0.054,-0.0609 -0.016,-0.016 -0.14255,0.0314 -0.28129,0.10524 z m 0.0608,-5.77317 c -0.0919,0 -0.3941,0.23741 -0.45333,0.35614 -0.0398,0.0799 -0.0845,0.16894 -0.0993,0.19797 -0.034,0.0668 0.42195,-0.28747 0.50837,-0.39498 0.0652,-0.0811 0.0869,-0.15913 0.0443,-0.15913 z m -0.52666,0.66539 c -0.0758,0.0291 -0.16005,0.17897 -0.1006,0.17897 0.0269,0 0.16871,-0.1599 0.174,-0.19624 10e-4,-0.006 -0.0321,10e-4 -0.0734,0.0173 z m -0.16054,4.84329 c -0.0715,0.0469 -0.16653,0.0852 -0.21109,0.0852 -0.0446,0 -0.081,0.0237 -0.081,0.0528 0,0.029 -0.0357,0.0528 -0.0792,0.0528 -0.0436,0 -0.0792,0.0358 -0.0792,0.0797 0,0.0574 0.0813,0.0257 0.29025,-0.11302 0.15964,-0.10599 0.29025,-0.20395 0.29025,-0.2177 0,-0.0137 -0.0585,0.0133 -0.13007,0.0603 z m -0.23934,-4.74348 c -0.0576,0.0871 -0.105,0.18884 -0.10519,0.22614 -2e-4,0.0373 -0.0392,0.1271 -0.0867,0.19955 -0.0475,0.0724 -0.0761,0.14192 -0.0636,0.15438 0.0125,0.0125 0.0658,-0.0655 0.11858,-0.17316 0.0527,-0.1077 0.12826,-0.25519 0.16779,-0.32775 0.10969,-0.20136 0.0876,-0.25803 -0.0309,-0.0792 z m -0.13709,4.57604 c -0.0557,-0.008 -0.14758,0.0188 -0.20432,0.0603 -0.086,0.0629 -0.0919,0.0891 -0.0353,0.15718 0.0373,0.0449 0.10171,0.0713 0.14313,0.0585 0.0414,-0.0128 0.10904,-0.0337 0.15027,-0.0464 0.10785,-0.0333 0.0661,-0.21155 -0.0537,-0.22954 z m -0.70727,-3.01925 c -0.0281,0.0436 -0.0512,0.10291 -0.0512,0.13194 0,0.029 0.023,0.0171 0.0512,-0.0264 0.0281,-0.0435 0.0512,-0.1029 0.0512,-0.13193 0,-0.0291 -0.023,-0.0171 -0.0512,0.0264 z m -0.15666,0.36942 c -0.0281,0 -0.0375,0.0356 -0.0207,0.0791 0.0167,0.0436 0.0397,0.0792 0.0511,0.0792 0.0114,0 0.0207,-0.0357 0.0207,-0.0792 0,-0.0436 -0.023,-0.0791 -0.0511,-0.0791 z"
         style="display:inline;fill:#0f0e47;fill-opacity:1;stroke-width:0.6233"
         id="o-8" />
      <path
         d="m 110.2503,111.01073 c -0.0875,0.0298 -0.41679,0.0445 -0.73178,0.0328 -0.31499,-0.0117 -0.74194,-0.0242 -0.94877,-0.0279 -0.27607,-0.005 -0.38311,-0.0319 -0.40256,-0.10204 -0.0196,-0.0707 -0.0119,-0.0749 0.0299,-0.0158 0.0977,0.13806 0.24222,-0.63545 0.21397,-1.14554 -0.004,-0.0613 -0.0379,-0.11137 -0.0766,-0.11137 -0.0387,0 -0.0528,0.046 -0.0312,0.10227 0.0216,0.0562 0.0132,0.20658 -0.0186,0.33408 -0.0319,0.12749 -0.0748,0.30713 -0.0954,0.3992 -0.0218,0.0973 -0.0935,0.18203 -0.17118,0.20234 -0.10135,0.0265 -0.12356,0.0668 -0.0919,0.16669 0.0331,0.10422 0.0143,0.13173 -0.0897,0.13173 -0.0904,0 -0.13156,-0.041 -0.13156,-0.13102 0,-0.0721 0.0215,-0.11804 0.0477,-0.10218 0.0262,0.0159 0.0527,-0.10784 0.0588,-0.2749 0.006,-0.16706 0.0571,-0.48736 0.11334,-0.71178 0.0563,-0.22441 0.11127,-0.66721 0.1222,-0.98397 0.0109,-0.31676 0.0364,-0.60267 0.0566,-0.63535 0.0769,-0.12435 0.11001,-2.0061 0.0402,-2.28322 -0.0632,-0.2509 -0.34745,-0.60341 -0.53427,-0.66252 -0.035,-0.011 -0.19653,-0.0725 -0.35895,-0.13653 -0.16242,-0.064 -0.31276,-0.099 -0.33408,-0.0776 -0.0213,0.0213 -0.0388,0.008 -0.0388,-0.0295 0,-0.11204 -0.51839,-0.0171 -0.7636,0.13993 -0.27164,0.17388 -0.4559,0.33061 -0.99425,0.84564 -0.22863,0.21874 -0.46356,0.39997 -0.52206,0.40274 -0.0596,0.003 -0.0731,0.0186 -0.0307,0.0358 0.0462,0.0188 -0.0224,0.13178 -0.17596,0.28999 -0.13835,0.14257 -0.2726,0.33406 -0.29831,0.42554 -0.0257,0.0915 -0.0459,0.82494 -0.0447,1.6299 0.002,1.22514 0.0193,1.50246 0.10811,1.70221 0.0997,0.22432 0.12311,0.23863 0.39047,0.23863 0.36631,0 0.4857,0.0486 0.4857,0.1977 0,0.0997 -0.0521,0.12242 -0.30226,0.1318 -0.16624,0.006 -0.35953,0.008 -0.42953,0.004 -0.07,-0.005 -0.49952,-0.0263 -0.95451,-0.0491 -0.45498,-0.0228 -0.89883,-0.0459 -0.98633,-0.0514 -0.29017,-0.0183 -0.18464,-0.19293 0.15909,-0.26333 0.33916,-0.0694 0.7682,-0.27238 0.70644,-0.33413 -0.0204,-0.0204 -0.0104,-0.0694 0.0221,-0.10864 0.0326,-0.0393 0.0743,-0.15443 0.0927,-0.25581 0.0184,-0.1014 0.0627,-0.32959 0.0984,-0.50709 0.0357,-0.17752 0.0725,-0.59898 0.0817,-0.9366 0.009,-0.33762 0.034,-0.60338 0.0552,-0.59059 0.11865,0.0718 0.15869,-2.30437 0.0565,-3.35454 -0.0946,-0.97221 -0.11081,-1.08618 -0.29322,-2.05893 -0.0919,-0.48998 -0.17355,-0.9796 -0.1815,-1.08803 -0.008,-0.10843 -0.0348,-0.23013 -0.0598,-0.27044 -0.0856,-0.13852 0.18265,-0.0735 0.32756,0.0794 0.16902,0.17832 0.52804,0.84175 0.48099,0.88882 -0.018,0.018 0.0399,0.27071 0.12881,0.56151 0.32506,1.06351 0.43636,1.48102 0.4611,1.72975 0.0139,0.13977 0.0498,0.27872 0.0799,0.30877 0.0304,0.0304 0.18561,-0.0987 0.35016,-0.29131 0.3,-0.35114 0.79197,-0.71344 1.17808,-0.86755 0.18002,-0.0718 0.2214,-0.0711 0.26946,0.005 0.0458,0.0725 0.057,0.0683 0.0578,-0.0216 7.5e-4,-0.13106 0.0692,-0.14255 0.18848,-0.0318 0.0525,0.0488 0.0699,0.0513 0.0447,0.006 -0.0298,-0.0531 0.13412,-0.0721 0.59717,-0.0694 l 0.63814,0.004 0.27076,0.26037 c 0.37688,0.36241 0.60281,0.72209 0.65318,1.03988 0.0236,0.14874 0.0702,0.27044 0.10366,0.27044 0.0335,0 0.0487,0.0358 0.034,0.0795 -0.0148,0.0438 0.0104,0.16897 0.0559,0.27827 0.0455,0.1093 0.0654,0.21599 0.0443,0.23709 -0.0211,0.0211 -0.008,0.0749 0.0286,0.11944 0.058,0.0703 0.0609,0.44777 0.0141,1.89465 -0.006,0.17968 -0.13296,1.24054 -0.19069,1.59083 -0.13227,0.80271 -0.13151,0.84827 0.0185,1.11239 0.16945,0.29838 0.36459,0.41198 0.71387,0.41555 0.13999,0.002 0.36907,0.0545 0.50907,0.11793 0.2503,0.1134 0.25189,0.11622 0.0954,0.16936 z m -1.46733,-0.35165 c -0.0329,0 -0.0599,0.0286 -0.0599,0.0637 0,0.035 0.0446,0.0637 0.0992,0.0637 0.0546,0 0.0815,-0.0286 0.0599,-0.0637 -0.0217,-0.035 -0.0663,-0.0637 -0.0992,-0.0637 z m -0.001,-3.99656 c -0.0399,-0.29068 -0.0894,-0.51157 -0.11012,-0.49088 -0.0438,0.0438 -0.0333,2.5782 0.0109,2.62238 0.0163,0.0163 0.0483,-0.16585 0.0709,-0.40485 0.0227,-0.23899 0.0475,-0.47748 0.0552,-0.52998 0.0461,-0.31587 0.0367,-0.73353 -0.0268,-1.19667 z m -0.29505,-2.23955 c -0.0557,-0.1575 -0.15371,-0.35415 -0.21779,-0.43701 -0.064,-0.0829 -0.098,-0.18308 -0.0753,-0.22271 0.0226,-0.0396 0.0192,-0.0523 -0.008,-0.0281 -0.0268,0.0242 -0.12365,-0.0254 -0.21505,-0.11014 -0.0989,-0.0917 -0.18946,-0.13083 -0.22363,-0.0967 -0.0316,0.0316 -0.10407,0.0408 -0.16105,0.0204 -0.0717,-0.0256 -0.0574,0.0137 0.0464,0.12764 0.0825,0.0906 0.18843,0.14992 0.23544,0.13188 0.0543,-0.0208 0.12256,0.0563 0.18707,0.2114 0.0558,0.13432 0.17901,0.35582 0.27364,0.49222 0.0946,0.13641 0.20613,0.35117 0.24779,0.47726 l 0.0757,0.22924 -0.0321,-0.25453 c -0.0177,-0.14 -0.0777,-0.3834 -0.13339,-0.54089 z m -0.0768,2.57429 c -0.0236,0.0146 -0.0502,0.14933 -0.059,0.29941 -0.009,0.15009 -0.0503,0.29466 -0.0922,0.32128 -0.0583,0.037 -0.0577,0.0486 0.002,0.0494 0.0541,6.7e-4 0.0764,0.11523 0.0713,0.36686 -0.0107,0.53179 0.024,0.61476 0.0731,0.175 0.0561,-0.50192 0.0586,-1.24554 0.005,-1.21193 z m -0.0683,1.91189 c -0.076,0.17679 -0.076,0.30148 0,0.25453 0.035,-0.0216 0.0616,-0.11638 0.0591,-0.21056 -0.004,-0.1529 -0.0103,-0.15761 -0.0591,-0.044 z m -0.0828,-3.97711 c -0.0592,-0.14605 -0.0668,-0.14866 -0.0931,-0.0318 -0.0158,0.07 -0.0547,0.15943 -0.0865,0.19875 -0.0649,0.0801 -0.01,0.26722 0.11575,0.39441 0.0457,0.0462 0.0835,0.13215 0.0841,0.1909 7.5e-4,0.0854 0.0121,0.0893 0.0565,0.0192 0.0631,-0.0995 0.0199,-0.53323 -0.0766,-0.77141 z m -0.299,-0.41362 c -0.035,-0.0216 -0.0637,-0.0107 -0.0637,0.0243 0,0.035 0.0286,0.0813 0.0637,0.10297 0.035,0.0216 0.0637,0.0107 0.0637,-0.0243 0,-0.035 -0.0286,-0.0813 -0.0637,-0.10296 z m -0.41619,-0.55745 c -0.12802,-0.13806 -0.21874,-0.17433 -0.43594,-0.17433 -0.30354,0 -0.67508,0.1082 -0.67508,0.1966 0,0.0313 0.11449,0.0111 0.25441,-0.0449 0.29334,-0.11737 0.42676,-0.0864 0.50186,0.11665 0.0409,0.11052 0.10696,0.146 0.28482,0.15293 0.27487,0.0107 0.28281,-0.0174 0.0699,-0.24695 z m -0.35994,0.52923 c -0.0595,-0.0953 -0.10234,-0.10792 -0.19617,-0.0577 -0.11423,0.0611 -0.11469,0.0701 -0.009,0.18644 0.20617,0.22782 0.36585,0.12784 0.20561,-0.12873 z m -0.87055,-0.1945 c -0.0307,0 -0.0896,0.0407 -0.13091,0.0905 -0.0616,0.0742 -0.0516,0.0843 0.0558,0.0562 0.12791,-0.0334 0.18585,-0.14666 0.0751,-0.14666 z m -0.86685,0.50907 c -0.0875,0.0822 -0.15909,0.17809 -0.15909,0.21309 0,0.035 0.0716,-0.004 0.15909,-0.0858 0.0875,-0.0822 0.15909,-0.17808 0.15909,-0.21309 0,-0.035 -0.0716,0.004 -0.15909,0.0858 z m -0.19531,-0.24333 c -0.0964,0.0813 -0.23509,0.21732 -0.30817,0.30219 -0.073,0.0849 -0.26887,0.30709 -0.43512,0.49383 -0.24844,0.27908 -0.38144,0.52909 -0.28147,0.52909 0.0114,0 0.141,-0.16466 0.28792,-0.3659 0.14694,-0.20124 0.42308,-0.52185 0.61367,-0.71247 0.3576,-0.35766 0.4325,-0.5077 0.12317,-0.24674 z m -0.55843,1.19784 c -0.0121,0 -0.0765,0.0644 -0.14318,0.14317 l -0.12122,0.14318 0.14317,-0.12122 c 0.13456,-0.11392 0.17215,-0.16513 0.12123,-0.16513 z m -0.32803,-1.10479 c -0.0767,-0.0295 -0.0951,0.0224 -0.0935,0.26364 0.002,0.24344 0.0147,0.27821 0.0697,0.18372 0.0373,-0.0641 0.0534,-0.17149 0.0358,-0.23863 -0.0176,-0.0671 -0.006,-0.12208 0.0258,-0.12208 0.0885,0 0.0685,-0.0458 -0.0378,-0.0867 z m -0.31669,-0.63456 c -0.0542,-0.0542 -0.0714,-0.11432 -0.0385,-0.13465 0.0349,-0.0215 0.0374,-0.11339 0.006,-0.22199 -0.0292,-0.10188 -0.0343,-0.20631 -0.0112,-0.23205 0.0231,-0.0258 0.005,-0.0255 -0.0402,5.4e-4 -0.061,0.0352 -0.0723,0.008 -0.0439,-0.10471 0.0227,-0.0904 -0.0159,-0.27952 -0.0951,-0.46667 l -0.1333,-0.31462 0.0359,0.34998 c 0.0198,0.19249 0.0495,0.53097 0.0661,0.75219 0.0165,0.22121 0.0562,0.45081 0.0879,0.51021 0.0318,0.0594 0.0806,0.3509 0.10852,0.64776 0.04,0.42578 0.0586,0.49271 0.0883,0.31702 0.0835,-0.4946 0.0693,-1.00297 -0.0307,-1.10301 z"
         style="display:inline;fill:#0f0e47;fill-opacity:1;stroke-width:0.75158"
         id="n-6" />
      <path
         d="m 115.68179,110.90755 c -0.0314,0.0193 -0.84245,0.0318 -1.80248,0.0275 -0.96004,-0.004 -2.05926,0.0193 -2.44272,0.0524 l -0.69721,0.0601 0.19095,-0.25827 c 0.17227,-0.23301 0.23491,-0.25828 0.64006,-0.25828 0.67717,0 0.72894,-0.0524 0.84178,-0.85136 0.0538,-0.38149 0.1388,-0.97548 0.18872,-1.31997 0.0979,-0.6762 0.18259,-5.65228 0.10268,-6.03938 -0.0473,-0.22961 -0.0599,-0.23447 -0.52241,-0.20299 -0.26062,0.0178 -0.51073,0.055 -0.55581,0.083 -0.0451,0.0279 -0.30764,0.0762 -0.58348,0.10739 -0.40536,0.0459 -0.52269,0.0313 -0.6119,-0.0762 -0.14921,-0.17979 -0.0617,-0.36904 0.2009,-0.43497 0.25258,-0.0634 0.3841,0.0235 0.20605,0.13607 -0.10304,0.0652 -0.0993,0.0779 0.0233,0.079 0.0804,7.1e-4 0.14614,-0.0426 0.14614,-0.0962 0,-0.0536 0.0248,-0.0727 0.0549,-0.0425 0.0302,0.0302 0.0969,0.0202 0.14806,-0.0223 0.0512,-0.0425 0.3741,-0.10309 0.71754,-0.13465 0.34345,-0.0316 0.65394,-0.0747 0.68998,-0.0958 0.036,-0.0211 0.0444,-0.22325 0.0185,-0.44921 -0.0381,-0.33332 -0.0229,-0.41084 0.0806,-0.41084 0.0867,0 0.12759,0.0821 0.12759,0.25603 0,0.48634 0.30313,0.74363 0.56619,0.48057 0.0754,-0.0754 0.14314,-0.0756 0.28812,-9.1e-4 0.10427,0.0537 0.48984,0.10743 0.85679,0.11941 0.52161,0.0171 0.67253,0.0497 0.69163,0.1499 0.0313,0.16422 -0.62126,0.34926 -0.97924,0.27767 -0.21776,-0.0436 -0.25432,-0.026 -0.25432,0.12167 0,0.0949 -0.0359,0.19475 -0.0799,0.2219 -0.0439,0.0271 -0.0587,0.10453 -0.0328,0.17195 0.0258,0.0675 0.0136,0.1226 -0.0271,0.1226 -0.19119,0 -0.29741,0.77087 -0.24496,1.77789 0.0292,0.56088 0.0569,1.09495 0.0617,1.18681 0.005,0.0918 0.0658,0.48646 0.13571,0.87689 0.0699,0.39042 0.136,0.82392 0.14676,0.96335 0.0108,0.13941 0.0418,0.36489 0.0691,0.50107 0.0272,0.13617 0.0715,0.48298 0.0984,0.77069 0.10294,1.10182 0.37556,1.6553 0.85381,1.73347 0.67327,0.11003 0.74529,0.13478 0.74529,0.25607 0,0.0689 -0.0257,0.1412 -0.0569,0.16057 z m -1.67805,-1.02384 c -0.083,-0.22163 -0.12246,-0.23379 -0.18981,-0.0583 -0.0337,0.0881 -0.0166,0.10968 0.0537,0.0675 0.0729,-0.0438 0.0707,-0.0217 -0.007,0.0746 -0.14092,0.17387 -0.0956,0.52 0.0691,0.52712 0.27437,0.0118 0.28249,-0.0547 0.0745,-0.61089 z m -0.77935,-7.87107 c -0.16446,0 -0.21825,0.10867 -0.12597,0.25452 0.0573,0.0907 0.077,0.0936 0.078,0.0119 7e-4,-0.0602 0.0389,-0.0861 0.0848,-0.0577 0.046,0.0284 0.0835,-0.007 0.0835,-0.0786 0,-0.0716 -0.0541,-0.1302 -0.12034,-0.1302 z m 2.41514,-0.20269 c -0.12984,-0.17162 -0.10921,-0.26752 0.038,-0.17655 0.049,0.0303 0.0879,0.11859 0.0864,0.19627 -0.002,0.12398 -0.0176,0.12158 -0.1244,-0.0197 z m -0.34292,-5.315738 c -0.0544,0.004 -0.0843,0.12114 -0.0709,0.27801 0.0128,0.14927 -1.2e-4,0.30899 -0.0287,0.35492 -0.0286,0.046 -0.0611,0.1211 -0.0722,0.16702 -0.19027,0.78785 -0.71439,1.58852 -1.20637,1.84293 -0.40148,0.20761 -0.8865,0.1794 -1.47318,-0.0857 -0.52367,-0.23661 -1.02058,-0.74378 -1.02185,-1.04294 -3.1e-4,-0.0713 -0.0753,-0.24244 -0.16648,-0.38024 -0.0917,-0.13848 -0.16616,-0.39182 -0.16647,-0.56639 -0.002,-0.99329 0.94055,-1.83294 2.2177,-1.97617 0.61777,-0.0692 0.65724,-0.0629 1.11106,0.17953 0.5958,0.31829 0.86346,0.61766 0.82287,0.92039 -0.0168,0.12519 0.01,0.24437 0.0591,0.26483 0.0606,0.0252 0.0591,0.0394 -0.005,0.0438 z m -0.79221,1.14981 c -0.47547,0.55604 -0.81415,0.86108 -0.95605,0.86108 -0.0661,0 -0.12012,0.0376 -0.12012,0.0836 0,0.13026 0.44314,0.098 0.65064,-0.0473 0.1027,-0.0719 0.26644,-0.28802 0.36385,-0.4802 0.0975,-0.19218 0.20402,-0.3682 0.2369,-0.39117 0.0615,-0.0429 0.15007,-0.24008 0.16173,-0.36 0.004,-0.0373 -0.14799,0.11307 -0.33695,0.33405 z m -0.16271,-0.9762 c -0.0431,0 -0.0783,0.049 -0.0783,0.10905 0,0.06 -0.14609,0.33244 -0.32464,0.60547 -0.32517,0.49724 -0.3232,0.65599 0.006,0.43778 0.27079,-0.1798 0.60628,-1.1523 0.39752,-1.1523 z m -0.87596,-0.0836 c -0.0511,0 -0.29006,0.54139 -0.28454,0.64454 0.004,0.0763 0.32187,-0.48907 0.32705,-0.5819 0.002,-0.0344 -0.0172,-0.0626 -0.0425,-0.0626 z m -0.28804,-1.08567 c -0.0928,0 -0.16702,0.0556 -0.16702,0.12527 0,0.15262 0.0535,0.15795 0.20913,0.0209 0.15628,-0.13759 0.15381,-0.14615 -0.0421,-0.14615 z m -0.34293,0.80131 c -0.0968,0.0875 -0.24165,0.29063 -0.322,0.45139 -0.1681,0.33635 -0.28624,0.86509 -0.1784,0.79844 0.0401,-0.0248 0.096,-0.16754 0.1243,-0.31732 0.0283,-0.14979 0.16396,-0.44145 0.3014,-0.64815 0.29643,-0.44579 0.3099,-0.49707 0.0747,-0.28436 z m -0.38786,1.89195 c -0.29176,-0.13769 -0.34412,-0.13182 -0.31952,0.0358 0.0114,0.0771 0.15389,0.18634 0.31682,0.24275 0.26409,0.0914 0.2923,0.0876 0.26003,-0.0358 -0.0199,-0.0762 -0.1357,-0.18536 -0.25733,-0.24276 z m -0.14183,-0.46698 c -0.0809,-0.0311 -0.10562,-0.006 -0.0746,0.0746 0.0255,0.0667 -9.9e-4,0.12102 -0.06,0.12102 -0.0585,0 -0.0867,0.0196 -0.0626,0.0437 0.0589,0.0589 0.31817,-0.0448 0.31817,-0.12724 0,-0.0361 -0.0545,-0.0865 -0.12102,-0.11208 z m -0.0789,-1.92583 c -0.12073,0.0464 -0.38468,0.43816 -0.38468,0.57106 0,0.0246 0.12853,-0.0956 0.28562,-0.26698 0.30418,-0.33192 0.32312,-0.39006 0.0991,-0.30408 z m -0.13414,1.11927 c -0.046,0 -0.0835,0.0166 -0.0835,0.0368 0,0.0202 0.0376,0.0601 0.0835,0.0885 0.046,0.0284 0.0836,0.0118 0.0836,-0.0368 0,-0.0486 -0.0376,-0.0885 -0.0836,-0.0885 z m -0.49517,-0.45514 c -0.0427,0.0436 -0.0994,0.19207 -0.12601,0.32987 -0.0453,0.23447 -0.0407,0.2318 0.0712,-0.0417 0.14714,-0.35938 0.1526,-0.38813 0.0547,-0.28811 z"
         style="display:inline;fill:#0f0e47;fill-opacity:1;stroke-width:0.986371"
         id="i-3-2" />
      <path
         d="m 75.804689,110.55928 c -0.0269,0.002 -0.19616,0.0176 -0.37597,0.034 -0.17981,0.0164 -0.48876,0.0375 -0.68656,0.047 -0.1978,0.009 -0.41177,0.0417 -0.4755,0.0717 -0.0637,0.03 -0.41681,0.0415 -0.78464,0.0256 -0.61815,-0.0267 -1.21394,0.0307 -2.13998,0.20607 -0.50144,0.095 -0.93418,0.13079 -1.01053,0.0836 -0.0355,-0.0219 -0.18307,-0.0465 -0.32798,-0.0546 -0.1449,-0.008 -0.42529,-0.0588 -0.62309,-0.11282 -0.19779,-0.054 -0.56559,-0.13287 -0.81734,-0.17533 -0.66653,-0.11243 -0.75195,-0.13628 -0.75195,-0.20996 0,-0.0395 0.0827,-0.05 0.20414,-0.0256 0.17487,0.035 0.19265,0.027 0.12402,-0.0557 -0.0441,-0.0531 -0.2377,-0.17363 -0.43028,-0.26785 -0.23095,-0.11299 -0.3965,-0.24987 -0.4863,-0.40207 -0.0749,-0.12691 -0.15217,-0.21471 -0.17177,-0.19512 -0.0477,0.0477 0.17159,0.50395 0.2423,0.50395 0.0761,0 0.45251,0.37321 0.45251,0.44862 0,0.0806 -0.42855,-0.0176 -0.57399,-0.13156 -0.2756,-0.21594 -0.50358,-0.74263 -0.43976,-1.01596 0.0184,-0.0787 0.004,-0.16141 -0.0324,-0.18376 -0.0383,-0.0237 -0.0486,-0.15499 -0.0246,-0.3146 0.0477,-0.3168 0.40396,-1.28744 0.47257,-1.28744 0.0255,0 0.081,-0.0919 0.12337,-0.20417 0.0502,-0.13298 0.10932,-0.19181 0.16955,-0.16869 0.0564,0.0216 0.12728,-0.0327 0.18155,-0.13911 0.10757,-0.21082 0.5708,-0.69729 0.61853,-0.64956 0.0187,0.0187 0.12066,-0.0526 0.22653,-0.15848 0.10588,-0.10587 0.22226,-0.17411 0.25862,-0.15164 0.0364,0.0225 0.0661,0.0161 0.0661,-0.0143 0,-0.0816 0.38283,-0.2931 0.45258,-0.24998 0.033,0.0204 0.10438,-0.008 0.15866,-0.0616 0.0543,-0.0543 0.1758,-0.0987 0.27006,-0.0987 0.0943,0 0.2582,-0.0449 0.3643,-0.0998 0.1061,-0.0549 0.19292,-0.0858 0.19292,-0.0687 0,0.0171 0.10616,-0.0133 0.23591,-0.0675 0.12976,-0.0542 0.25236,-0.0821 0.27245,-0.0621 0.0201,0.0201 -0.005,0.0395 -0.0561,0.043 -0.051,0.004 -0.0191,0.0275 0.0708,0.0531 0.0899,0.0256 0.25174,0.0239 0.35963,-0.004 0.10789,-0.0277 0.27828,-0.0672 0.37865,-0.0877 0.10037,-0.0206 0.16483,-0.066 0.14326,-0.10082 -0.0215,-0.0349 -0.008,-0.0635 0.03,-0.0635 0.16844,0 0.0158,-1.92857 -0.16354,-2.06689 -0.0517,-0.0399 -0.0941,-0.10613 -0.0941,-0.14712 0,-0.041 -0.0241,-0.0745 -0.0536,-0.0745 -0.0295,0 -0.17077,-0.10028 -0.31396,-0.22284 -0.14318,-0.12256 -0.38387,-0.2561 -0.53486,-0.29676 -0.15099,-0.0406 -0.27453,-0.10582 -0.27453,-0.1448 0,-0.048 -0.0264,-0.0497 -0.0817,-0.005 -0.045,0.036 -0.15383,0.0876 -0.24196,0.11466 -0.20561,0.0633 -1.34382,0.83397 -1.62157,1.09807 -0.14838,0.14109 -0.21281,0.26232 -0.2135,0.40174 -6.8e-4,0.13441 -0.0191,0.17114 -0.0564,0.11236 -0.0304,-0.048 -0.0668,-0.0805 -0.0807,-0.0721 -0.014,0.008 -0.0842,-0.004 -0.1562,-0.0263 -0.23365,-0.0741 -0.29132,-0.35479 -0.32699,-1.59113 -0.0291,-1.00767 -0.0198,-1.18912 0.0629,-1.22081 0.13662,-0.0524 0.36716,0.49184 0.3533,0.83407 -0.006,0.1471 -0.006,0.41292 -7.7e-4,0.5907 l 0.01,0.32325 0.44136,-0.46113 c 0.58164,-0.60768 1.42984,-1.07855 1.93693,-1.07525 0.1844,0.002 0.43805,0.0327 0.56369,0.0701 0.12563,0.0373 0.36103,0.0684 0.52309,0.0689 0.20904,7.1e-4 0.26649,0.0188 0.1977,0.0623 -0.0751,0.0475 -0.0237,0.0932 0.22885,0.20322 0.17921,0.078 0.37732,0.18696 0.44026,0.24205 0.17493,0.15312 0.1361,0.004 -0.0517,-0.19867 -0.14653,-0.15802 -0.27499,-0.21274 -0.43872,-0.18689 -0.0269,0.005 -0.049,-0.0217 -0.049,-0.0576 0,-0.0841 0.2995,-0.0847 0.45616,-7.8e-4 0.15256,0.0816 0.41552,0.50137 0.36517,0.58285 -0.0208,0.0337 -7.4e-4,0.10046 0.0446,0.14831 0.0454,0.0479 0.15369,0.24148 0.24063,0.43029 0.0869,0.1888 0.18737,0.34328 0.22318,0.34328 0.0358,0 0.0457,0.0194 0.0221,0.043 -0.0236,0.0236 -0.0105,0.0822 0.0293,0.13018 0.0739,0.0891 0.099,0.73521 0.0376,0.97106 -0.0187,0.0719 -0.0911,0.33675 -0.16086,0.58848 -0.0697,0.25174 -0.11497,0.49179 -0.10047,0.53345 0.0145,0.0416 -0.005,0.0949 -0.0425,0.11829 -0.0378,0.0234 -0.0688,0.072 -0.0688,0.10793 0,0.036 0.0221,0.0517 0.049,0.0351 0.027,-0.0167 0.0575,0.19024 0.0678,0.45979 0.0116,0.30357 0.0572,0.54882 0.11984,0.64441 0.0597,0.0911 0.0834,0.2101 0.0579,0.29057 -0.11351,0.35763 -0.15612,1.14424 -0.0877,1.6197 0.0297,0.20654 0.07,0.49145 0.0894,0.63313 0.0631,0.45922 0.41842,0.88176 0.81539,0.96966 0.0899,0.0199 0.23703,0.0555 0.32694,0.0792 0.0899,0.0236 0.45675,0.041 0.8152,0.0386 0.35846,-0.002 0.70419,0.0123 0.7683,0.0326 0.11165,0.0354 0.16904,0.28527 0.0675,0.2939 z m -2.77031,-0.46188 c -0.036,0 -0.0472,0.0294 -0.0249,0.0654 0.0222,0.036 0.0698,0.0654 0.1058,0.0654 0.036,0 0.0472,-0.0294 0.025,-0.0654 -0.0222,-0.036 -0.0698,-0.0654 -0.10581,-0.0654 z m -0.49902,0.07 c -0.15698,0.004 -0.16321,0.0113 -0.049,0.0572 0.0719,0.029 0.15284,0.0399 0.17981,0.0242 0.0957,-0.0554 0.0466,-0.086 -0.13077,-0.0815 z m -0.0585,-7.12631 c -0.0128,-0.015 -0.0233,0.0642 -0.0233,0.17596 0,0.11176 0.029,0.22111 0.0644,0.243 0.0584,0.0361 0.0208,-0.34652 -0.0411,-0.41896 z m -0.0166,6.24334 c -0.0587,-0.14983 -0.11671,-0.0687 -0.10973,0.15339 0.003,0.0867 0.0417,0.17012 0.0867,0.18526 0.09,0.0303 0.10145,-0.13839 0.023,-0.33865 z m -0.11176,-0.88707 c -0.0141,0 -0.0222,0.12506 -0.018,0.2779 0.007,0.25498 0.0115,0.26172 0.0531,0.0817 0.0422,-0.18213 0.0248,-0.35963 -0.0352,-0.35963 z m 0.06,-0.83368 c -0.0165,0.0629 -0.0165,0.16592 0,0.22885 0.0165,0.0629 0.0299,0.0114 0.0299,-0.11442 0,-0.12587 -0.0134,-0.17736 -0.0299,-0.11443 z m -0.15109,-1.65101 c -0.069,-0.10688 -0.0952,0.0834 -0.0711,0.51848 0.0246,0.44432 0.13251,0.44805 0.13354,0.005 5.5e-4,-0.23375 -0.0276,-0.46915 -0.0624,-0.52309 z m -0.1574,-1.16 c -0.0259,-0.0259 -0.0379,0.0971 -0.0266,0.27341 0.0113,0.17632 0.0528,0.33117 0.0922,0.34413 0.0787,0.0259 0.0194,-0.53254 -0.0656,-0.61754 z m 0.0333,-2.07231 c -0.0374,-0.0954 -0.0624,-0.10563 -0.10185,-0.0417 -0.0307,0.0496 -0.018,0.10591 0.0303,0.13582 0.0473,0.0293 0.0691,0.12217 0.051,0.21732 -0.0175,0.0914 -0.007,0.20488 0.0227,0.25216 0.069,0.10892 0.0672,-0.38651 -0.002,-0.56357 z m -0.13277,3.98425 c -0.10707,-0.67407 -0.13439,-0.72181 -0.40518,-0.70801 -0.25008,0.0127 -1.34648,0.38886 -1.49572,0.51309 -0.054,0.0449 -0.34819,0.20029 -0.65386,0.34529 -0.30569,0.14501 -0.64407,0.33911 -0.75195,0.43133 -0.10789,0.0922 -0.22981,0.19591 -0.27093,0.23042 -0.0411,0.0345 -0.0878,0.0497 -0.10366,0.0338 -0.0883,-0.0883 -0.82342,0.88881 -0.78151,1.03876 0.008,0.0297 -0.012,0.0371 -0.0451,0.0168 -0.0331,-0.0205 -0.0776,0.008 -0.099,0.0639 -0.022,0.0572 -0.0111,0.084 0.0251,0.0616 0.0362,-0.0224 0.047,0.005 0.0251,0.0616 -0.0213,0.0556 -0.0725,0.0822 -0.11367,0.0592 -0.0453,-0.0253 -0.0425,-0.007 0.007,0.0462 0.045,0.0484 0.0817,0.13898 0.0817,0.20122 0,0.24834 0.28993,0.57053 0.64608,0.71796 l 0.35183,0.14565 0.49819,-0.13731 c 0.27401,-0.0755 0.66003,-0.18392 0.85783,-0.24087 0.1978,-0.057 0.74821,-0.16241 1.22314,-0.23434 0.47494,-0.0719 0.90756,-0.14767 0.96137,-0.16832 0.0673,-0.0259 0.1039,-0.15286 0.11729,-0.40771 0.0378,-0.7206 0.008,-1.55373 -0.074,-2.07023 z m -0.11935,-3.92841 c -0.0462,0.0462 0.0534,0.29944 0.11768,0.29944 0.0327,0 0.026,-0.0737 -0.0151,-0.16374 -0.041,-0.0901 -0.0872,-0.15113 -0.10265,-0.1357 z m 0.0858,7.36122 c -0.0158,0 -0.047,0.0294 -0.0693,0.0654 -0.0222,0.036 -0.009,0.0654 0.0288,0.0654 0.0381,0 0.0693,-0.0294 0.0693,-0.0654 0,-0.036 -0.013,-0.0654 -0.0288,-0.0654 z m -0.10195,-8.09279 c -0.12012,-0.075 -0.13077,-0.0653 -0.13077,0.11934 0,0.11056 0.036,0.26528 0.08,0.34384 0.0768,0.13714 0.0816,0.13373 0.12216,-0.086 0.0233,-0.12588 0.0461,-0.24385 0.0508,-0.26217 0.005,-0.0183 -0.0502,-0.0701 -0.12217,-0.11498 z m -0.60264,7.75387 c -0.047,0.0469 -0.0508,0.0774 -0.01,0.0774 0.0873,0 0.16461,-0.0773 0.12096,-0.12097 -0.0186,-0.0186 -0.0686,7.7e-4 -0.11115,0.0435 z m -0.36459,-0.15986 c -0.0285,0.0176 -0.16826,0.0483 -0.31059,0.0683 -0.5878,0.0825 -1.01071,0.20742 -1.01071,0.29864 0,0.0869 0.60984,-0.011 0.86377,-0.1386 0.13343,-0.067 0.30261,-0.12192 0.37597,-0.12192 0.0734,0 0.13338,-0.0311 0.13338,-0.0693 0,-0.0381 -0.0233,-0.0548 -0.0518,-0.0372 z m -0.50782,0.95649 c -0.0878,0 -0.15961,0.0275 -0.15961,0.061 0,0.0336 0.0872,0.0585 0.1939,0.0555 0.22996,-0.006 0.19759,-0.11652 -0.0343,-0.11652 z m -0.10399,-4.66852 c -0.0845,0.0288 -0.16841,0.0552 -0.1864,0.0588 -0.11109,0.0219 -0.36044,0.12268 -0.41999,0.16984 -0.63888,0.50598 -0.55643,0.55553 0.2546,0.15299 0.38955,-0.19335 0.60459,-0.3348 0.56665,-0.37275 -0.0342,-0.0342 -0.12888,-0.0381 -0.21486,-0.009 z m -0.53354,4.66952 c -0.24326,7.2e-4 -0.31164,0.0189 -0.24134,0.0644 0.13183,0.0852 0.67383,0.0852 0.62118,0 -0.0222,-0.036 -0.19316,-0.0649 -0.37984,-0.0644 z m -0.82001,-3.9896 c -0.20322,0 -1.05581,0.81641 -1.42865,1.36802 -0.20179,0.29853 -0.33885,0.70232 -0.21174,0.62375 0.0337,-0.0208 0.0613,-0.0776 0.0613,-0.12623 0,-0.0965 0.44369,-0.68678 0.71723,-0.95424 0.0943,-0.0922 0.33926,-0.29432 0.54442,-0.44922 0.33068,-0.24966 0.47661,-0.46208 0.31744,-0.46208 z m -0.29605,-4.38091 c -0.0136,0 -0.0651,0.0515 -0.11443,0.11442 -0.0813,0.10371 -0.079,0.10602 0.0247,0.0247 0.10892,-0.0854 0.14356,-0.13911 0.0897,-0.13911 z m -0.44047,0.87734 c -0.076,0.0967 -0.1221,0.19186 -0.10238,0.21158 0.0606,0.0605 0.23548,-0.13344 0.23812,-0.26406 0.002,-0.10341 -0.0198,-0.095 -0.13574,0.0525 z"
         style="display:inline;fill:#0f0e47;fill-opacity:1;stroke-width:0.772286"
         id="a-92" />
      <path
         d="m 86.154028,102.47023 c -0.10553,0.0297 -0.17437,0.0823 -0.15296,0.11691 0.0215,0.0346 -0.17185,0.11017 -0.42949,0.16782 -0.28328,0.0634 -0.46843,0.15039 -0.46843,0.2201 0,0.0634 0.0408,0.12886 0.0906,0.14547 0.0498,0.0166 0.0668,0.0923 0.0377,0.16828 -0.0414,0.10802 -0.18411,0.13929 -0.6557,0.14373 -0.37849,0.004 -0.67458,0.0527 -0.79587,0.13223 -0.30847,0.20211 -1.83167,1.76562 -2.2332,2.29228 l -0.36685,0.48119 0.59776,0.0501 c 0.62809,0.0526 0.86119,0.16134 0.783,0.3651 -0.0363,0.0948 -0.2427,0.12229 -0.91863,0.12229 -0.72434,0 -0.89335,0.0254 -0.99964,0.14999 -0.21899,0.25676 -0.93981,1.49604 -0.99268,1.70668 l -0.0503,0.2003 0.9735,5e-4 c 0.53543,2.7e-4 1.2049,0.04 1.48774,0.0883 0.74289,0.12673 3.13741,0.34431 3.22096,0.29267 0.12664,-0.0783 0.47873,0.0552 0.47873,0.18142 0,0.0676 -0.0372,0.12285 -0.0828,0.12285 -0.0455,0 -0.14517,0.071 -0.2214,0.15771 -0.0762,0.0867 -0.24468,0.18389 -0.37432,0.2159 -0.28364,0.0701 -0.2992,0.19029 -0.0506,0.39157 0.10413,0.0843 0.15814,0.19338 0.12351,0.24942 -0.0973,0.15733 -0.28681,0.11666 -0.43468,-0.0932 -0.10154,-0.14416 -0.15309,-0.1652 -0.2042,-0.0834 -0.0552,0.0884 -0.23206,0.0849 -0.91893,-0.018 -1.06251,-0.15929 -3.25941,-0.18879 -4.27885,-0.0575 -0.61066,0.0786 -0.80386,0.13812 -0.92734,0.2853 -0.12701,0.1514 -0.18485,0.16788 -0.31153,0.0888 -0.18484,-0.11544 -1.0984,0.0643 -1.2052,0.23708 -0.0688,0.11135 -0.25571,0.0436 -0.25571,-0.0926 0,-0.0441 0.2989,-0.48869 0.66423,-0.98792 1.32771,-1.81434 1.72681,-2.39448 1.70358,-2.47636 -0.0292,-0.10273 -0.47987,-0.21903 -1.00212,-0.25857 -0.66656,-0.0505 -1.36569,-0.2906 -1.36569,-0.46905 0,-0.0859 0.0644,-0.18087 0.14301,-0.21104 0.0787,-0.0302 0.79455,-0.0504 1.59088,-0.0448 l 1.44788,0.0101 0.21742,-0.24285 c 0.11958,-0.13357 0.38973,-0.50426 0.60032,-0.82374 0.46878,-0.71116 1.01499,-1.29803 1.13759,-1.22226 0.10365,0.0641 0.12413,0.22279 0.0267,0.20742 -0.18092,-0.0286 -0.26388,0.0408 -0.44766,0.3744 l -0.20066,0.36425 0.24196,-0.21426 c 0.35413,-0.31359 0.89918,-0.87114 0.89918,-0.91981 0,-0.0231 -0.12535,-0.0186 -0.27855,0.0101 -0.1532,0.0286 -0.45211,0.0728 -0.66424,0.0981 -0.21212,0.0253 -0.62991,0.0849 -0.92842,0.13261 -0.29851,0.0477 -1.24372,0.0774 -2.10046,0.0662 -1.32021,-0.0173 -1.60211,0.002 -1.8488,0.12483 -0.37066,0.1849 -0.43615,0.18245 -0.43615,-0.0164 0,-0.0889 0.10422,-0.22985 0.23162,-0.31331 0.19238,-0.12605 0.47916,-0.15771 1.69271,-0.18685 0.8036,-0.0193 1.53823,-0.0681 1.63252,-0.10855 0.0942,-0.0404 0.28202,-0.0976 0.41721,-0.12715 0.49063,-0.10717 0.14733,-0.13374 -0.4698,-0.0363 -0.34819,0.055 -1.21751,0.10432 -1.93183,0.10973 -0.71432,0.005 -1.28411,0.0336 -1.2662,0.0627 0.0557,0.0903 -0.29028,0.35283 -0.38654,0.29334 -0.14023,-0.0867 -0.1152,-0.18853 0.2246,-0.91447 0.22409,-0.47872 0.36088,-0.67445 0.47139,-0.67445 0.0856,0 0.15568,-0.0408 0.15568,-0.0908 0,-0.0499 0.0342,-0.0696 0.0759,-0.0438 0.0418,0.0258 0.0961,-0.0298 0.12058,-0.12362 0.0301,-0.11504 0.0124,-0.15039 -0.0546,-0.10858 -0.23883,0.14932 -0.31137,0.0901 -0.16391,-0.13392 0.25593,-0.38873 0.36224,-0.56335 0.46483,-0.76348 0.0544,-0.10606 0.15237,-0.19284 0.21778,-0.19284 0.0912,0 0.10636,0.0844 0.0651,0.36136 -0.0297,0.19875 -0.0932,0.43482 -0.14125,0.52459 -0.0577,0.10778 -0.058,0.14511 -0.001,0.1099 0.0516,-0.0319 0.0682,0.0156 0.0414,0.11823 -0.0247,0.0943 -0.0867,0.17153 -0.13771,0.17153 -0.0606,0 -0.0569,0.0359 0.0109,0.10375 0.127,0.127 1.93024,0.12103 2.75886,-0.009 1.34187,-0.21079 3.30537,-0.30986 3.39112,-0.17111 0.0288,0.0465 0.15486,0.0662 0.28037,0.0439 1.40528,-0.24935 1.78169,-0.32962 1.84567,-0.3936 0.0429,-0.0429 0.11637,-0.042 0.17155,0.002 0.61038,0.48722 0.62278,0.50382 0.41889,0.56111 z m -1.37733,0.37727 c -0.0382,0 -0.14419,0.0566 -0.23569,0.12583 -0.15936,0.12053 -0.15643,0.12595 0.0693,0.12856 0.15359,0.002 0.2357,-0.042 0.2357,-0.12583 0,-0.0707 -0.0312,-0.12856 -0.0693,-0.12856 z m -0.97173,6.82594 c -0.67732,-0.0708 -1.27022,-0.061 -1.4873,0.0245 -0.15201,0.0599 -0.1423,0.0734 0.0857,0.11907 0.85319,0.17098 1.92841,0.15838 1.92841,-0.0226 0,-0.0362 -0.23707,-0.0907 -0.52682,-0.12103 z m -0.33923,-6.5761 c -0.11291,0.0451 -0.16024,0.0845 -0.10517,0.0876 0.13376,0.007 0.38752,-0.0926 0.34455,-0.13557 -0.0187,-0.0187 -0.12648,0.003 -0.23938,0.048 z m -1.54982,6.6339 c -0.0684,0.0273 -0.0481,0.0477 0.0517,0.0518 0.0904,0.004 0.14097,-0.0165 0.11249,-0.0451 -0.0285,-0.0284 -0.10241,-0.0315 -0.16427,-0.007 z m -0.60531,-6.25485 c -0.0589,0.0238 -0.0107,0.0432 0.10714,0.0432 0.11785,0 0.16605,-0.0194 0.10713,-0.0432 -0.0589,-0.0238 -0.15534,-0.0238 -0.21427,0 z m -2.24401,6.06308 -0.17722,0.18508 0.47895,-0.0455 c 0.2634,-0.025 0.70271,-0.0971 0.97622,-0.16023 l 0.49728,-0.11475 -0.799,-0.0249 c -0.72463,-0.0226 -0.8155,-0.008 -0.97623,0.16021 z m 1.40837,-3.26368 c -0.0472,0 -0.0857,0.0408 -0.0857,0.0908 0,0.0499 0.0386,0.0669 0.0857,0.0378 0.0472,-0.0292 0.0857,-0.0699 0.0857,-0.0908 0,-0.0208 -0.0386,-0.0378 -0.0857,-0.0378 z m -2.29267,-3.35851 c -0.86718,-0.0264 -1.02794,-0.0101 -1.15739,0.11798 -0.14332,0.14171 -0.14332,0.15229 0,0.22644 0.0827,0.0428 0.22747,0.0643 0.32175,0.0478 0.0942,-0.0165 0.49925,-0.0524 0.89992,-0.0799 0.81253,-0.0556 0.94278,-0.0832 0.94278,-0.20064 0,-0.0445 -0.45318,-0.0949 -1.00706,-0.11169 z m 0.17061,6.44397 c -0.091,0 -0.29985,0.34929 -0.2429,0.40624 0.07,0.0701 0.30799,-0.15264 0.30799,-0.28817 0,-0.0649 -0.0292,-0.11807 -0.0651,-0.11807 z m -1.64967,-6.55624 c -0.13275,0.0821 -0.35747,0.55673 -0.26356,0.55673 0.10612,0 0.34988,-0.34522 0.34988,-0.49552 0,-0.063 -0.0389,-0.0905 -0.0864,-0.0613 z"
         style="display:inline;fill:#0f0e47;fill-opacity:1;stroke-width:1.01229"
         id="z-3" />
    </g>
  </g>
</svg>
