<?xml version="1.0" encoding="UTF-8" standalone="no"?>
<!-- Created with Inkscape (http://www.inkscape.org/) -->

<svg
   width="40.828545mm"
   height="29.487719mm"
   viewBox="0 0 40.828545 29.487719"
   version="1.1"
   id="svg1"
   xmlns="http://www.w3.org/2000/svg"
   xmlns:svg="http://www.w3.org/2000/svg">
  <defs
     id="defs1" />
  <g
     id="layer1"
     transform="translate(-99.747917,-139.17083)">
    <path
       d="m 136.56327,145.58415 -1.00406,-1.34601 -2.12313,0.0681 -5.12233,0.3332 -9.42457,0.86041 -6.05118,0.44263 c -0.22096,-1.04179 -0.46703,-2.10658 -0.65561,-3.14991 -0.074,-0.40982 -0.13915,-1.0754 -0.576,-1.27178 -0.49908,-0.22432 -1.39651,0.13231 -1.90557,0.24028 -0.14014,-0.6 -0.1302,-2.11094 -0.67886,-2.48845 -0.31418,-0.21618 -0.80452,-0.0213 -1.15101,-0.0181 -1.10633,0.0105 -2.11395,0.19489 -3.19642,0.38884 -1.12999,0.20245 -2.30785,0.37037 -3.44587,0.53138 -0.3766,0.0533 -1.00762,-0.0577 -1.32775,0.16975 -0.308529,0.21917 -0.05619,1.01109 -0.04909,1.34206 0.02733,1.26821 -0.25469,3.1882 0.36682,4.33591 -0.278423,0.36916 -0.006,1.03537 0.012,1.46882 0.0596,1.40288 0.29686,2.83336 0.2494,4.23786 -0.0154,0.45444 -0.39293,1.60641 0.0898,1.66215 -0.52638,1.61799 -0.37644,3.84006 -0.38732,5.53481 -0.005,0.76439 0.22154,1.42335 -0.0546,2.17532 l 0.0176,0.0829 c 0.37409,0.24493 0.0909,0.55518 0.13571,0.92326 0.0392,0.32154 -0.0782,0.56832 -0.0628,0.87162 0.0381,0.74635 0.33863,1.48378 0.2227,2.29682 -0.0464,0.32541 0.0454,1.06084 -0.30079,1.18895 -0.0136,0.24814 -0.155209,0.65839 -0.0698,0.88772 0.23571,0.6332 1.54258,0.81894 2.10409,0.95003 1.95838,0.45717 4.29062,0.35152 6.28758,0.26393 1.0212,-0.0448 2.03383,-0.28103 3.04577,-0.33019 2.20084,-0.10692 4.41338,0.13446 6.61392,0.17027 1.49711,0.0244 2.99011,-0.0895 4.48929,-0.0534 2.85577,0.0688 5.5805,0.46353 8.44509,0.23454 1.75565,-0.14034 3.52365,-0.23388 5.27392,-0.42872 0.75846,-0.0844 1.82847,-0.12609 2.48141,-0.54859 1.35777,-0.87862 0.99773,-3.47244 1.15646,-4.83264 0.40433,-3.46513 0.54687,-6.92278 0.55297,-10.41673 0.003,-1.66349 0.26291,-3.24777 -0.36934,-4.85502 -0.71849,-1.82658 -3.69643,0.25243 -3.58841,-1.92197 m -35.4967,19.12643 0.0829,-0.0176 0.28862,0.54464 0.16565,-0.0351 c 0.25718,-2.85117 0.46435,-5.70902 0.78403,-8.56164 0.20081,-1.79202 0.51893,-3.56477 0.47721,-5.38078 -0.0385,-1.67455 0.0285,-3.35769 0.06,-5.03262 0.008,-0.45151 -0.28027,-1.374 -0.0276,-1.76322 0.35515,-0.547 1.37512,-0.37845 1.91417,-0.45567 1.6505,-0.23647 2.93747,-1.18221 4.49787,-1.64517 l 0.17069,0.39654 0.29617,-0.23591 -0.13556,-0.2309 c 0.32117,-0.127 1.47831,-0.47332 1.76518,-0.23562 0.23482,0.19459 0.27582,0.80822 0.31271,1.09316 0.13973,1.07857 0.2146,2.11187 0.41819,3.19246 0.0755,0.3994 -0.002,1.63209 0.54506,1.67904 1.19461,0.10255 2.50086,-0.36953 3.72345,-0.35926 1.76634,0.0149 3.61703,0.26634 5.41778,0.23738 2.25084,-0.0362 4.40091,-0.39395 6.62847,-0.57129 1.42762,-0.11367 2.88046,-0.0131 4.31334,-0.0668 1.65735,-0.062 3.29322,0.0936 4.94677,0.0633 0.49598,-0.009 1.49343,-0.15512 1.8177,0.3241 0.38398,0.56745 0.17266,1.89419 0.14551,2.55416 -0.074,1.798 0.0381,3.57358 -0.098,5.38689 -0.21554,2.87181 0.10169,5.79602 -0.32088,8.63652 -0.13419,0.902 0.0403,2.25018 -0.72076,2.89623 -0.97941,0.83142 -2.93738,0.38197 -4.1231,0.56135 -1.02752,0.15547 -2.10807,0.29558 -3.12237,-0.037 l 0.0351,0.16565 -3.83407,-0.12189 -1.46415,0.0339 -0.0351,-0.16565 -1.77444,0.20326 -0.0351,-0.16566 c -0.51417,0.203 -1.07857,0.0864 -1.62033,0.10779 -1.06522,0.0421 -2.11276,0.10369 -3.18188,0.10247 -3.72235,-0.004 -7.56159,-0.38847 -11.26082,-0.0439 -1.57967,0.14715 -2.9819,0.20155 -4.56776,0.0914 -0.68043,-0.0472 -1.61661,-0.0543 -2.22207,-0.40461 -0.76768,-0.44421 -0.38414,-2.06518 -0.26245,-2.74 m 0.10287,-1.14697 -0.0552,0.96377 c -0.22603,-0.32606 -0.25347,-0.69685 0.0552,-0.96377 m 0.0728,-0.88094 -0.32629,0.50195 c -0.0112,-0.29215 0.0616,-0.3828 0.32629,-0.50195 m 0.0377,-1.04659 c 0.0198,0.37967 -0.11192,0.55267 -0.4568,0.70273 0.0231,-0.36247 0.16248,-0.50255 0.4568,-0.70273 m 0.18576,-1.16455 c -0.0477,0.50087 -0.21419,0.75696 -0.65258,1.00391 -0.10316,-0.57894 0.20274,-0.7178 0.65258,-1.00391 m 0.0552,-0.96377 c -0.0674,0.46008 -0.36985,0.70658 -0.75297,0.93865 -0.0685,-0.52532 0.31997,-0.73364 0.75297,-0.93865 m -0.88092,-0.0728 0.99643,-1.42304 0.0829,-0.0176 -0.0854,1.22981 -0.0829,0.0176 -0.0527,-0.24848 -0.85836,0.44171 m 0.50738,-2.0982 0.62747,-0.30618 -0.0728,0.88093 -0.90606,0.62493 c -0.28009,-0.5457 0.0718,-0.76071 0.3514,-1.19968 m -0.53246,-0.0602 c 0.11304,-0.69593 0.7096,-1.23579 1.31016,-1.57613 -0.04,0.65783 -0.61719,1.46873 -1.31016,1.57613 m 1.34279,-3.05441 -0.0377,1.04659 -1.16709,1.02648 c -0.0719,-0.96418 0.47015,-1.51892 1.20477,-2.07307 m -1.12441,0.41159 0.93618,-0.89097 c -0.18037,0.34509 -0.52934,0.84059 -0.93616,0.89096 m 0.0904,-0.79813 c 0.0273,-0.99372 0.34243,-1.45966 1.22233,-1.99026 l -0.002,1.21225 -0.34887,-0.0126 -0.87093,0.79056 m 0.0628,-1.74432 1.26247,-1.39291 -0.0377,1.04659 -0.0829,0.0176 -1.14196,0.3288 m 1.22987,-2.77082 0.015,1.29507 -1.28505,0.87841 c -0.18691,-0.98487 0.63475,-1.53549 1.27002,-2.17348 m -0.0928,-0.8458 -0.21834,-0.21335 -0.0829,0.0176 -1.0667,1.09174 c 0.0474,-0.82539 0.75711,-1.42799 1.42311,-1.85974 l 0.0502,1.46072 -1.38042,1.24483 c -0.13878,-0.6533 0.79874,-1.37775 1.27502,-1.74177 m -1.43063,-0.21585 1.17464,-1.80704 -1.18466,0.94367 c -0.0544,-0.55966 0.38698,-0.98156 0.86592,-1.22226 l -0.0703,-0.3313 -0.8408,0.5245 c 0.0722,-0.60971 0.96755,-0.75658 0.56474,-1.41804 l 0.42351,-1.00513 0.81137,-1.33398 0.26604,0.0302 c 0.22516,-0.67427 1.10738,-1.49413 1.67158,-1.91244 l -0.17069,-0.39654 c -0.45958,0.67807 -1.41809,2.16035 -2.16352,2.44952 -0.21943,0.86192 -0.94844,0.99711 -1.61133,1.38036 0.26467,-1.06523 1.38003,-2.06582 2.07123,-2.88307 0.25478,-0.30127 0.47087,-0.78424 0.83448,-0.96556 0.56959,-0.28403 1.53738,-0.20954 2.17676,-0.34515 -0.0473,0.3997 -0.407,0.64544 -0.66746,0.93369 -0.63329,0.70075 -1.17812,1.57408 -1.86816,2.20982 -0.21242,0.1957 -0.62081,0.14087 -0.77286,0.35872 -0.16048,0.22996 -0.0186,0.67674 -0.0341,0.94307 -0.077,1.32337 0.33314,3.42164 -1.47643,3.84701 m 0.44435,-3.21005 -0.55719,0.63748 c 0.0366,-0.35295 0.25513,-0.4804 0.55719,-0.63748 m -0.60235,-0.39154 0.14808,-0.118 -0.14808,0.118 m 2.12595,-4.25911 c -0.43981,0.98511 -1.47724,2.13352 -2.24133,2.89877 -0.11642,-1.1512 1.12543,-2.83124 2.24133,-2.89877 m -2.35422,0.32621 0.84582,-0.0928 -0.74796,1.37034 -0.0979,-1.27749 m 5.82986,20.14159 c 0.53668,-0.008 1.62049,-0.65995 1.82968,-1.16702 l 0.18322,0.0477 0.46181,-0.27105 -0.0176,-0.0829 c -0.84419,-0.0255 -1.77017,0.92476 -2.49227,1.30755 l 0.0351,0.16564 m -0.28341,-2.96914 c 0.79212,0.0284 1.52449,-0.79751 2.17281,-1.18149 0.71845,-0.42553 1.52698,-0.5109 2.23698,-0.87896 -0.92673,-0.65726 -2.75372,0.7709 -3.54262,1.25217 -0.36959,0.22548 -0.72109,0.38062 -0.86717,0.80828 m 0.39906,1.47327 c 0.41477,-0.15503 0.95102,-0.41532 1.1194,-0.84328 l 1.00645,-0.55967 0.37898,-0.25347 0.13052,-0.20078 -0.0176,-0.0829 -0.49694,0.1054 -1.10183,0.92609 -1.07171,0.66006 0.0527,0.24847 m 0.81063,2.59767 0.24848,-0.0527 -0.0176,-0.0829 -0.2309,0.13556 m -1.06899,-6.26446 3.87016,-1.34015 -0.15312,-0.31372 -3.8526,1.42297 0.13556,0.2309 m -1.54326,-14.21309 c 0.86127,-0.31355 1.34224,-1.69151 2.33918,-1.62129 l 0.0351,0.16566 c -0.79897,0.82613 -1.5437,1.68478 -2.31914,2.53194 -0.33281,0.3636 -0.68969,0.82922 -1.21224,0.81355 l 1.15707,-1.88986 m 2.87491,20.21995 0.0494,-0.0393 -0.0494,0.0393 m -2.97047,-14.14117 c 0.41164,-0.2441 1.54558,-0.7826 1.54607,-1.27998 l 0.64502,-0.22339 c -0.63284,-0.2006 -2.13073,0.86341 -2.1911,1.50333 m 0.3288,1.14197 c 0.63357,-0.20798 1.84576,-1.22463 2.12083,-1.83463 l 1.17209,-0.5948 -0.15312,-0.31372 c -0.94768,0.52092 -2.86218,1.6351 -3.13983,2.74315 m 0.29345,0.97633 c 0.76111,-0.0138 1.92792,-1.2527 2.1861,-1.93501 l -0.26103,0.40157 -0.0829,0.0176 c -0.49442,-0.26871 -1.5257,1.03881 -1.87734,1.35023 l 0.0351,0.16564 m 2.6777,11.80873 0.0653,-0.10043 -0.0653,0.10043 m 1.42321,-7.57206 -0.72532,-0.97131 c 1.86041,0.14491 -0.26558,-2.54511 -0.75039,-3.12975 l -0.0829,0.0176 1.25986,2.67549 c -1.03689,0.15112 -1.58637,-0.86708 -2.22617,-1.51849 -0.15209,0.51527 0.47936,1.12573 0.68263,1.58621 l -1.25993,0.18065 c 0.26397,0.663 1.08173,0.10113 1.59836,0.28207 0.6046,0.21173 0.74044,0.97763 1.50374,0.87754 m -4.70811,-10.77226 c 1.0248,-1.09198 2.19417,-3.15601 3.77986,-3.39819 -0.15569,0.37403 -0.63794,0.64934 -0.92668,0.93576 -0.64427,0.63906 -1.8362,2.65541 -2.85318,2.46243 m 4.37423,17.76705 0.0653,-0.10043 -0.0653,0.10043 m 0.14807,-0.11799 0.13053,-0.20078 -0.13053,0.20078 m -0.3162,-1.49084 0.0653,-0.10043 -0.0653,0.10043 m -3.28995,-15.91981 0.43169,-0.005 0.0176,0.0829 -0.41412,0.0878 -0.0351,-0.16565 m 3.47155,15.82361 0.0159,-0.061 -0.0159,0.061 m 0.36561,1.45147 0.0653,-0.10043 -0.0653,0.10043 m -2.71524,-13.61832 0.10043,0.0653 -0.10043,-0.0653 m 3.12614,13.24267 0.0494,-0.0393 -0.0494,0.0393 m -0.56383,-2.79426 0.2309,-0.13556 -0.0176,-0.0829 -0.24847,0.0527 0.0351,0.16564 m -3.06159,-14.8431 c 0.66423,-1.08007 1.75924,-2.11421 2.89137,-2.69046 0.0266,0.22528 0.05,0.43694 -0.0824,0.63729 -0.41134,0.6221 -2.0495,2.19716 -2.80896,2.05317 m 0.8031,3.37821 0.0829,-0.0176 -0.0527,-0.24847 -0.0302,0.26604 m 1.68143,7.51944 0.10043,0.0653 -0.10043,-0.0653 m -1.16438,-5.89809 0.41412,-0.0878 -0.0176,-0.0829 -0.39655,0.17069 m 2.71787,12.40606 0.16565,-0.0351 -0.20078,-0.13052 0.0351,0.16565 m -0.57971,-2.7332 0.0829,-0.0176 0.0302,-0.26604 -0.11294,0.2836 m 0.21337,-0.21836 0.16565,-0.0351 -0.0351,-0.16565 -0.13051,0.20078 m 0.68012,2.79846 0.2309,-0.13556 -0.0176,-0.0829 -0.24847,0.0527 0.0351,0.16564 m -2.65258,-12.50645 0.47937,-0.18826 -0.0176,-0.0829 -0.46181,0.27105 m 2.2034,9.57247 0.0653,-0.10043 -0.0653,0.10043 m -0.2635,-1.24236 0.10043,0.0653 -0.10043,-0.0653 m 1.02641,4.02326 0.11295,-0.28361 -0.11295,0.28361 m -0.6324,-2.98168 0.0653,-0.10043 -0.0653,0.10043 m 0.92868,2.7457 0.0653,-0.10043 -0.0653,0.10043 m -0.59896,-2.95992 0.0159,-0.061 -0.0159,0.061 m -2.03605,-9.46371 0.10043,0.0653 0.0829,-0.0176 0.0653,-0.10044 -0.0176,-0.0829 -0.10043,-0.0653 -0.0835,0.0177 -0.0477,0.18322 m -0.91845,-4.73855 1.61133,-1.38036 0.2761,0.8935 -1.88739,0.48689 m 3.15365,14.18888 0.0494,-0.0393 -0.0494,0.0393 m 0.66256,2.71564 0.0494,-0.0393 -0.0494,0.0393 m -0.64828,-2.92061 0.0159,-0.061 -0.0159,0.061 m 0.91275,2.80674 0.0653,-0.10043 -0.0653,0.10043 m 0.26457,-0.11367 0.0159,-0.061 -0.0159,0.061 m 0.95061,-12.52062 -0.0302,0.26605 0.0302,-0.26605 m 0.50199,0.32629 c 0.57984,-0.23121 1.45524,-0.96939 2.0706,-0.43917 -0.5417,0.2025 -1.76532,1.47445 -2.0706,0.43917 m -0.0603,-0.41998 c -0.0136,-0.0641 0.0385,-0.0221 0.0334,0.0217 l -0.0334,-0.0217 m 1.57335,0.61833 1.56865,-0.76546 0.0176,0.0829 c -0.4354,0.39577 -0.95977,0.98933 -1.58622,0.68263 m 1.39547,0.0503 -0.0176,-0.0829 c 0.51024,-0.5275 0.90932,-0.75574 1.63391,-0.86585 l 0.0176,0.0829 c -0.50887,0.46837 -0.86586,1.053 -1.63391,0.86585 m 3.40548,14.42394 c 0.76237,-0.0945 2.27964,-1.04306 2.5701,-1.75681 1.46963,-0.15603 2.30988,-1.85797 3.32852,-2.66965 0.58478,-0.46596 1.54637,-0.97453 1.80164,-1.70735 0.35011,-0.12251 0.51129,-0.35094 0.53962,-0.7203 l 0.94466,-0.92469 1.962,-2.10172 1.06396,-1.10465 c -0.76506,0.20367 -1.98248,1.15142 -2.18609,1.93502 -0.65669,0.12722 -1.13631,1.13005 -1.56543,1.61283 -1.15855,1.30342 -2.69643,2.26472 -3.72341,3.64828 -0.24082,0.32443 -0.61227,0.57227 -0.74991,0.95304 -1.01499,0.0554 -2.2487,1.37516 -3.04298,1.97565 -0.36102,0.27293 -0.80745,0.39792 -0.94268,0.86035 m 0.29623,-0.23591 0.10043,0.0653 -0.10043,-0.0653 m 0.31376,-0.15313 0.10043,0.0653 -0.10043,-0.0653 m 0.14807,-0.11799 0.10043,0.0653 -0.10043,-0.0653 m -2.78572,-13.94961 c 0.39433,-0.56701 0.84481,-0.89517 1.51596,-1.01392 -0.19721,0.60346 -0.8453,1.24703 -1.51596,1.01392 m 3.0165,13.81407 0.10043,0.0653 -0.10043,-0.0653 m -1.80424,-13.81159 c 0.49385,-0.53746 1.02594,-0.99439 1.74686,-1.14945 l 0.0176,0.083 c -0.45585,0.51568 -0.95668,1.39899 -1.76442,1.06664 m 3.6816,12.4613 0.10043,0.0653 -0.10043,-0.0653 m -2.38656,-12.4763 c 0.61852,-0.57966 0.99007,-1.21011 1.89493,-1.2674 -0.21466,0.54616 -1.27905,1.53169 -1.89493,1.2674 m 2.99643,12.08733 0.10043,0.0653 -0.10043,-0.0653 m 0.50951,-0.45426 0.10043,0.0653 -0.10043,-0.0653 m -2.14562,-11.74848 -0.0176,-0.0829 c 0.53322,-0.48869 1.06939,-1.14915 1.81211,-1.24985 l 0.0176,0.0829 c -0.50779,0.42748 -1.05941,1.39059 -1.81211,1.24985 m 0.37144,0.52707 0.10043,0.0653 -0.10043,-0.0653 m 0.72284,-0.67262 c 0.72583,-0.63279 1.19998,-1.31156 2.22623,-1.33767 l 0.0176,0.0829 c -0.64881,0.54446 -1.29344,1.46995 -2.20867,1.4205 l -0.0351,-0.16565 m 2.66517,12.15758 0.20078,0.13052 0.0829,-0.0176 c 0.44917,-0.4903 1.70075,-1.21454 1.67158,-1.91243 l 0.55719,-0.63748 -1.07644,1.06189 -1.43594,1.37507 m 2.14567,8.89233 0.10043,0.0653 -0.10043,-0.0653 m 0.50195,0.32628 0.10043,0.0653 -0.10043,-0.0653 m -4.41423,-21.22057 2.25636,-1.60372 c -0.36164,0.73948 -1.32826,2.03017 -2.25636,1.60372 m 4.76313,21.23313 0.10043,0.0653 -0.10043,-0.0653 m 0.18322,0.0477 0.68016,-0.0577 0.0176,0.0829 -0.69772,-0.0251 m -1.79886,-10.52378 0.10043,0.0653 -0.10043,-0.0653 m 0.53455,1.70417 0.13556,0.2309 c 0.97897,-0.62341 1.69188,-1.90978 2.43618,-2.79626 0.43025,-0.51243 1.01334,-0.94541 1.31609,-1.54814 -0.53098,0.0243 -1.00476,0.60947 -1.34413,0.99184 -0.89365,1.00692 -1.66167,2.11789 -2.54366,3.12165 m -2.38654,-12.47633 c 0.5953,-0.64678 1.21942,-1.60527 2.15597,-1.66897 l -1.45824,1.69408 -0.69773,-0.0251 m 2.77069,9.79799 0.10043,0.0653 -0.10043,-0.0653 m 0.11294,-0.2836 0.0653,-0.10043 -0.0653,0.10043 m 0.18323,0.0477 0.36142,-0.33631 -0.30118,-0.19577 -0.0602,0.53208 m 0.4342,1.6389 0.10043,0.0653 -0.10043,-0.0653 m -2.40665,-11.34691 c 0.703,-0.53529 1.28926,-1.59071 2.27393,-1.5209 -0.40578,0.74998 -1.31149,1.85132 -2.27393,1.5209 m 2.29878,9.20605 c 0.42506,-0.26609 0.78346,-0.72523 0.86592,-1.22226 l -0.0829,0.0176 -0.14808,0.11799 -0.13052,0.20078 0.13556,0.2309 -0.20078,-0.13052 -0.0829,0.0176 -0.35641,0.76799 m 0.30875,-0.58478 0.10044,0.0653 -0.10044,-0.0653 m 1.84959,6.27206 c 0.20443,-0.0474 1.40622,-0.52557 1.13062,-0.8697 -0.11641,-0.14542 -0.0741,0.13624 -0.0765,0.12682 l -1.10685,0.49441 0.0527,0.24847 m -0.19821,-1.34276 2.43306,-1.46997 1.3267,-0.79881 -2.52742,1.14191 -1.38543,0.81314 0.15312,0.31372 m -2.88094,-13.58317 c 0.78387,-0.62237 1.20855,-1.71806 2.33919,-1.62127 l 0.0176,0.0829 c -0.6564,0.52003 -1.37099,1.87675 -2.35676,1.53846 m 1.97007,8.06416 0.0653,-0.10043 -0.0653,0.10043 m -0.0527,-0.24847 0.21333,-0.21836 -0.21333,0.21836 m 0.31374,-0.15313 0.55719,-0.63748 -0.55719,0.63748 m -0.93604,-7.67752 -0.0176,-0.0829 c 0.69975,-0.60891 1.22204,-1.37544 2.17353,-1.58615 -0.2,0.63758 -1.45799,1.90794 -2.15596,1.66897 m 3.26661,13.90527 0.0493,-0.0393 -0.0493,0.0393 m -1.54249,-7.00075 0.26104,-0.40156 -0.0829,0.0176 -0.17821,0.38399 m 1.72408,6.90454 0.0653,-0.10043 -0.0653,0.10043 m -0.0351,-0.16565 0.0653,-0.10043 -0.0653,0.10043 m 0.18322,0.0477 0.0653,-0.10043 -0.0653,0.10043 m 0.2309,-0.13555 -0.0527,-0.24848 -0.14807,0.11799 0.20078,0.13052 m -1.5936,-7.10531 0.2309,-0.13556 -0.0176,-0.0829 -0.24848,0.0527 0.0351,0.16565 m 1.74165,6.98736 0.44425,-0.35387 -0.0176,-0.0829 -0.21334,0.21834 -0.18323,-0.0477 -0.0653,0.10043 0.0351,0.16565 m -2.76296,-13.43508 c 0.56349,-1.06645 1.56173,-1.54609 2.65292,-1.77438 -0.43782,0.81156 -1.61835,2.12956 -2.65292,1.77438 m 1.41793,6.27706 0.0829,-0.0176 -0.0527,-0.24847 -0.0302,0.26605 m 1.7534,6.63891 0.31372,-0.15313 -0.10043,-0.0653 -0.21334,0.21835 m 0.39657,-0.1707 0.13052,-0.20077 -0.16565,0.0351 0.0351,0.16564 m 0.29617,-0.2359 0.0653,-0.10043 -0.0653,0.10043 m 0.39658,-0.1707 0.0653,-0.10043 -0.0653,0.10043 m -2.56972,-12.52404 c 0.54008,-0.60411 1.18765,-1.44502 1.97276,-1.71667 l -0.76552,1.28752 -0.62747,0.30618 c 0.0257,0.36186 -0.36174,0.26904 -0.57977,0.12297 m 1.12949,0.02 c 0.54277,-0.66606 1.08289,-1.59292 1.95519,-1.79949 -0.25485,0.58202 -1.21238,2.14572 -1.95519,1.79949 m 1.09481,-0.14572 c 0.46332,-0.47076 0.82153,-1.06261 1.32831,-1.49057 0.15571,-0.13157 0.59786,-0.30983 0.62292,0.0484 0.0402,0.57445 -0.89402,1.09811 -1.03515,1.68062 l -0.88095,-0.0728 -0.0351,-0.16565 m 1.10941,0.19752 c -0.0136,-0.0641 0.0385,-0.0221 0.0334,0.0217 l -0.0334,-0.0217 m 0.13804,-0.0293 c 0.21102,-0.43873 0.54962,-0.80032 1.00145,-0.99135 l 0.15312,0.31372 c -0.31849,0.29189 -0.68788,0.75241 -1.15453,0.67762 m 0.94622,-0.0275 0.31372,-0.15312 0.0703,0.3313 -0.38399,-0.17821 m 4.16851,11.49253 0.0829,-0.0176 0.0527,0.24847 -0.13556,-0.2309 m 0.0577,-0.27189 c -0.0136,-0.0641 0.0385,-0.0221 0.0334,0.0217 l -0.0334,-0.0217 m 0.0602,-0.53208 c -0.0136,-0.0641 0.0385,-0.0221 0.0334,0.0217 l -0.0334,-0.0217"
       style="display:inline;fill:#000000;stroke:none"
       id="folder-1" />
  </g>
</svg>
