<?xml version="1.0" encoding="UTF-8" standalone="no"?>
<!-- Created with Inkscape (http://www.inkscape.org/) -->

<svg
   width="53.02916mm"
   height="29.99918mm"
   viewBox="0 0 53.02916 29.99918"
   version="1.1"
   id="svg1"
   xmlns="http://www.w3.org/2000/svg"
   xmlns:svg="http://www.w3.org/2000/svg">
  <defs
     id="defs1" />
  <g
     id="layer1"
     transform="translate(-160.07292,-147.90208)">
    <g
       id="g4"
       transform="translate(77.7875,14.81666)"
       style="display:inline">
      <path
         d="m 108.9594,154.87193 c -0.0793,0.049 -0.76545,0.0914 -1.52475,0.0944 -1.48615,0.004 -2.72698,0.26989 -3.11474,0.66322 -0.13283,0.1346 -0.57165,0.65602 -0.97533,1.1586 -0.40367,0.50257 -0.8958,1.11297 -1.09361,1.35646 -0.1978,0.24347 -0.35965,0.48769 -0.35965,0.54266 0,0.055 -0.11717,0.26852 -0.26052,0.47451 -0.14333,0.20601 -0.50053,0.81571 -0.79388,1.3549 -0.29333,0.53918 -0.62102,1.06802 -0.72818,1.17516 -0.10717,0.10719 -0.26312,0.32245 -0.3466,0.47844 -0.111,0.20744 -0.2411,0.26119 -0.48432,0.20014 -0.1829,-0.0458 -0.37428,-0.016 -0.42528,0.0666 -0.0588,0.0952 -0.16183,0.0566 -0.28138,-0.10539 -0.16083,-0.21771 -0.21603,-0.22629 -0.3745,-0.0582 -0.156,0.16559 -0.14433,0.18239 0.0728,0.1056 0.16584,-0.0586 0.23897,-0.0322 0.20372,0.0736 -0.12717,0.38165 -1.06956,0.50101 -4.04597,0.51237 -1.6605,0.006 -4.10524,0.0464 -5.43277,0.089 -3.16067,0.10139 -3.62752,-0.004 -4.49122,-1.01719 -1.27593,-1.49628 -2.26954,-5.48113 -2.21571,-8.88598 0.0382,-2.4163 0.49412,-4.35038 1.45567,-6.17537 0.43591,-0.82733 1.00691,-1.76862 1.26889,-2.09175 0.26198,-0.32315 0.60795,-0.84153 0.76882,-1.15198 0.31706,-0.61184 1.49106,-1.89234 2.28192,-2.48892 0.27142,-0.20476 0.67485,-0.53005 0.89648,-0.72288 0.22165,-0.19279 0.8249,-0.5884 1.34057,-0.87905 2.34122,-1.31962 2.69255,-1.46412 4.15275,-1.70795 1.02628,-0.17139 1.76986,-0.39739 2.58166,-0.78467 1.59181,-0.75942 1.74711,-0.95839 1.98209,-2.5392 0.10684,-0.71814 0.25752,-1.36912 0.33505,-1.44666 0.25765,-0.25765 0.46105,0.154 0.44427,0.89903 -0.0117,0.51529 0.0428,0.7432 0.19143,0.80018 0.1405,0.0538 0.20053,0.26161 0.18563,0.642 -0.0133,0.34121 0.053,0.6087 0.1689,0.68032 0.15383,0.0952 0.15667,0.15939 0.0133,0.33119 -0.0973,0.11739 -0.15667,0.42206 -0.132,0.67736 0.041,0.42386 0.0977,0.47452 0.65305,0.58364 0.46101,0.0904 0.5965,0.17679 0.56001,0.35645 -0.0375,0.18459 -0.17628,0.22745 -0.62708,0.19399 l -0.57893,-0.043 -0.11583,2.15963 c -0.0637,1.18778 -0.10584,2.30251 -0.0935,2.47712 0.0167,0.22682 -0.0552,0.31749 -0.24893,0.31749 -0.18974,0 -0.24534,0.0674 -0.18517,0.2241 0.0662,0.17259 0.008,0.21311 -0.24993,0.17639 -0.2017,-0.0286 -0.35712,-0.16059 -0.38897,-0.32991 -0.0827,-0.43942 -0.26011,-0.47952 -1.77688,-0.40143 -1.54332,0.0794 -2.49997,0.34491 -4.06433,1.12777 -0.52387,0.26213 -0.9525,0.44246 -0.9525,0.40069 0,-0.0418 -0.18245,0.018 -0.40543,0.13359 -0.223,0.1154 -0.4455,0.1696 -0.49445,0.1206 -0.049,-0.049 -0.2475,0.0598 -0.44122,0.24189 -0.19373,0.18199 -0.35415,0.27219 -0.35651,0.20045 -0.002,-0.0716 -0.069,-0.02 -0.14816,0.1166 -0.0792,0.1358 -0.2557,0.24693 -0.39243,0.24693 -0.13666,0 -0.3717,0.1134 -0.52215,0.25169 -0.15049,0.1386 -0.60625,0.39389 -1.01286,0.56771 -0.40662,0.17379 -0.9256,0.49814 -1.1533,0.72071 -0.22768,0.22258 -0.4665,0.42747 -0.53068,0.45535 -0.0642,0.0278 -0.41453,0.37725 -0.77855,0.77641 -0.364,0.39917 -0.69736,0.6902 -0.74083,0.64676 -0.0435,-0.0434 -0.079,0.02 -0.079,0.141 0,0.121 -0.0953,0.25663 -0.21166,0.30131 -0.1165,0.0446 -0.21167,0.17839 -0.21167,0.29733 0,0.1188 -0.0562,0.21607 -0.12466,0.21607 -0.0685,0 -0.16199,0.1112 -0.20756,0.24696 -0.0457,0.13579 -0.13918,0.34218 -0.20807,0.4586 -0.36533,0.6178 -0.54145,1.11595 -0.57378,1.62277 -0.0198,0.31045 -0.0932,0.81845 -0.16299,1.1289 -0.27634,1.22758 -0.13316,2.56988 0.50429,4.72719 0.19492,0.6597 0.44992,1.52682 0.56664,1.92696 0.23311,0.7991 1.04641,1.71389 1.87204,2.10568 0.70128,0.33277 5.97718,0.24531 7.85914,-0.1304 0.15516,-0.031 0.41563,-0.0646 0.57868,-0.0744 0.163,-0.01 0.71095,-0.33177 1.21755,-0.71529 0.99761,-0.75522 1.35888,-1.35738 2.24706,-3.74557 0.34161,-0.91857 0.40196,-1.25104 0.32658,-1.79916 -0.0508,-0.36983 -0.16183,-0.6724 -0.24653,-0.6724 -0.0847,0 -0.29502,-0.13239 -0.4673,-0.29429 l -0.31327,-0.29427 -0.0933,0.29427 c -0.119,0.37503 -0.58252,0.38095 -0.78105,0.01 -0.11484,-0.21457 -0.1075,-0.30127 0.0303,-0.35351 0.10034,-0.038 2.91211,-0.053 6.24831,-0.0332 5.51735,0.0328 6.06992,0.0572 6.11085,0.26981 0.0247,0.1286 -0.0198,0.2739 -0.0992,0.32289 z m -5.29692,0.2194 c -0.29645,0 -0.96707,0.6636 -0.85457,0.84563 0.0525,0.085 -0.005,0.30827 -0.12833,0.49617 -0.41138,0.62782 -0.23007,0.52586 0.33415,-0.188 0.3069,-0.38825 0.6244,-0.74694 0.70555,-0.79711 0.21575,-0.1334 0.18016,-0.35675 -0.0568,-0.35675 z m -2.62833,0.11799 c -0.32561,0.031 -0.6084,0.142 -0.6521,0.2559 -0.0425,0.11059 -0.26584,0.29865 -0.49649,0.41792 -0.23064,0.1194 -0.38714,0.24905 -0.34777,0.28843 0.0393,0.0394 0.2121,-0.004 0.38385,-0.0956 0.24552,-0.1314 0.33626,-0.1284 0.42461,0.014 0.0838,0.13559 0.25515,0.059 0.67567,-0.30295 0.30982,-0.2666 0.56866,-0.51817 0.57523,-0.55901 0.007,-0.0408 -0.24676,-0.0496 -0.563,-0.02 z m -1.47116,0.1644 c -0.2587,0 -0.35277,0.0754 -0.35277,0.28223 0,0.32995 0.0488,0.34225 0.42525,0.1072 0.3806,-0.2377 0.35237,-0.38939 -0.0725,-0.38939 z m -0.0857,4.4543 c 0.0858,-0.053 0.15617,-0.1656 0.15617,-0.24991 0,-0.22004 -0.66606,0.52888 -0.77466,0.87103 -0.1235,0.38925 0.12933,0.36495 0.32023,-0.0306 0.1435,-0.29763 0.15433,-0.29985 0.17258,-0.0354 l 0.0195,0.28223 0.112,-0.28223 c 0.0633,-0.1598 0.0525,-0.32045 -0.025,-0.37041 -0.0852,-0.0548 -0.078,-0.12459 0.0193,-0.18479 z m -0.70668,-2.03404 c -0.26246,0.41415 -0.12,0.56796 0.22264,0.24037 0.28378,-0.27135 0.3063,-0.34132 0.12266,-0.38146 -0.12366,-0.027 -0.27906,0.0364 -0.34538,0.14119 z m -0.10983,-19.63576 c -0.15283,0 -0.29733,0.34841 -0.29733,0.7171 0,0.1488 -0.0635,0.27067 -0.14117,0.27067 -0.0777,0 -0.14116,0.1226 -0.14116,0.27213 0,0.1496 -0.098,0.37021 -0.21788,0.49005 -0.11984,0.1198 -0.24187,0.39425 -0.27117,0.60978 -0.0293,0.21555 -0.0982,0.6618 -0.153,0.99163 -0.0548,0.32985 -0.0628,0.59974 -0.018,0.59974 0.23307,0 1.10188,-1.88776 1.21022,-2.62956 0.16903,-1.15752 0.17266,-1.32154 0.0293,-1.32154 z m -1.10861,23.99096 c -0.0582,0.001 -0.20109,0.0636 -0.3175,0.139 -0.17116,0.1106 -0.151,0.1372 0.10584,0.139 0.17463,0.001 0.31749,-0.0614 0.31749,-0.139 0,-0.0776 -0.0477,-0.1402 -0.10583,-0.139 z M 97.065,138.45889 c -0.10067,0.1064 -0.18847,0.2567 -0.19507,0.33431 -0.0388,0.45717 -0.25206,1.04263 -0.35638,0.97815 -0.0673,-0.0416 -0.0893,0.01 -0.0488,0.1156 0.0403,0.1052 -0.09,0.5609 -0.28981,1.01265 -0.47649,1.0774 -0.3515,1.1867 0.14299,0.12499 0.45643,-0.98007 1.05656,-2.63277 0.98281,-2.70653 -0.0288,-0.0288 -0.13483,0.0344 -0.23559,0.14059 z m -1.60141,1.11043 c -0.0972,0 -0.48668,0.91873 -0.48668,1.14786 0,0.27153 0.15216,0.044 0.3596,-0.53766 0.23086,-0.64736 0.22313,-0.6102 0.12715,-0.6102 z m -1.25918,2.11665 c -0.074,0 -0.4975,0.78198 -0.4975,0.91855 0,0.1788 0.30715,-0.11359 0.42427,-0.40382 0.14349,-0.35553 0.16617,-0.51473 0.0732,-0.51473 z m -0.83638,-2.59636 c -0.19423,0.0746 -0.30588,0.31036 -0.5096,1.07635 -0.0608,0.22867 -0.049,0.35193 0.0293,0.30359 0.0783,-0.0484 0.0958,0.1388 0.0433,0.46171 l -0.0883,0.54304 0.28649,-0.60492 c 0.18203,-0.38439 0.25723,-0.75112 0.20626,-1.00593 -0.0453,-0.22631 -0.0116,-0.44287 0.0752,-0.49702 0.22553,-0.1394 0.19075,-0.36629 -0.0425,-0.27682 z m -1.76398,1.74969 c -0.07,0 -0.19371,0.19059 -0.27488,0.42335 -0.18445,0.52912 -0.0968,0.54628 0.18038,0.0354 0.25463,-0.46934 0.25241,-0.4586 0.0945,-0.4586 z m -1.10448,3.01918 c -0.14349,0.1436 0.0725,0.2618 0.26295,0.1442 0.14384,-0.0888 0.144,-0.1222 5.7e-4,-0.17 -0.098,-0.0326 -0.21662,-0.021 -0.26352,0.0258 z m -1.73068,-2.24385 c -0.18857,0.1706 -0.27976,0.42557 -0.27313,0.76348 l 0.01,0.5073 0.20537,-0.56102 c 0.113,-0.30859 0.26616,-0.62186 0.34048,-0.69616 0.25665,-0.25665 -4.2e-4,-0.26901 -0.28265,-0.014 z m -0.28308,3.74021 c -0.0777,0 -0.14117,0.0674 -0.14117,0.14959 0,0.0822 0.0635,0.1102 0.14117,0.0622 0.0777,-0.048 0.14116,-0.1152 0.14116,-0.1494 0,-0.0342 -0.0635,-0.0622 -0.14116,-0.0622 z m -0.97944,-1.69333 c -0.1795,0 -0.24132,0.125 -0.34882,0.70558 l -0.0915,0.49386 0.28062,-0.49386 c 0.31726,-0.5584 0.35056,-0.70558 0.15967,-0.70558 z m -2.03821,2.96333 c -0.0298,0 -0.16068,0.17459 -0.29059,0.38806 l -0.23628,0.38805 0.2906,-0.33313 c 0.28358,-0.32509 0.34647,-0.44298 0.23627,-0.44298 z m -0.58067,1.07786 c -0.1165,0.0446 -0.20965,0.1856 -0.20718,0.31307 0.003,0.1968 0.0358,0.1904 0.21166,-0.042 0.25895,-0.34237 0.25847,-0.3719 -0.005,-0.27101 z"
         style="display:inline;fill:#000000;stroke-width:1.66666"
         id="G-6" />
      <path
         d="m 118.20735,162.59592 c -0.0269,0.002 -0.19616,0.0176 -0.37597,0.034 -0.17981,0.0164 -0.48876,0.0375 -0.68656,0.047 -0.1978,0.009 -0.41177,0.0417 -0.4755,0.0717 -0.0637,0.03 -0.41681,0.0415 -0.78464,0.0256 -0.61815,-0.0267 -1.21394,0.0307 -2.13998,0.20607 -0.50144,0.095 -0.93418,0.13079 -1.01053,0.0836 -0.0355,-0.0219 -0.18307,-0.0465 -0.32798,-0.0546 -0.1449,-0.008 -0.42529,-0.0588 -0.62309,-0.11282 -0.19779,-0.054 -0.56559,-0.13287 -0.81734,-0.17533 -0.66653,-0.11243 -0.75195,-0.13628 -0.75195,-0.20996 0,-0.0395 0.0827,-0.05 0.20414,-0.0256 0.17487,0.035 0.19265,0.027 0.12402,-0.0557 -0.0441,-0.0531 -0.2377,-0.17363 -0.43028,-0.26785 -0.23095,-0.11299 -0.3965,-0.24987 -0.4863,-0.40207 -0.0749,-0.12691 -0.15217,-0.21471 -0.17177,-0.19512 -0.0477,0.0477 0.17159,0.50395 0.2423,0.50395 0.0761,0 0.45251,0.37321 0.45251,0.44862 0,0.0806 -0.42855,-0.0176 -0.57399,-0.13156 -0.2756,-0.21594 -0.50358,-0.74263 -0.43976,-1.01596 0.0184,-0.0787 0.004,-0.16141 -0.0324,-0.18376 -0.0383,-0.0237 -0.0486,-0.15499 -0.0246,-0.3146 0.0477,-0.3168 0.40396,-1.28744 0.47257,-1.28744 0.0255,0 0.081,-0.0919 0.12337,-0.20417 0.0502,-0.13298 0.10932,-0.19181 0.16955,-0.16869 0.0564,0.0216 0.12728,-0.0327 0.18155,-0.13911 0.10757,-0.21082 0.5708,-0.69729 0.61853,-0.64956 0.0187,0.0187 0.12066,-0.0526 0.22653,-0.15848 0.10588,-0.10587 0.22226,-0.17411 0.25862,-0.15164 0.0364,0.0225 0.0661,0.0161 0.0661,-0.0143 0,-0.0816 0.38283,-0.2931 0.45258,-0.24998 0.033,0.0204 0.10438,-0.008 0.15866,-0.0616 0.0543,-0.0543 0.1758,-0.0987 0.27006,-0.0987 0.0943,0 0.2582,-0.0449 0.3643,-0.0998 0.1061,-0.0549 0.19292,-0.0858 0.19292,-0.0687 0,0.0171 0.10616,-0.0133 0.23591,-0.0675 0.12976,-0.0542 0.25236,-0.0821 0.27245,-0.0621 0.0201,0.0201 -0.005,0.0395 -0.0561,0.043 -0.051,0.004 -0.0191,0.0275 0.0708,0.0531 0.0899,0.0256 0.25174,0.0239 0.35963,-0.004 0.10789,-0.0277 0.27828,-0.0672 0.37865,-0.0877 0.10037,-0.0206 0.16483,-0.066 0.14326,-0.10082 -0.0215,-0.0349 -0.008,-0.0635 0.03,-0.0635 0.16844,0 0.0158,-1.92857 -0.16354,-2.06689 -0.0517,-0.0399 -0.0941,-0.10613 -0.0941,-0.14712 0,-0.041 -0.0241,-0.0745 -0.0536,-0.0745 -0.0295,0 -0.17077,-0.10028 -0.31396,-0.22284 -0.14318,-0.12256 -0.38387,-0.2561 -0.53486,-0.29676 -0.15099,-0.0406 -0.27453,-0.10582 -0.27453,-0.1448 0,-0.048 -0.0264,-0.0497 -0.0817,-0.005 -0.045,0.036 -0.15383,0.0876 -0.24196,0.11466 -0.20561,0.0633 -1.34382,0.83397 -1.62157,1.09807 -0.14838,0.14109 -0.21281,0.26232 -0.2135,0.40174 -6.8e-4,0.13441 -0.0191,0.17114 -0.0564,0.11236 -0.0304,-0.048 -0.0668,-0.0805 -0.0807,-0.0721 -0.014,0.008 -0.0842,-0.004 -0.1562,-0.0263 -0.23365,-0.0741 -0.29132,-0.35479 -0.32699,-1.59113 -0.0291,-1.00767 -0.0198,-1.18912 0.0629,-1.22081 0.13662,-0.0524 0.36716,0.49184 0.3533,0.83407 -0.006,0.1471 -0.006,0.41292 -7.7e-4,0.5907 l 0.01,0.32325 0.44136,-0.46113 c 0.58164,-0.60768 1.42984,-1.07855 1.93693,-1.07525 0.1844,0.002 0.43805,0.0327 0.56369,0.0701 0.12563,0.0373 0.36103,0.0684 0.52309,0.0689 0.20904,7.1e-4 0.26649,0.0188 0.1977,0.0623 -0.0751,0.0475 -0.0237,0.0932 0.22885,0.20322 0.17921,0.078 0.37732,0.18696 0.44026,0.24205 0.17493,0.15312 0.1361,0.004 -0.0517,-0.19867 -0.14653,-0.15802 -0.27499,-0.21274 -0.43872,-0.18689 -0.0269,0.005 -0.049,-0.0217 -0.049,-0.0576 0,-0.0841 0.2995,-0.0847 0.45616,-7.8e-4 0.15256,0.0816 0.41552,0.50137 0.36517,0.58285 -0.0208,0.0337 -7.4e-4,0.10046 0.0446,0.14831 0.0454,0.0479 0.15369,0.24148 0.24063,0.43029 0.0869,0.1888 0.18737,0.34328 0.22318,0.34328 0.0358,0 0.0457,0.0194 0.0221,0.043 -0.0236,0.0236 -0.0105,0.0822 0.0293,0.13018 0.0739,0.0891 0.099,0.73521 0.0376,0.97106 -0.0187,0.0719 -0.0911,0.33675 -0.16086,0.58848 -0.0697,0.25174 -0.11497,0.49179 -0.10047,0.53345 0.0145,0.0416 -0.005,0.0949 -0.0425,0.11829 -0.0378,0.0234 -0.0688,0.072 -0.0688,0.10793 0,0.036 0.0221,0.0517 0.049,0.0351 0.027,-0.0167 0.0575,0.19024 0.0678,0.45979 0.0116,0.30357 0.0572,0.54882 0.11984,0.64441 0.0597,0.0911 0.0834,0.2101 0.0579,0.29057 -0.11351,0.35763 -0.15612,1.14424 -0.0877,1.6197 0.0297,0.20654 0.07,0.49145 0.0894,0.63313 0.0631,0.45922 0.41842,0.88176 0.81539,0.96966 0.0899,0.0199 0.23703,0.0555 0.32694,0.0792 0.0899,0.0236 0.45675,0.041 0.8152,0.0386 0.35846,-0.002 0.70419,0.0123 0.7683,0.0326 0.11165,0.0354 0.16904,0.28527 0.0675,0.2939 z m -2.77031,-0.46188 c -0.036,0 -0.0472,0.0294 -0.0249,0.0654 0.0222,0.036 0.0698,0.0654 0.1058,0.0654 0.036,0 0.0472,-0.0294 0.025,-0.0654 -0.0222,-0.036 -0.0698,-0.0654 -0.10581,-0.0654 z m -0.49902,0.07 c -0.15698,0.004 -0.16321,0.0113 -0.049,0.0572 0.0719,0.029 0.15284,0.0399 0.17981,0.0242 0.0957,-0.0554 0.0466,-0.086 -0.13077,-0.0815 z m -0.0585,-7.12631 c -0.0128,-0.015 -0.0233,0.0642 -0.0233,0.17596 0,0.11176 0.029,0.22111 0.0644,0.243 0.0584,0.0361 0.0208,-0.34652 -0.0411,-0.41896 z m -0.0166,6.24334 c -0.0587,-0.14983 -0.11671,-0.0687 -0.10973,0.15339 0.003,0.0867 0.0417,0.17012 0.0867,0.18526 0.09,0.0303 0.10145,-0.13839 0.023,-0.33865 z m -0.11176,-0.88707 c -0.0141,0 -0.0222,0.12506 -0.018,0.2779 0.007,0.25498 0.0115,0.26172 0.0531,0.0817 0.0422,-0.18213 0.0248,-0.35963 -0.0352,-0.35963 z m 0.06,-0.83368 c -0.0165,0.0629 -0.0165,0.16592 0,0.22885 0.0165,0.0629 0.0299,0.0114 0.0299,-0.11442 0,-0.12587 -0.0134,-0.17736 -0.0299,-0.11443 z m -0.15109,-1.65101 c -0.069,-0.10688 -0.0952,0.0834 -0.0711,0.51848 0.0246,0.44432 0.13251,0.44805 0.13354,0.005 5.5e-4,-0.23375 -0.0276,-0.46915 -0.0624,-0.52309 z m -0.1574,-1.16 c -0.0259,-0.0259 -0.0379,0.0971 -0.0266,0.27341 0.0113,0.17632 0.0528,0.33117 0.0922,0.34413 0.0787,0.0259 0.0194,-0.53254 -0.0656,-0.61754 z m 0.0333,-2.07231 c -0.0374,-0.0954 -0.0624,-0.10563 -0.10185,-0.0417 -0.0307,0.0496 -0.018,0.10591 0.0303,0.13582 0.0473,0.0293 0.0691,0.12217 0.051,0.21732 -0.0175,0.0914 -0.007,0.20488 0.0227,0.25216 0.069,0.10892 0.0672,-0.38651 -0.002,-0.56357 z m -0.13277,3.98425 c -0.10707,-0.67407 -0.13439,-0.72181 -0.40518,-0.70801 -0.25008,0.0127 -1.34648,0.38886 -1.49572,0.51309 -0.054,0.0449 -0.34819,0.20029 -0.65386,0.34529 -0.30569,0.14501 -0.64407,0.33911 -0.75195,0.43133 -0.10789,0.0922 -0.22981,0.19591 -0.27093,0.23042 -0.0411,0.0345 -0.0878,0.0497 -0.10366,0.0338 -0.0883,-0.0883 -0.82342,0.88881 -0.78151,1.03876 0.008,0.0297 -0.012,0.0371 -0.0451,0.0168 -0.0331,-0.0205 -0.0776,0.008 -0.099,0.0639 -0.022,0.0572 -0.0111,0.084 0.0251,0.0616 0.0362,-0.0224 0.047,0.005 0.0251,0.0616 -0.0213,0.0556 -0.0725,0.0822 -0.11367,0.0592 -0.0453,-0.0253 -0.0425,-0.007 0.007,0.0462 0.045,0.0484 0.0817,0.13898 0.0817,0.20122 0,0.24834 0.28993,0.57053 0.64608,0.71796 l 0.35183,0.14565 0.49819,-0.13731 c 0.27401,-0.0755 0.66003,-0.18392 0.85783,-0.24087 0.1978,-0.057 0.74821,-0.16241 1.22314,-0.23434 0.47494,-0.0719 0.90756,-0.14767 0.96137,-0.16832 0.0673,-0.0259 0.1039,-0.15286 0.11729,-0.40771 0.0378,-0.7206 0.008,-1.55373 -0.074,-2.07023 z m -0.11935,-3.92841 c -0.0462,0.0462 0.0534,0.29944 0.11768,0.29944 0.0327,0 0.026,-0.0737 -0.0151,-0.16374 -0.041,-0.0901 -0.0872,-0.15113 -0.10265,-0.1357 z m 0.0858,7.36122 c -0.0158,0 -0.047,0.0294 -0.0693,0.0654 -0.0222,0.036 -0.009,0.0654 0.0288,0.0654 0.0381,0 0.0693,-0.0294 0.0693,-0.0654 0,-0.036 -0.013,-0.0654 -0.0288,-0.0654 z m -0.10195,-8.09279 c -0.12012,-0.075 -0.13077,-0.0653 -0.13077,0.11934 0,0.11056 0.036,0.26528 0.08,0.34384 0.0768,0.13714 0.0816,0.13373 0.12216,-0.086 0.0233,-0.12588 0.0461,-0.24385 0.0508,-0.26217 0.005,-0.0183 -0.0502,-0.0701 -0.12217,-0.11498 z m -0.60264,7.75387 c -0.047,0.0469 -0.0508,0.0774 -0.01,0.0774 0.0873,0 0.16461,-0.0773 0.12096,-0.12097 -0.0186,-0.0186 -0.0686,7.7e-4 -0.11115,0.0435 z m -0.36459,-0.15986 c -0.0285,0.0176 -0.16826,0.0483 -0.31059,0.0683 -0.5878,0.0825 -1.01071,0.20742 -1.01071,0.29864 0,0.0869 0.60984,-0.011 0.86377,-0.1386 0.13343,-0.067 0.30261,-0.12192 0.37597,-0.12192 0.0734,0 0.13338,-0.0311 0.13338,-0.0693 0,-0.0381 -0.0233,-0.0548 -0.0518,-0.0372 z m -0.50782,0.95649 c -0.0878,0 -0.15961,0.0275 -0.15961,0.061 0,0.0336 0.0872,0.0585 0.1939,0.0555 0.22996,-0.006 0.19759,-0.11652 -0.0343,-0.11652 z m -0.10399,-4.66852 c -0.0845,0.0288 -0.16841,0.0552 -0.1864,0.0588 -0.11109,0.0219 -0.36044,0.12268 -0.41999,0.16984 -0.63888,0.50598 -0.55643,0.55553 0.2546,0.15299 0.38955,-0.19335 0.60459,-0.3348 0.56665,-0.37275 -0.0342,-0.0342 -0.12888,-0.0381 -0.21486,-0.009 z m -0.53354,4.66952 c -0.24326,7.2e-4 -0.31164,0.0189 -0.24134,0.0644 0.13183,0.0852 0.67383,0.0852 0.62118,0 -0.0222,-0.036 -0.19316,-0.0649 -0.37984,-0.0644 z m -0.82001,-3.9896 c -0.20322,0 -1.05581,0.81641 -1.42865,1.36802 -0.20179,0.29853 -0.33885,0.70232 -0.21174,0.62375 0.0337,-0.0208 0.0613,-0.0776 0.0613,-0.12623 0,-0.0965 0.44369,-0.68678 0.71723,-0.95424 0.0943,-0.0922 0.33926,-0.29432 0.54442,-0.44922 0.33068,-0.24966 0.47661,-0.46208 0.31744,-0.46208 z m -0.29605,-4.38091 c -0.0136,0 -0.0651,0.0515 -0.11443,0.11442 -0.0813,0.10371 -0.079,0.10602 0.0247,0.0247 0.10892,-0.0854 0.14356,-0.13911 0.0897,-0.13911 z m -0.44047,0.87734 c -0.076,0.0967 -0.1221,0.19186 -0.10238,0.21158 0.0606,0.0605 0.23548,-0.13344 0.23812,-0.26406 0.002,-0.10341 -0.0198,-0.095 -0.13574,0.0525 z"
         style="display:inline;fill:#000000;stroke-width:0.772286"
         id="a-2" />
      <path
         d="m 135.2324,162.9446 c -0.0314,0.0193 -0.84245,0.0318 -1.80248,0.0275 -0.96004,-0.004 -2.05926,0.0193 -2.44272,0.0524 l -0.69721,0.0601 0.19095,-0.25827 c 0.17227,-0.23301 0.23491,-0.25828 0.64006,-0.25828 0.67717,0 0.72894,-0.0524 0.84178,-0.85136 0.0538,-0.38149 0.1388,-0.97548 0.18872,-1.31997 0.0979,-0.6762 0.18259,-5.65228 0.10268,-6.03938 -0.0473,-0.22961 -0.0599,-0.23447 -0.52241,-0.20299 -0.26062,0.0178 -0.51073,0.055 -0.55581,0.083 -0.0451,0.0279 -0.30764,0.0762 -0.58348,0.10739 -0.40536,0.0459 -0.52269,0.0313 -0.6119,-0.0762 -0.14921,-0.17979 -0.0617,-0.36904 0.2009,-0.43497 0.25258,-0.0634 0.3841,0.0235 0.20605,0.13607 -0.10304,0.0652 -0.0993,0.0779 0.0233,0.079 0.0804,7.1e-4 0.14614,-0.0426 0.14614,-0.0962 0,-0.0536 0.0248,-0.0727 0.0549,-0.0425 0.0302,0.0302 0.0969,0.0202 0.14806,-0.0223 0.0512,-0.0425 0.3741,-0.10309 0.71754,-0.13465 0.34345,-0.0316 0.65394,-0.0747 0.68998,-0.0958 0.036,-0.0211 0.0444,-0.22325 0.0185,-0.44921 -0.0381,-0.33332 -0.0229,-0.41084 0.0806,-0.41084 0.0867,0 0.12759,0.0821 0.12759,0.25603 0,0.48634 0.30313,0.74363 0.56619,0.48057 0.0754,-0.0754 0.14314,-0.0756 0.28812,-9.1e-4 0.10427,0.0537 0.48984,0.10743 0.85679,0.11941 0.52161,0.0171 0.67253,0.0497 0.69163,0.1499 0.0313,0.16422 -0.62126,0.34926 -0.97924,0.27767 -0.21776,-0.0436 -0.25432,-0.026 -0.25432,0.12167 0,0.0949 -0.0359,0.19475 -0.0799,0.2219 -0.0439,0.0271 -0.0587,0.10453 -0.0328,0.17195 0.0258,0.0675 0.0136,0.1226 -0.0271,0.1226 -0.19119,0 -0.29741,0.77087 -0.24496,1.77789 0.0292,0.56088 0.0569,1.09495 0.0617,1.18681 0.005,0.0918 0.0658,0.48646 0.13571,0.87689 0.0699,0.39042 0.136,0.82392 0.14676,0.96335 0.0108,0.13941 0.0418,0.36489 0.0691,0.50107 0.0272,0.13617 0.0715,0.48298 0.0984,0.77069 0.10294,1.10182 0.37556,1.6553 0.85381,1.73347 0.67327,0.11003 0.74529,0.13478 0.74529,0.25607 0,0.0689 -0.0257,0.1412 -0.0569,0.16057 z m -1.67805,-1.02384 c -0.083,-0.22163 -0.12246,-0.23379 -0.18981,-0.0583 -0.0337,0.0881 -0.0166,0.10968 0.0537,0.0675 0.0729,-0.0438 0.0707,-0.0217 -0.007,0.0746 -0.14092,0.17387 -0.0956,0.52 0.0691,0.52712 0.27437,0.0118 0.28249,-0.0547 0.0745,-0.61089 z m -0.77935,-7.87107 c -0.16446,0 -0.21825,0.10867 -0.12597,0.25452 0.0573,0.0907 0.077,0.0936 0.078,0.0119 7e-4,-0.0602 0.0389,-0.0861 0.0848,-0.0577 0.046,0.0284 0.0835,-0.007 0.0835,-0.0786 0,-0.0716 -0.0541,-0.1302 -0.12034,-0.1302 z m 2.41514,-0.20269 c -0.12984,-0.17162 -0.10921,-0.26752 0.038,-0.17655 0.049,0.0303 0.0879,0.11859 0.0864,0.19627 -0.002,0.12398 -0.0176,0.12158 -0.1244,-0.0197 z m -0.34292,-5.31574 c -0.0544,0.004 -0.0843,0.12114 -0.0709,0.27801 0.0128,0.14927 -1.2e-4,0.30899 -0.0287,0.35492 -0.0286,0.046 -0.0611,0.1211 -0.0722,0.16702 -0.19027,0.78785 -0.71439,1.58852 -1.20637,1.84293 -0.40148,0.20761 -0.8865,0.1794 -1.47318,-0.0857 -0.52367,-0.23661 -1.02058,-0.74378 -1.02185,-1.04294 -3.1e-4,-0.0713 -0.0753,-0.24244 -0.16648,-0.38024 -0.0917,-0.13848 -0.16616,-0.39182 -0.16647,-0.56639 -0.002,-0.99329 0.94055,-1.83294 2.2177,-1.97617 0.61777,-0.0692 0.65724,-0.0629 1.11106,0.17953 0.5958,0.31829 0.86346,0.61766 0.82287,0.92039 -0.0168,0.12519 0.01,0.24437 0.0591,0.26483 0.0606,0.0252 0.0591,0.0394 -0.005,0.0438 z m -0.79221,1.14981 c -0.47547,0.55604 -0.81415,0.86108 -0.95605,0.86108 -0.0661,0 -0.12012,0.0376 -0.12012,0.0836 0,0.13026 0.44314,0.098 0.65064,-0.0473 0.1027,-0.0719 0.26644,-0.28802 0.36385,-0.4802 0.0975,-0.19218 0.20402,-0.3682 0.2369,-0.39117 0.0615,-0.0429 0.15007,-0.24008 0.16173,-0.36 0.004,-0.0373 -0.14799,0.11307 -0.33695,0.33405 z m -0.16271,-0.9762 c -0.0431,0 -0.0783,0.049 -0.0783,0.10905 0,0.06 -0.14609,0.33244 -0.32464,0.60547 -0.32517,0.49724 -0.3232,0.65599 0.006,0.43778 0.27079,-0.1798 0.60628,-1.1523 0.39752,-1.1523 z m -0.87596,-0.0836 c -0.0511,0 -0.29006,0.54139 -0.28454,0.64454 0.004,0.0763 0.32187,-0.48907 0.32705,-0.5819 0.002,-0.0344 -0.0172,-0.0626 -0.0425,-0.0626 z m -0.28804,-1.08567 c -0.0928,0 -0.16702,0.0556 -0.16702,0.12527 0,0.15262 0.0535,0.15795 0.20913,0.0209 0.15628,-0.13759 0.15381,-0.14615 -0.0421,-0.14615 z m -0.34293,0.80131 c -0.0968,0.0875 -0.24165,0.29063 -0.322,0.45139 -0.1681,0.33635 -0.28624,0.86509 -0.1784,0.79844 0.0401,-0.0248 0.096,-0.16754 0.1243,-0.31732 0.0283,-0.14979 0.16396,-0.44145 0.3014,-0.64815 0.29643,-0.44579 0.3099,-0.49707 0.0747,-0.28436 z m -0.38786,1.89195 c -0.29176,-0.13769 -0.34412,-0.13182 -0.31952,0.0358 0.0114,0.0771 0.15389,0.18634 0.31682,0.24275 0.26409,0.0914 0.2923,0.0876 0.26003,-0.0358 -0.0199,-0.0762 -0.1357,-0.18536 -0.25733,-0.24276 z m -0.14183,-0.46698 c -0.0809,-0.0311 -0.10562,-0.006 -0.0746,0.0746 0.0255,0.0667 -9.9e-4,0.12102 -0.06,0.12102 -0.0585,0 -0.0867,0.0196 -0.0626,0.0437 0.0589,0.0589 0.31817,-0.0448 0.31817,-0.12724 0,-0.0361 -0.0545,-0.0865 -0.12102,-0.11208 z m -0.0789,-1.92583 c -0.12073,0.0464 -0.38468,0.43816 -0.38468,0.57106 0,0.0246 0.12853,-0.0956 0.28562,-0.26698 0.30418,-0.33192 0.32312,-0.39006 0.0991,-0.30408 z m -0.13414,1.11927 c -0.046,0 -0.0835,0.0166 -0.0835,0.0368 0,0.0202 0.0376,0.0601 0.0835,0.0885 0.046,0.0284 0.0836,0.0118 0.0836,-0.0368 0,-0.0486 -0.0376,-0.0885 -0.0836,-0.0885 z m -0.49517,-0.45514 c -0.0427,0.0436 -0.0994,0.19207 -0.12601,0.32987 -0.0453,0.23447 -0.0407,0.2318 0.0712,-0.0417 0.14714,-0.35938 0.1526,-0.38813 0.0547,-0.28811 z"
         style="display:inline;fill:#000000;stroke-width:0.986371"
         id="i-0" />
      <path
         d="m 123.55788,150.83921 c -0.0248,0.0248 -0.21228,-0.001 -0.76922,-0.1084 -0.1515,-0.029 -0.40264,-0.002 -0.76069,0.0819 -0.29399,0.0689 -0.63778,0.12181 -0.74752,0.16432 -0.10973,0.0425 -0.59881,-0.0215 -0.92151,0.098 -0.0245,0.0397 -0.0523,1.36588 -0.11411,1.84882 -0.0974,0.76114 -0.005,3.25996 0.0632,3.71955 0.0679,0.45958 -0.004,0.55364 -0.0127,2.21466 -0.007,1.32487 -0.01,2.4624 -0.0803,3.16368 -0.04,0.39663 0.057,1.05683 -0.0481,1.05683 -0.16268,0 -0.65827,0.0332 -0.65827,-0.0562 0,-0.057 0.0511,-0.21875 0.0203,-0.3087 -0.0308,-0.0899 -0.0126,-0.24912 0.004,-0.35555 0.0168,-0.10643 -0.0309,-0.20147 0.0436,-0.57626 0.079,-0.39712 0.0846,-0.46126 0.0206,-0.52636 -0.042,-0.0428 -0.0615,-0.0909 -0.0486,-0.12288 0.0129,-0.0319 0.0246,-0.38257 0.0393,-0.8679 0.0137,-0.45035 -0.0827,-1.70869 0.004,-2.1072 0.0862,-0.39849 -0.007,-2.098 -0.10721,-3.59589 -0.0517,-0.5963 -0.0597,-1.12646 -0.02,-1.43105 0.0321,-0.24626 -0.0583,-1.28309 -0.0447,-1.80388 0.009,-0.35402 -0.78376,0.006 -1.33851,-0.3405 -0.23899,-0.14928 -0.35469,-0.0435 -0.65869,-0.0607 -0.21289,-0.0121 -0.43014,-0.0357 -0.46829,-0.006 -0.1053,0.0825 -0.2265,-0.0273 -0.26061,-0.0825 -0.0311,-0.0504 -0.0277,-0.4068 0.0102,-0.42283 0.0379,-0.016 0.18576,0.0414 0.32229,-0.0447 0.2611,-0.0755 0.3748,-0.0263 0.97292,-0.0637 0.78703,-0.0492 1.57807,-0.0997 1.54373,-0.40643 -0.0244,-0.2184 -0.14658,-2.28925 -0.14658,-2.4854 0,-0.0847 0.0288,-0.11515 0.0875,-0.0926 0.0571,0.0219 0.0941,-0.0127 0.10649,-0.1 0.0218,-0.15289 0.26113,-0.19121 0.26408,-0.0423 0.004,0.17657 0.0999,0.48685 0.15122,0.48685 0.0285,0 0.0715,0.0615 0.0953,0.13669 0.0239,0.0752 0.0816,0.16462 0.12824,0.19874 0.0674,0.0492 0.0845,0.29263 0.0831,1.18024 l -0.001,1.11817 0.65124,-0.0502 c 0.7276,-0.0244 1.57552,-0.0544 1.88426,-0.0668 0.48069,-0.0193 0.5697,-0.008 0.61947,0.0814 0.0413,0.0738 0.0303,0.13468 -0.0383,0.21039 -0.0887,0.098 -0.087,0.10654 0.0218,0.10654 0.10636,0 0.18379,0.18343 0.10901,0.25822 z m -2.50563,-0.23138 c -0.38112,0.0445 -0.77095,0.15054 -0.72443,0.19706 0.0327,0.0327 1.07434,-0.1738 1.07434,-0.21297 0,-0.0137 -0.15746,-0.006 -0.34991,0.0159 z m -1.12777,-0.0268 c -0.10393,0 -0.14201,0.038 -0.15137,0.15107 l -0.0125,0.15106 0.15137,-0.13161 c 0.18553,-0.16131 0.1862,-0.17052 0.0125,-0.17052 z m 0.008,-2.77413 c -0.0486,0.0194 -0.0341,0.0339 0.0367,0.0368 0.0642,0.003 0.1001,-0.0117 0.0799,-0.032 -0.0202,-0.0202 -0.0727,-0.0224 -0.11663,-0.005 z m -0.0219,4.45431 c -0.0316,0.0316 -0.0697,0.28951 -0.0847,0.5731 -0.0254,0.48047 -0.0224,0.49741 0.0442,0.24837 0.0912,-0.34123 0.11869,-0.89972 0.0404,-0.82147 z m -0.12875,-3.21085 c -0.0169,0.0418 -0.0169,0.1103 0,0.15214 0.0169,0.0418 0.0307,0.008 0.0307,-0.0761 0,-0.0837 -0.0138,-0.11791 -0.0307,-0.0761 z m -1.18062,1.65238 c -0.0606,0 -0.15584,0.0175 -0.21159,0.0389 -0.13864,0.0532 0.001,0.14147 0.22643,0.14274 0.12225,6.9e-4 0.1563,-0.0229 0.13041,-0.0904 -0.0193,-0.0502 -0.0846,-0.0913 -0.14525,-0.0913 z"
         style="display:inline;fill:#000000;stroke-width:0.718765"
         id="path49-23" />
      <path
         d="m 130.40702,150.83589 c -0.0247,0.0247 -0.21177,-0.001 -0.76738,-0.10815 -0.15114,-0.029 -0.40168,-0.002 -0.75888,0.0817 -0.29329,0.0688 -0.62887,0.14253 -0.74574,0.16393 -0.11686,0.0214 -0.34908,0.0894 -0.51604,0.15109 -0.16695,0.0617 -0.46191,0.1463 -0.65547,0.18798 -0.19355,0.0417 -0.36193,0.092 -0.37418,0.11182 -0.0245,0.0396 -0.18467,1.00954 -0.24635,1.49133 -0.0972,0.75933 -0.60182,3.56755 -0.68183,3.79441 -0.0176,0.0501 -0.0373,0.13204 -0.0437,0.18213 -0.0155,0.1226 -0.10131,0.47891 -0.45999,1.91006 -0.32132,1.28208 -0.69596,2.53533 -0.95348,3.18962 -0.14643,0.37202 -0.63334,1.09279 -0.73822,1.09279 -0.16229,0 -0.43048,-0.14742 -0.43048,-0.23664 0,-0.0569 -0.0282,-0.13149 -0.0626,-0.16589 -0.0727,-0.0728 0.007,-0.34187 0.0959,-0.32216 0.0318,0.007 0.2021,-0.26361 0.37859,-0.60152 0.22083,-0.42282 0.28923,-0.60222 0.21938,-0.57542 -0.0559,0.0214 -0.091,0.0129 -0.0781,-0.019 0.0129,-0.0318 0.17162,-0.42552 0.35272,-0.8748 0.18109,-0.44928 0.37915,-0.88202 0.44015,-0.96165 0.13747,-0.17948 0.14142,-0.30264 0.0113,-0.35257 -0.09,-0.0345 -0.0889,-0.046 0.0116,-0.11951 0.0612,-0.0447 0.093,-0.0813 0.0707,-0.0813 -0.0222,0 -0.0126,-0.0733 0.0214,-0.16286 0.2283,-0.60047 0.63196,-2.67554 0.84226,-4.32972 0.0753,-0.59235 0.10944,-0.79548 0.18367,-1.09279 0.0572,-0.22893 0.13437,-1.04563 0.14798,-1.56519 0.009,-0.35318 0.0128,-0.34862 -0.54066,-0.69433 -0.23843,-0.14893 -0.3864,-0.1943 -0.68969,-0.21149 -0.21237,-0.0121 -0.41727,0.003 -0.45533,0.0323 -0.10505,0.0823 -0.39171,0.13851 -0.42573,0.0835 -0.031,-0.0503 0.0483,-0.21706 0.0901,-0.18949 0.013,0.009 0.13501,-0.0549 0.27122,-0.1408 0.21311,-0.13453 0.3443,-0.16237 0.94101,-0.19967 0.78515,-0.0491 0.90421,-0.10539 0.86995,-0.41139 -0.0244,-0.21788 -0.14622,-2.2838 -0.14622,-2.47949 0,-0.0845 0.0287,-0.11487 0.0873,-0.0924 0.057,0.0219 0.0939,-0.0127 0.10624,-0.0998 0.0217,-0.15252 0.26051,-0.19075 0.26345,-0.0422 0.004,0.17615 0.0996,0.48568 0.15087,0.48568 0.0285,0 0.0713,0.0614 0.0951,0.13637 0.0238,0.075 0.0814,0.16422 0.12794,0.19827 0.0672,0.0491 0.0843,0.29193 0.0829,1.17742 l -10e-4,1.11552 1.31979,-0.0442 c 0.72587,-0.0243 1.57177,-0.0543 1.87977,-0.0666 0.47955,-0.0192 0.56835,-0.008 0.618,0.0812 0.0412,0.0736 0.0302,0.13436 -0.0382,0.20989 -0.0885,0.0978 -0.0867,0.10628 0.0217,0.10628 0.10611,0 0.18336,0.183 0.10875,0.25761 z m -2.49966,-0.23084 c -0.38021,0.0444 -0.76911,0.15019 -0.72271,0.1966 0.0326,0.0326 1.07179,-0.17339 1.07179,-0.21247 0,-0.0137 -0.15708,-0.006 -0.34908,0.0159 z m -1.12508,-0.0267 c -0.10369,0 -0.14168,0.0379 -0.15101,0.15071 l -0.0125,0.1507 0.151,-0.1313 c 0.18509,-0.16092 0.18576,-0.17011 0.0125,-0.17011 z m -0.66209,-2.77345 c -0.0485,0.0194 -0.0341,0.0338 0.0367,0.0367 0.064,0.003 0.0999,-0.0117 0.0797,-0.0319 -0.0201,-0.0202 -0.0725,-0.0223 -0.11635,-0.005 z m -0.11061,4.44963 c -0.0315,0.0316 -0.0695,0.28882 -0.0845,0.57174 -0.0253,0.47932 -0.0223,0.49622 0.0441,0.24777 0.091,-0.34042 0.1184,-0.89758 0.0403,-0.81951 z m -0.0396,-3.20912 c -0.0169,0.0417 -0.0169,0.11004 0,0.15178 0.0169,0.0417 0.0306,0.008 0.0306,-0.0759 0,-0.0835 -0.0138,-0.11762 -0.0306,-0.0759 z m -0.50772,1.65436 c -0.0604,0 -0.15546,0.0175 -0.21108,0.0388 -0.13831,0.0531 10e-4,0.14114 0.22589,0.1424 0.12196,6.9e-4 0.15592,-0.0228 0.1301,-0.0901 -0.0192,-0.0501 -0.0844,-0.0911 -0.14491,-0.0911 z"
         style="display:inline;fill:#000000;stroke-width:0.717054"
         id="t-2" />
    </g>
  </g>
</svg>
