<?xml version="1.0" encoding="UTF-8" standalone="no"?>
<!-- Created with Inkscape (http://www.inkscape.org/) -->

<svg
   width="54.247105mm"
   height="29.99918mm"
   viewBox="0 0 54.247105 29.99918"
   version="1.1"
   id="svg1"
   xmlns="http://www.w3.org/2000/svg"
   xmlns:svg="http://www.w3.org/2000/svg">
  <defs
     id="defs1" />
  <g
     id="layer1"
     transform="translate(-80.047242,-97.421048)">
    <g
       id="g3"
       style="display:inline"
       transform="translate(-343.41835,140.94499)">
      <path
         d="m 450.13957,-21.737438 c -0.0793,0.049 -0.76545,0.0914 -1.52475,0.0944 -1.48614,0.004 -2.72697,0.26989 -3.11474,0.66322 -0.13283,0.1346 -0.57165,0.65602 -0.97533,1.1586 -0.40366,0.50257 -0.89579,1.11297 -1.09361,1.35646 -0.1978,0.24347 -0.35965,0.48769 -0.35965,0.54266 0,0.055 -0.11717,0.26852 -0.26052,0.47451 -0.14333,0.20601 -0.50053,0.81571 -0.79388,1.3549 -0.29333,0.53918 -0.62102,1.06802 -0.72818,1.17516 -0.10717,0.10719 -0.26312,0.32245 -0.3466,0.47844 -0.111,0.20744 -0.2411,0.26119 -0.48432,0.20014 -0.1829,-0.0458 -0.37428,-0.016 -0.42528,0.0666 -0.0588,0.0952 -0.16183,0.0566 -0.28138,-0.105389 -0.16083,-0.21771 -0.21603,-0.22629 -0.3745,-0.0582 -0.156,0.165589 -0.14433,0.182389 0.0728,0.1056 0.16584,-0.0586 0.23897,-0.0322 0.20372,0.0736 -0.12717,0.38165 -1.06956,0.50101 -4.04597,0.51237 -1.6605,0.006 -4.10524,0.0464 -5.43277,0.089 -3.16067,0.10139 -3.62752,-0.004 -4.49122,-1.01719 -1.27593,-1.49628 -2.26954,-5.48113 -2.21571,-8.88598 0.0382,-2.4163 0.49412,-4.35038 1.45567,-6.17537 0.43591,-0.82733 1.00691,-1.76862 1.26889,-2.09175 0.26198,-0.32315 0.60795,-0.84153 0.76882,-1.15198 0.31706,-0.61184 1.49106,-1.89234 2.28192,-2.48892 0.27142,-0.20476 0.67485,-0.53005 0.89648,-0.72288 0.22165,-0.19279 0.8249,-0.5884 1.34057,-0.87905 2.34122,-1.31962 2.69255,-1.46412 4.15275,-1.70795 1.02628,-0.17139 1.76986,-0.39739 2.58166,-0.78467 1.59181,-0.75942 1.74711,-0.95839 1.98209,-2.5392 0.10684,-0.71814 0.25752,-1.36912 0.33505,-1.44666 0.25765,-0.25765 0.46105,0.154 0.44427,0.89903 -0.0117,0.51529 0.0428,0.7432 0.19143,0.80018 0.1405,0.0538 0.20053,0.26161 0.18563,0.642 -0.0133,0.34121 0.053,0.6087 0.1689,0.68032 0.15383,0.0952 0.15667,0.15939 0.0133,0.33119 -0.0973,0.11739 -0.15667,0.42206 -0.132,0.67736 0.041,0.42386 0.0977,0.47452 0.65305,0.58364 0.46102,0.0904 0.5965,0.17679 0.56002,0.35645 -0.0375,0.18459 -0.17629,0.22745 -0.62709,0.19399 l -0.57893,-0.043 -0.11583,2.15963 c -0.0637,1.18778 -0.10584,2.30251 -0.0935,2.47712 0.0167,0.22682 -0.0552,0.31749 -0.24893,0.31749 -0.18974,0 -0.24534,0.0674 -0.18517,0.2241 0.0662,0.17259 0.008,0.21311 -0.24993,0.17639 -0.2017,-0.0286 -0.35712,-0.16059 -0.38897,-0.32991 -0.0827,-0.43942 -0.26011,-0.47952 -1.77688,-0.40143 -1.54332,0.0794 -2.49997,0.34491 -4.06433,1.12777 -0.52387,0.26213 -0.9525,0.44246 -0.9525,0.40069 0,-0.0418 -0.18245,0.018 -0.40543,0.13359 -0.223,0.1154 -0.4455,0.1696 -0.49445,0.1206 -0.049,-0.049 -0.2475,0.0598 -0.44122,0.24189 -0.19373,0.18199 -0.35415,0.27219 -0.35651,0.20045 -0.002,-0.0716 -0.069,-0.02 -0.14816,0.1166 -0.0792,0.1358 -0.2557,0.24693 -0.39243,0.24693 -0.13666,0 -0.3717,0.1134 -0.52215,0.25169 -0.15049,0.1386 -0.60625,0.39389 -1.01286,0.56771 -0.40662,0.17379 -0.9256,0.49814 -1.1533,0.72071 -0.22768,0.22258 -0.4665,0.42747 -0.53068,0.45535 -0.0642,0.0278 -0.41453,0.37725 -0.77855,0.77641 -0.364,0.39917 -0.69736,0.6902 -0.74083,0.64676 -0.0435,-0.0434 -0.079,0.02 -0.079,0.141 0,0.121 -0.0953,0.25663 -0.21166,0.30131 -0.1165,0.0446 -0.21167,0.17839 -0.21167,0.29733 0,0.1188 -0.0562,0.21607 -0.12466,0.21607 -0.0685,0 -0.16199,0.1112 -0.20756,0.24696 -0.0457,0.13579 -0.13918,0.34218 -0.20807,0.4586 -0.36533,0.6178 -0.54145,1.11595 -0.57378,1.62277 -0.0198,0.31045 -0.0932,0.81845 -0.16299,1.1289 -0.27634,1.22758 -0.13316,2.56988 0.50429,4.72719 0.19492,0.6597 0.44992,1.52682 0.56664,1.92696 0.23311,0.7991 1.04641,1.71389 1.87204,2.10568 0.70128,0.33277 5.97718,0.24531 7.85914,-0.1304 0.15516,-0.031 0.41563,-0.0646 0.57868,-0.0744 0.163,-0.01 0.71095,-0.33177 1.21755,-0.71529 0.99761,-0.75522 1.35888,-1.35738 2.24706,-3.74557 0.34161,-0.91857 0.40196,-1.25104 0.32658,-1.79916 -0.0508,-0.36983 -0.16183,-0.6724 -0.24653,-0.6724 -0.0847,0 -0.29502,-0.13239 -0.4673,-0.29429 l -0.31327,-0.29427 -0.0933,0.29427 c -0.119,0.37503 -0.58252,0.38095 -0.78105,0.01 -0.11484,-0.21457 -0.1075,-0.30127 0.0303,-0.35351 0.10034,-0.038 2.91211,-0.053 6.24832,-0.0332 5.51735,0.0328 6.06991,0.0572 6.11085,0.26981 0.0247,0.1286 -0.0198,0.2739 -0.0992,0.32289 z m -5.29692,0.2194 c -0.29645,0 -0.96706,0.6636 -0.85456,0.84563 0.0525,0.085 -0.005,0.30827 -0.12834,0.49617 -0.41138,0.62782 -0.23006,0.52586 0.33415,-0.188 0.3069,-0.38825 0.6244,-0.74694 0.70555,-0.79711 0.21575,-0.1334 0.18017,-0.35675 -0.0568,-0.35675 z m -2.62833,0.11799 c -0.32561,0.031 -0.6084,0.142 -0.6521,0.2559 -0.0425,0.11059 -0.26584,0.29865 -0.49649,0.41792 -0.23064,0.1194 -0.38714,0.24905 -0.34777,0.28843 0.0393,0.0394 0.2121,-0.004 0.38385,-0.0956 0.24552,-0.1314 0.33626,-0.1284 0.42461,0.014 0.0838,0.13559 0.25515,0.059 0.67567,-0.30295 0.30982,-0.2666 0.56867,-0.51817 0.57523,-0.55901 0.007,-0.0408 -0.24676,-0.0496 -0.563,-0.02 z m -1.47116,0.1644 c -0.2587,0 -0.35277,0.0754 -0.35277,0.28223 0,0.32995 0.0488,0.34225 0.42525,0.1072 0.3806,-0.2377 0.35237,-0.38939 -0.0725,-0.38939 z m -0.0857,4.4543 c 0.0858,-0.053 0.15617,-0.1656 0.15617,-0.24991 0,-0.22004 -0.66606,0.52888 -0.77466,0.87103 -0.1235,0.38925 0.12933,0.36495 0.32023,-0.0306 0.1435,-0.29763 0.15433,-0.29985 0.17258,-0.0354 l 0.0195,0.28223 0.112,-0.28223 c 0.0633,-0.1598 0.0525,-0.32045 -0.025,-0.37041 -0.0852,-0.0548 -0.078,-0.12459 0.0193,-0.18479 z m -0.70668,-2.03404 c -0.26246,0.41415 -0.12,0.56796 0.22264,0.24037 0.28378,-0.27135 0.3063,-0.34132 0.12266,-0.38146 -0.12366,-0.027 -0.27906,0.0364 -0.34538,0.14119 z m -0.10983,-19.63576 c -0.15283,0 -0.29733,0.34841 -0.29733,0.7171 0,0.1488 -0.0635,0.27067 -0.14117,0.27067 -0.0777,0 -0.14116,0.1226 -0.14116,0.27213 0,0.1496 -0.098,0.37021 -0.21788,0.49005 -0.11984,0.1198 -0.24187,0.39425 -0.27117,0.60978 -0.0293,0.21555 -0.0982,0.6618 -0.153,0.99163 -0.0548,0.32985 -0.0628,0.59974 -0.018,0.59974 0.23307,0 1.10188,-1.88776 1.21022,-2.62956 0.16903,-1.15752 0.17266,-1.32154 0.0293,-1.32154 z m -1.10861,23.99096 c -0.0582,0.001 -0.20109,0.0636 -0.3175,0.139 -0.17116,0.1106 -0.151,0.1372 0.10584,0.139 0.17463,10e-4 0.31749,-0.0614 0.31749,-0.139 0,-0.0776 -0.0477,-0.1402 -0.10583,-0.139 z m -0.48717,-23.69029 c -0.10067,0.1064 -0.18847,0.2567 -0.19507,0.33431 -0.0388,0.45717 -0.25206,1.04263 -0.35638,0.97815 -0.0673,-0.0416 -0.0893,0.01 -0.0488,0.1156 0.0403,0.1052 -0.09,0.5609 -0.28981,1.01265 -0.47649,1.0774 -0.3515,1.1867 0.14299,0.12499 0.45643,-0.98007 1.05656,-2.63277 0.98281,-2.70653 -0.0288,-0.0288 -0.13483,0.0344 -0.23559,0.14059 z m -1.60141,1.11043 c -0.0972,0 -0.48668,0.91873 -0.48668,1.14786 0,0.27153 0.15216,0.044 0.3596,-0.53766 0.23086,-0.64736 0.22313,-0.6102 0.12715,-0.6102 z m -1.25918,2.11665 c -0.074,0 -0.4975,0.78198 -0.4975,0.91855 0,0.1788 0.30715,-0.11359 0.42427,-0.40382 0.14349,-0.35553 0.16617,-0.51473 0.0732,-0.51473 z m -0.83638,-2.59636 c -0.19423,0.0746 -0.30588,0.31036 -0.5096,1.07635 -0.0608,0.22867 -0.049,0.35193 0.0293,0.30359 0.0783,-0.0484 0.0958,0.1388 0.0433,0.46171 l -0.0883,0.54304 0.28649,-0.60492 c 0.18203,-0.38439 0.25723,-0.75112 0.20626,-1.00593 -0.0453,-0.22631 -0.0116,-0.44287 0.0752,-0.49702 0.22553,-0.1394 0.19075,-0.36629 -0.0425,-0.27682 z m -1.76398,1.74969 c -0.07,0 -0.19371,0.19059 -0.27488,0.42335 -0.18445,0.52912 -0.0968,0.54628 0.18038,0.0354 0.25463,-0.46934 0.25241,-0.4586 0.0945,-0.4586 z m -1.10448,3.01918 c -0.14349,0.1436 0.0725,0.2618 0.26295,0.1442 0.14384,-0.0888 0.144,-0.1222 5.7e-4,-0.17 -0.098,-0.0326 -0.21662,-0.021 -0.26352,0.0258 z m -1.73068,-2.24385 c -0.18857,0.1706 -0.27976,0.42557 -0.27313,0.76348 l 0.01,0.5073 0.20537,-0.56102 c 0.113,-0.30859 0.26616,-0.62186 0.34048,-0.69616 0.25665,-0.25665 -4.2e-4,-0.26901 -0.28265,-0.014 z m -0.28308,3.74021 c -0.0777,0 -0.14117,0.0674 -0.14117,0.14959 0,0.0822 0.0635,0.1102 0.14117,0.0622 0.0777,-0.048 0.14116,-0.1152 0.14116,-0.1494 0,-0.0342 -0.0635,-0.0622 -0.14116,-0.0622 z m -0.97944,-1.69333 c -0.1795,0 -0.24132,0.125 -0.34882,0.70558 l -0.0915,0.49386 0.28062,-0.49386 c 0.31726,-0.5584 0.35056,-0.70558 0.15967,-0.70558 z m -2.03821,2.96333 c -0.0298,0 -0.16068,0.17459 -0.29059,0.38806 l -0.23628,0.38805 0.2906,-0.33313 c 0.28358,-0.32509 0.34647,-0.44298 0.23627,-0.44298 z m -0.58067,1.07786 c -0.1165,0.0446 -0.20965,0.1856 -0.20718,0.31307 0.003,0.1968 0.0358,0.1904 0.21166,-0.042 0.25895,-0.34237 0.25847,-0.3719 -0.005,-0.27101 z"
         style="display:inline;fill:#000000;stroke-width:1.66666"
         id="G-3" />
      <path
         d="m 471.77813,-21.833366 c -0.23013,0.0541 -1.19788,0.0789 -1.92005,0.0492 -0.39888,-0.0165 -0.55151,0.006 -0.5515,0.0793 0,0.0562 -0.0368,0.10213 -0.0817,0.10213 -0.045,0 -0.0817,-0.0368 -0.0817,-0.0817 0,-0.0454 -0.21924,-0.0817 -0.49429,-0.0817 -0.29255,0 -0.59709,-0.0532 -0.74618,-0.13026 -0.19593,-0.10132 -0.26581,-0.10775 -0.31451,-0.029 -0.0671,0.10849 -0.32423,0.0503 -0.32423,-0.0733 0,-0.0408 0.0552,-0.12003 0.12256,-0.17598 0.0675,-0.056 0.12256,-0.15351 0.12256,-0.21682 0,-0.17131 0.22352,-0.22496 0.36168,-0.0868 0.0664,0.0664 0.10254,0.13899 0.0803,0.16125 -0.0811,0.0811 0.17567,0.11911 0.35465,0.0526 0.24634,-0.0916 0.2338,-0.23702 -0.0205,-0.23702 -0.25307,0 -0.26196,-0.13134 -0.022,-0.32562 0.18174,-0.14717 0.18188,-0.14916 0.0486,-0.74843 -0.17412,-0.783 -0.62694,-2.51643 -0.67966,-2.60173 -0.0226,-0.0366 -0.0958,-0.35283 -0.16283,-0.70285 -0.0984,-0.51433 -0.17204,-0.68827 -0.38387,-0.90682 -0.31792,-0.32802 -0.52011,-0.34038 -1.24763,-0.0763 -0.29413,0.10677 -0.5348,0.1788 -0.5348,0.1601 0,-0.0187 -0.10072,0.0593 -0.22385,0.17355 -0.12311,0.11416 -0.25013,0.20756 -0.28224,0.20756 -0.0321,0 -0.14583,0.0827 -0.25268,0.18384 -0.10686,0.1011 -0.33085,0.30792 -0.49775,0.4596 -0.52476,0.47686 -0.68885,0.92145 -0.95363,2.58387 -0.0501,0.31457 -0.10375,0.70062 -0.11922,0.8579 -0.0435,0.44282 -0.1193,1.05511 -0.19709,1.59323 -0.039,0.26962 -0.0455,0.51758 -0.0146,0.55101 0.0812,0.0876 1.81958,-0.12048 1.84906,-0.22136 0.0136,-0.0465 0.0469,-0.18565 0.0739,-0.30922 0.0648,-0.29553 0.18311,-0.28588 0.25039,0.0205 0.0296,0.13482 0.10207,0.24512 0.16104,0.24512 0.059,0 0.13053,0.0929 0.15905,0.20655 0.0286,0.11361 0.1945,0.30663 0.36886,0.42894 0.17436,0.12232 0.37408,0.31738 0.44381,0.43347 0.11657,0.19402 0.11553,0.21127 -0.0127,0.21354 -0.0767,9.7e-4 -0.17756,-0.0272 -0.22402,-0.0634 -0.081,-0.0631 -0.32756,-0.0555 -1.22279,0.0379 -0.22469,0.0234 -0.7198,0.0655 -1.10024,0.0934 -0.38044,0.0279 -0.72522,0.0714 -0.76619,0.0968 -0.0699,0.0431 -0.005,2.0363 0.0793,2.42684 0.0202,0.0937 0.0565,0.33579 0.0807,0.53801 0.0242,0.20221 0.0938,0.58827 0.15462,0.85789 0.0608,0.26962 0.15312,0.69244 0.20512,0.93959 0.052,0.24716 0.11294,0.51614 0.13545,0.59773 0.071,0.25745 0.52473,0.70954 0.71207,0.70954 0.12275,0 0.18245,0.0536 0.19136,0.17183 0.0116,0.15424 -0.0179,0.16659 -0.289,0.1207 -0.16608,-0.0281 -0.37549,-0.0482 -0.46536,-0.0446 -0.33171,0.0133 -1.74869,0.0169 -2.86446,0.007 -0.87662,-0.008 -1.18623,-0.0387 -1.30727,-0.13101 -0.26511,-0.20228 -1.6e-4,-0.28489 0.91819,-0.28627 l 0.83166,-9.7e-4 0.13311,-0.45786 c 0.19121,-0.65775 0.42412,-2.1862 0.52783,-3.46394 0.0492,-0.60665 0.10527,-1.2509 0.1245,-1.43166 0.0527,-0.49488 -0.0106,-0.54471 -0.61757,-0.48658 -0.28816,0.0276 -0.56981,0.0649 -0.62589,0.0828 -0.0561,0.0179 -0.4605,0.0569 -0.89874,0.0866 -0.43824,0.0296 -0.85195,0.0629 -0.91935,0.0738 -0.0674,0.011 -0.16851,-0.0166 -0.22469,-0.0613 -0.0685,-0.0545 -0.10212,-0.0528 -0.10212,0.006 0,0.0524 -0.21589,0.0866 -0.546,0.0866 -0.76858,0 -1.07382,-0.18519 -0.63488,-0.38519 0.31105,-0.14172 0.53931,-0.11928 0.28212,0.0277 -0.20363,0.1164 -0.20326,0.11681 0.12256,0.13073 0.85566,0.0366 1.34812,-0.0735 1.34812,-0.30145 0,-0.0997 0.15152,-0.14752 0.73533,-0.23188 0.47332,-0.0684 1.15242,-0.20582 1.21834,-0.24657 0.034,-0.021 0.16904,-0.0578 0.30007,-0.0817 0.53658,-0.0981 0.63811,-0.12649 0.70997,-0.19834 0.087,-0.0871 0.13695,-1.05683 0.18114,-3.5236 0.0173,-0.96614 0.0338,-1.82098 0.0366,-1.89962 0.003,-0.0786 0.0528,-0.14298 0.11122,-0.14298 0.1537,0 0.35278,-0.59957 0.37845,-1.13978 0.005,-0.0944 0.0262,-0.0978 0.10707,-0.017 0.0808,0.0808 0.0766,0.11713 -0.0205,0.1785 -0.10457,0.0661 -0.10241,0.0772 0.0152,0.0783 0.0754,7e-4 0.20406,-0.0814 0.28597,-0.18258 0.12152,-0.15003 0.53017,-0.50042 1.29384,-1.10941 0.22041,-0.17577 1.14472,-0.75049 1.22031,-0.75877 0.0472,-0.005 0.14697,-0.004 0.22162,0.004 0.0747,0.008 0.15955,-0.0252 0.18866,-0.0723 0.0757,-0.12264 0.50363,-0.10558 0.76224,0.0304 0.65709,0.34549 1.90241,2.14765 2.10607,3.04779 0.0283,0.12481 0.11861,0.46591 0.20084,0.758 0.0822,0.29209 0.16942,0.6642 0.19377,0.82691 0.0243,0.1627 0.16958,0.56714 0.32274,0.89874 0.15316,0.33161 0.33608,0.74079 0.40648,0.90931 0.0703,0.16851 0.16927,0.30639 0.21971,0.30639 0.12769,0 0.28429,0.18002 0.28429,0.32682 0,0.0941 0.12343,0.12775 0.53108,0.14493 0.70295,0.0296 0.78711,0.061 0.64241,0.23939 -0.0766,0.0945 -0.0795,0.11815 -0.01,0.0759 0.0562,-0.0338 0.10213,-0.0408 0.10213,-0.0157 0,0.0251 -0.0276,0.0522 -0.0613,0.0601 z m -2.06559,-1.15829 -0.15913,-0.28596 0.0435,0.27909 c 0.0501,0.32104 0.0966,0.41539 0.20468,0.41539 0.10982,0 0.0915,-0.0839 -0.0891,-0.40852 z m -0.48447,-0.56956 c -0.13564,-0.21447 -0.18322,-0.0239 -0.0538,0.21509 0.10363,0.19123 0.12603,0.20325 0.1277,0.0685 9.7e-4,-0.0899 -0.0321,-0.2175 -0.074,-0.2836 z m -0.37728,-1.83256 c -0.0709,-0.36399 -0.18122,-0.77764 -0.24511,-0.91924 -0.0639,-0.14161 -0.11614,-0.29787 -0.11614,-0.34725 0,-0.0494 -0.0356,-0.0898 -0.0791,-0.0898 -0.0435,0 -0.062,0.0459 -0.0413,0.10213 0.0208,0.0562 0.16438,0.70878 0.31902,1.45024 0.23549,1.12913 0.28202,1.27645 0.2864,0.9069 0.003,-0.24267 -0.0528,-0.73902 -0.12375,-1.103 z m -0.65641,-1.97664 c -0.0271,-0.10817 -0.0802,-0.19667 -0.11797,-0.19667 -0.0817,0 0.073,0.49579 0.1912,0.61278 0.0555,0.0549 0.0651,0.0322 0.0293,-0.0689 -0.0292,-0.0828 -0.0755,-0.23907 -0.10259,-0.34724 z m -1.52469,-1.74905 c -0.26721,0 -0.27538,0.0619 -0.0135,0.10265 0.0871,0.0135 0.20398,0.0531 0.25965,0.0878 0.0693,0.0432 0.0859,0.0232 0.0525,-0.0636 -0.0293,-0.0763 -0.14809,-0.1268 -0.29865,-0.1268 z m -0.2206,0.49176 -0.24297,-0.17301 -0.23949,0.17706 c -0.13172,0.0974 -0.27346,0.15607 -0.31499,0.13041 -0.10047,-0.0622 -0.68992,0.428 -0.63046,0.52421 0.0256,0.0413 0.0832,0.0752 0.12814,0.0752 0.045,0 0.0555,-0.0425 0.0234,-0.0944 -0.034,-0.055 -0.0226,-0.0723 0.0272,-0.0415 0.0471,0.029 0.29277,-0.0388 0.54603,-0.15078 0.25327,-0.11201 0.56974,-0.20365 0.70327,-0.20365 0.30274,0 0.30273,-0.0279 -1.8e-4,-0.24358 z m -1.45218,7.84206 c -0.0646,0 -0.20524,0.0691 -0.31258,0.15351 l -0.19516,0.15351 0.25153,0.0503 c 0.13834,0.0277 0.34156,0.0277 0.45159,10e-5 0.19021,-0.0478 0.19322,-0.0578 0.0611,-0.20382 -0.0764,-0.0844 -0.19184,-0.1536 -0.25643,-0.1536 z m -0.69471,-6.77607 c -0.341,0.247 -0.52071,0.46117 -0.44796,0.53392 0.0415,0.0415 0.76649,-0.62776 0.78396,-0.72364 0.006,-0.034 -0.14501,0.0513 -0.336,0.18972 z m -0.67873,7.02118 c -0.2546,0 -0.85322,0.18491 -0.85322,0.26355 0,0.0444 0.0582,0.0585 0.12925,0.0312 0.0711,-0.0273 0.29168,-0.0496 0.49022,-0.0496 0.2664,0 0.36098,-0.0321 0.36098,-0.12255 0,-0.0675 -0.0572,-0.12256 -0.12723,-0.12256 z m -0.52156,-6.04955 c -0.2804,0.19966 -0.30352,0.26473 -0.36414,1.02475 l -0.0456,0.57193 0.15563,-0.51221 c 0.0856,-0.28172 0.22706,-0.64939 0.31436,-0.81704 0.22193,-0.4262 0.21374,-0.46251 -0.0602,-0.26743 z m -0.17044,11.56458 c -0.22556,-1.04959 -0.22802,-1.0556 -0.23404,-0.57192 -0.003,0.22468 -0.0152,0.66518 -0.0274,0.97888 l -0.0223,0.57038 0.29823,0.0486 c 0.25414,0.0415 0.28808,0.0296 0.22967,-0.0802 -0.0377,-0.0708 -0.14756,-0.49645 -0.24413,-0.94583 z m -1.23367,0.24216 c -0.0892,0.31294 -0.20134,0.61626 -0.24931,0.67406 -0.0673,0.081 -0.0392,0.10509 0.12235,0.10509 0.22289,0 0.25737,-0.12552 0.28059,-1.02131 0.008,-0.28945 -0.01,-0.26176 -0.15363,0.24216 z m -0.39229,-5.47222 c -0.34603,0.0585 -0.55318,0.20857 -0.23102,0.16742 0.30538,-0.039 0.64379,-0.14263 0.60207,-0.18435 -0.0215,-0.0215 -0.18851,-0.0139 -0.37105,0.0169 z m 4.22974,-0.9531 c -0.26157,-0.0385 -0.28959,-0.23037 -0.0337,-0.23037 0.1373,0 0.21106,0.0448 0.21106,0.12824 0,0.0852 -0.0596,0.11947 -0.17743,0.10213 z"
         style="display:inline;fill:#000000;stroke-width:0.965009"
         id="f-1" />
      <path
         d="m 477.60713,-25.729492 c -0.0846,0.0268 -0.21441,-8.3e-4 -0.31605,-0.0675 -0.12324,-0.0807 -0.16729,-0.0874 -0.15427,-0.0233 0.0142,0.0701 -0.19823,0.086 -0.97333,0.0728 -0.8426,-0.0144 -0.99782,-5.4e-4 -1.03336,0.0921 -0.023,0.0599 -0.0657,0.0944 -0.0949,0.0765 -0.0292,-0.0179 -0.0554,0.22458 -0.0582,0.53877 -0.006,0.66815 -0.0894,1.60184 -0.21056,2.35857 -0.0154,0.0964 -0.0484,0.33294 -0.0733,0.52569 -0.0248,0.19275 -0.0709,0.40071 -0.10249,0.46214 -0.13741,0.26787 -0.20192,2.24555 -0.10839,3.3228 0.0334,0.38551 0.07,1.15827 0.0814,1.71725 0.0225,1.11803 0.0556,1.40619 0.22122,1.92752 0.23961,0.75419 0.19392,0.73306 1.59916,0.73989 0.50116,0.002 0.98216,0.0218 1.0689,0.0429 0.20389,0.0498 0.20349,0.21938 -6.4e-4,0.27061 -0.0871,0.0219 -1.50704,0.0297 -3.15545,0.0174 -2.01851,-0.0151 -2.98818,8.2e-4 -2.96975,0.0492 0.0152,0.0396 -0.0858,0.0753 -0.22648,0.0801 -0.1396,0.005 -0.18285,-0.005 -0.0961,-0.0224 0.32266,-0.0635 0.14281,-0.12562 -0.29774,-0.1029 -0.28016,0.0144 -0.45574,-0.004 -0.45574,-0.0484 0,-0.11532 0.0806,-0.13939 0.75758,-0.2262 0.62222,-0.0798 0.64513,-0.0892 0.78285,-0.32267 0.0781,-0.13225 0.17078,-0.2226 0.2061,-0.20077 0.0681,0.0421 0.25443,-0.46234 0.32227,-0.87259 0.0223,-0.13492 0.084,-0.39291 0.13714,-0.57329 0.0531,-0.18039 0.11752,-0.59043 0.14313,-0.9112 0.0256,-0.32077 0.0609,-0.66206 0.0785,-0.75844 0.0175,-0.0964 0.048,-0.3487 0.0676,-0.56072 0.0196,-0.21203 0.0654,-0.49591 0.10164,-0.63083 0.0363,-0.13493 0.0663,-0.59228 0.0668,-1.01633 4.8e-4,-0.42405 0.0212,-0.98634 0.0461,-1.24952 0.0396,-0.42013 0.061,-0.47438 0.17482,-0.44461 0.0713,0.0186 0.11197,0.005 0.0904,-0.0296 -0.0216,-0.0349 -0.0847,-0.0636 -0.14028,-0.0636 -0.0555,0 -0.10099,-0.0492 -0.10099,-0.10928 0,-0.0601 0.0237,-0.0947 0.0526,-0.0768 0.0289,0.0179 0.0516,-0.0828 0.0504,-0.22367 -8.3e-4,-0.14086 0.0214,-0.30726 0.0503,-0.36976 0.0288,-0.0625 0.0577,-0.48831 0.0642,-0.94624 l 0.0118,-0.83259 0.11159,0.31541 0.11159,0.31542 0.0561,-0.76711 c 0.0555,-0.75879 0.0802,-0.87547 0.16691,-0.7888 0.0245,0.0245 0.0482,0.97589 0.0526,2.11423 0.004,1.13835 0.0317,2.06981 0.0606,2.06992 0.0872,3.1e-4 0.11281,-2.59495 0.037,-3.74971 -0.0643,-0.98021 -0.0553,-0.93705 -0.20576,-0.98479 -0.15049,-0.0478 -0.28894,0.0202 -0.23127,0.11349 0.0222,0.0359 -8.3e-4,0.0657 -0.0514,0.0663 -0.0733,8.3e-4 -0.0726,0.0132 0.003,0.0612 0.068,0.043 0.0756,0.0974 0.027,0.19168 -0.0373,0.0724 -0.0547,0.1681 -0.0386,0.21276 0.0161,0.0446 0.003,0.0975 -0.0293,0.11737 -0.0322,0.0199 -0.0652,-0.14003 -0.0735,-0.35541 -0.008,-0.21538 -0.0233,-0.39995 -0.0335,-0.41016 -0.0102,-0.0102 -0.34095,-0.0265 -0.73498,-0.0363 -0.77672,-0.0192 -0.953,-0.0669 -0.80268,-0.21721 0.082,-0.082 0.46764,-0.1094 1.77672,-0.12659 0.15826,-0.002 0.27126,-0.0427 0.29569,-0.1064 0.0535,-0.13929 0.18412,-0.13101 0.18412,0.0117 0,0.10213 0.0815,0.10926 0.74222,0.065 0.40822,-0.0273 1.12578,-0.0426 1.59458,-0.0339 0.46881,0.009 0.96996,0.0118 1.11366,0.007 0.19138,-0.007 0.28046,0.0268 0.33289,0.12483 0.058,0.10842 0.0444,0.14238 -0.072,0.17932 z m -3.16081,0.0796 c -0.0248,0.013 -0.0137,0.1477 0.0248,0.29938 0.0834,0.32873 0.24667,0.31815 0.27928,-0.0181 0.0167,-0.17199 -0.01,-0.23116 -0.11866,-0.26336 -0.0771,-0.0229 -0.16053,-0.0309 -0.1854,-0.0179 z m 0.14077,11.0548 c -0.0425,-0.16851 -0.10681,-0.30639 -0.14306,-0.30639 -0.0363,0 -0.049,0.0273 -0.0283,0.0608 0.0207,0.0334 0.0433,0.22268 0.0503,0.42055 0.0109,0.30551 0.0334,0.35977 0.14931,0.35977 0.0974,0 0.12399,-0.0327 0.0927,-0.11416 -0.0241,-0.0628 -0.0786,-0.25204 -0.12096,-0.42055 z m -0.044,-9.03279 c -0.0283,-0.0386 -0.0963,-0.0797 -0.15097,-0.0916 -0.0819,-0.0177 -0.0836,-0.002 -0.01,0.0867 0.0525,0.0632 0.0714,0.1813 0.0456,0.28432 -0.0243,0.0969 -0.0142,0.17614 0.0223,0.17614 0.0366,0 0.0802,-0.0709 0.0969,-0.1577 0.0167,-0.0867 0.0342,-0.17348 0.0388,-0.19276 0.005,-0.0193 -0.0147,-0.0666 -0.043,-0.10514 z m -0.12976,8.30585 c -0.0147,0 -0.0269,0.0807 -0.0269,0.17938 0,0.0986 0.0286,0.16169 0.0635,0.1401 0.0581,-0.0359 0.0256,-0.31948 -0.0367,-0.31948 z m -0.14166,-2.79782 c -0.014,-0.0161 -0.0254,0.10036 -0.0254,0.25871 0,0.15835 0.0286,0.30555 0.0634,0.32711 0.058,0.0358 0.0222,-0.51659 -0.038,-0.58582 z m -0.0691,3.86849 -0.0418,-0.15595 -0.12726,0.15595 c -0.14382,0.17624 -0.16828,0.1419 -0.23436,-0.32903 -0.0212,-0.15109 -0.0791,-0.30009 -0.12863,-0.33114 -0.13439,-0.0842 -0.15058,0.15528 -0.0266,0.39416 0.0575,0.11089 0.0894,0.22616 0.0709,0.25616 -0.0603,0.0975 -0.21251,-0.0103 -0.28953,-0.20486 -0.0722,-0.18244 -0.0755,-0.1781 -0.0827,0.10781 -0.007,0.29308 -0.003,0.29788 0.2291,0.29788 0.13012,0 0.33514,0.0197 0.45561,0.0438 0.22806,0.0456 0.24456,0.0235 0.17531,-0.2348 z m -0.002,-1.71901 c -0.0195,0.0482 -0.0195,0.12704 0,0.17523 0.0195,0.0482 0.0353,0.009 0.0353,-0.0876 0,-0.0964 -0.0159,-0.1358 -0.0353,-0.0876 z m -0.0938,-9.48562 c 0,-0.0932 -0.0276,-0.1695 -0.0615,-0.1695 -0.0549,0 -0.0566,0.32773 -0.005,0.94624 0.0145,0.17358 0.026,0.15523 0.0662,-0.10514 0.0267,-0.17347 0.0378,-0.35741 0.0245,-0.40876 -0.0133,-0.0513 -0.0242,-0.16962 -0.0242,-0.26284 z m -0.46652,5.83953 c -0.0192,0.0474 -0.0204,0.14207 -0.002,0.21027 0.0178,0.0682 0.0334,0.0294 0.0349,-0.0863 0.002,-0.11565 -0.0131,-0.17145 -0.0323,-0.12399 z m -0.16372,3.42955 c -0.0304,-0.0324 -0.0507,0.14891 -0.0454,0.40282 0.009,0.43303 0.0758,0.6116 0.12773,0.34211 0.035,-0.18179 -0.0199,-0.6783 -0.0824,-0.74493 z m 0.0936,-3.009 c -0.0192,0.0474 -0.0204,0.14207 -0.002,0.21027 0.0178,0.0682 0.0335,0.0294 0.0349,-0.0863 0.002,-0.11565 -0.0131,-0.17145 -0.0323,-0.12399 z m -0.13656,-2.06491 c -0.0233,0.0233 -0.0258,0.0837 -0.006,0.13433 0.0224,0.056 0.039,0.0393 0.0423,-0.0423 0.003,-0.0739 -0.0135,-0.11529 -0.0368,-0.092 z m -0.0269,-0.57374 c -0.0383,0.0655 -0.0399,0.19495 -0.004,0.31542 0.0564,0.1886 0.0614,0.18006 0.065,-0.11113 0.002,-0.2256 -0.0146,-0.28377 -0.0611,-0.20429 z m 0.0293,-1.25103 c -0.051,0.051 -0.0496,1.03872 0.002,1.08987 0.0211,0.0211 0.0383,-0.22448 0.0383,-0.54573 0,-0.32126 -0.018,-0.56612 -0.04,-0.54414 z m -0.0766,5.29284 c -0.0195,0.0482 -0.0195,0.12704 0,0.17523 0.0195,0.0482 0.0353,0.009 0.0353,-0.0876 0,-0.0964 -0.0159,-0.13581 -0.0353,-0.0876 z m -0.26104,1.13899 c -0.0149,0 -0.0407,0.0929 -0.0575,0.20657 -0.0166,0.11361 -0.004,0.19061 0.0271,0.17109 0.0562,-0.0347 0.0837,-0.37766 0.0303,-0.37766 z m -0.33846,1.38463 c -0.037,0.24112 -0.0961,0.42062 -0.13125,0.39889 -0.0352,-0.0217 -0.0639,0.007 -0.0639,0.0647 0,0.0574 -0.0463,0.15055 -0.10285,0.20712 -0.0566,0.0565 -0.11872,0.19287 -0.13811,0.30289 -0.0305,0.17365 -0.0133,0.20004 0.13091,0.20004 0.14249,0 0.17701,-0.0499 0.2424,-0.35045 0.12661,-0.58194 0.13178,-0.61933 0.13095,-0.94624 -7.4e-4,-0.29006 -0.007,-0.28018 -0.0681,0.12299 z m -0.31315,0.94153 c -0.0203,-0.0506 -0.0177,-0.11105 0.006,-0.13434 0.0233,-0.0233 0.0398,0.0181 0.0368,0.092 -0.003,0.0816 -0.0199,0.0983 -0.0424,0.0424 z m 3.12602,-13.89127 c -0.23995,0.52928 -0.42837,0.67561 -1.22072,0.94812 -0.39572,0.1361 -0.83908,0.19785 -1.04665,0.14575 -0.0974,-0.0244 -0.27239,-0.13758 -0.38881,-0.2514 -0.48326,-0.4724 -0.12867,-1.32927 0.73455,-1.77502 0.2313,-0.11944 0.44535,-0.21869 0.47568,-0.22057 0.0303,-0.002 0.0819,-0.0466 0.11446,-0.0994 0.0481,-0.0779 0.0724,-0.0726 0.12877,0.028 0.0461,0.0824 0.11947,0.11095 0.21846,0.0851 0.082,-0.0214 0.14905,-0.0104 0.14905,0.0246 0,0.0349 -0.0552,0.0645 -0.12267,0.0657 -0.12931,0.002 -0.44742,0.20805 -0.32174,0.20805 0.16063,0 0.50539,-0.15554 0.53902,-0.24318 0.0589,-0.15369 0.54655,-0.0558 0.72896,0.14631 0.19708,0.2184 0.20083,0.52066 0.0116,0.93797 z m -1.81649,-0.49064 c -0.0386,0 -0.0701,0.0334 -0.0701,0.0743 0,0.0408 0.0315,0.0547 0.0701,0.0309 0.0386,-0.0238 0.0701,-0.0572 0.0701,-0.0743 0,-0.017 -0.0316,-0.0309 -0.0701,-0.0309 z m -0.57388,1.07358 c -0.0559,0.0224 -0.0393,0.039 0.0424,0.0424 0.0738,0.003 0.11528,-0.0135 0.092,-0.0368 -0.0233,-0.0233 -0.0837,-0.0257 -0.13434,-0.006 z m 0.0824,3.34217 c -0.0504,0.0772 -0.0642,0.0371 -0.0515,-0.15088 0.009,-0.14081 0.0409,-0.24145 0.0698,-0.22366 0.0736,0.0453 0.0637,0.2492 -0.0183,0.37454 z"
         style="display:inline;fill:#000000;stroke-width:0.827853"
         id="i1-2" />
      <path
         d="m 458.36141,-22.407329 c -0.20072,0.20651 -0.38381,0.43495 -0.4069,0.50767 -0.0231,0.0727 -0.16692,0.1918 -0.31967,0.26465 -0.32176,0.15343 -1.29174,0.85168 -1.33073,0.95793 -0.0529,0.14441 0.77128,-0.26373 1.2387,-0.61333 0.48688,-0.36418 0.68595,-0.40714 0.52917,-0.11421 -0.18891,0.35299 -1.15483,0.94334 -1.91163,1.16835 -0.0489,0.0146 -0.11627,0.313 -0.14961,0.66322 -0.0334,0.35022 -0.075,0.72813 -0.0927,0.8398 -0.0687,0.43567 -0.1026,0.60911 -0.11904,0.60911 -0.01,0 -0.0271,0.0731 -0.0391,0.16242 -0.0688,0.50836 -0.86222,2.85109 -1.0862,3.20688 -0.24369,0.38713 -0.77927,1.03603 -0.94205,1.14138 -0.20038,0.1297 -1.07683,0.11421 -1.54306,-0.0272 -0.0893,-0.0272 -0.43414,-0.0688 -0.76623,-0.0927 -0.3321,-0.0239 -0.63773,-0.0773 -0.67918,-0.11875 -0.14324,-0.14324 0.0366,-0.27118 0.31726,-0.22565 0.31735,0.0515 0.42319,-0.0499 0.21254,-0.20347 -0.28608,-0.20865 -0.48421,-0.60149 -0.58651,-1.16285 -0.057,-0.31267 -0.17733,-0.80605 -0.26745,-1.09638 -0.19164,-0.61742 -0.23747,-2.36043 -0.0747,-2.84248 0.0528,-0.15633 0.11604,-0.44653 0.14059,-0.64488 0.0246,-0.19835 0.0767,-0.39935 0.11605,-0.44667 0.0776,-0.0935 0.0852,-0.12652 0.0852,-0.37029 0,-0.0954 0.0541,-0.16243 0.13129,-0.16243 0.0958,0 0.12093,-0.0542 0.093,-0.20057 -0.0235,-0.12292 -0.007,-0.1809 0.0439,-0.14973 0.0514,0.0318 0.0635,-0.0209 0.0322,-0.14035 -0.0275,-0.10517 -0.008,-0.24236 0.0443,-0.30487 0.0519,-0.0625 0.10482,-0.18234 0.11762,-0.26626 0.0129,-0.0839 0.14139,-0.40014 0.28573,-0.7027 0.14436,-0.30256 0.25164,-0.585621 0.23845,-0.629031 -0.0132,-0.0435 0.0484,-0.0133 0.13706,0.0669 0.15554,0.140771 0.16292,0.139991 0.21452,-0.0225 0.0293,-0.0926 0.0875,-0.16836 0.12917,-0.16836 0.0838,0 0.10813,0.20653 0.0795,0.675841 -0.0135,0.22131 0.0233,0.34121 0.12808,0.41786 0.15128,0.11062 0.12431,0.26831 -0.27835,1.62696 -0.0265,0.0893 -0.0404,0.19131 -0.031,0.22662 0.01,0.0353 -0.0154,0.12668 -0.0554,0.20304 -0.0399,0.0764 -0.0969,0.37351 -0.12673,0.66034 -0.0298,0.28683 -0.0688,0.545 -0.0865,0.5737 -0.10159,0.16438 -0.16988,2.28293 -0.0916,2.84365 0.028,0.201 0.0634,0.45682 0.0786,0.56848 0.0634,0.46718 0.24278,0.97413 0.39275,1.10984 0.0987,0.0893 0.28746,0.14529 0.48998,0.14529 0.28856,0 0.36905,-0.0452 0.64851,-0.36362 0.64794,-0.73843 1.02351,-1.33866 1.19794,-1.91456 0.096,-0.31701 0.16674,-0.60938 0.15713,-0.64971 -0.0193,-0.081 0.0168,-0.23589 0.29079,-1.25092 0.28184,-1.04399 0.36672,-1.66456 0.34989,-2.55823 -0.0188,-0.99777 0.0649,-1.58366 0.22623,-1.58366 0.0643,0 0.11684,0.0341 0.11684,0.0756 0,0.0415 0.0822,0.0873 0.18273,0.10151 0.12912,0.0183 0.19007,0.0894 0.20775,0.24228 0.0177,0.15303 0.10445,0.25401 0.29652,0.34515 0.55121,0.26157 1.03558,0.0933 1.70879,-0.59359 0.40348,-0.41167 0.69032,-0.531 0.69032,-0.28717 0,0.07 -0.16422,0.29634 -0.36492,0.50284 z m -2.29569,0.70389 c -0.0197,0.0197 -0.006,0.0838 0.0313,0.14262 0.0368,0.0588 0.0558,0.17487 0.0421,0.25792 -0.0154,0.093 0.01,0.12984 0.0643,0.0959 0.049,-0.0303 0.0681,-0.0891 0.0424,-0.1307 -0.0257,-0.0415 -0.002,-0.0756 0.0519,-0.0756 0.0611,0 0.0425,-0.062 -0.0488,-0.16293 -0.0811,-0.0896 -0.16352,-0.14686 -0.18316,-0.12722 z m -4.26608,-0.92805 c -0.0516,0.11166 -0.13133,0.22987 -0.17724,0.2627 -0.053,0.0378 -0.0454,0.0601 0.0206,0.0609 0.0573,6.8e-4 0.13719,-0.081 0.17759,-0.1815 0.10667,-0.26537 0.0895,-0.38142 -0.021,-0.14211 z m -0.2201,1.09638 c -0.0447,0.0276 -0.0787,0.18508 -0.0755,0.34995 0.005,0.24158 0.0193,0.26823 0.0755,0.13733 0.098,-0.22805 0.098,-0.54785 0,-0.48728 z m -0.44188,6.13161 c -0.0858,0 -0.12172,0.15586 -0.0467,0.20222 0.0454,0.028 0.0825,-0.006 0.0825,-0.0756 0,-0.0696 -0.0161,-0.12662 -0.0358,-0.12662 z m -0.13176,-1.69651 c -0.005,-0.27929 -0.009,-0.28357 -0.088,-0.0902 -0.10423,0.25559 -0.0448,0.95246 0.0922,1.08086 0.083,0.0778 0.0931,0.0188 0.0521,-0.30035 -0.0281,-0.21841 -0.0534,-0.52905 -0.0563,-0.69032 z m 0.0326,-2.14082 c -0.0225,0.0558 -0.0225,0.1472 0,0.20303 0.0225,0.0558 0.041,0.0102 0.041,-0.10152 0,-0.11166 -0.0184,-0.15735 -0.041,-0.10151 z m -0.29427,-0.14213 c -0.12021,0 -0.12243,0.0134 -0.18247,1.09638 -0.0285,0.51354 -0.0174,0.76734 0.0303,0.69032 0.0414,-0.0671 0.097,-0.46517 0.12359,-0.88483 0.0266,-0.41965 0.0673,-0.78207 0.0907,-0.80536 0.068,-0.068 0.0497,-0.0965 -0.0621,-0.0965 z"
         style="display:inline;fill:#000000;stroke-width:0.959214"
         id="u-7" />
    </g>
  </g>
</svg>
