<?xml version="1.0" encoding="UTF-8" standalone="no"?>
<!-- Created with Inkscape (http://www.inkscape.org/) -->

<svg
   width="39.999901mm"
   height="53.292168mm"
   viewBox="0 0 39.999901 53.292168"
   version="1.1"
   id="svg1"
   xmlns="http://www.w3.org/2000/svg"
   xmlns:svg="http://www.w3.org/2000/svg">
  <defs
     id="defs1" />
  <g
     id="layer1"
     transform="translate(-192.35208,-152.92917)">
    <path
       d="m 192.35215,184.32487 c 0.84893,0.20847 1.43686,-0.0764 2.26817,-0.15959 1.00884,-0.10097 2.32875,0.0673 3.22777,-0.45107 l 0.61935,3.90076 0.0785,3.86334 c -0.43314,0.28868 -0.0661,1.15204 -0.0947,1.65749 -0.0828,1.46476 -0.29953,2.90385 -0.41033,4.36185 -0.0451,0.59327 0.0619,1.35551 -0.5418,1.6575 l 0.34894,0.34895 -1.02812,4.27805 -0.4302,1.25248 -1.24602,0.22711 c 0.25832,0.3975 0.62043,0.36295 1.04684,0.26171 l 0.17447,0.69789 h 0.17447 l 0.17448,-0.43618 c 0.32916,0.11061 0.57648,0.12856 0.78514,-0.17447 3.01874,0.33186 6.21707,-0.025 9.24711,-0.0859 2.30178,-0.0462 4.68147,0.3196 6.97896,0.0708 2.77687,-0.3008 6.20991,-1.85751 8.98541,-1.03169 0.27673,-0.58468 -0.35883,-1.32961 -0.58287,-1.91928 -0.45479,-1.19706 -0.477,-2.49572 -0.54872,-3.75079 -0.16647,-2.91315 -0.0566,-5.72288 0.0544,-8.6368 0.10025,-2.63392 -0.0275,-5.31814 0.8155,-7.85132 l -0.6979,0.0873 c 0.0848,-1.12204 2.63694,-1.558 3.58014,-1.64452 0.29065,-0.0267 1.33477,0.21295 1.39923,-0.19129 0.0723,-0.45326 -1.46549,-1.14006 -1.80181,-1.30135 -1.35979,-0.65212 -2.4634,-1.46269 -3.70099,-2.31447 -0.52267,-0.35974 -1.33483,-0.79723 -1.65723,-1.35938 -0.27464,-0.47886 -0.0319,-1.23574 0.0487,-1.73821 0.18242,-1.13579 0.71701,-2.80605 0.47441,-3.92566 0.24621,-0.21515 0.16154,-0.56399 0.19944,-0.87237 0.0884,-0.71948 0.46095,-1.52707 0.0622,-2.18092 -1.24507,0.56347 -2.94778,-0.36095 -4.17439,0.17729 -0.3177,0.13942 -0.29642,0.66566 -0.3962,0.96459 -0.35227,1.05525 -0.64956,2.19277 -0.66363,3.3072 -0.89324,-0.43654 -1.47055,-2.18125 -1.88414,-3.0533 -0.20329,-0.42863 -0.13703,-1.04695 -0.64573,-1.22131 l 0.0873,0.69789 c -0.7066,-0.65468 -0.6909,-1.69529 -1.04685,-2.52987 l -0.34895,0.0873 c 0.1256,0.60073 -0.24733,1.04759 -0.49744,1.57027 -0.65961,1.37842 -1.94017,2.41041 -2.55585,3.75119 l -0.17448,-0.0873 c -1.79806,2.56259 -3.90778,5.09425 -6.47034,6.93115 -1.2182,0.87324 -2.62408,1.50583 -3.82361,2.4032 l 0.17447,-0.61066 c -0.74658,0.21189 -1.43291,1.13657 -2.00645,1.64141 -1.31874,1.16076 -2.98339,1.66918 -3.57672,3.33109 m 0.78513,-0.52342 c 2.18336,-1.6393 4.72708,-2.64333 6.97897,-4.17297 3.40796,-2.31492 6.5505,-5.18269 9.11182,-8.38915 0.79143,-0.99078 1.69545,-1.93965 2.31621,-3.05329 0.65783,0.33397 1.12716,1.30741 1.5008,1.91922 0.56235,0.92075 1.37098,1.97117 2.12216,2.74398 1.89685,1.95154 4.3873,3.66176 6.58376,5.26861 0.51757,0.37864 1.01897,0.89242 1.57155,1.20584 0.40708,0.23091 0.95474,0.32187 1.22004,0.72658 -1.40694,0 -2.5507,0.45929 -3.83843,0.9596 v 0.43618 h 0.52342 l -0.002,2.79502 -0.085,4.18395 -0.30627,10.19891 0.82969,4.98031 -3.92566,0.77026 -4.44909,0.10211 c -0.99616,-3.54361 -1.08251,-7.32848 -0.92682,-10.99186 0.0473,-1.1116 -0.2288,-2.22738 -0.0328,-3.31501 l -6.01935,-0.52342 -0.26171,-0.9596 -0.0873,0.34895 -0.43618,-0.17448 -0.0873,0.0873 0.0873,0.6979 c -0.45339,0.25807 0.1017,0.82488 0.0839,1.30856 -0.0504,1.36398 0.003,2.73797 -0.10087,4.10013 -0.0849,1.11833 -8.2e-4,2.23569 -0.19789,3.35203 -0.22805,1.29177 -0.67589,2.45973 -1.01974,3.71416 -0.18204,0.66414 -0.54264,2.26379 -1.16941,2.6326 -0.45193,0.26591 -1.19354,0.10367 -1.69648,0.1291 -1.35251,0.0684 -2.6439,0.20436 -4.01256,0.20436 l 0.26171,-1.57027 3.66395,-0.34895 c -0.41007,-0.35924 -1.8693,-0.19123 -2.26815,0.17447 h -1.30856 c 0.0576,-0.44607 0.10651,-1.1021 0.41027,-1.45657 0.43838,-0.51156 2.28217,-0.65522 2.90473,-0.54987 l -0.17447,0.26171 0.61065,-0.26171 c -0.69398,-0.83386 -2.34127,-0.0752 -3.22776,0.0873 l 0.43619,-2.18092 c 0.45991,-0.004 1.42464,-0.36442 1.74473,0 h 0.0873 l 0.17447,-0.17448 v -0.26171 l -1.83197,0.0873 0.43619,-2.3554 3.92566,-0.34895 c -0.38489,-0.36062 -0.82552,-0.23528 -1.30855,-0.18927 -0.84176,0.0802 -1.6838,0.102 -2.52988,0.102 l 0.25726,-1.26063 0.82661,-0.22132 2.66732,-0.001 0.0873,-0.0873 v -0.17447 h -3.66395 c 0.02,-0.33685 -0.10886,-0.88924 0.10283,-1.17522 0.30256,-0.4087 2.1359,-0.26793 2.60149,-0.13334 l 0.0873,-0.34895 -2.79158,0.0873 v -1.13408 c 0.54662,-0.10149 1.72365,0.0727 2.00644,-0.43618 -0.43593,-0.0551 -1.63913,0.13431 -1.95379,-0.0931 -0.30508,-0.22045 -0.2958,-1.69021 0.0554,-1.86199 1.40487,-0.68706 3.38462,-0.23566 4.8644,-0.31307 -1.01087,-1.05993 -3.71141,-0.2276 -4.97251,0 l 0.0873,-1.74474 c 1.45632,-0.28243 3.0524,-0.45508 4.53633,-0.34895 -0.36113,-0.46169 -0.86811,-0.33852 -1.3958,-0.31321 -1.06032,0.0509 -2.08938,0.17746 -3.14053,0.31321 l -0.17447,-1.6575 3.22777,-0.17447 v -0.43618 l -3.31501,0.34894 -0.26171,-1.57027 2.18093,-0.0873 0.0873,-0.34894 -2.26817,0.0873 -0.0873,-0.95961 0.43618,-0.17447 0.17447,0.0873 -1.04684,-1.30856 v 1.04685 l -1.48321,0.34889 c -0.0961,0.44197 -0.38808,0.4676 -0.78514,0.58629 -0.85375,0.2552 -2.39152,1.35524 -3.22777,1.15844 m 1.91919,-0.26168 c 0.485,-0.30745 2.53022,-1.22341 2.52987,-0.17448 l -0.34894,-0.0873 v 0.26171 c -0.60755,0.0768 -1.63542,0.31078 -2.18093,0 m 3.05319,-1.22144 0.61066,-0.17447 c -0.152,0.23406 -0.34903,0.29206 -0.61066,0.17447 m 0.0873,0.43619 0.52342,0.17448 v 0.17447 l -0.43618,0.0873 -0.0873,-0.43618 m 0.52342,13.78343 h 0.0873 v 1.48302 l -0.26171,0.78514 0.17447,-2.26816 m 0,-13.08554 0.0873,0.87237 c -0.21123,-0.28392 -0.30432,-0.57391 -0.0873,-0.87237 m 0.17447,11.42803 h 0.26171 l -0.26171,1.30856 v -1.30856 m 0.17448,-9.50882 0.26171,1.57027 h -0.34887 c -0.0426,-0.40013 -0.26193,-1.32246 0.0873,-1.57027 m -0.23265,-0.52342 0.0291,-0.0291 c 0.0143,0.0431 -0.0291,0.0965 -0.0291,0.0291 m 0.14541,8.37475 c 0.40557,0.28655 0.39166,1.20352 -0.0873,1.39578 l 0.0873,-1.39578 m 0,-0.43598 0.0873,-1.04684 h 0.0873 c 0.0573,0.24308 0.22516,1.11329 -0.17447,1.04684 m 0,-5.40869 h 0.26171 l -0.0873,1.48303 -0.17447,-1.48303 m 0.0873,3.22777 h 0.0873 v 0.61066 l -0.0873,-0.61066 m 0,-0.26171 0.0873,0.0873 -0.0873,-0.0873 m 0.0291,-0.26171 c 0,-0.0675 0.0435,-0.014 0.0291,0.0291 l -0.0291,-0.0291 m -0.0291,-0.43619 h 0.0873 v 0.26172 l -0.0873,-0.26172 m 0,-0.34895 h 0.0873 v 0.26171 l -0.0873,-0.26171 m 1.65749,9.6833 0.0873,-0.0873 -0.0873,0.0873 m 0.0873,2.70435 0.0873,-0.0873 -0.0873,0.0873 m 0.61067,-18.49417 0.0873,-0.0873 -0.0873,0.0873 m 2.18091,21.63473 v -0.0873 c 0.57998,-0.53918 0.82953,-1.6059 1.04684,-2.3554 h 0.0873 l -0.52342,2.52987 -0.61066,-0.0873 m 2.44247,-11.16641 h 0.17447 l 0.17448,-3.48948 c 1.76002,0.70479 3.75941,0.34895 5.58316,0.34895 l 0.008,10.29396 0.51561,3.75119 -8.11303,0.26171 c 0.67379,-1.89428 0.92667,-3.75554 1.21869,-5.73274 0.25786,-1.74593 0.63572,-3.66471 0.43881,-5.43359 m -1.3958,-13.26005 0.61066,-0.0873 c -0.10884,0.46717 0.24987,0.47544 0.50343,0.79772 0.68822,0.87476 1.36527,1.65279 2.52495,1.86584 2.92931,0.53816 6.76997,-1.19456 6.60275,-4.67001 -0.11254,-2.33921 -3.10473,-3.97821 -5.26929,-3.53491 -0.84565,0.1732 -1.77145,0.84403 -2.45044,1.35776 -0.95631,0.72356 -2.19131,2.29473 -1.64969,3.57295 -0.36654,0.15719 -0.74463,0.29952 -0.87237,0.69789 m 0.61069,-5.58316 0.17447,-0.0873 -0.17447,0.0873 m 0.26171,-0.34895 2.19109,-2.70435 0.8622,-1.13407 c 0.93868,-0.47669 1.72136,-1.91603 2.26817,-2.79159 h 0.0873 c -0.18482,1.06916 -1.03566,1.92441 -1.71976,2.70435 -0.72601,0.82772 -1.36787,1.7301 -2.1264,2.52859 -0.35073,0.3692 -1.04537,1.40802 -1.56253,1.39707 m 0.43618,15.78989 h 0.0873 l -0.0873,2.3554 v -2.3554 m 0,-0.9596 h 0.0873 v 0.26171 l -0.0873,-0.26171 m 5.23422,-11.25357 c -0.2919,-0.47585 -0.89573,-0.36758 -1.39579,-0.33057 -1.20468,0.0891 -2.31998,0.19241 -3.48948,0.50505 0.48827,-1.75685 2.2363,-1.15025 3.57671,-1.30855 -0.67238,-0.67326 -1.48063,-0.22132 -2.26815,-0.43619 0.36053,-0.35708 0.97461,-0.767 1.48302,-0.85278 0.46451,-0.0784 1.32734,0.20834 1.48304,-0.36854 0.78722,0.12965 1.63508,0.32863 2.35505,0.67918 2.10372,1.02433 1.73859,3.93807 0.2358,5.29399 -1.01032,0.9116 -2.54575,0.97984 -3.81218,0.83555 -0.87021,-0.0991 -2.20739,-0.49283 -2.52987,-1.40003 h 2.87882 c -0.24502,-0.80722 -2.54118,-0.59964 -3.22777,-0.43618 l -0.0873,-0.34895 3.14053,-0.43618 v -0.0873 l -3.22777,0.26171 -0.019,-0.84498 1.43968,-0.46001 3.46457,-0.26528 m -4.97251,2.87882 c 0.40883,0.27613 0.71242,0.67816 1.13415,0.9349 1.04767,0.6378 2.39314,0.72564 3.57665,0.63537 v 0.0873 c -1.67817,0.32545 -3.83723,0.0264 -4.7108,-1.65751 m 2.26817,-16.40054 0.26171,-0.0873 c -0.34235,-0.98257 -1.33603,-0.292 -1.14304,0.52302 0.22348,0.94373 1.29845,0.55298 0.88133,-0.43579 m 0.30299,31.92845 c 0.15624,1.75561 2.6883,0.72029 2.51949,-0.69627 -0.18992,-1.59373 -2.64903,-0.75926 -2.51949,0.69627 m 0.65662,-0.61032 c 0.27098,-0.0754 0.56295,-0.36116 0.85405,-0.31172 1.03176,0.17521 -0.52882,2.43505 -0.8253,0.83548 -0.0319,-0.17246 -0.0273,-0.34925 -0.0288,-0.52376 m 0.0873,-16.3133 0.0873,-0.0873 -0.0873,0.0873 M 211.108,161.2073 c -0.20616,0.17553 -0.35211,0.36046 -0.46681,0.61072 -0.0768,0.16741 -0.12192,0.34164 -0.1491,0.52336 -0.22174,1.48193 2.31765,0.84551 1.46835,-0.41969 -0.20548,-0.30611 -0.59764,-0.44626 -0.85244,-0.71439 m -0.0873,0.61065 c 0.12767,0.0362 0.23799,0.0496 0.34328,0.13982 0.82986,0.71107 -0.77022,1.07988 -0.51257,0.21297 0.0354,-0.11936 0.11415,-0.24292 0.16929,-0.35279 m 0.1744,43.2695 5.05974,-0.34895 v 0.0873 c -1.35199,0.35472 -3.73062,0.82465 -5.05974,0.26171 m 0.26171,-38.38425 h 0.0873 l -0.34895,0.61066 0.26171,-0.61066 m 2.70439,37.94813 0.0873,0.0873 -0.0873,-0.0873 m 0.23015,-47.19518 c 0.2247,0.78151 0.84519,1.19419 1.41247,1.6915 1.13719,0.99689 1.82225,1.61747 3.42492,1.28593 0.69287,-0.14334 1.29353,-0.82328 1.91148,-0.91511 0.55554,-0.0825 1.27031,0.42149 1.94372,0.35447 2.17126,-0.21614 3.90053,-2.12093 3.31102,-4.33601 -0.57272,-2.15204 -3.45787,-3.00352 -5.42928,-2.43723 -0.5665,0.16272 -0.79548,0.87572 -1.34558,1.02583 -0.96711,0.26391 -1.65577,-0.6575 -2.66731,-0.082 -1.14442,0.65101 -3.00852,1.85783 -2.56144,3.41268 m 0.41673,-0.0873 c -0.30072,-1.2681 0.62655,-1.65071 1.4468,-2.31845 0.4243,-0.3454 0.90501,-0.81528 1.48304,-0.85237 0.69528,-0.0446 1.26271,0.55354 2.00644,0.38179 0.61323,-0.14162 0.76522,-0.89564 1.33379,-1.09181 1.76037,-0.60737 4.47444,0.1887 4.94377,2.1361 0.502,2.08301 -1.1536,3.76675 -3.22427,3.83466 -0.56413,0.0184 -1.15691,-0.52176 -1.65621,-0.43128 -0.42659,0.0773 -0.7347,0.60794 -1.13536,0.78669 -0.89267,0.39823 -2.23215,0.57284 -3.04388,-0.0837 -0.40849,-0.33038 -0.63697,-0.84713 -1.04925,-1.18888 -0.47074,-0.39019 -0.94132,-0.48306 -1.10487,-1.17278 m 0.83615,14.48134 3.315,0.78513 -0.0873,2.44263 c -0.94418,-0.42073 -1.8864,-1.37001 -2.61711,-2.09402 -0.35988,-0.3566 -0.63749,-0.60769 -0.61065,-1.13374 m 3.40255,0.17447 -3.22777,-0.61066 c 0.0299,-0.22066 0.0449,-0.54591 0.23795,-0.69548 0.4301,-0.33329 2.39291,0.14764 2.76586,0.50519 0.20569,0.19719 0.19682,0.53748 0.22396,0.80095 m -2.70436,-2.96607 c 0.97141,6.5e-4 3.15424,0.23844 2.70435,1.57026 l -2.87882,-0.43618 0.17447,-1.13408 m 0.26171,-1.39579 2.96606,0.17447 -0.17448,1.30856 -0.0873,0.0873 c -0.90978,-0.3392 -1.89504,-0.6945 -2.87882,-0.61066 l 0.17449,-0.95968 m 1.91922,-7.41514 0.0873,0.0873 -0.0873,-0.0873 m 0.78513,12.7366 0.0873,0.0873 -0.0873,-0.0873 m 0.11632,-0.17448 c 0,-0.0675 0.0434,-0.014 0.0291,0.0291 l -0.0291,-0.0291 m -0.0291,-0.61065 0.0873,-0.87238 h 0.0873 l -0.0873,0.95961 -0.0873,-0.0873 m 0.52342,-2.3554 -0.17447,0.34895 v 0.87237 c -0.35984,-0.38566 -0.27216,-0.94824 0.17447,-1.22132 m 0.0873,-0.95961 -0.0873,0.6979 c -0.15956,-0.25663 -0.154,-0.50186 0.0873,-0.6979 m 1.65763,13.69617 h 0.0873 v 0.26171 l -0.0873,-0.26171 m 0.17447,-1.48304 1.91922,-0.52342 v 0.0873 l -1.91922,0.6979 v -0.26172 m 0.78513,-17.70909 0.0873,0.43619 c -0.38773,-0.0958 -0.43506,-0.32213 -0.17448,-0.61066 v -0.17447 c -0.82408,-0.0306 -0.83089,1.21282 -0.0838,1.32437 0.67597,0.10087 1.09598,-0.94506 0.17105,-0.97543 m 1.04908,7.64912 c 0.35664,0.5483 1.5252,-0.2883 1.20133,-0.81152 -0.45119,-0.72887 -1.61648,0.1733 -1.20133,0.81152 m 0.52066,-0.58292 h 0.17447 v 0.17448 h -0.17447 v -0.17448 m 0.17447,7.50238 0.61067,0.17447 c 0.10764,-0.27905 0.50242,-1.94087 -0.3915,-1.53472 -0.43016,0.19544 -0.25262,1.01491 -0.21917,1.36024 m 0.26171,-0.78513 h 0.17448 v 0.17448 l -0.17448,-0.17448 m 2.18083,-9.42159 c -0.32655,-1.03392 -1.30552,0.46289 0,0 m 2.00644,-6.45553 v 0.17447 c 0.66022,0.16454 1.17029,-0.50512 1.83198,-0.26183 1.14524,0.42106 1.94617,1.95918 0.34889,2.45985 -0.62032,0.19445 -1.15543,-0.15062 -1.74467,-0.26358 -0.59599,-0.11427 -1.24853,-0.0391 -1.82418,-0.24845 -1.45654,-0.52976 -0.52197,-2.02232 0.51562,-2.42111 0.41159,-0.15819 0.7549,0.076 1.13408,0.2117 0.0821,-0.56726 -0.65885,-0.85826 -1.14896,-0.69217 -0.68336,0.23156 -1.65147,1.10694 -1.81589,1.8414 -0.13134,0.58677 0.50978,1.11787 0.95846,1.369 0.41847,0.23423 0.85599,0.14714 1.30849,0.22657 1.00931,0.17718 2.37983,0.88404 3.29892,0.13935 1.35854,-1.10078 0.47652,-2.77001 -1.03076,-3.09934 -0.64551,-0.14105 -1.27069,0.31026 -1.83198,0.56414 m -1.99454,13.07302 c 0.17521,0.35108 0.78939,0.14639 0.58685,-0.21297 -0.17417,-0.30906 -0.78169,-0.17744 -0.58685,0.21297 m 3.36687,3.55356 c 0.0427,0.29612 0.0293,0.70592 0.31543,0.88025 0.54027,0.32916 1.17845,-0.26823 1.07377,-0.83636 -0.11424,-0.62004 -1.49517,-0.78059 -1.3892,-0.0439 m 0.45975,0.47186 v -0.0873 l 0.52342,-0.34895 c -0.0638,0.30579 -0.18304,0.54636 -0.52342,0.43618"
       style="display:inline;fill:#000000;stroke:none;stroke-width:1.03036"
       id="home-3-3" />
  </g>
</svg>
