<?xml version="1.0" encoding="UTF-8" standalone="no"?>
<!-- Created with Inkscape (http://www.inkscape.org/) -->

<svg
   width="40.000008mm"
   height="64.114708mm"
   viewBox="0 0 40.000007 64.114708"
   version="1.1"
   id="svg1"
   xmlns="http://www.w3.org/2000/svg"
   xmlns:svg="http://www.w3.org/2000/svg">
  <defs
     id="defs1" />
  <path
     d="m 1.2226936,60.779151 c 0.80685,1.20383 2.56089,1.58488 3.87981,1.86679 1.89955,0.40601 3.56429,1.07122 5.5212804,1.25204 7.54823,0.69743 14.97404,-0.25211 21.93589,-3.3771 2.76356,-1.24047 6.26944,-3.16084 7.14004,-6.30769 0.83251,-3.00902 -0.007,-7.06996 -3.26023,-8.34605 -2.16123,-0.84753 -4.54575,-0.76057 -6.56583,0.29488 -0.73108,0.38197 -1.33694,0.32019 -1.64146,1.187 1.60168,-0.074 2.99846,-0.41264 4.62592,-0.15263 0.73054,0.11667 1.41895,0.42067 2.08915,0.72078 0.48209,0.21587 0.93443,0.48714 1.32734,0.84409 3.40828,3.09637 -2.39694,7.13535 -4.61027,8.66996 -5.54146,3.84219 -13.7818,5.74683 -20.44364,5.29144 -4.9085404,-0.33554 -10.54961041,-5.04666 -7.0761504,-10.10829 1.88388,-2.74526 5.72122,-4.70791 8.7176004,-5.88605 0.81746,-0.32139 1.84074,-0.66392 2.68603,-0.88059 0.61408,-0.15739 1.07659,0.13554 1.49224,-0.4387 -1.94971,-1.02194 -3.90852,-0.41323 -5.81972,0.35867 -3.7856104,1.52892 -7.8941004,3.77001 -9.8313604,7.55018 -0.88161001,1.72031 -1.57363001,3.54251 -1.34536001,5.5191 0.0869,0.7522 0.36669,1.7876 1.17872001,1.9421 m 0.5969,-6.56571 h 0.14928 l -0.84631,2.53681 0.39864,3.43214 c -1.63990001,-1.08784 -0.46422,-4.65736 0.29844,-5.96895 m 0.29844,2.08914 1.0851,2.98505 2.49627,2.53622 c -3.01667,0.64528 -4.52318,-3.16082 -3.58137,-5.52127 m 18.2054204,-0.44762 0.89534,0.44767 0.35819,-3.58136 0.50987,-2.83526 5.39934,-8.8042 c 0.9655,0.0971 1.074,-1.20675 1.35062,-1.93991 0.78974,-2.09302 2.05106,-4.09764 3.0251,-6.11817 4.28176,-8.8819 6.15673,-20.19448 -0.0176,-28.8001806 -1.13581,-1.58335 -3.90517,-3.75194004 -5.85127,-4.18793004 -0.70524,-0.15792 -1.39071,0.25977 -2.08913,0.28843 -2.04363,0.0839 -4.19827,-0.13712 -6.11818,0.80505004 -4.0846,2.00462 -7.52537,6.32863 -8.5296904,10.7048606 -1.77373,7.72902 3.2353104,14.98713 6.2837704,21.63744 2.23175,4.86862 2.80482,9.61083 3.57961,14.77315 0.38279,2.55039 1.20141,5.00574 1.20312,7.61041 m 1.04436,-7.1627 c -0.45657,-0.95507 -0.18326,-2.11671 -0.44985,-3.1337 -0.79476,-3.03175 -1.64735,-5.95931 -2.60013,-8.95342 -0.45544,-1.43126 -1.51741,-2.52859 -2.10321,-3.87983 -1.2114,-2.79446 -2.56357,-5.73796 -3.4364,-8.65497 -0.36905,-1.23336 -0.29724,-2.49433 -0.62269,-3.73059 -0.4111,-1.56169 -1.18151,-3.03509 -1.46261,-4.62595 -0.8628804,-4.88338 0.87096,-9.0774306 5.00438,-11.8982806 1.43144,-0.97688 2.39123,-2.03626 4.17827,-2.35787 6.58635,-1.18536004 14.05421,6.05931 13.84728,12.4653606 -0.0589,1.82363 0.20619,3.71983 0.0224,5.52139 -0.41423,4.06135 -1.69949,8.63299 -3.27705,12.38557 -2.4791,5.89713 -6.40632,11.09061 -9.10047,16.86229 m -10.59467,-29.99397 h 0.14928 l 0.44767,2.08913 -0.5969,-2.08913 m 5.22367,0.5969 c -0.004,2.9145 4.22706,6.13854 7.01353,5.6932 0.82823,-0.13236 1.48229,-0.64479 2.23836,-0.96766 1.19251,-0.50922 3.08833,-1.5875 3.84629,-2.64285 2.43312,-3.38786 0.22119,-8.43001 -2.30269,-11.03333 -1.25605,-1.2955806 -3.86495,-1.3676706 -5.57264,-1.2772706 -3.60124,0.19059 -4.94566,3.4912506 -5.49838,6.6465406 -0.16549,0.94499 -0.57314,2.89504 0.27553,3.58137 m 4.3275,3.28296 c -1.86791,0.23687 -0.80988,-1.32898 0,-1.96696 1.83729,-1.44736 4.32516,-3.58643 6.56584,-4.30043 l 0.14928,-0.5969 c -2.20931,0.80418 -4.42669,2.65393 -6.26729,4.09711 -0.59135,0.46365 -1.10976,1.30818 -1.83384,1.57606 -0.64054,0.23699 -0.97998,-0.4016 -1.15073,-0.898 2.88818,-2.01056 5.52026,-5.72563 8.95342,-6.8643 v -0.5969 c -3.53958,1.17882 -6.1243,4.92246 -9.10265,7.01353 l -0.44767,-1.79069 5.96895,-5.22284 1.04456,-0.74611 c -2.70536,0.68395 -4.86397,4.0007 -7.16274,5.52128 -0.13413,-1.55805 -0.0694,-3.75399 0.91159,-5.06025 0.84027,-1.11892 2.30096,-2.4026 3.72769,-2.64859 2.68938,-0.4637106 5.90154,2.17818 6.50117,4.72435 0.65038,2.76173 -1.0921,6.18108 -3.38081,7.65522 -0.83057,0.53496 -4.13532,1.70215 -4.47671,0.10434 m -2.68603,-6.56584 c 1.35131,-0.35141 3.3489,-2.49408 3.58137,-3.87983 -1.25233,0.74379 -2.84807,2.6202 -3.58137,3.87983 m 1.34301,46.7071 0.44767,0.29846 -0.44767,-0.29846 m 0.59689,0.14876 v -0.14929 c 1.89194,-0.70875 4.02541,-0.83792 5.96895,-1.45791 3.25713,-1.03904 6.45849,-3.0149 9.10047,-5.13926 2.097,-1.6861 4.18186,-3.99737 2.99747,-6.83296 -0.55652,-1.33242 -1.84264,-1.54034 -2.69684,-2.5368 4.98136,0.49921 3.74462,5.72607 1.62762,8.65498 -2.87398,3.97619 -7.74845,5.63341 -12.37173,6.64184 -1.25332,0.27338 -3.3964,1.19736 -4.62594,0.81934 m 0.74613,-40.29026 0.74611,-0.5969 -0.74611,0.5969 m 0.89534,-0.59696 6.41661,-4.17825 v -0.14928 l -4.47671,2.73564 -1.9399,1.59189 m 3.58147,-20.8913306 c 0.87984,0.0356 1.97843,0.13395 2.53682,0.89534 l -2.53682,-0.89534 m 0.14929,42.3795306 0.14928,0.14928 -0.14928,-0.14928 m 0.5969,-0.89534 1.34301,-2.38757 h 0.14928 l -1.34301,2.5368 -0.14928,-0.14928 m 1.64145,-2.98447 0.14928,0.14928 -0.14928,-0.14928 m 0,-37.0074806 1.64146,1.04455 v 0.14929 l -1.64146,-1.19379 m 0.29844,36.5598106 0.74613,-0.89534 -0.74613,0.89534 m 2.08915,-3.87981 c 1.16923,-2.01078 2.75138,-5.10911 2.83524,-7.4612 l 0.89534,-1.9399 h 0.14928 c -0.68432,3.3167 -1.91541,6.67367 -3.73058,9.55031 l -0.14928,-0.14928 m 2.08918,-28.8001906 0.5969,0.7461 -0.5969,-0.7461 m 0.94508,1.34302 c 0,-0.11545 0.0744,-0.024 0.0497,0.0497 l -0.0497,-0.0497 m 2.0394,5.6704906 h 0.14929 l 0.34187,4.62594 -0.34187,1.64146 -0.14929,-6.2674 m 0.14929,7.31197 0.14928,0.14928 -0.14928,-0.14928 m 0,-0.5969 0.14928,-0.29844 h 0.14928 l -0.29851,0.29849 m 0.29846,38.05205 c 1.83388,-2.27468 3.62081,-4.27011 4.02904,-7.31195 h 0.14928 c 0.29284,2.31686 -0.42677,4.31901 -2.07406,5.98575 -0.52449,0.53072 -1.33346,1.30096 -2.10421,1.3262"
     style="display:inline;fill:#000000;stroke:none;stroke-width:1.76248"
     id="local-1-0" />
</svg>
