<?xml version="1.0" encoding="UTF-8" standalone="no"?>
<!-- Created with Inkscape (http://www.inkscape.org/) -->

<svg
   width="39.999992mm"
   height="26.92234mm"
   viewBox="0 0 39.999992 26.92234"
   version="1.1"
   id="svg1"
   xmlns="http://www.w3.org/2000/svg"
   xmlns:svg="http://www.w3.org/2000/svg">
  <defs
     id="defs1" />
  <g
     id="layer1"
     transform="translate(-84.931254,-134.9375)">
    <path
       d="m 124.76108,135.46993 -0.12637,-0.5053 c -4.11565,-0.13384 -8.25163,0.25883 -12.38168,0.49535 -4.939,0.28286 -9.96544,0.18662 -14.90447,0.13577 -2.8259,-0.0291 -5.64835,-0.12473 -8.46377,-0.004 -1.15435,0.0492 -2.62374,-0.16058 -3.66341,0.38392 l 0.75795,0.63164 v 0.12637 l -0.63162,0.25266 v 1.38957 H 85.853 c 0,3.15791 0.57031,6.32293 0.26416,9.47436 -0.14189,1.46072 -0.76722,2.65343 -1.05943,4.04054 -0.31735,1.50643 0.0378,2.95998 0.24417,4.42322 0.20533,1.45591 0.43863,2.55107 1.38944,3.80081 0.60075,0.78964 1.36815,0.64262 2.19345,0.62241 2.32446,-0.057 4.6305,0.12443 6.94787,0.12443 3.93342,0 7.8308,0.14607 11.7482,0.52674 5.35906,0.52068 12.04326,1.56266 16.00661,-3.21573 2.50496,-3.02006 0.8316,-7.58321 0.34339,-10.95409 -0.25703,-1.77466 -0.29214,-3.58585 -0.49349,-5.37056 -0.20769,-1.84068 -0.64079,-5.48175 1.32367,-6.37764 m -38.40276,16.67487 c 0.60453,0.50754 0.97952,3.73255 -0.8372,3.6248 -0.15058,-0.84887 -0.98355,-5.01418 0.8372,-3.6248 m 0.78489,2.7534 0.20288,1.79953 -1.74746,0.26303 0.55075,-0.96538 m 0.71429,1.20245 1.13693,2.77915 -0.75795,0.12637 v -0.12637 l 0.37897,-0.12638 c -0.28809,-0.34977 -0.4509,-0.36717 -0.88428,-0.25264 -0.26735,-0.73864 -0.11742,-0.95047 0.37898,-1.5159 H 86.232 c 0.0389,-0.50172 0.16757,-0.68745 0.63163,-0.88428 m -0.75507,-5.91091 c 0.0356,-0.0768 2.17457,2.00959 0.21183,0.52404 l -0.4507,-0.18249 m -0.0165,-1.38723 0.63944,-2.42762 0.48198,1.80172 c 0,0 0.13809,1.67611 0.15703,2.09303 0.0189,0.41693 -1.4419,-0.98941 -1.4419,-0.98941 m 1.84027,-12.20824 c 1.70154,0.47054 2.80706,2.06751 4.17331,3.1596 2.59493,2.0742 5.29,4.16749 7.6137,6.54988 0.90737,0.93029 1.81285,1.92489 2.67028,2.89874 0.45526,0.5171 0.91807,1.48284 1.55127,1.78381 l 0.12637,-0.5053 c 0.91311,0.17325 0.94641,-1.1998 1.53779,-1.79451 1.02143,-1.02721 1.98213,-2.04942 3.1044,-2.96885 3.95203,-3.2377 9.21024,-6.41919 14.19611,-7.78275 l 0.66346,4.7536 c -1.51044,0.15572 -4.60423,1.97027 -5.22706,3.37115 1.50699,-1.04673 3.4653,-2.5714 5.35339,-2.86585 0.027,1.31313 0.45453,2.59813 0.58542,3.90477 0.14353,1.43228 0.29779,2.80216 0.38579,4.23522 0.0979,1.59086 -0.16327,3.61309 -1.31523,4.97217 -1.71603,2.02456 -3.89775,2.33087 -6.18081,2.90369 -0.80535,0.20208 -3.29927,-0.90505 -3.44328,0.10392 -2.5906,0.43868 -5.21856,-0.22264 -7.83213,-0.48397 -3.5408,-0.35402 -7.17846,-0.39597 -10.73761,-0.40031 -1.51732,-0.001 -3.03212,-0.12578 -4.54769,-0.12638 -0.48387,-1.8e-4 -1.53925,-0.0839 -1.91171,-0.46237 -0.98691,-1.00285 -0.6658,-3.6531 -0.85448,-4.9594 -0.22986,-1.59136 0.086,-3.21901 -0.12973,-4.79136 -0.53351,-3.88839 -1.00423,-8.4921 -1.00423,-12.26497 m 24.30541,-1.51341 c -1.03157,2.03605 -4.04782,2.99306 -5.053,5.05298 2.32572,-0.74264 3.69605,-4.00082 5.87072,-5.1821 0.7048,-0.38285 1.85767,-0.29711 2.65233,-0.31571 l 0.067,0.44487 c -1.95054,1.08184 -3.66697,2.66345 -5.30515,4.15916 -0.67564,0.61687 -1.50205,1.18744 -1.89537,2.03075 2.77359,-1.95957 5.06255,-5.38361 8.29172,-6.66749 0.78679,-0.31281 2.05324,-0.16607 2.90557,-0.20849 1.45286,-0.0724 4.98424,-1.0172 4.72404,1.0544 -1.71896,0.0149 -3.22732,1.64584 -4.64659,2.49209 -3.62592,2.16194 -6.94579,5.23827 -10.10143,8.03078 -1.09461,0.96865 -2.26413,2.07818 -3.20672,3.19418 -0.28296,0.33502 -0.81387,1.35248 -1.32084,1.30484 -1.13156,-0.10638 -2.32709,-2.1089 -2.99992,-2.88456 -1.55159,-1.78874 -3.43708,-3.84065 -5.39403,-5.17883 v -0.12637 c 3.03685,1.0324 5.09798,4.7895 7.7058,6.56887 -0.25005,-1.2386 -1.88768,-2.32641 -2.78098,-3.16991 -2.64363,-2.49626 -6.12501,-5.11686 -9.21374,-7.04057 -1.17655,-0.7328 -2.22731,-1.03947 -3.35455,-1.87374 -0.30066,-0.22252 -1.12364,-0.94506 -1.18884,-1.35899 -0.0786,-0.4988 1.52646,-0.50129 1.81739,-0.50189 1.43164,-0.003 2.86396,0.0543 4.29505,-0.0273 3.95606,-0.22561 8.03572,-0.0645 11.999,0.0134 1.92484,0.038 4.18834,0.31748 6.06544,-0.12935 m -18.92549,4.64465 1.84407,1.45325 -2.36562,-1.32286 m 2.62887,1.48067 0.0421,-0.0421 c 0.0207,0.0624 -0.0421,0.1398 -0.0421,0.0421 m 0.33687,0.25265 0.75795,0.75794 -0.75795,-0.50529 v -0.25265 m 14.90585,14.40156 c 0.95608,0.0373 1.70956,-1.21163 2.38103,-1.79143 1.52237,-1.31456 3.14279,-2.72873 4.8906,-3.73146 0.67441,-0.3869 1.65589,-0.78526 2.32906,-1.29865 -0.88664,-0.20629 -2.18676,0.7559 -3.0318,1.37487 -2.12747,1.55829 -5.04077,3.28346 -6.56889,5.44667 m 0.25266,-2.27385 c 0.78743,-0.3935 1.39361,-1.28672 2.00926,-1.84141 1.21603,-1.09562 2.42219,-2.1822 3.77796,-3.10626 0.65815,-0.44858 1.54108,-0.85425 1.79227,-1.49489 -2.1649,0.90727 -4.22871,2.80547 -5.86456,4.45733 -0.61444,0.62048 -1.3458,1.17991 -1.71493,1.98523 m 1.13697,3.28446 c 1.23748,-0.2934 2.15772,-1.63887 3.15811,-2.38058 2.2193,-1.64544 4.50896,-2.77371 6.82154,-4.18832 -1.07507,-0.0436 -1.97563,0.52277 -2.76323,0.97329 -1.86776,1.06836 -3.58219,2.3848 -5.17931,3.82162 -0.65818,0.59213 -1.65354,0.95831 -2.03711,1.77399 m 1.01783,-13.21929 0.12638,0.12637 -0.12638,-0.12637 m 0.50537,-0.3789 0.12637,0.12637 -0.12637,-0.12637 m 0.50529,-0.37898 7.95126,-5.68361 2.47943,-1.0172 -0.17887,1.9538 -2.21029,0.59392 -4.40206,2.35445 -3.63947,1.79864 m 3.15092,13.34553 c 0,0 1.87172,-1.32331 2.96341,-1.54544 0.6433,-0.1309 1.96326,0.15587 1.96326,0.15587 -0.84686,-1.53621 -4.40875,0.33216 -4.92667,1.38957 m 1.64231,-2.27384 c 0.42375,0.0792 0.74544,-0.43703 1.16063,-0.54083 0.2915,-0.073 0.58474,-0.12623 0.88426,-0.15146 0.22749,-0.0192 1.37065,0.27684 0.78193,-0.19038 -0.7108,-0.56409 -2.53903,0.14622 -2.82682,0.88263 m 0.25264,-9.34803 0.12637,0.12637 c 1.28498,-1.00746 2.82896,-3.05401 4.80034,-2.65282 -0.25977,-0.81479 -1.05244,-0.47991 -1.64223,-0.17449 -1.0966,0.56789 -2.74373,1.56542 -3.28443,2.70098 m 6.93211,6.3163 h 0.12637 v 0.37897 l -0.12637,-0.37897 m 0.12637,0.63163 0.12638,0.12637 -0.12638,-0.12637"
       style="display:inline;fill:#000000;stroke:none;stroke-width:1.49203"
       id="mail-1-6" />
  </g>
</svg>
