<?xml version="1.0" encoding="UTF-8" standalone="no"?>
<!-- Created with Inkscape (http://www.inkscape.org/) -->

<svg
   width="77.81897mm"
   height="24.000031mm"
   viewBox="0 0 77.81897 24.000031"
   version="1.1"
   id="svg1"
   xmlns="http://www.w3.org/2000/svg"
   xmlns:svg="http://www.w3.org/2000/svg">
  <defs
     id="defs1" />
  <g
     id="layer1"
     transform="translate(-57.67917,-138.1125)">
    <g
       id="g17"
       transform="translate(18.65613,55.34965)">
      <path
         d="m 62.423969,106.48381 c -0.04712,0.0763 -0.550286,0.10673 -1.82718,0.11057 -1.03248,0.003 -1.762104,0.039 -1.762104,0.0869 0,0.045 -0.04168,0.0816 -0.09246,0.0816 -0.0508,0 -0.07112,-0.0346 -0.04504,-0.0766 0.02608,-0.0421 -0.06,-0.0974 -0.191235,-0.12272 -0.347698,-0.0672 -2.98133,-0.016 -3.32094,0.065 -0.201067,0.0477 -0.374061,0.028 -0.567335,-0.0645 -0.152944,-0.0733 -0.395518,-0.17971 -0.539045,-0.2366 -0.250278,-0.0992 -0.25407,-0.10848 -0.09247,-0.22666 0.09268,-0.0678 0.254829,-0.1232 0.360291,-0.1232 0.32385,0 2.593277,-1.6345 2.78548,-2.00619 0.157664,-0.3049 0.254598,-1.93192 0.348475,-5.849302 0.0516,-2.156462 -0.332682,-6.949107 -0.658532,-8.211231 -0.06856,-0.265479 -0.142112,-1.077403 -0.163529,-1.804506 -0.0093,-0.305489 -0.132423,-0.258022 -0.73748,0.283687 -0.0536,0.048 -0.431352,0.369228 -0.839398,0.713823 -0.408054,0.344603 -0.949739,0.845398 -1.203769,1.112876 -0.254014,0.267463 -0.519493,0.486299 -0.589952,0.486299 -0.0704,0 -0.245646,0.107998 -0.38931,0.240021 -0.143671,0.131999 -0.31024,0.280439 -0.370156,0.329794 -1.344657,1.108012 -1.548036,1.303615 -1.502985,1.445543 0.05072,0.15984 -0.228229,0.313601 -0.388798,0.214355 -0.04528,-0.028 -0.187786,0.08736 -0.316625,0.256214 -0.224956,0.294912 -0.475394,0.408038 -0.475394,0.214724 0,-0.05088 0.119783,-0.241445 0.266191,-0.423631 l 0.26619,-0.331234 -0.22546,-0.424007 C 50.0274,91.991606 49.897793,91.77965 49.863399,91.753793 49.828999,91.727873 49.64754,91.510412 49.460161,91.270391 49.272781,91.03029 48.877472,90.597914 48.581672,90.309507 48.285888,90.021075 47.854808,89.569378 47.623707,89.30574 47.051788,88.653248 45.8034,87.368003 45.123419,86.731592 l -0.559566,-0.523693 -0.05096,0.523693 c -0.0644,0.662508 -0.02352,3.266106 0.05464,3.469501 0.03296,0.08592 0.01832,0.1528 -0.03352,0.1528 -0.06104,0 -0.066,0.08096 -0.01456,0.240021 0.04256,0.132007 0.09567,1.10414 0.117926,2.160254 0.02224,1.056137 0.06344,2.195167 0.09135,2.531225 0.122111,1.467984 0.175866,3.063359 0.130863,3.884083 -0.004,0.072 0.07,0.425496 0.164361,0.785555 0.169017,0.645049 0.271031,1.135869 0.32809,1.578479 0.07648,0.59335 0.427751,1.89896 0.577359,2.14596 0.106846,0.17643 0.134944,0.29694 0.07753,0.33245 -0.195315,0.12065 -3.6e-4,0.83095 0.228084,0.83095 0.08423,0 0.06864,-0.077 -0.05728,-0.28366 -0.209468,-0.34353 -0.238989,-0.56919 -0.05184,-0.39621 0.06696,0.0619 0.103918,0.14208 0.08216,0.178 -0.02176,0.036 0.0024,0.0654 0.0528,0.0654 0.0508,0 0.08432,0.0294 0.07456,0.0654 -0.01024,0.036 0.05104,0.19509 0.135408,0.3535 0.08432,0.1584 0.130119,0.36133 0.101653,0.45087 -0.02856,0.0901 -8e-4,0.19514 0.06096,0.2351 0.246309,0.15793 0.932106,0.2841 1.563965,0.28775 0.48613,0.003 0.695518,0.0397 0.776074,0.1368 0.09329,0.11232 0.08597,0.12353 -0.04728,0.0725 -0.100933,-0.0387 -0.137031,-0.0272 -0.100405,0.032 0.06576,0.1064 -0.458977,0.22928 -0.656132,0.1536 -0.07,-0.0269 -1.534411,-0.01 -3.254193,0.0381 -1.786193,0.0496 -3.187861,0.0542 -3.269122,0.0112 -0.07824,-0.0419 -0.621401,-0.088 -1.207009,-0.10256 -0.585616,-0.0144 -1.144191,-0.0558 -1.241276,-0.0918 -0.486074,-0.17981 0.107214,-0.42148 0.958148,-0.39028 0.588648,0.0216 0.960125,-0.073 0.960125,-0.24445 0,-0.0547 0.128703,-0.14593 0.286023,-0.20281 0.467682,-0.16912 1.197777,-0.80433 1.197777,-1.04213 0,-0.0613 0.05168,-0.11153 0.114758,-0.11153 0.115679,0 0.345147,-0.39631 0.555911,-0.96011 0.09072,-0.24265 0.112582,-1.68814 0.106325,-7.026285 -0.01104,-9.433025 -0.04424,-11.357946 -0.203387,-11.809106 -0.0712,-0.201779 -0.111254,-0.366884 -0.08896,-0.366884 0.02224,0 -0.05536,-0.108006 -0.17237,-0.240021 -0.489362,-0.55195 -0.661156,-0.767378 -0.66126,-0.82919 -1.92e-4,-0.121126 0.131111,-0.06688 0.366676,0.151521 0.183546,0.170201 0.291672,0.205507 0.500987,0.163657 0.16885,-0.03376 0.270919,-0.01728 0.277824,0.0448 0.04488,0.403262 0.198306,0.677397 0.592608,1.058298 0.544693,0.526236 0.980269,0.872839 1.096875,0.872839 0.05256,0 0.24911,0.07824 0.43668,0.173874 0.261998,0.133599 0.357004,0.1488 0.409903,0.06544 0.04872,-0.0768 0.06928,-0.06384 0.07016,0.04432 7.36e-4,0.084 -0.03792,0.152809 -0.08596,0.152809 -0.04808,0 -0.08732,0.03328 -0.08732,0.07392 0,0.131687 0.322201,0.449776 0.455505,0.449776 0.0712,0 0.361219,0.225861 0.644387,0.5019 0.283159,0.276015 0.743496,0.658971 1.022959,0.851006 0.279472,0.192002 0.779915,0.59144 1.112085,0.8876 0.33217,0.296184 0.741776,0.584 0.910233,0.639587 0.168442,0.05552 0.306265,0.133119 0.306265,0.172241 0,0.164089 0.272951,0.157929 0.429103,-0.0096 0.196595,-0.211028 0.356444,-0.14992 0.356444,0.136167 0,0.167281 0.03656,0.193955 0.218212,0.159201 0.138999,-0.02656 0.218204,-0.100326 0.218204,-0.203027 0,-0.211892 0.33173,-0.401662 0.398413,-0.227893 0.02568,0.06688 0.04008,0.156961 0.03208,0.200147 -0.0083,0.0432 -0.01024,0.163185 -0.004,0.266711 0.0083,0.14912 0.05112,0.178514 0.206715,0.1416 0.253198,-0.06016 0.416935,-0.265815 0.350123,-0.439912 -0.03224,-0.08416 -0.01672,-0.114559 0.04048,-0.07921 0.05112,0.03168 0.18529,-0.01728 0.298072,-0.108478 0.204588,-0.165665 0.20406,-0.165777 -0.230932,-0.05376 -0.239797,0.06192 -0.47333,0.09024 -0.518964,0.0632 -0.04568,-0.02704 -0.026,-0.06464 0.0436,-0.08369 0.567159,-0.1544 1.015911,-0.402006 1.148134,-0.633434 0.162113,-0.28372 0.308777,-0.333402 0.386477,-0.130887 0.03968,0.103525 0.08721,0.109446 0.237293,0.03024 0.71896,-0.37954 2.462742,-1.999836 2.381138,-2.212512 -0.03712,-0.09664 0.02032,-0.14864 0.205251,-0.18557 0.141216,-0.02832 0.315033,-0.14032 0.386269,-0.249014 0.40511,-0.618281 2.978834,-2.970337 2.626551,-2.400338 -0.02968,0.048 -0.01232,0.08736 0.03848,0.08736 0.0508,0 0.09247,0.05296 0.09247,0.117606 0,0.15392 -0.343939,0.543934 -0.4524,0.513068 -0.0464,-0.0128 -0.06512,0.008 -0.04184,0.04464 0.06648,0.107678 -0.181602,0.396278 -0.285455,0.332098 -0.105558,-0.06528 -0.116471,0.105286 -0.03728,0.58384 0.03392,0.204899 0.09009,0.305049 0.151776,0.270167 0.05392,-0.03056 -0.0093,0.06016 -0.140464,0.201235 l -0.238437,0.25663 -4.16e-4,3.750068 c -2.24e-4,2.062536 0.0024,3.808975 0.0064,3.880979 0.0032,0.072 6e-4,0.523708 -0.0064,1.003766 -0.0064,0.480059 0.01296,1.481633 0.04384,2.225714 0.0308,0.744096 0.05176,2.170078 0.04648,3.168884 -0.0072,1.407922 0.01816,1.868822 0.113598,2.051152 0.06776,0.12928 0.186579,0.45501 0.264191,0.72376 0.0776,0.26872 0.219532,0.55958 0.315393,0.64632 0.09588,0.0867 0.174297,0.26498 0.174297,0.39604 0,0.4032 0.202131,0.75213 0.91049,1.57175 0.821805,0.95088 1.112884,1.18026 1.598439,1.25968 0.401702,0.0656 0.482706,0.12721 0.382085,0.28998 z m -2.27214,-0.97982 c -0.08825,0.0882 0.32905,0.51865 0.524565,0.54115 0.187066,0.0216 0.172369,-0.008 -0.137632,-0.27844 -0.190906,-0.1664 -0.365028,-0.28462 -0.386933,-0.26271 z m -0.926602,0.20722 c -0.146008,-0.28232 -0.215196,-0.31066 -0.373077,-0.15281 -0.18081,0.18082 -0.126295,0.48179 0.09494,0.52408 0.202147,0.0387 0.411303,8e-4 0.411303,-0.0731 0,-0.0224 -0.05992,-0.15664 -0.133151,-0.29821 z m 0.0804,-1.01943 c -0.02896,0.029 -0.03208,0.10432 -0.0072,0.1673 0.02784,0.0696 0.04856,0.049 0.0528,-0.0526 0.004,-0.092 -0.0168,-0.14352 -0.04584,-0.11456 z M 59.198541,83.401379 c -0.08794,0.07952 -0.176289,0.134719 -0.196387,0.122718 -0.02008,-0.0128 -0.02712,-0.0064 -0.01552,0.0128 0.01152,0.01952 -0.02264,0.08832 -0.07616,0.1528 -0.18761,0.226053 0.02216,0.114567 0.231077,-0.122878 0.25163,-0.285896 0.279663,-0.367644 0.05688,-0.166081 z m -0.01472,20.830351 c -0.07512,-0.11632 -0.08464,-0.11632 -0.08464,0 0,0.072 0.03808,0.18984 0.08464,0.26185 0.0752,0.11633 0.08464,0.11633 0.08464,0 0,-0.072 -0.03808,-0.18984 -0.08464,-0.26185 z m -0.349139,0.56733 c -0.04952,-0.0306 -0.08731,0.0427 -0.08731,0.16942 0,0.12289 0.03928,0.22336 0.08731,0.22336 0.048,0 0.08732,-0.0763 0.08732,-0.16942 0,-0.0931 -0.03928,-0.19368 -0.08732,-0.22336 z m -0.663716,-0.89283 c -0.02896,0.029 -0.03208,0.10431 -0.0072,0.16729 0.02784,0.0696 0.04856,0.049 0.05264,-0.0526 0.004,-0.092 -0.0168,-0.14352 -0.04584,-0.11455 z m -0.004,-6.629688 c -0.08772,0.08768 -0.112926,1.652993 -0.02976,1.849124 0.04648,0.109766 0.07632,-0.211827 0.08021,-0.865551 0.0032,-0.572079 -0.01928,-1.014679 -0.0504,-0.983573 z M 58.16627,86.402494 c -0.02392,0.05904 -0.02536,0.176922 -0.0032,0.261846 0.02216,0.08496 0.04168,0.03664 0.04352,-0.107358 0.0024,-0.144007 -0.01632,-0.213491 -0.04024,-0.154408 z m -0.02024,-1.412317 c -0.125191,0.134087 -0.204387,0.47569 -0.110246,0.47569 0.101141,0 0.171201,-0.15056 0.180834,-0.388405 0.004,-0.103046 -0.02368,-0.137448 -0.07064,-0.08737 z M 57.874911,105.3061 c -3.04e-4,-0.10513 -0.03976,-0.21551 -0.08783,-0.24518 -0.048,-0.0298 -0.08731,0.0269 -0.08731,0.12577 0,0.0989 -0.03808,0.17971 -0.08453,0.17971 -0.04648,0 -0.06352,0.0549 -0.03776,0.12208 0.02576,0.067 0.0048,0.14801 -0.0464,0.17972 -0.0512,0.0317 -0.09318,0.10192 -0.09318,0.15616 0,0.0542 0.08246,0.01 0.183338,-0.0982 0.188787,-0.20262 0.326346,-0.19894 0.198803,0.005 -0.127135,0.20361 -0.108686,0.33313 0.04744,0.33313 0.232868,0 0.26323,-0.0779 0.129927,-0.33349 -0.06712,-0.12864 -0.122263,-0.31991 -0.122551,-0.4251 z m 0.08671,-4.22876 c 0,-0.0893 -0.03928,-0.16237 -0.08732,-0.16237 -0.04832,0 -0.08732,0.22964 -0.08732,0.51437 0,0.39605 0.03288,0.52697 0.143048,0.56925 0.124431,0.0477 0.135792,0.002 0.08731,-0.35198 -0.03072,-0.22378 -0.05576,-0.47993 -0.05576,-0.56927 z m -0.200379,-7.199991 c -0.03816,-0.03808 -0.05952,0.0792 -0.0472,0.26079 0.01232,0.18157 0.0468,0.345315 0.0768,0.363844 0.08009,0.04944 0.05208,-0.543118 -0.0296,-0.624634 z m -0.394197,-7.46511 c -0.566815,0.474569 -0.691286,0.624721 -0.517845,0.624721 0.156337,0 0.349419,-0.210195 0.267927,-0.291703 -0.03152,-0.03152 0.01104,-0.05744 0.09473,-0.05744 0.168329,0 0.713599,-0.50166 0.632931,-0.582312 -0.02792,-0.028 -0.242918,0.110078 -0.477754,0.306705 z m -0.06216,-0.77005 c -0.0732,0.06064 -0.110302,0.133127 -0.08257,0.160904 0.02768,0.02768 0.087,-0.008 0.131695,-0.07792 0.116854,-0.18477 0.102581,-0.208915 -0.0492,-0.08304 z m -0.275991,1.844668 c -0.106086,0.08801 -0.120118,0.229524 -0.07184,0.724415 0.124103,1.271902 0.200619,1.362602 0.202195,0.239717 8e-4,-0.947795 -0.01392,-1.060729 -0.130359,-0.964132 z m -0.114662,17.268573 c -0.048,0 -0.08731,0.0416 -0.08731,0.0925 0,0.0509 0.03928,0.0682 0.08731,0.0384 0.048,-0.0298 0.08732,-0.0712 0.08732,-0.0925 0,-0.0211 -0.03928,-0.0384 -0.08732,-0.0384 z m -0.458233,0.89464 c -0.22426,0.14896 -0.229517,0.26971 -0.01376,0.31434 0.104486,0.0216 0.132743,-0.01 0.09567,-0.10624 -0.02888,-0.0754 -0.01488,-0.16018 0.03096,-0.18856 0.04584,-0.0283 0.0835,-0.0738 0.0835,-0.1008 0,-0.027 -0.08835,0.01 -0.196387,0.0813 z M 56.215951,87.473384 c -0.144016,0.14736 -0.261846,0.288824 -0.261846,0.314441 0,0.0256 0.117822,-0.03728 0.261846,-0.139847 0.144024,-0.102558 0.261854,-0.244054 0.261854,-0.314449 0,-0.08129 -0.09536,-0.0304 -0.261854,0.139839 z m 0.131607,-0.960116 c -0.04112,0 -0.107382,0.05232 -0.698934,0.552766 -0.144016,0.121759 -0.202259,0.213252 -0.129439,0.203171 0.187674,-0.02592 0.763378,-0.392893 0.814636,-0.519228 0.05936,-0.1464 0.06464,-0.236709 0.01376,-0.236709 z m -0.674045,19.293222 -0.19945,0.19072 0.218203,-0.0654 c 0.236741,-0.0709 0.393246,-0.24286 0.262119,-0.28807 -0.04472,-0.016 -0.171178,0.0578 -0.280872,0.16266 z M 54.453511,88.612222 c -0.390301,0.267383 -0.943315,0.796804 -0.943315,0.903065 0,0.04736 0.0576,0.0096 0.128143,-0.0832 0.172089,-0.227509 0.170113,-0.04208 -0.0024,0.203923 -0.07473,0.106726 -0.118943,0.193986 -0.09824,0.193986 0.147296,0 1.32304,-1.296822 1.245772,-1.37409 -0.0228,-0.02272 -0.171385,0.04752 -0.330178,0.15632 z m -1.030608,0.257686 c -0.048,0 -0.08731,0.0416 -0.08731,0.09248 0,0.05088 0.03928,0.06816 0.08731,0.0384 0.048,-0.02976 0.08732,-0.0712 0.08732,-0.09248 0,-0.02112 -0.03928,-0.0384 -0.08732,-0.0384 z m -0.566367,1.139934 c -0.06912,0.06912 -0.26251,0.352835 -0.429607,0.630331 l -0.303817,0.504539 0.249246,-0.199107 c 0.233333,-0.186402 0.702846,-0.938227 0.638931,-1.023096 -0.01584,-0.02112 -0.08557,0.01808 -0.154753,0.08737 z M 52.07695,89.830024 c -0.07,0 -0.148848,0.123527 -0.181074,0.283672 -0.03144,0.156008 -0.07648,0.352395 -0.100102,0.436408 -0.02368,0.084 -0.0032,0.152808 0.04504,0.152808 0.04848,0 0.1452,-0.186562 0.215004,-0.414591 0.06976,-0.228036 0.130999,-0.424423 0.136007,-0.436407 0.0048,-0.0128 -0.04672,-0.02192 -0.114902,-0.02192 z m -0.574271,1.091036 c -0.04808,0.02976 -0.08732,0.110558 -0.08732,0.179714 0,0.06912 0.03928,0.125766 0.08732,0.125766 0.048,0 0.08731,-0.08096 0.08731,-0.179721 0,-0.09888 -0.03928,-0.155521 -0.08731,-0.125759 z m -0.145768,-1.041017 c -0.17145,-0.06576 -0.300001,0.09601 -0.272127,0.342747 0.01088,0.096 -0.01456,0.229732 -0.05648,0.297152 -0.05216,0.08385 -0.0444,0.102886 0.02456,0.06032 0.05544,-0.03424 0.100822,-0.02272 0.100822,0.02576 0,0.04848 -0.06872,0.131687 -0.152753,0.184786 -0.110006,0.0696 -0.12207,0.109606 -0.04312,0.142727 0.06032,0.02544 0.08371,0.088 0.05192,0.13936 -0.03416,0.0552 -0.01648,0.06784 0.04312,0.03104 0.05544,-0.03424 0.10175,-0.128639 0.103094,-0.20986 8e-4,-0.08112 0.07656,-0.304712 0.167497,-0.496731 0.208531,-0.440664 0.209131,-0.449944 0.0336,-0.517324 z m -0.82887,0.107206 c -0.07024,0.0736 -0.09929,0.261366 -0.07704,0.497435 l 0.01648,0.174562 0.06936,-0.174562 c 0.08196,-0.206027 0.07512,-0.585568 -0.0093,-0.497435 z m -0.339754,0.191938 c -0.0508,0 -0.06816,-0.03936 -0.03848,-0.08736 0.02968,-0.048 0.02008,-0.08736 -0.0212,-0.08736 -0.04136,0 -0.07905,0.137439 -0.08381,0.305489 -0.0064,0.207883 0.0304,0.30548 0.113622,0.30548 0.07224,0 0.122271,-0.08929 0.122271,-0.218212 0,-0.120006 -0.04152,-0.218196 -0.09246,-0.218196 z m -0.08216,-0.392781 c -0.048,-0.02976 -0.08732,-0.0128 -0.08732,0.0384 0,0.05088 0.03928,0.09248 0.08732,0.09248 0.048,0 0.08731,-0.01728 0.08731,-0.0384 0,-0.02112 -0.03928,-0.06272 -0.08731,-0.09248 z m -0.440912,0.122087 c -0.318274,-0.623882 -0.778819,-1.293119 -0.95462,-1.387196 -0.213684,-0.114406 -0.182706,-0.02832 0.298304,0.828637 0.594008,1.058314 1.154703,1.53546 0.656316,0.558559 z m -0.589633,0.399253 c -0.02688,0.02688 -6.4e-5,0.09729 0.0596,0.156489 0.08617,0.0856 0.09617,0.07552 0.04888,-0.0488 -0.0328,-0.08608 -0.08154,-0.134567 -0.10847,-0.107686 z m -3.881275,14.534944 c -0.175985,0 0.01024,0.22009 0.205364,0.2426 0.204691,0.0235 0.206019,0.0202 0.04192,-0.10912 -0.09318,-0.0734 -0.204475,-0.13344 -0.247302,-0.13344 z m 0.20938,-1.47673 c -0.03776,-0.13504 -0.128999,-0.21629 -0.25315,-0.22546 -0.249126,-0.0184 -0.245213,0.01 0.06776,0.48023 0.227236,0.34184 0.260022,0.36447 0.252773,0.17456 -0.004,-0.12 -0.03488,-0.31321 -0.06728,-0.42933 z M 45.170914,86.312785 c -0.3036,-0.221956 -0.258134,-0.05984 0.05184,0.185042 0.141208,0.111518 0.235565,0.15088 0.209667,0.08737 -0.02584,-0.06352 -0.143592,-0.186074 -0.261566,-0.272327 z M 44.939837,103.8433 c -0.0392,-0.0459 -0.07072,0.021 -0.07072,0.1496 0,0.14304 0.06696,0.26845 0.173945,0.32569 0.163529,0.0875 0.167769,0.0786 0.07072,-0.1496 -0.0568,-0.13345 -0.135055,-0.28008 -0.173945,-0.32569 z m 0.0624,-1.54108 c -0.14232,-0.006 -0.14296,0.13777 -8e-4,0.31828 0.128919,0.16445 0.133159,0.16168 0.110294,-0.0717 -0.01312,-0.13344 -0.06208,-0.24447 -0.108902,-0.24656 z m -0.26403,-16.399961 c -0.07296,-0.06064 -0.130936,-0.07008 -0.130936,-0.02128 0,0.048 0.05896,0.136167 0.130936,0.195946 0.07296,0.06064 0.130927,0.07008 0.130927,0.02128 0,-0.048 -0.05896,-0.136167 -0.130927,-0.195946 z m -0.404662,16.892901 c -0.05936,-0.0646 -0.05472,0.51537 0.0093,1.15805 8e-4,0.0144 0.04208,0.003 0.0901,-0.027 0.101437,-0.0627 0.01896,-1.00227 -0.09929,-1.13098 z m -0.048,-1.33571 c -0.02184,0.0835 -0.02272,0.24057 -0.0024,0.34914 0.02096,0.10849 0.0388,0.0403 0.03968,-0.15168 8e-4,-0.19202 -0.01608,-0.28085 -0.03792,-0.19741 z m -0.274559,-5.851455 c -0.03208,-0.638579 -0.02928,-1.189913 0.0064,-1.225195 0.03536,-0.0352 0.03288,-0.325658 -0.0048,-0.645251 -0.03848,-0.319585 -0.03968,-0.562391 -0.0032,-0.539573 0.08175,0.05056 0.0396,-0.50766 -0.0492,-0.651252 -0.03488,-0.05632 -0.03416,-0.229188 0.0024,-0.384021 0.132008,-0.572319 0.111318,-0.660308 -0.120654,-0.513116 -0.106758,0.06768 -0.113286,0.272567 -0.09639,3.024629 5.92e-4,0.096 -8.01e-4,1.056881 -0.004,2.13526 -0.004,1.651938 0.01584,1.972187 0.125655,2.033655 0.07176,0.04016 0.130991,0.139847 0.131727,0.221404 7.36e-4,0.0816 0.0428,0.207315 0.09351,0.279327 0.09134,0.129767 0.07456,-0.649931 -0.08021,-3.735867 z m -0.05312,-6.314872 c -0.0264,-0.799347 -0.0871,-1.54562 -0.134943,-1.658394 -0.0608,-0.14352 -0.07488,0.174842 -0.04656,1.060586 0.02216,0.696094 0.05368,1.363802 0.07008,1.483824 0.0164,0.119999 -0.0032,0.286936 -0.04416,0.370949 -0.04424,0.09137 -0.03992,0.152808 0.01104,0.152808 0.04672,0 0.0868,0.0688 0.08917,0.1528 0.0093,0.330058 0.03848,0.448873 0.100718,0.410359 0.03576,-0.02208 0.05104,-0.148 0.03392,-0.279824 -0.01712,-0.131847 -0.0528,-0.89364 -0.07928,-1.69298 z m -0.106628,13.345667 c -0.02424,0.06 -0.02424,0.15824 0,0.21821 0.02424,0.06 0.044,0.0112 0.044,-0.10912 0,-0.12 -0.01976,-0.16911 -0.044,-0.10912 z m -0.821636,2.56079 c -0.180482,0.21166 -0.31549,0.3975 -0.300009,0.413 0.05888,0.0589 0.651612,-0.38318 0.681253,-0.50804 0.07168,-0.30191 -0.0736,-0.2657 -0.381244,0.095 z m 0.346514,-1.75341 c -0.04288,0 -0.078,0.0494 -0.078,0.10992 0,0.0605 -0.07744,0.15825 -0.172129,0.21743 -0.09464,0.059 -0.151328,0.1617 -0.125911,0.22794 0.02544,0.0662 -0.01776,0.18444 -0.09598,0.26263 -0.08268,0.0827 -0.100214,0.14224 -0.04192,0.14224 0.183858,0 0.568047,-0.47689 0.58012,-0.72009 0.0064,-0.13201 -0.0232,-0.24002 -0.06616,-0.24002 z M 55.256227,85.858632 c -0.048,-0.02976 -0.08732,-0.0712 -0.08732,-0.09249 0,-0.02112 0.03928,-0.0384 0.08732,-0.0384 0.048,0 0.08731,0.0416 0.08731,0.09248 0,0.05088 -0.03928,0.06816 -0.08731,0.0384 z m -9.077502,-0.305616 c -0.048,0 -0.08732,-0.0416 -0.08732,-0.09249 0,-0.05088 0.03928,-0.06816 0.08732,-0.0384 0.048,0.02976 0.08732,0.0712 0.08732,0.09248 0,0.02112 -0.03928,0.0384 -0.08732,0.0384 z"
         style="display:inline;fill:#0f0e47;fill-opacity:1;stroke-width:1.0309"
         id="M-2" />
      <path
         d="m 67.821671,106.32296 c -0.0314,0.0193 -0.84245,0.0318 -1.80248,0.0275 -0.96004,-0.004 -2.05926,0.0193 -2.44272,0.0524 l -0.69721,0.0601 0.19095,-0.25827 c 0.17227,-0.23301 0.23491,-0.25828 0.64006,-0.25828 0.67717,0 0.72894,-0.0524 0.84178,-0.85136 0.0538,-0.38149 0.1388,-0.97548 0.18872,-1.31997 0.0979,-0.6762 0.18259,-5.65228 0.10268,-6.03938 -0.0473,-0.22961 -0.0599,-0.23447 -0.52241,-0.20299 -0.26062,0.0178 -0.51073,0.055 -0.55581,0.083 -0.0451,0.0279 -0.30764,0.0762 -0.58348,0.10739 -0.40536,0.0459 -0.52269,0.0313 -0.6119,-0.0762 -0.14921,-0.17979 -0.0617,-0.36904 0.2009,-0.43497 0.25258,-0.0634 0.3841,0.0235 0.20605,0.13607 -0.10304,0.0652 -0.0993,0.0779 0.0233,0.079 0.0804,7.1e-4 0.14614,-0.0426 0.14614,-0.0962 0,-0.0536 0.0248,-0.0727 0.0549,-0.0425 0.0302,0.0302 0.0969,0.0202 0.14806,-0.0223 0.0512,-0.0425 0.3741,-0.10309 0.71754,-0.13465 0.34345,-0.0316 0.65394,-0.0747 0.68998,-0.0958 0.036,-0.0211 0.0444,-0.22325 0.0185,-0.44921 -0.0381,-0.33332 -0.0229,-0.41084 0.0806,-0.41084 0.0867,0 0.12759,0.0821 0.12759,0.25603 0,0.48634 0.30313,0.74363 0.56619,0.48057 0.0754,-0.0754 0.14314,-0.0756 0.28812,-9.1e-4 0.10427,0.0537 0.48984,0.10743 0.85679,0.11941 0.52161,0.0171 0.67253,0.0497 0.69163,0.1499 0.0313,0.16422 -0.62126,0.34926 -0.97924,0.27767 -0.21776,-0.0436 -0.25432,-0.026 -0.25432,0.12167 0,0.0949 -0.0359,0.19475 -0.0799,0.2219 -0.0439,0.0271 -0.0587,0.10453 -0.0328,0.17195 0.0258,0.0675 0.0136,0.1226 -0.0271,0.1226 -0.19119,0 -0.29741,0.77087 -0.24496,1.77789 0.0292,0.56088 0.0569,1.09495 0.0617,1.18681 0.005,0.0918 0.0658,0.48646 0.13571,0.87689 0.0699,0.39042 0.136,0.82392 0.14676,0.96335 0.0108,0.13941 0.0418,0.36489 0.0691,0.50107 0.0272,0.13617 0.0715,0.48298 0.0984,0.77069 0.10294,1.10182 0.37556,1.6553 0.85381,1.73347 0.67327,0.11003 0.74529,0.13478 0.74529,0.25607 0,0.0689 -0.0257,0.1412 -0.0569,0.16057 z m -1.67805,-1.02384 c -0.083,-0.22163 -0.12246,-0.23379 -0.18981,-0.0583 -0.0337,0.0881 -0.0166,0.10968 0.0537,0.0675 0.0729,-0.0438 0.0707,-0.0217 -0.007,0.0746 -0.14092,0.17387 -0.0956,0.52 0.0691,0.52712 0.27437,0.0118 0.28249,-0.0547 0.0745,-0.61089 z m -0.77935,-7.87107 c -0.16446,0 -0.21825,0.10867 -0.12597,0.25452 0.0573,0.0907 0.077,0.0936 0.078,0.0119 7e-4,-0.0602 0.0389,-0.0861 0.0848,-0.0577 0.046,0.0284 0.0835,-0.007 0.0835,-0.0786 0,-0.0716 -0.0541,-0.1302 -0.12034,-0.1302 z m 2.41514,-0.20269 c -0.12984,-0.17162 -0.10921,-0.26752 0.038,-0.17655 0.049,0.0303 0.0879,0.11859 0.0864,0.19627 -0.002,0.12398 -0.0176,0.12158 -0.1244,-0.0197 z m -0.34292,-5.31574 c -0.0544,0.004 -0.0843,0.12114 -0.0709,0.27801 0.0128,0.14927 -1.2e-4,0.30899 -0.0287,0.35492 -0.0286,0.046 -0.0611,0.1211 -0.0722,0.16702 -0.19027,0.78785 -0.71439,1.58852 -1.20637,1.84293 -0.40148,0.20761 -0.8865,0.1794 -1.47318,-0.0857 -0.52367,-0.23661 -1.02058,-0.74378 -1.02185,-1.04294 -3.1e-4,-0.0713 -0.0753,-0.24244 -0.16648,-0.38024 -0.0917,-0.13848 -0.16616,-0.39182 -0.16647,-0.56639 -0.002,-0.99329 0.94055,-1.83294 2.2177,-1.97617 0.61777,-0.0692 0.65724,-0.0629 1.11106,0.17953 0.5958,0.31829 0.86346,0.61766 0.82287,0.92039 -0.0168,0.12519 0.01,0.24437 0.0591,0.26483 0.0606,0.0252 0.0591,0.0394 -0.005,0.0438 z m -0.79221,1.14981 c -0.47547,0.55604 -0.81415,0.86108 -0.95605,0.86108 -0.0661,0 -0.12012,0.0376 -0.12012,0.0836 0,0.13026 0.44314,0.098 0.65064,-0.0473 0.1027,-0.0719 0.26644,-0.28802 0.36385,-0.4802 0.0975,-0.19218 0.20402,-0.3682 0.2369,-0.39117 0.0615,-0.0429 0.15007,-0.24008 0.16173,-0.36 0.004,-0.0373 -0.14799,0.11307 -0.33695,0.33405 z m -0.16271,-0.9762 c -0.0431,0 -0.0783,0.049 -0.0783,0.10905 0,0.06 -0.14609,0.33244 -0.32464,0.60547 -0.32517,0.49724 -0.3232,0.65599 0.006,0.43778 0.27079,-0.1798 0.60628,-1.1523 0.39752,-1.1523 z m -0.87596,-0.0836 c -0.0511,0 -0.29006,0.54139 -0.28454,0.64454 0.004,0.0763 0.32187,-0.48907 0.32705,-0.5819 0.002,-0.0344 -0.0172,-0.0626 -0.0425,-0.0626 z m -0.28804,-1.08567 c -0.0928,0 -0.16702,0.0556 -0.16702,0.12527 0,0.15262 0.0535,0.15795 0.20913,0.0209 0.15628,-0.13759 0.15381,-0.14615 -0.0421,-0.14615 z m -0.34293,0.80131 c -0.0968,0.0875 -0.24165,0.29063 -0.322,0.45139 -0.1681,0.33635 -0.28624,0.86509 -0.1784,0.79844 0.0401,-0.0248 0.096,-0.16754 0.1243,-0.31732 0.0283,-0.14979 0.16396,-0.44145 0.3014,-0.64815 0.29643,-0.44579 0.3099,-0.49707 0.0747,-0.28436 z m -0.38786,1.89195 c -0.29176,-0.13769 -0.34412,-0.13182 -0.31952,0.0358 0.0114,0.0771 0.15389,0.18634 0.31682,0.24275 0.26409,0.0914 0.2923,0.0876 0.26003,-0.0358 -0.0199,-0.0762 -0.1357,-0.18536 -0.25733,-0.24276 z m -0.14183,-0.46698 c -0.0809,-0.0311 -0.10562,-0.006 -0.0746,0.0746 0.0255,0.0667 -9.9e-4,0.12102 -0.06,0.12102 -0.0585,0 -0.0867,0.0196 -0.0626,0.0437 0.0589,0.0589 0.31817,-0.0448 0.31817,-0.12724 0,-0.0361 -0.0545,-0.0865 -0.12102,-0.11208 z m -0.0789,-1.92583 c -0.12073,0.0464 -0.38468,0.43816 -0.38468,0.57106 0,0.0246 0.12853,-0.0956 0.28562,-0.26698 0.30418,-0.33192 0.32312,-0.39006 0.0991,-0.30408 z m -0.13414,1.11927 c -0.046,0 -0.0835,0.0166 -0.0835,0.0368 0,0.0202 0.0376,0.0601 0.0835,0.0885 0.046,0.0284 0.0836,0.0118 0.0836,-0.0368 0,-0.0486 -0.0376,-0.0885 -0.0836,-0.0885 z m -0.49517,-0.45514 c -0.0427,0.0436 -0.0994,0.19207 -0.12601,0.32987 -0.0453,0.23447 -0.0407,0.2318 0.0712,-0.0417 0.14714,-0.35938 0.1526,-0.38813 0.0547,-0.28811 z"
         style="display:inline;fill:#0f0e47;fill-opacity:1;stroke-width:0.986371"
         id="i-6" />
      <path
         d="m 76.285723,106.42614 c -0.0875,0.0298 -0.41679,0.0445 -0.73178,0.0328 -0.31499,-0.0117 -0.74194,-0.0242 -0.94877,-0.0279 -0.27607,-0.005 -0.38311,-0.0319 -0.40256,-0.10204 -0.0196,-0.0707 -0.0119,-0.0749 0.0299,-0.0158 0.0977,0.13806 0.24222,-0.63545 0.21397,-1.14554 -0.004,-0.0613 -0.0379,-0.11137 -0.0766,-0.11137 -0.0387,0 -0.0528,0.046 -0.0312,0.10227 0.0216,0.0562 0.0132,0.20658 -0.0186,0.33408 -0.0319,0.12749 -0.0748,0.30713 -0.0954,0.3992 -0.0218,0.0973 -0.0935,0.18203 -0.17118,0.20234 -0.10135,0.0265 -0.12356,0.0668 -0.0919,0.16669 0.0331,0.10422 0.0143,0.13173 -0.0897,0.13173 -0.0904,0 -0.13156,-0.041 -0.13156,-0.13102 0,-0.0721 0.0215,-0.11804 0.0477,-0.10218 0.0262,0.0159 0.0527,-0.10784 0.0588,-0.2749 0.006,-0.16706 0.0571,-0.48736 0.11334,-0.71178 0.0563,-0.22441 0.11127,-0.66721 0.1222,-0.98397 0.0109,-0.31676 0.0364,-0.60267 0.0566,-0.63535 0.0769,-0.12435 0.11001,-2.0061 0.0402,-2.28322 -0.0632,-0.2509 -0.34745,-0.60341 -0.53427,-0.66252 -0.035,-0.011 -0.19653,-0.0725 -0.35895,-0.13653 -0.16242,-0.064 -0.31276,-0.099 -0.33408,-0.0776 -0.0213,0.0213 -0.0388,0.008 -0.0388,-0.0295 0,-0.11204 -0.51839,-0.0171 -0.7636,0.13993 -0.27164,0.17388 -0.4559,0.33061 -0.99425,0.84564 -0.22863,0.21874 -0.46356,0.39997 -0.52206,0.40274 -0.0596,0.003 -0.0731,0.0186 -0.0307,0.0358 0.0462,0.0188 -0.0224,0.13178 -0.17596,0.28999 -0.13835,0.14257 -0.2726,0.33406 -0.29831,0.42554 -0.0257,0.0915 -0.0459,0.82494 -0.0447,1.6299 0.002,1.22514 0.0193,1.50246 0.10811,1.70221 0.0997,0.22432 0.12311,0.23863 0.39047,0.23863 0.36631,0 0.4857,0.0486 0.4857,0.1977 0,0.0997 -0.0521,0.12242 -0.30226,0.1318 -0.16624,0.006 -0.35953,0.008 -0.42953,0.004 -0.07,-0.005 -0.49952,-0.0263 -0.95451,-0.0491 -0.45497,-0.0228 -0.89882,-0.0459 -0.98632,-0.0514 -0.29017,-0.0183 -0.18464,-0.19293 0.15909,-0.26333 0.33916,-0.0694 0.76819,-0.27238 0.70643,-0.33413 -0.0204,-0.0204 -0.0104,-0.0694 0.0221,-0.10864 0.0326,-0.0393 0.0743,-0.15443 0.0927,-0.25581 0.0184,-0.1014 0.0627,-0.32959 0.0984,-0.50709 0.0357,-0.17752 0.0725,-0.59898 0.0817,-0.9366 0.009,-0.33762 0.034,-0.60338 0.0552,-0.59059 0.11865,0.0718 0.15869,-2.30437 0.0565,-3.354542 -0.0946,-0.972212 -0.11081,-1.086182 -0.29322,-2.058932 -0.0919,-0.48998 -0.17354,-0.9796 -0.18149,-1.08803 -0.008,-0.10843 -0.0348,-0.23013 -0.0598,-0.27044 -0.0856,-0.13852 0.18264,-0.0735 0.32755,0.0794 0.16902,0.17832 0.52804,0.84175 0.48099,0.88882 -0.018,0.018 0.0399,0.27071 0.12881,0.56151 0.32506,1.06351 0.43636,1.48102 0.4611,1.72975 0.0139,0.139772 0.0498,0.278724 0.0799,0.308774 0.0304,0.0304 0.18561,-0.0987 0.35016,-0.291314 0.3,-0.35114 0.79197,-0.71344 1.17808,-0.86755 0.18002,-0.0718 0.2214,-0.0711 0.26946,0.005 0.0458,0.0725 0.057,0.0683 0.0578,-0.0216 7.5e-4,-0.13106 0.0692,-0.14255 0.18848,-0.0318 0.0525,0.0488 0.0699,0.0513 0.0447,0.006 -0.0298,-0.0531 0.13412,-0.0721 0.59717,-0.0694 l 0.63814,0.004 0.27076,0.26037 c 0.37688,0.36241 0.60281,0.72209 0.65318,1.039884 0.0236,0.14874 0.0702,0.27044 0.10366,0.27044 0.0335,0 0.0487,0.0358 0.034,0.0795 -0.0148,0.0438 0.0104,0.16897 0.0559,0.27827 0.0455,0.1093 0.0654,0.21599 0.0443,0.23709 -0.0211,0.0211 -0.008,0.0749 0.0286,0.11944 0.058,0.0703 0.0609,0.44777 0.0141,1.89465 -0.006,0.17968 -0.13296,1.24054 -0.19069,1.59083 -0.13227,0.80271 -0.13151,0.84827 0.0185,1.11239 0.16945,0.29838 0.36459,0.41198 0.71387,0.41555 0.13999,0.002 0.36907,0.0545 0.50907,0.11793 0.2503,0.1134 0.25189,0.11622 0.0954,0.16936 z m -1.46733,-0.35165 c -0.0329,0 -0.0599,0.0286 -0.0599,0.0637 0,0.035 0.0446,0.0637 0.0992,0.0637 0.0546,0 0.0815,-0.0286 0.0599,-0.0637 -0.0217,-0.035 -0.0663,-0.0637 -0.0992,-0.0637 z m -0.001,-3.99656 c -0.0399,-0.29068 -0.0894,-0.51157 -0.11012,-0.49088 -0.0438,0.0438 -0.0333,2.5782 0.0109,2.62238 0.0163,0.0163 0.0483,-0.16585 0.0709,-0.40485 0.0227,-0.23899 0.0475,-0.47748 0.0552,-0.52998 0.0461,-0.31587 0.0367,-0.73353 -0.0268,-1.19667 z m -0.29505,-2.239552 c -0.0557,-0.157502 -0.15371,-0.354152 -0.21779,-0.437012 -0.064,-0.0829 -0.098,-0.18308 -0.0753,-0.22271 0.0226,-0.0396 0.0192,-0.0523 -0.008,-0.0281 -0.0268,0.0242 -0.12365,-0.0254 -0.21505,-0.11014 -0.0989,-0.0917 -0.18946,-0.13083 -0.22363,-0.0967 -0.0316,0.0316 -0.10407,0.0408 -0.16105,0.0204 -0.0717,-0.0256 -0.0574,0.0137 0.0464,0.12764 0.0825,0.0906 0.18843,0.14992 0.23544,0.13188 0.0543,-0.0208 0.12256,0.0563 0.18707,0.2114 0.0558,0.13432 0.17901,0.35582 0.27364,0.492222 0.0946,0.136412 0.20613,0.351172 0.24779,0.477262 l 0.0757,0.22924 -0.0321,-0.25453 c -0.0177,-0.14 -0.0777,-0.383402 -0.13339,-0.540892 z m -0.0768,2.574292 c -0.0236,0.0146 -0.0502,0.14933 -0.059,0.29941 -0.009,0.15009 -0.0503,0.29466 -0.0922,0.32128 -0.0583,0.037 -0.0577,0.0486 0.002,0.0494 0.0541,6.7e-4 0.0764,0.11523 0.0713,0.36686 -0.0107,0.53179 0.024,0.61476 0.0731,0.175 0.0561,-0.50192 0.0586,-1.24554 0.005,-1.21193 z m -0.0683,1.91189 c -0.076,0.17679 -0.076,0.30148 0,0.25453 0.035,-0.0216 0.0616,-0.11638 0.0591,-0.21056 -0.004,-0.1529 -0.0103,-0.15761 -0.0591,-0.044 z m -0.0828,-3.97711 c -0.0592,-0.14605 -0.0668,-0.14866 -0.0931,-0.0318 -0.0158,0.07 -0.0547,0.15943 -0.0865,0.19875 -0.0649,0.0801 -0.01,0.26722 0.11575,0.39441 0.0457,0.0462 0.0835,0.13215 0.0841,0.1909 7.5e-4,0.0854 0.0121,0.0893 0.0565,0.0192 0.0631,-0.0995 0.0199,-0.53323 -0.0766,-0.77141 z m -0.299,-0.413622 c -0.035,-0.0216 -0.0637,-0.0107 -0.0637,0.0243 0,0.035 0.0286,0.0813 0.0637,0.102972 0.035,0.0216 0.0637,0.0107 0.0637,-0.0243 0,-0.035 -0.0286,-0.0813 -0.0637,-0.102962 z m -0.41619,-0.557452 c -0.12802,-0.13806 -0.21874,-0.17433 -0.43594,-0.17433 -0.30354,0 -0.67508,0.1082 -0.67508,0.1966 0,0.0313 0.11449,0.0111 0.25441,-0.0449 0.29334,-0.11737 0.42676,-0.0864 0.50186,0.11665 0.0409,0.11052 0.10696,0.146 0.28482,0.15293 0.27487,0.0107 0.28281,-0.0174 0.0699,-0.24695 z m -0.35994,0.529232 c -0.0595,-0.0953 -0.10234,-0.107922 -0.19617,-0.0577 -0.11423,0.0611 -0.11469,0.0701 -0.009,0.186442 0.20617,0.22782 0.36585,0.12784 0.20561,-0.128732 z m -0.87055,-0.194502 c -0.0307,0 -0.0896,0.0407 -0.13091,0.0905 -0.0616,0.0742 -0.0516,0.0843 0.0558,0.0562 0.12791,-0.0334 0.18585,-0.146662 0.0751,-0.146662 z m -0.86685,0.509074 c -0.0875,0.0822 -0.15909,0.17809 -0.15909,0.21309 0,0.035 0.0716,-0.004 0.15909,-0.0858 0.0875,-0.0822 0.15909,-0.17808 0.15909,-0.21309 0,-0.035 -0.0716,0.004 -0.15909,0.0858 z m -0.19531,-0.243332 c -0.0964,0.0813 -0.23509,0.217322 -0.30817,0.302192 -0.073,0.0849 -0.26887,0.30709 -0.43512,0.49383 -0.24844,0.27908 -0.38144,0.52909 -0.28147,0.52909 0.0114,0 0.141,-0.16466 0.28792,-0.3659 0.14694,-0.20124 0.42308,-0.52185 0.61367,-0.71247 0.3576,-0.357662 0.4325,-0.507704 0.12317,-0.246742 z m -0.55843,1.197842 c -0.0121,0 -0.0765,0.0644 -0.14318,0.14317 l -0.12122,0.14318 0.14317,-0.12122 c 0.13456,-0.11392 0.17215,-0.16513 0.12123,-0.16513 z m -0.32803,-1.10479 c -0.0767,-0.0295 -0.0951,0.0224 -0.0935,0.26364 0.002,0.24344 0.0147,0.27821 0.0697,0.18372 0.0373,-0.0641 0.0534,-0.17149 0.0358,-0.23863 -0.0176,-0.0671 -0.006,-0.12208 0.0258,-0.12208 0.0885,0 0.0685,-0.0458 -0.0378,-0.0867 z m -0.31669,-0.634564 c -0.0542,-0.0542 -0.0714,-0.11432 -0.0385,-0.13465 0.0349,-0.0215 0.0374,-0.11339 0.006,-0.22199 -0.0292,-0.10188 -0.0343,-0.20631 -0.0112,-0.23205 0.0231,-0.0258 0.005,-0.0255 -0.0402,5.4e-4 -0.061,0.0352 -0.0723,0.008 -0.0439,-0.10471 0.0227,-0.0904 -0.0159,-0.27952 -0.0951,-0.46667 l -0.1333,-0.31462 0.0359,0.34998 c 0.0198,0.19249 0.0495,0.53097 0.0661,0.75219 0.0165,0.22121 0.0562,0.45081 0.0879,0.51021 0.0318,0.0594 0.0806,0.350902 0.10852,0.647764 0.04,0.42578 0.0586,0.49271 0.0883,0.31702 0.0835,-0.4946 0.0693,-1.002974 -0.0307,-1.103014 z"
         style="display:inline;fill:#0f0e47;fill-opacity:1;stroke-width:0.75158"
         id="n-5" />
      <path
         d="m 81.643296,106.32296 c -0.0314,0.0193 -0.84245,0.0318 -1.80248,0.0275 -0.96004,-0.004 -2.05926,0.0193 -2.44272,0.0524 l -0.69721,0.0601 0.19095,-0.25827 c 0.17227,-0.23301 0.23491,-0.25828 0.64006,-0.25828 0.67717,0 0.72894,-0.0524 0.84178,-0.85136 0.0538,-0.38149 0.1388,-0.97548 0.18872,-1.31997 0.0979,-0.6762 0.18259,-5.65228 0.10268,-6.03938 -0.0473,-0.22961 -0.0599,-0.23447 -0.52241,-0.20299 -0.26062,0.0178 -0.51073,0.055 -0.55581,0.083 -0.0451,0.0279 -0.30764,0.0762 -0.58348,0.10739 -0.40536,0.0459 -0.52269,0.0313 -0.6119,-0.0762 -0.14921,-0.17979 -0.0617,-0.36904 0.2009,-0.43497 0.25258,-0.0634 0.3841,0.0235 0.20605,0.13607 -0.10304,0.0652 -0.0993,0.0779 0.0233,0.079 0.0804,7.1e-4 0.14614,-0.0426 0.14614,-0.0962 0,-0.0536 0.0248,-0.0727 0.0549,-0.0425 0.0302,0.0302 0.0969,0.0202 0.14806,-0.0223 0.0512,-0.0425 0.3741,-0.10309 0.71754,-0.13465 0.34345,-0.0316 0.65394,-0.0747 0.68998,-0.0958 0.036,-0.0211 0.0444,-0.22325 0.0185,-0.44921 -0.0381,-0.33332 -0.0229,-0.41084 0.0806,-0.41084 0.0867,0 0.12759,0.0821 0.12759,0.25603 0,0.48634 0.30313,0.74363 0.56619,0.48057 0.0754,-0.0754 0.14314,-0.0756 0.28812,-9.1e-4 0.10427,0.0537 0.48984,0.10743 0.85679,0.11941 0.52161,0.0171 0.67253,0.0497 0.69163,0.1499 0.0313,0.16422 -0.62126,0.34926 -0.97924,0.27767 -0.21776,-0.0436 -0.25432,-0.026 -0.25432,0.12167 0,0.0949 -0.0359,0.19475 -0.0799,0.2219 -0.0439,0.0271 -0.0587,0.10453 -0.0328,0.17195 0.0258,0.0675 0.0136,0.1226 -0.0271,0.1226 -0.19119,0 -0.29741,0.77087 -0.24496,1.77789 0.0292,0.56088 0.0569,1.09495 0.0617,1.18681 0.005,0.0918 0.0658,0.48646 0.13571,0.87689 0.0699,0.39042 0.136,0.82392 0.14676,0.96335 0.0108,0.13941 0.0418,0.36489 0.0691,0.50107 0.0272,0.13617 0.0715,0.48298 0.0984,0.77069 0.10294,1.10182 0.37556,1.6553 0.85381,1.73347 0.67327,0.11003 0.74529,0.13478 0.74529,0.25607 0,0.0689 -0.0257,0.1412 -0.0569,0.16057 z m -1.67805,-1.02384 c -0.083,-0.22163 -0.12246,-0.23379 -0.18981,-0.0583 -0.0337,0.0881 -0.0166,0.10968 0.0537,0.0675 0.0729,-0.0438 0.0707,-0.0217 -0.007,0.0746 -0.14092,0.17387 -0.0956,0.52 0.0691,0.52712 0.27437,0.0118 0.28249,-0.0547 0.0745,-0.61089 z m -0.77935,-7.87107 c -0.16446,0 -0.21825,0.10867 -0.12597,0.25452 0.0573,0.0907 0.077,0.0936 0.078,0.0119 7e-4,-0.0602 0.0389,-0.0861 0.0848,-0.0577 0.046,0.0284 0.0835,-0.007 0.0835,-0.0786 0,-0.0716 -0.0541,-0.1302 -0.12034,-0.1302 z m 2.41514,-0.20269 c -0.12984,-0.17162 -0.10921,-0.26752 0.038,-0.17655 0.049,0.0303 0.0879,0.11859 0.0864,0.19627 -0.002,0.12398 -0.0176,0.12158 -0.1244,-0.0197 z m -0.34292,-5.31574 c -0.0544,0.004 -0.0843,0.12114 -0.0709,0.27801 0.0128,0.14927 -1.2e-4,0.30899 -0.0287,0.35492 -0.0286,0.046 -0.0611,0.1211 -0.0722,0.16702 -0.19027,0.78785 -0.71439,1.58852 -1.20637,1.84293 -0.40148,0.20761 -0.8865,0.1794 -1.47318,-0.0857 -0.52367,-0.23661 -1.02058,-0.74378 -1.02185,-1.04294 -3.1e-4,-0.0713 -0.0753,-0.24244 -0.16648,-0.38024 -0.0917,-0.13848 -0.16616,-0.39182 -0.16647,-0.56639 -0.002,-0.99329 0.94055,-1.83294 2.2177,-1.97617 0.61777,-0.0692 0.65724,-0.0629 1.11106,0.17953 0.5958,0.31829 0.86346,0.61766 0.82287,0.92039 -0.0168,0.12519 0.01,0.24437 0.0591,0.26483 0.0606,0.0252 0.0591,0.0394 -0.005,0.0438 z m -0.79221,1.14981 c -0.47547,0.55604 -0.81415,0.86108 -0.95605,0.86108 -0.0661,0 -0.12012,0.0376 -0.12012,0.0836 0,0.13026 0.44314,0.098 0.65064,-0.0473 0.1027,-0.0719 0.26644,-0.28802 0.36385,-0.4802 0.0975,-0.19218 0.20402,-0.3682 0.2369,-0.39117 0.0615,-0.0429 0.15007,-0.24008 0.16173,-0.36 0.004,-0.0373 -0.14799,0.11307 -0.33695,0.33405 z m -0.16271,-0.9762 c -0.0431,0 -0.0783,0.049 -0.0783,0.10905 0,0.06 -0.14609,0.33244 -0.32464,0.60547 -0.32517,0.49724 -0.3232,0.65599 0.006,0.43778 0.27079,-0.1798 0.60628,-1.1523 0.39752,-1.1523 z m -0.87596,-0.0836 c -0.0511,0 -0.29006,0.54139 -0.28454,0.64454 0.004,0.0763 0.32187,-0.48907 0.32705,-0.5819 0.002,-0.0344 -0.0172,-0.0626 -0.0425,-0.0626 z m -0.28804,-1.08567 c -0.0928,0 -0.16702,0.0556 -0.16702,0.12527 0,0.15262 0.0535,0.15795 0.20913,0.0209 0.15628,-0.13759 0.15381,-0.14615 -0.0421,-0.14615 z m -0.34293,0.80131 c -0.0968,0.0875 -0.24165,0.29063 -0.322,0.45139 -0.1681,0.33635 -0.28624,0.86509 -0.1784,0.79844 0.0401,-0.0248 0.096,-0.16754 0.1243,-0.31732 0.0283,-0.14979 0.16396,-0.44145 0.3014,-0.64815 0.29643,-0.44579 0.3099,-0.49707 0.0747,-0.28436 z m -0.38786,1.89195 c -0.29176,-0.13769 -0.34412,-0.13182 -0.31952,0.0358 0.0114,0.0771 0.15389,0.18634 0.31682,0.24275 0.26409,0.0914 0.2923,0.0876 0.26003,-0.0358 -0.0199,-0.0762 -0.1357,-0.18536 -0.25733,-0.24276 z m -0.14183,-0.46698 c -0.0809,-0.0311 -0.10562,-0.006 -0.0746,0.0746 0.0255,0.0667 -9.9e-4,0.12102 -0.06,0.12102 -0.0585,0 -0.0867,0.0196 -0.0626,0.0437 0.0589,0.0589 0.31817,-0.0448 0.31817,-0.12724 0,-0.0361 -0.0545,-0.0865 -0.12102,-0.11208 z m -0.0789,-1.92583 c -0.12073,0.0464 -0.38468,0.43816 -0.38468,0.57106 0,0.0246 0.12853,-0.0956 0.28562,-0.26698 0.30418,-0.33192 0.32312,-0.39006 0.0991,-0.30408 z m -0.13414,1.11927 c -0.046,0 -0.0835,0.0166 -0.0835,0.0368 0,0.0202 0.0376,0.0601 0.0835,0.0885 0.046,0.0284 0.0836,0.0118 0.0836,-0.0368 0,-0.0486 -0.0376,-0.0885 -0.0836,-0.0885 z m -0.49517,-0.45514 c -0.0427,0.0436 -0.0994,0.19207 -0.12601,0.32987 -0.0453,0.23447 -0.0407,0.2318 0.0712,-0.0417 0.14714,-0.35938 0.1526,-0.38813 0.0547,-0.28811 z"
         style="display:inline;fill:#0f0e47;fill-opacity:1;stroke-width:0.986371"
         id="path17" />
      <path
         d="m 90.463381,105.97428 c -0.0269,0.002 -0.19616,0.0176 -0.37597,0.034 -0.17981,0.0164 -0.48876,0.0375 -0.68656,0.047 -0.1978,0.009 -0.41177,0.0417 -0.4755,0.0717 -0.0637,0.03 -0.41681,0.0415 -0.78464,0.0256 -0.61815,-0.0267 -1.21394,0.0307 -2.13998,0.20607 -0.50144,0.095 -0.93418,0.13079 -1.01053,0.0836 -0.0355,-0.0219 -0.18307,-0.0465 -0.32798,-0.0546 -0.1449,-0.008 -0.42529,-0.0588 -0.62309,-0.11282 -0.19779,-0.054 -0.56559,-0.13287 -0.81734,-0.17533 -0.66653,-0.11243 -0.75195,-0.13628 -0.75195,-0.20996 0,-0.0395 0.0827,-0.05 0.20414,-0.0256 0.17487,0.035 0.19265,0.027 0.12402,-0.0557 -0.0441,-0.0531 -0.2377,-0.17363 -0.43028,-0.26785 -0.23095,-0.11299 -0.3965,-0.24987 -0.4863,-0.40207 -0.0749,-0.12691 -0.15217,-0.21471 -0.17177,-0.19512 -0.0477,0.0477 0.17159,0.50395 0.2423,0.50395 0.0761,0 0.45251,0.37321 0.45251,0.44862 0,0.0806 -0.42855,-0.0176 -0.57399,-0.13156 -0.2756,-0.21594 -0.50358,-0.74263 -0.43976,-1.01596 0.0184,-0.0787 0.004,-0.16141 -0.0324,-0.18376 -0.0383,-0.0237 -0.0486,-0.15499 -0.0246,-0.3146 0.0477,-0.3168 0.40396,-1.28744 0.47257,-1.28744 0.0255,0 0.081,-0.0919 0.12337,-0.20417 0.0502,-0.13298 0.10932,-0.19181 0.16955,-0.16869 0.0564,0.0216 0.12728,-0.0327 0.18155,-0.13911 0.10757,-0.21082 0.5708,-0.69729 0.61853,-0.64956 0.0187,0.0187 0.12066,-0.0526 0.22653,-0.15848 0.10588,-0.10587 0.22226,-0.17411 0.25862,-0.15164 0.0364,0.0225 0.0661,0.0161 0.0661,-0.0143 0,-0.0816 0.38283,-0.2931 0.45258,-0.24998 0.033,0.0204 0.10438,-0.008 0.15866,-0.0616 0.0543,-0.0543 0.1758,-0.0987 0.27006,-0.0987 0.0943,0 0.2582,-0.0449 0.3643,-0.0998 0.1061,-0.0549 0.19292,-0.0858 0.19292,-0.0687 0,0.0171 0.10616,-0.0133 0.23591,-0.0675 0.12976,-0.0542 0.25236,-0.0821 0.27245,-0.0621 0.0201,0.0201 -0.005,0.0395 -0.0561,0.043 -0.051,0.004 -0.0191,0.0275 0.0708,0.0531 0.0899,0.0256 0.25174,0.0239 0.35963,-0.004 0.10789,-0.0277 0.27828,-0.0672 0.37865,-0.0877 0.10037,-0.0206 0.16483,-0.066 0.14326,-0.10082 -0.0215,-0.0349 -0.008,-0.0635 0.03,-0.0635 0.16844,0 0.0158,-1.92857 -0.16354,-2.06689 -0.0517,-0.0399 -0.0941,-0.10613 -0.0941,-0.14712 0,-0.041 -0.0241,-0.0745 -0.0536,-0.0745 -0.0295,0 -0.17077,-0.10028 -0.31396,-0.22284 -0.14318,-0.12256 -0.38387,-0.2561 -0.53486,-0.29676 -0.15099,-0.0406 -0.27453,-0.10582 -0.27453,-0.1448 0,-0.048 -0.0264,-0.0497 -0.0817,-0.005 -0.045,0.036 -0.15383,0.0876 -0.24196,0.11466 -0.20561,0.0633 -1.34382,0.83397 -1.62157,1.09807 -0.14838,0.14109 -0.21281,0.26232 -0.2135,0.40174 -6.8e-4,0.13441 -0.0191,0.17114 -0.0564,0.11236 -0.0304,-0.048 -0.0668,-0.0805 -0.0807,-0.0721 -0.014,0.008 -0.0842,-0.004 -0.1562,-0.0263 -0.23365,-0.0741 -0.29132,-0.35479 -0.32699,-1.59113 -0.0291,-1.00767 -0.0198,-1.18912 0.0629,-1.22081 0.13662,-0.0524 0.36716,0.49184 0.3533,0.83407 -0.006,0.1471 -0.006,0.41292 -7.7e-4,0.5907 l 0.01,0.32325 0.44136,-0.46113 c 0.58164,-0.60768 1.42984,-1.07855 1.93693,-1.07525 0.1844,0.002 0.43805,0.0327 0.56369,0.0701 0.12563,0.0373 0.36103,0.0684 0.52309,0.0689 0.20904,7.1e-4 0.26649,0.0188 0.1977,0.0623 -0.0751,0.0475 -0.0237,0.0932 0.22885,0.20322 0.17921,0.078 0.37732,0.18696 0.44026,0.24205 0.17493,0.15312 0.1361,0.004 -0.0517,-0.19867 -0.14653,-0.15802 -0.27499,-0.21274 -0.43872,-0.18689 -0.0269,0.005 -0.049,-0.0217 -0.049,-0.0576 0,-0.0841 0.2995,-0.0847 0.45616,-7.8e-4 0.15256,0.0816 0.41552,0.50137 0.36517,0.58285 -0.0208,0.0337 -7.4e-4,0.10046 0.0446,0.14831 0.0454,0.0479 0.15369,0.24148 0.24063,0.43029 0.0869,0.1888 0.18737,0.34328 0.22318,0.34328 0.0358,0 0.0457,0.0194 0.0221,0.043 -0.0236,0.0236 -0.0105,0.0822 0.0293,0.13018 0.0739,0.0891 0.099,0.73521 0.0376,0.97106 -0.0187,0.0719 -0.0911,0.33675 -0.16086,0.58848 -0.0697,0.25174 -0.11497,0.49179 -0.10047,0.53345 0.0145,0.0416 -0.005,0.0949 -0.0425,0.11829 -0.0378,0.0234 -0.0688,0.072 -0.0688,0.10793 0,0.036 0.0221,0.0517 0.049,0.0351 0.027,-0.0167 0.0575,0.19024 0.0678,0.45979 0.0116,0.30357 0.0572,0.54882 0.11984,0.64441 0.0597,0.0911 0.0834,0.2101 0.0579,0.29057 -0.11351,0.35763 -0.15612,1.14424 -0.0877,1.6197 0.0297,0.20654 0.07,0.49145 0.0894,0.63313 0.0631,0.45922 0.41842,0.88176 0.81539,0.96966 0.0899,0.0199 0.23703,0.0555 0.32694,0.0792 0.0899,0.0236 0.45675,0.041 0.8152,0.0386 0.35846,-0.002 0.70419,0.0123 0.7683,0.0326 0.11165,0.0354 0.16904,0.28527 0.0675,0.2939 z m -2.77031,-0.46188 c -0.036,0 -0.0472,0.0294 -0.0249,0.0654 0.0222,0.036 0.0698,0.0654 0.1058,0.0654 0.036,0 0.0472,-0.0294 0.025,-0.0654 -0.0222,-0.036 -0.0698,-0.0654 -0.10581,-0.0654 z m -0.49902,0.07 c -0.15698,0.004 -0.16321,0.0113 -0.049,0.0572 0.0719,0.029 0.15284,0.0399 0.17981,0.0242 0.0957,-0.0554 0.0466,-0.086 -0.13077,-0.0815 z m -0.0585,-7.12631 c -0.0128,-0.015 -0.0233,0.0642 -0.0233,0.17596 0,0.11176 0.029,0.22111 0.0644,0.243 0.0584,0.0361 0.0208,-0.34652 -0.0411,-0.41896 z m -0.0166,6.24334 c -0.0587,-0.14983 -0.11671,-0.0687 -0.10973,0.15339 0.003,0.0867 0.0417,0.17012 0.0867,0.18526 0.09,0.0303 0.10145,-0.13839 0.023,-0.33865 z m -0.11176,-0.88707 c -0.0141,0 -0.0222,0.12506 -0.018,0.2779 0.007,0.25498 0.0115,0.26172 0.0531,0.0817 0.0422,-0.18213 0.0248,-0.35963 -0.0352,-0.35963 z m 0.06,-0.83368 c -0.0165,0.0629 -0.0165,0.16592 0,0.22885 0.0165,0.0629 0.0299,0.0114 0.0299,-0.11442 0,-0.12587 -0.0134,-0.17736 -0.0299,-0.11443 z m -0.15109,-1.65101 c -0.069,-0.10688 -0.0952,0.0834 -0.0711,0.51848 0.0246,0.44432 0.13251,0.44805 0.13354,0.005 5.5e-4,-0.23375 -0.0276,-0.46915 -0.0624,-0.52309 z m -0.1574,-1.16 c -0.0259,-0.0259 -0.0379,0.0971 -0.0266,0.27341 0.0113,0.17632 0.0528,0.33117 0.0922,0.34413 0.0787,0.0259 0.0194,-0.53254 -0.0656,-0.61754 z m 0.0333,-2.07231 c -0.0374,-0.0954 -0.0624,-0.10563 -0.10185,-0.0417 -0.0307,0.0496 -0.018,0.10591 0.0303,0.13582 0.0473,0.0293 0.0691,0.12217 0.051,0.21732 -0.0175,0.0914 -0.007,0.20488 0.0227,0.25216 0.069,0.10892 0.0672,-0.38651 -0.002,-0.56357 z m -0.13277,3.98425 c -0.10707,-0.67407 -0.13439,-0.72181 -0.40518,-0.70801 -0.25008,0.0127 -1.34648,0.38886 -1.49572,0.51309 -0.054,0.0449 -0.34819,0.20029 -0.65386,0.34529 -0.30569,0.14501 -0.64407,0.33911 -0.75195,0.43133 -0.10789,0.0922 -0.22981,0.19591 -0.27093,0.23042 -0.0411,0.0345 -0.0878,0.0497 -0.10366,0.0338 -0.0883,-0.0883 -0.82342,0.88881 -0.78151,1.03876 0.008,0.0297 -0.012,0.0371 -0.0451,0.0168 -0.0331,-0.0205 -0.0776,0.008 -0.099,0.0639 -0.022,0.0572 -0.0111,0.084 0.0251,0.0616 0.0362,-0.0224 0.047,0.005 0.0251,0.0616 -0.0213,0.0556 -0.0725,0.0822 -0.11367,0.0592 -0.0453,-0.0253 -0.0425,-0.007 0.007,0.0462 0.045,0.0484 0.0817,0.13898 0.0817,0.20122 0,0.24834 0.28993,0.57053 0.64608,0.71796 l 0.35183,0.14565 0.49819,-0.13731 c 0.27401,-0.0755 0.66003,-0.18392 0.85783,-0.24087 0.1978,-0.057 0.74821,-0.16241 1.22314,-0.23434 0.47494,-0.0719 0.90756,-0.14767 0.96137,-0.16832 0.0673,-0.0259 0.1039,-0.15286 0.11729,-0.40771 0.0378,-0.7206 0.008,-1.55373 -0.074,-2.07023 z m -0.11935,-3.92841 c -0.0462,0.0462 0.0534,0.29944 0.11768,0.29944 0.0327,0 0.026,-0.0737 -0.0151,-0.16374 -0.041,-0.0901 -0.0872,-0.15113 -0.10265,-0.1357 z m 0.0858,7.36122 c -0.0158,0 -0.047,0.0294 -0.0693,0.0654 -0.0222,0.036 -0.009,0.0654 0.0288,0.0654 0.0381,0 0.0693,-0.0294 0.0693,-0.0654 0,-0.036 -0.013,-0.0654 -0.0288,-0.0654 z m -0.10195,-8.09279 c -0.12012,-0.075 -0.13077,-0.0653 -0.13077,0.11934 0,0.11056 0.036,0.26528 0.08,0.34384 0.0768,0.13714 0.0816,0.13373 0.12216,-0.086 0.0233,-0.12588 0.0461,-0.24385 0.0508,-0.26217 0.005,-0.0183 -0.0502,-0.0701 -0.12217,-0.11498 z m -0.60264,7.75387 c -0.047,0.0469 -0.0508,0.0774 -0.01,0.0774 0.0873,0 0.16461,-0.0773 0.12096,-0.12097 -0.0186,-0.0186 -0.0686,7.7e-4 -0.11115,0.0435 z m -0.36459,-0.15986 c -0.0285,0.0176 -0.16826,0.0483 -0.31059,0.0683 -0.5878,0.0825 -1.01071,0.20742 -1.01071,0.29864 0,0.0869 0.60984,-0.011 0.86377,-0.1386 0.13343,-0.067 0.30261,-0.12192 0.37597,-0.12192 0.0734,0 0.13338,-0.0311 0.13338,-0.0693 0,-0.0381 -0.0233,-0.0548 -0.0518,-0.0372 z m -0.50782,0.95649 c -0.0878,0 -0.15961,0.0275 -0.15961,0.061 0,0.0336 0.0872,0.0585 0.1939,0.0555 0.22996,-0.006 0.19759,-0.11652 -0.0343,-0.11652 z m -0.10399,-4.66852 c -0.0845,0.0288 -0.16841,0.0552 -0.1864,0.0588 -0.11109,0.0219 -0.36044,0.12268 -0.41999,0.16984 -0.63888,0.50598 -0.55643,0.55553 0.2546,0.15299 0.38955,-0.19335 0.60459,-0.3348 0.56665,-0.37275 -0.0342,-0.0342 -0.12888,-0.0381 -0.21486,-0.009 z m -0.53354,4.66952 c -0.24326,7.2e-4 -0.31164,0.0189 -0.24134,0.0644 0.13183,0.0852 0.67383,0.0852 0.62118,0 -0.0222,-0.036 -0.19316,-0.0649 -0.37984,-0.0644 z m -0.82001,-3.9896 c -0.20322,0 -1.05581,0.81641 -1.42865,1.36802 -0.20179,0.29853 -0.33885,0.70232 -0.21174,0.62375 0.0337,-0.0208 0.0613,-0.0776 0.0613,-0.12623 0,-0.0965 0.44369,-0.68678 0.71723,-0.95424 0.0943,-0.0922 0.33926,-0.29432 0.54442,-0.44922 0.33068,-0.24966 0.47661,-0.46208 0.31744,-0.46208 z m -0.29605,-4.38091 c -0.0136,0 -0.0651,0.0515 -0.11443,0.11442 -0.0813,0.10371 -0.079,0.10602 0.0247,0.0247 0.10892,-0.0854 0.14356,-0.13911 0.0897,-0.13911 z m -0.44047,0.87734 c -0.076,0.0967 -0.1221,0.19186 -0.10238,0.21158 0.0606,0.0605 0.23548,-0.13344 0.23812,-0.26406 0.002,-0.10341 -0.0198,-0.095 -0.13574,0.0525 z"
         style="display:inline;fill:#0f0e47;fill-opacity:1;stroke-width:0.772286"
         id="a-9" />
      <path
         d="m 95.276986,94.21757 c -0.0248,0.0248 -0.21228,-10e-4 -0.76922,-0.1084 -0.1515,-0.029 -0.40264,-0.002 -0.76069,0.0819 -0.29399,0.0689 -0.63778,0.12181 -0.74752,0.16432 -0.10973,0.0425 -0.59881,-0.0215 -0.92151,0.098 -0.0245,0.0397 -0.0523,1.36588 -0.11411,1.84882 -0.0974,0.76114 -0.005,3.25996 0.0632,3.71955 0.0679,0.45958 -0.004,0.55364 -0.0127,2.21466 -0.007,1.32487 -0.01,2.4624 -0.0803,3.16368 -0.04,0.39663 0.057,1.05683 -0.0481,1.05683 -0.16268,0 -0.65827,0.0332 -0.65827,-0.0562 0,-0.057 0.0511,-0.21875 0.0203,-0.3087 -0.0308,-0.0899 -0.0126,-0.24912 0.004,-0.35555 0.0168,-0.10643 -0.0309,-0.20147 0.0436,-0.57626 0.079,-0.39712 0.0846,-0.46126 0.0206,-0.52636 -0.042,-0.0428 -0.0615,-0.0909 -0.0486,-0.12288 0.0129,-0.0319 0.0246,-0.38257 0.0393,-0.8679 0.0137,-0.45035 -0.0827,-1.70869 0.004,-2.1072 0.0862,-0.39849 -0.007,-2.098 -0.10721,-3.59589 -0.0517,-0.5963 -0.0597,-1.12646 -0.02,-1.43105 0.0321,-0.24626 -0.0583,-1.28309 -0.0447,-1.80388 0.009,-0.35402 -0.78376,0.006 -1.33851,-0.3405 -0.23899,-0.14928 -0.35469,-0.0435 -0.65869,-0.0607 -0.21289,-0.0121 -0.43014,-0.0357 -0.46829,-0.006 -0.1053,0.0825 -0.2265,-0.0273 -0.26061,-0.0825 -0.0311,-0.0504 -0.0277,-0.4068 0.0102,-0.42283 0.0379,-0.016 0.18576,0.0414 0.32229,-0.0447 0.2611,-0.0755 0.3748,-0.0263 0.97292,-0.0637 0.78703,-0.0492 1.57807,-0.0997 1.54373,-0.40643 -0.0244,-0.2184 -0.14658,-2.28925 -0.14658,-2.4854 0,-0.0847 0.0288,-0.11515 0.0875,-0.0926 0.0571,0.0219 0.0941,-0.0127 0.10649,-0.1 0.0218,-0.15289 0.26113,-0.19121 0.26408,-0.0423 0.004,0.17657 0.0999,0.48685 0.15122,0.48685 0.0285,0 0.0715,0.0615 0.0953,0.13669 0.0239,0.0752 0.0816,0.16462 0.12824,0.19874 0.0674,0.0492 0.0845,0.29263 0.0831,1.18024 l -0.001,1.11817 0.65124,-0.0502 c 0.7276,-0.0244 1.57552,-0.0544 1.88426,-0.0668 0.48069,-0.0193 0.5697,-0.008 0.61947,0.0814 0.0413,0.0738 0.0303,0.13468 -0.0383,0.21039 -0.0887,0.098 -0.087,0.10654 0.0218,0.10654 0.10636,0 0.18379,0.18343 0.10901,0.25822 z m -2.50563,-0.23138 c -0.38112,0.0445 -0.77095,0.15054 -0.72443,0.19706 0.0327,0.0327 1.07434,-0.1738 1.07434,-0.21297 0,-0.0137 -0.15746,-0.006 -0.34991,0.0159 z m -1.12777,-0.0268 c -0.10393,0 -0.14201,0.038 -0.15137,0.15107 l -0.0125,0.15106 0.15137,-0.13161 c 0.18553,-0.16131 0.1862,-0.17052 0.0125,-0.17052 z m 0.008,-2.77413 c -0.0486,0.0194 -0.0341,0.0339 0.0367,0.0368 0.0642,0.003 0.1001,-0.0117 0.0799,-0.032 -0.0202,-0.0202 -0.0727,-0.0224 -0.11663,-0.005 z m -0.0219,4.45431 c -0.0316,0.0316 -0.0697,0.28951 -0.0847,0.5731 -0.0254,0.48047 -0.0224,0.49741 0.0442,0.24837 0.0912,-0.34123 0.11869,-0.89972 0.0404,-0.82147 z m -0.12875,-3.21085 c -0.0169,0.0418 -0.0169,0.1103 0,0.15214 0.0169,0.0418 0.0307,0.008 0.0307,-0.0761 0,-0.0837 -0.0138,-0.11791 -0.0307,-0.0761 z m -1.18062,1.65238 c -0.0606,0 -0.15584,0.0175 -0.21159,0.0389 -0.13864,0.0532 10e-4,0.14147 0.22643,0.14274 0.12225,6.9e-4 0.1563,-0.0229 0.13041,-0.0904 -0.0193,-0.0502 -0.0846,-0.0913 -0.14525,-0.0913 z"
         style="display:inline;fill:#0f0e47;fill-opacity:1;stroke-width:0.718765"
         id="path49-2" />
      <path
         d="m 102.02728,97.5804 c -0.20072,0.20651 -0.38381,0.43495 -0.4069,0.50767 -0.0231,0.0727 -0.16692,0.1918 -0.31967,0.26465 -0.32176,0.15343 -1.29176,0.85168 -1.330746,0.95793 -0.0529,0.14441 0.771296,-0.26373 1.238716,-0.61333 0.48688,-0.36418 0.68595,-0.40714 0.52917,-0.11421 -0.18891,0.35299 -1.15483,0.94334 -1.911646,1.16835 -0.0489,0.0146 -0.11627,0.31299 -0.14961,0.66321 -0.0334,0.35022 -0.075,0.72813 -0.0927,0.8398 -0.0687,0.43567 -0.1026,0.60911 -0.11904,0.60911 -0.01,0 -0.0271,0.0731 -0.0391,0.16242 -0.0688,0.50836 -0.86222,2.85109 -1.086197,3.20688 -0.24369,0.38713 -0.77927,1.03603 -0.94205,1.14138 -0.20038,0.1297 -1.07683,0.11421 -1.54306,-0.0272 -0.0893,-0.0272 -0.43414,-0.0688 -0.76623,-0.0927 -0.3321,-0.0239 -0.63773,-0.0773 -0.67918,-0.11875 -0.14324,-0.14324 0.0366,-0.27118 0.31726,-0.22565 0.31735,0.0515 0.42319,-0.0499 0.21254,-0.20347 -0.28608,-0.20865 -0.48421,-0.60149 -0.58651,-1.16285 -0.057,-0.31267 -0.17733,-0.80605 -0.26745,-1.09638 -0.19164,-0.61742 -0.23747,-2.36043 -0.0747,-2.84248 0.0528,-0.15633 0.11604,-0.44653 0.14059,-0.644875 0.0246,-0.198345 0.0767,-0.399345 0.11605,-0.446665 0.0776,-0.0935 0.0852,-0.12652 0.0852,-0.37029 0,-0.0954 0.0541,-0.16243 0.13129,-0.16243 0.0958,0 0.12093,-0.0542 0.093,-0.20057 -0.0235,-0.12292 -0.007,-0.1809 0.0439,-0.14973 0.0514,0.0318 0.0635,-0.0209 0.0322,-0.14035 -0.0275,-0.10517 -0.008,-0.24236 0.0443,-0.30487 0.0519,-0.0625 0.10482,-0.18234 0.11762,-0.26626 0.0129,-0.0839 0.14139,-0.40014 0.28573,-0.7027 0.14436,-0.30256 0.25164,-0.58562 0.23845,-0.62903 -0.0132,-0.0435 0.0484,-0.0133 0.13706,0.0669 0.15554,0.14077 0.16292,0.13999 0.21452,-0.0225 0.0293,-0.0926 0.0875,-0.16836 0.12917,-0.16836 0.0838,0 0.10813,0.20653 0.0795,0.67584 -0.0135,0.22131 0.0233,0.34121 0.12808,0.41786 0.15128,0.11062 0.12431,0.26831 -0.27835,1.62696 -0.0265,0.0893 -0.0404,0.19131 -0.031,0.22662 0.01,0.0353 -0.0154,0.12668 -0.0554,0.20304 -0.0399,0.0764 -0.0969,0.373505 -0.12673,0.66033 -0.0298,0.28683 -0.0688,0.545 -0.0865,0.5737 -0.10159,0.16438 -0.16988,2.28293 -0.0916,2.84365 0.028,0.201 0.0634,0.45682 0.0786,0.56848 0.0634,0.46718 0.24278,0.97413 0.39275,1.10984 0.0987,0.0893 0.28746,0.14529 0.48998,0.14529 0.28856,0 0.36905,-0.0452 0.64851,-0.36362 0.64794,-0.73843 1.02351,-1.33866 1.19794,-1.91456 0.096,-0.31701 0.16674,-0.60938 0.15713,-0.64971 -0.0193,-0.081 0.0168,-0.23589 0.290787,-1.25092 0.28184,-1.04399 0.36672,-1.66455 0.34989,-2.55822 -0.0188,-0.99777 0.0649,-1.58366 0.22623,-1.58366 0.0643,0 0.11684,0.0341 0.11684,0.0756 0,0.0415 0.0822,0.0873 0.18273,0.10151 0.12912,0.0183 0.19007,0.0894 0.20775,0.24228 0.0177,0.15303 0.10445,0.25401 0.29652,0.34515 0.551226,0.26157 1.035596,0.0933 1.708806,-0.59359 0.40348,-0.41167 0.69032,-0.531 0.69032,-0.28717 0,0.07 -0.16422,0.29634 -0.36492,0.50284 z m -2.295706,0.70389 c -0.0197,0.0197 -0.006,0.0838 0.0313,0.14262 0.0368,0.0588 0.0558,0.17487 0.0421,0.25792 -0.0154,0.093 0.01,0.12984 0.0643,0.0959 0.049,-0.0303 0.0681,-0.0891 0.0424,-0.1307 -0.0257,-0.0415 -0.002,-0.0756 0.0519,-0.0756 0.0611,0 0.0425,-0.062 -0.0488,-0.16293 -0.0811,-0.0896 -0.16352,-0.14686 -0.18316,-0.12722 z m -4.266077,-0.92805 c -0.0516,0.11166 -0.13133,0.22987 -0.17724,0.2627 -0.053,0.0378 -0.0454,0.0601 0.0206,0.0609 0.0573,6.8e-4 0.13719,-0.081 0.17759,-0.1815 0.10667,-0.26537 0.0895,-0.38142 -0.021,-0.14211 z m -0.2201,1.09638 c -0.0447,0.0276 -0.0787,0.18508 -0.0755,0.34995 0.005,0.24158 0.0193,0.26823 0.0755,0.13733 0.098,-0.22805 0.098,-0.54785 0,-0.48728 z m -0.44188,6.1316 c -0.0858,0 -0.12172,0.15586 -0.0467,0.20222 0.0454,0.028 0.0825,-0.006 0.0825,-0.0756 0,-0.0696 -0.0161,-0.12662 -0.0358,-0.12662 z m -0.13176,-1.69651 c -0.005,-0.27929 -0.009,-0.28357 -0.088,-0.0902 -0.10423,0.25559 -0.0448,0.95246 0.0922,1.08086 0.083,0.0778 0.0931,0.0188 0.0521,-0.30035 -0.0281,-0.21841 -0.0534,-0.52905 -0.0563,-0.69032 z m 0.0326,-2.14082 c -0.0225,0.0558 -0.0225,0.1472 0,0.20303 0.0225,0.0558 0.041,0.0102 0.041,-0.10152 0,-0.11166 -0.0184,-0.15735 -0.041,-0.10151 z m -0.29427,-0.14213 c -0.12021,0 -0.12243,0.0134 -0.18247,1.09638 -0.0285,0.51354 -0.0174,0.76734 0.0303,0.69032 0.0414,-0.0671 0.097,-0.46517 0.12359,-0.88483 0.0266,-0.41965 0.0673,-0.78207 0.0907,-0.80536 0.068,-0.068 0.0497,-0.0965 -0.0621,-0.0965 z"
         style="display:inline;fill:#0f0e47;fill-opacity:1;stroke-width:0.959214"
         id="u-0" />
      <path
         d="m 108.40963,97.57308 c -0.0345,0.22494 -0.0486,0.50507 -0.0314,0.62248 0.0172,0.11743 -4.6e-4,0.24536 -0.0394,0.28429 -0.0394,0.0394 -0.0747,0.41029 -0.0796,0.83567 -0.007,0.65878 -0.0259,0.77536 -0.13211,0.84046 -0.20556,0.126 -0.31687,-0.10898 -0.31172,-0.65809 0.002,-0.2607 -0.0255,-0.50395 -0.0622,-0.54056 -0.10508,-0.10509 -0.38903,-0.0363 -0.38903,0.0942 0,0.11565 -0.25264,0.39614 -0.35681,0.39614 -0.0609,0 -1.60534,1.56303 -2.00251,2.02654 -0.13539,0.15801 -0.27068,0.26514 -0.30063,0.23808 -0.03,-0.0271 -0.036,-0.0167 -0.0134,0.0231 0.0225,0.0398 -0.0499,0.1778 -0.16117,0.30675 -0.11122,0.12895 -0.22446,0.31114 -0.25166,0.40487 -0.0846,0.2917 -0.0537,1.91922 0.0429,2.25591 0.0494,0.17226 0.0949,0.44832 0.10099,0.61349 0.0117,0.31396 0.0917,0.43727 0.21658,0.33362 0.0471,-0.039 0.11896,-8e-4 0.19929,0.10615 0.0942,0.12544 0.18946,0.16729 0.38079,0.16729 0.19784,0 0.26318,0.0306 0.29082,0.13633 0.0202,0.0774 0.002,0.13796 -0.0431,0.1401 -0.0434,0.002 -0.43669,5.2e-4 -0.87409,-0.003 -0.74517,-0.006 -0.79806,0.002 -0.83963,0.13256 -0.06,0.18898 -0.16109,0.17605 -0.23967,-0.0307 -0.0583,-0.15339 -0.10241,-0.17041 -0.4414,-0.17041 -0.28945,0 -0.40911,-0.0325 -0.51712,-0.14053 -0.18661,-0.18661 -0.14584,-0.37699 0.0751,-0.35102 0.22743,0.0267 0.48862,-0.0437 0.44196,-0.11924 -0.0208,-0.0338 -0.006,-0.0807 0.0313,-0.10427 0.0381,-0.0235 0.0714,-0.002 0.0741,0.0464 0.006,0.11269 0.12066,-0.14776 0.1257,-0.28568 0.003,-0.0909 -0.003,-0.0909 -0.0623,0 -0.0884,0.13679 -0.0871,-0.009 0.002,-0.24422 0.36923,-0.97113 0.5595,-2.4968 0.64927,-5.20608 0.0217,-0.65446 0.0679,-1.43667 0.10256,-1.73823 0.0787,-0.68302 0.0229,-0.75132 -0.54929,-0.67295 -0.2063,0.0283 -0.45652,0.0525 -0.55604,0.054 -0.0995,0.002 -0.16673,0.0255 -0.14935,0.0537 0.0174,0.0281 -0.0144,0.0511 -0.0707,0.0511 -0.26041,0 -0.16782,-0.24721 0.11157,-0.29787 0.10169,-0.0184 0.21865,-0.0544 0.25992,-0.0799 0.072,-0.0445 0.60764,-0.0995 1.19326,-0.12255 0.28979,-0.0114 0.47451,-0.13703 0.51596,-0.35093 0.0135,-0.0692 0.0634,-0.13887 0.11126,-0.15478 0.0682,-0.0227 0.0783,0.1151 0.0469,0.64193 -0.022,0.36897 -0.051,1.06962 -0.0644,1.557 -0.0298,1.08346 -0.0954,1.68972 -0.18899,1.74841 -0.0388,0.0243 -0.0499,0.0981 -0.0246,0.16397 0.0289,0.0754 -0.004,0.17296 -0.0892,0.26355 -0.0822,0.0875 -0.11397,0.17807 -0.0811,0.23121 0.066,0.10681 0.11835,0.0483 0.35475,-0.39623 0.0897,-0.16872 0.22851,-0.39878 0.30842,-0.51125 0.0799,-0.11247 0.13262,-0.23899 0.1171,-0.28115 -0.0155,-0.0422 0.0728,-0.18824 0.19616,-0.32461 0.57608,-0.63665 0.81028,-0.84043 1.05315,-0.91633 0.14403,-0.045 0.38457,-0.17279 0.53453,-0.28393 0.14997,-0.11114 0.41694,-0.3024 0.59326,-0.42501 0.31938,-0.22211 0.3747,-0.29656 0.53288,-0.71715 0.0533,-0.14176 0.12943,-0.22154 0.21138,-0.22154 0.13993,0 0.1391,-0.01 0.0487,0.57941 z m -0.46356,0.3749 c -0.0361,0 -0.0986,0.0614 -0.13873,0.13634 -0.0575,0.10743 -0.0519,0.13633 0.0267,0.13633 0.0548,0 0.11367,-0.0537 0.13082,-0.11929 0.0172,-0.0656 0.0347,-0.12696 0.0391,-0.13633 0.004,-0.009 -0.0217,-0.0171 -0.0579,-0.0171 z m -0.99246,1.02386 c -0.0572,0.0474 -0.0898,0.10027 -0.0727,0.11743 0.0473,0.0473 0.1766,-0.0488 0.1766,-0.13116 0,-0.0452 -0.0391,-0.04 -0.1039,0.0138 z m -0.1945,0.20313 c -0.0142,0 -0.0678,0.0537 -0.11929,0.1193 -0.0848,0.10811 -0.0824,0.11052 0.0258,0.0258 0.11355,-0.0891 0.14966,-0.14503 0.0935,-0.14503 z m -1.02249,0.54534 c -0.0142,0 -0.0678,0.0537 -0.11929,0.11928 -0.0848,0.10812 -0.0824,0.11053 0.0258,0.0258 0.11356,-0.0891 0.14967,-0.14502 0.0936,-0.14502 z m -1.40888,-2.45398 c -0.0319,0 -0.0258,0.092 0.0134,0.2045 0.0392,0.11247 0.0974,0.20449 0.12924,0.20449 0.0319,0 0.0258,-0.092 -0.0134,-0.20449 -0.0392,-0.11248 -0.0974,-0.2045 -0.12924,-0.2045 z m -0.24609,7.88891 c -0.0187,0.0461 -0.0198,0.13817 -0.002,0.2045 0.0173,0.0663 0.0325,0.0286 0.034,-0.0839 0.002,-0.11248 -0.0127,-0.16674 -0.0314,-0.12059 z"
         style="display:inline;fill:#0f0e47;fill-opacity:1;stroke-width:0.805111"
         id="r-6" />
      <path
         d="m 116.67821,102.81758 c -0.1735,10e-6 -0.18098,0.0486 -0.21997,1.42975 -0.012,0.42547 -0.0519,0.61818 -0.12114,0.5847 -0.0568,-0.0275 -0.17388,-0.0751 -0.26024,-0.10595 -0.093,-0.0332 -0.18214,-0.20459 -0.21862,-0.42052 -0.0339,-0.20048 -0.0965,-0.38606 -0.13906,-0.4124 -0.0427,-0.0263 -0.20289,0.0577 -0.35615,0.1866 -0.15327,0.12897 -0.30059,0.23448 -0.32737,0.23448 -0.0267,0 -0.147,0.0833 -0.26713,0.18507 -0.73465,0.62249 -1.14917,0.92249 -1.21684,0.88066 -0.0425,-0.0263 -0.0773,-0.004 -0.0773,0.0488 0,0.13086 -0.51498,0.39971 -1.02898,0.53719 -0.23152,0.062 -0.65247,0.19833 -0.93543,0.3031 -0.28551,0.10573 -0.74953,0.19187 -1.0426,0.19356 -0.52495,0.003 -0.53178,-5.5e-4 -1.13662,-0.59653 -0.36918,-0.36376 -0.6287,-0.70408 -0.65985,-0.86528 -0.13513,-0.69926 -0.15558,-1.41757 -0.0585,-2.05743 0.0925,-0.61035 0.0873,-0.71658 -0.0399,-0.81163 -0.13271,-0.0992 -0.1327,-0.16107 1.5e-4,-0.66555 0.1998,-0.75874 0.47278,-1.2691 1.20201,-2.247226 1.04975,-1.40805 1.67635,-1.97519 2.83076,-2.56218 0.74527,-0.37895 1.59815,-0.20525 2.69394,0.54867 0.48056,0.33065 0.51887,0.51388 0.26526,1.26898 -0.27667,0.82377 -1.83782,2.176056 -3.5869,3.106996 -1.27245,0.67727 -1.87071,0.96006 -2.14858,1.01563 -0.15808,0.0316 -0.31122,0.096 -0.34031,0.14306 -0.0291,0.0471 -0.023,0.44402 0.0135,0.88214 0.061,0.73208 0.0916,0.82338 0.37852,1.12757 0.33636,0.35664 0.23177,0.34377 1.39534,0.17171 2.08528,-0.30837 4.01204,-1.5493 4.69365,-3.02292 0.30769,-0.66524 0.57793,-0.86436 0.5163,-0.38043 -0.0526,0.41298 0.079,1.01866 0.22128,1.01866 0.074,0 0.13458,0.0631 0.13458,0.14032 0,0.0772 -0.0737,0.14031 -0.16369,0.14031 z m -1.90782,-5.281216 c -0.16669,-0.21192 -0.24982,-0.24545 -0.4911,-0.19814 -0.15975,0.0314 -0.34306,0.0633 -0.40738,0.071 -0.0643,0.008 -0.11692,0.041 -0.11692,0.0739 0,0.033 -0.16838,0.13424 -0.37418,0.22505 -0.20578,0.0908 -0.37416,0.21588 -0.37416,0.27797 0,0.0621 -0.0842,0.17357 -0.1871,0.24774 -0.10286,0.0741 -0.18708,0.19961 -0.18708,0.27878 0,0.0792 -0.0842,0.19651 -0.18708,0.26077 -0.10286,0.0643 -0.1871,0.15717 -0.1871,0.20644 0,0.0842 -0.32643,0.4785 -0.82774,0.999893 -0.12085,0.125693 -0.37949,0.413133 -0.57477,0.638763 -0.19529,0.22562 -0.38055,0.38474 -0.4117,0.35358 -0.0312,-0.0312 -0.0567,0.0193 -0.0567,0.1123 0,0.14718 0.0571,0.16157 0.44433,0.11178 1.06499,-0.13698 1.29762,-0.24748 2.68936,-1.277583 0.93184,-0.689693 1.04507,-0.804903 1.27579,-1.298093 0.21815,-0.46631 0.2104,-0.78301 -0.0265,-1.08421 z m -2.04117,-0.38015 c -0.0596,0.0368 -0.14703,0.16884 -0.19438,0.29338 -0.0474,0.12454 -0.18156,0.26887 -0.29825,0.32071 -0.33666,0.14956 -0.81837,0.52781 -0.75407,0.59211 0.0323,0.0323 -0.007,0.0586 -0.0873,0.0586 -0.0802,0 -0.17115,0.0659 -0.20202,0.14625 -0.0308,0.0804 -0.0986,0.12004 -0.15033,0.0881 -0.0518,-0.032 -0.0942,0.0285 -0.0942,0.13439 0,0.10595 -0.0421,0.1926 -0.0936,0.1926 -0.0515,0 -0.0936,0.0433 -0.0936,0.0964 0,0.0529 -0.17141,0.31313 -0.3809,0.57816 -0.36601,0.463056 -0.79482,1.196416 -0.69956,1.196416 0.0252,0 0.42951,-0.44691 0.89841,-0.993133 0.92224,-1.074333 2.0639,-2.230123 2.35869,-2.387883 0.16446,-0.0881 0.16883,-0.11331 0.0415,-0.2406 -0.0782,-0.0782 -0.19099,-0.11215 -0.25054,-0.0754 z m -0.77493,8.244716 c -0.16721,0.0292 -0.5067,0.11657 -0.7544,0.19427 -0.24772,0.0777 -0.59499,0.12438 -0.77173,0.10375 -0.39018,-0.0455 -0.42054,0.0591 -0.0541,0.18684 0.33217,0.11579 0.99392,0.001 1.5073,-0.26046 0.4564,-0.23284 0.47654,-0.29476 0.073,-0.2244 z m -0.0546,-6.549326 c -0.0429,-0.0265 -0.078,0.0113 -0.078,0.0839 0,0.0726 0.035,0.11038 0.078,0.0839 0.0429,-0.0265 0.0779,-0.0643 0.0779,-0.0839 0,-0.0197 -0.035,-0.0574 -0.0779,-0.0839 z m -1.59953,2.795616 c -0.40921,0.0692 -0.4922,0.18685 -0.19765,0.28034 0.1738,0.0551 0.7154,-0.20735 0.62152,-0.30124 -0.0239,-0.0239 -0.21461,-0.0145 -0.42387,0.0209 z m 0.24233,-1.18049 c -0.0691,0.0573 -0.14559,0.0841 -0.17009,0.0597 -0.0245,-0.0245 -0.18683,0.1022 -0.36071,0.28162 -0.25601,0.26414 -0.29329,0.34839 -0.19598,0.44293 0.0966,0.0938 0.15077,0.0742 0.27577,-0.0994 0.0856,-0.11889 0.24899,-0.32937 0.36312,-0.46773 0.23733,-0.2877 0.26989,-0.36808 0.0879,-0.21704 z"
         style="display:inline;fill:#0f0e47;fill-opacity:1;stroke-width:1.10484"
         id="e-1" />
    </g>
  </g>
</svg>
