<?xml version="1.0" encoding="UTF-8" standalone="no"?>
<!-- Created with Inkscape (http://www.inkscape.org/) -->

<svg
   width="39.502052mm"
   height="49.106441mm"
   viewBox="0 0 39.502052 49.106441"
   version="1.1"
   id="svg1"
   xmlns="http://www.w3.org/2000/svg"
   xmlns:svg="http://www.w3.org/2000/svg">
  <defs
     id="defs1" />
  <g
     id="layer1"
     transform="translate(6.8791736,-33.072917)">
    <path
       d="m 8.74699,33.072917 0.0847,1.86266 c -0.46249,-0.36778 -0.76385,-0.43306 -1.27,-0.0847 l 1.016,0.67733 v 0.0847 l -1.69333,0.0847 -0.508,0.59267 v 0.254 l 1.69333,-0.16933 v 0.0847 c -0.36404,0.15237 -1.52621,0.81212 -0.59266,1.016 v 0.0847 l -0.33867,0.508 0.16933,-0.254 1.778,-0.762 0.16934,1.86267 0.33866,0.0847 -0.0847,-0.254 0.16933,-1.35466 0.59267,0.93133 0.254,-0.16933 c -0.006,0.34068 0.16016,0.95193 0.508,0.42333 l -0.26811,-0.33867 0.18344,-0.59266 -0.67733,-1.18534 1.60866,0.16934 -0.508,-0.59267 c 0.57591,-0.23113 1.42244,-0.087 1.016,-1.016 l -2.62466,0.508 0.0847,-2.032 -0.42333,0.59267 c -0.18368,-0.43462 -0.13045,-0.92674 -0.67733,-1.016 m 3.72526,1.69354 0.33867,0.42333 h 0.0847 v -0.42402 h -0.42333 m -0.25397,1.016 -0.0847,0.0847 0.0847,-0.0847 m -0.67747,0.93129 0.0847,0.0847 -0.0847,-0.0847 m -2.794,0.0847 -0.0847,0.0847 0.0847,-0.0847 m -1.10067,0.59275 -0.0847,0.0847 0.0847,-0.0847 m -0.70552,0.62089 0.0565,0.0282 -0.0565,-0.0282 m 12.22026,5.0517 v 0.67734 l -1.18534,-0.33867 -0.0847,0.33867 h 0.59266 c -0.0229,0.52571 0.30197,1.09841 0.59267,1.524 l -0.508,-0.0847 0.82949,0.44901 0.86384,1.07499 -0.0847,0.33867 0.0847,0.0847 0.16934,-0.0847 c -0.19656,0.58967 0.74988,1.25183 1.10066,1.778 0.50367,0.7555 0.83418,2.1514 1.016,2.87867 0.0999,0.39964 -0.10458,1.02895 0.254,1.10066 v 0.0847 c -0.38566,0.0771 0.0755,0.73255 0,1.18533 -0.0864,0.51852 -0.0487,2.44027 0,2.87867 0.0289,0.26039 0.23222,0.58722 -0.0847,0.508 l 0.254,0.67733 0.254,-0.254 -0.16934,-0.0847 v -0.0847 -0.508 l 0.254,0.0847 -0.0847,-1.43934 h 0.0847 c 0.22402,1.77243 0.43558,4.55682 -0.84666,6.01134 l 0.16933,-0.59267 -0.0847,-0.59267 0.254,-0.16933 c -0.32626,0.0687 -0.83042,0.78706 -0.33866,0.84667 v 0.0847 l -0.33867,0.33867 0.254,-0.0847 0.0847,0.33867 -0.0847,0.0847 -0.42333,-0.0847 0.0847,0.254 -0.254,0.59267 -0.16933,0.42333 -0.254,0.0847 v 0.0847 l 0.16933,-0.0847 v 0.0847 l -0.0847,0.59267 -0.33867,0.254 0.0847,-0.16933 h -0.0847 v 0.33866 l -0.16933,0.254 h -0.16934 l -0.93133,1.60867 -0.42333,0.16933 0.16933,0.16934 c -0.6523,0.43177 -1.08997,1.0844 -1.70091,1.5547 -0.55331,0.42594 -1.25294,0.71645 -1.85509,1.07088 -0.53087,0.31247 -1.04476,0.79718 -1.69333,0.67642 l -0.33867,0.0847 c -1e-5,0.24699 -0.36832,0.27177 -0.59267,0.35278 -0.68904,0.24881 -1.44331,0.19855 -2.11666,0.36689 -1.7,0.425 -3.89215,1.11256 -5.50334,-0.15523 -0.16016,-0.12603 -0.12491,-0.34774 -0.2681,-0.46566 -0.20905,-0.17216 -0.35162,0.13263 -0.55034,0.0847 -0.26246,-0.0634 -0.45657,-0.55991 -0.53622,-0.7761 0.16484,0.0254 0.5183,-0.0293 0.28261,-0.27746 -0.32051,-0.33753 -0.89586,-0.22353 -1.25171,-0.66153 -0.99018,-1.21874 -1.7977,-3.31876 -1.91604,-4.88864 -0.0434,-0.57555 0.14459,-1.13726 0.0911,-1.70771 -0.58757,0.30134 -0.62798,1.17365 -0.67734,1.778 -0.72477,0.14492 -0.37774,1.66949 -0.32057,2.20134 0.19732,1.83535 0.44785,3.65346 0.9348,5.41866 0.15672,0.56814 0.21166,1.65225 0.90977,1.778 0.47074,1.44425 1.37844,2.36321 2.34872,3.47466 3.20331,3.6694 7.48719,5.59561 12.35493,4.74181 1.31399,-0.23049 2.74618,-0.72413 3.92302,-1.35475 0.40889,-0.21911 0.95685,-0.43684 1.18533,-0.85038 0.96095,-0.0346 2.11995,-1.50113 2.84731,-2.08081 0.30818,-0.24561 0.76283,-0.4672 0.96269,-0.79786 l 0.16934,0.0847 c 0.55382,-0.72378 1.30476,-1.22832 1.79269,-2.032 0.75316,-1.24053 1.30783,-2.96461 2.35597,-3.97934 0.20119,-1.0126 0.99338,-1.9323 1.2687,-2.96333 0.4732,-1.77202 0.48642,-3.84002 0.5093,-5.67267 l 0.254,0.0847 -0.16933,0.16933 0.254,0.0847 0.0847,-0.254 -0.254,-0.0847 0.16933,-0.16933 -0.0847,-0.762 -0.254,-0.16933 0.254,-0.0847 -0.254,-0.59267 -0.38133,-1.85966 -1.41659,-3.81294 -0.91141,-1.4394 0.0847,-0.254 h -0.254 l -0.254,-0.42333 v -0.59282 l -0.67734,-0.254 0.33867,0.16934 -0.16933,-0.59267 h -0.33867 l 0.254,0.33867 -2.032,-1.60867 0.0847,-0.508 0.33866,0.33867 0.254,-0.254 -0.508,-0.42334 -0.508,-0.0847 -2.45533,-1.778 -0.254,0.0847 -1.18533,-1.35467 -0.84667,-0.60677 -1.00189,-0.60678 -1.19944,-1.32645 m -5.41867,1.69334 h -0.0847 c -0.20563,-0.48978 -0.49431,-1.29249 -1.10066,-1.27 l 0.45025,2.11627 -2.31292,1.69373 2.032,-0.16933 -0.508,2.37066 c 0.3317,0.0753 0.55973,0.1001 0.67733,-0.254 l 0.254,0.254 c 0.54535,-0.2468 0.6988,-1.15157 0.84667,-1.69333 h 0.0847 c 0.0554,0.42907 0.53216,2.33872 1.18043,2.12719 0.77957,-0.25439 -0.0977,-2.23059 -0.33377,-2.63519 l 0.93134,0.33867 0.42333,-0.254 v 0.16933 c 0.96268,-0.604 -0.52595,-0.8661 -1.016,-0.93133 v -0.0847 l 0.33867,-0.33867 c 0.29357,0.0861 0.43226,0.10443 0.59266,-0.16933 l -0.0847,-0.0847 -0.508,0.0847 0.16933,-0.508 h 0.762 l -0.42333,-0.33867 c -0.0746,-0.93585 -1.14066,-0.34967 -1.60867,-0.0847 -0.0631,-0.44253 0.23184,-1.29319 -0.0163,-1.65497 -0.41755,-0.60872 -0.6972,1.10426 -0.74567,1.31631 m 4.91067,-0.67734 -0.0847,0.0847 0.0847,-0.0847 m 0.67733,0.508 -0.0847,0.0847 0.0847,-0.0847 m 0.16933,0.16934 0.508,0.508 -0.508,-0.508 m -3.38666,0.42336 -0.0847,0.0847 0.0847,-0.0847 m 2.11666,0 0.0847,0.0847 -0.0847,-0.0847 m 0.16934,0 0.0847,0.0847 -0.0847,-0.0847 m -3.13267,0.8468 -0.254,0.16933 v -0.0847 l 0.254,-0.0847 m 0.254,0.0282 c 0.0655,0 0.0136,0.0421 -0.0282,0.0282 l 0.0282,-0.0282 m 4.88244,0.0282 -0.0282,0.0564 0.0282,-0.0564 m 0.95956,0.0282 0.254,0.254 -0.254,0.0847 v -0.33866 m 0.508,0.50806 0.59267,0.59266 -0.254,0.16934 0.33866,0.16933 -0.508,0.0847 -0.16933,-1.016 m 0.254,0.6774 0.254,-0.0847 -0.254,0.0847 m 2.11667,0.0847 -0.0847,0.0847 0.0847,-0.0847 m -19.304,3.81 c -0.5907,-0.26591 -1.10229,-0.76966 -1.71588,-1.01359 -0.51576,-0.20503 -0.24963,0.41775 -0.10505,0.60463 0.084,0.10861 0.17347,0.21261 0.25335,0.32448 0.1365,0.19118 0.25192,0.39719 0.38224,0.59248 -0.66621,0.37094 -1.37141,0.74765 -1.9276,1.25203 -0.34489,0.31276 0.0201,0.50268 0.31894,0.52597 v 0.0847 l -0.508,0.42334 2.87866,-0.84667 c 0.0309,0.6509 -0.23165,1.39635 -0.0856,2.03037 0.20703,0.89895 0.74328,-0.0549 0.84765,-0.4217 l 0.84667,0.762 -0.0847,0.16933 c 1.33709,0.38292 -0.11681,-1.79059 -0.254,-2.286 0.43937,0.13853 1.35124,0.81469 1.69334,0.33867 l 0.42333,0.0847 0.0847,-0.33866 -0.508,-0.254 c -0.50257,-0.0192 -0.87551,-0.29459 -1.18534,-0.67734 l 1.35467,-0.33866 0.67733,0.16933 -0.42333,-0.67733 h -0.0847 l -0.254,0.16933 v -0.254 l -1.778,0.0847 c 0.10806,-0.85499 0.28869,-1.77032 0.32528,-2.62467 0.0172,-0.40284 -0.0307,-0.76913 -0.49461,-0.762 l -0.0847,-0.0847 c 0.034,-0.35776 -0.38768,-0.79638 -0.55295,-0.2849 -0.29512,0.91343 -0.0397,2.28876 -0.0397,3.24824 m 17.94933,-3.38667 c -0.0681,0.33365 -0.17776,0.49469 -0.508,0.59267 l -0.0847,-0.508 0.59267,-0.0847 m 0.67733,0 -0.16933,0.16933 0.16933,-0.16933 m 4.82593,4.9107 0.42334,-0.0847 c 0.52519,1.05043 1.20685,1.94215 1.63689,3.048 0.1397,0.35922 0.54186,0.85779 0.14111,1.10067 0.68937,0.31199 1.04199,2.19884 0.84666,2.87866 0.30252,0.2643 0.40014,1.41766 0.0847,1.69334 0.151,0.58353 0.0359,1.18521 0.0233,1.77806 -0.0436,2.04284 -0.39132,3.72963 -1.26803,5.58794 -0.42981,0.91101 -0.71631,1.92906 -1.23995,2.79067 -0.44007,0.72412 -1.10185,1.31084 -1.64956,1.95066 -1.57732,1.84257 -3.36635,3.51133 -5.60238,4.5458 -1.61204,0.74579 -3.44106,0.78407 -5.16466,1.06303 -2.15997,0.34959 -5.1073,0.63366 -7.112,-0.449 -0.96568,-0.52152 -1.61304,-1.35047 -2.37073,-2.11183 -0.45357,-0.45577 -1.83223,-1.37037 -1.9327,-2.03533 -0.0549,-0.36313 0.4723,-0.80928 0.6529,-1.10491 0.25801,-0.42234 0.67714,-1.26783 1.13771,-1.48598 0.35452,-0.16792 1.0294,0.11195 1.41248,0.14039 1.08949,0.0809 2.13947,0.0649 3.217,-0.15451 1.03508,-0.21079 2.01576,-0.77257 2.96334,-1.22021 2.84381,-1.34346 5.2172,-3.09284 7.10866,-5.63974 0.8043,-1.08302 1.94935,-2.46713 1.866,-3.90904 0.30946,-0.40799 0.25759,-1.11246 0.38805,-1.60867 0.70842,-2.69445 -0.007,-5.35227 -0.52451,-8.04333 -0.12688,-0.65989 -0.81283,-1.81634 -0.64442,-2.45501 0.19339,-0.73341 1.24455,-0.81113 1.74815,-0.4187 1.28237,0.99931 3.21978,2.63424 3.85873,4.14371 m -13.37733,-3.64064 -0.0847,0.0847 0.0847,-0.0847 m 10.10356,0.22577 0.0282,0.0565 -0.0282,-0.0565 m -10.01895,0.0564 c 0.0654,0 0.0136,0.0421 -0.0282,0.0282 l 0.0282,-0.0282 m 12.02266,-0.0282 v 0.33867 h 0.0847 l -0.0847,-0.33867 m 0.33867,0.25404 -0.16933,0.16933 v 0.0847 l 0.42333,0.254 v -0.085 l -0.254,-0.42333 m 0.33867,0.42333 0.0847,0.0847 -0.0847,-0.0847 m -0.0847,0.1694 0.42333,0.33866 v -0.254 l -0.42333,-0.0847 m 0.39504,0.45169 0.0564,0.0282 -0.0564,-0.0282 m 0.22578,0.0282 0.0282,0.0565 -0.0282,-0.0565 m 0.31044,0.56443 c 0.0655,0 0.0136,0.0421 -0.0282,0.0282 l 0.0282,-0.0282 m 0.22571,0.53629 -0.0282,0.0565 0.0282,-0.0565 m 0.19756,0.0282 -0.0847,0.0847 0.0847,-0.0847 m -0.33867,1.27013 0.0847,0.0847 -0.0847,-0.0847 m -5.84207,0.42334 -0.0847,0.0847 0.0847,-0.0847 m -16.34067,0.0847 -0.0847,0.0847 0.0847,-0.0847 m -0.79022,1.41113 -0.0282,0.0565 0.0282,-0.0565 m 17.55429,0.36697 v 0.42334 h -0.0847 l 0.0847,-0.42334 m 6.858,0.254 0.0847,0.0847 -0.0847,-0.0847 m -7.02733,1.43937 -0.0847,0.0847 0.0847,-0.0847 m -0.0847,0.5927 -0.0847,0.0847 0.0847,-0.0847 m -0.0847,0.16934 -0.0847,0.0847 0.0847,-0.0847 m -0.33867,0.25403 0.0847,0.0847 -0.0847,-0.0847 m 0.0847,0.16933 0.16933,0.0847 v 0.0847 l -0.16933,0.67734 h 0.0847 0.0847 l 0.16933,-0.16934 v -0.0847 l -0.16933,-0.16934 0.16933,0.0847 v -0.0847 -0.254 l -0.16933,-0.254 -0.16933,0.0847 m -28.194,0.33865 1.016,1.86266 c -0.37592,-0.23524 -0.86607,-0.90742 -1.34212,-0.8756 -0.82658,0.0552 0.0202,1.29134 0.32612,1.46827 -0.19099,0.0894 -2.02649,0.91908 -1.17998,1.06494 0.59405,0.10236 1.2141,-0.45415 1.85731,-0.38761 l -0.59267,0.254 0.16934,0.33867 v 0.0847 c -0.23224,0.26982 -1.00973,1.38172 -0.16934,1.18533 0.45728,0.68588 0.90119,-0.77778 1.016,-1.10067 0.8035,0.39437 0.90835,1.61777 1.86267,1.778 l 0.0847,-0.254 -0.33867,-0.0847 c 0.0794,-0.47961 -0.22127,-1.24766 -0.38251,-1.72169 -0.0455,-0.13362 -0.29158,-0.44492 -0.14006,-0.57379 0.31707,-0.26969 1.1264,0.69481 1.44235,0.21331 0.222,-0.33833 -0.45614,-0.6211 -0.66578,-0.71183 v -0.0847 l 1.27,-0.762 h 0.59267 l -0.0847,-0.33867 -0.33867,0.33867 -0.84666,-0.42333 0.0847,-0.254 -0.33866,-0.16934 v 0.254 l -1.18534,0.42334 -0.0847,-0.0847 0.254,-0.93133 -0.0847,-0.0847 h -0.16933 l -0.42334,0.84667 h -0.16933 c -0.2056,-0.6097 -0.72541,-1.40092 -1.43933,-1.27 m 28.10933,0 0.0847,0.0847 -0.0847,-0.0847 m 0.16933,0.59266 0.0847,0.508 -0.16933,-0.254 0.254,0.0847 -0.16934,-0.33867 m -0.16922,0.5081 0.16933,0.33867 -0.33866,0.16933 v 0.0847 l 0.42333,0.0847 v -0.33867 -0.0847 l -0.254,-0.254 m -24.55338,0.25404 -0.0847,0.0847 0.0847,-0.0847 m -1.524,0.0847 -0.0847,0.0847 0.0847,-0.0847 m 1.43953,0.16862 -0.16933,0.16934 0.16933,-0.16934 m -0.254,0.16934 -0.0847,0.16933 h -0.0847 l -0.0847,-0.16933 h 0.254 m 24.80733,0.508 -0.0847,0.0847 0.0847,-0.0847 m 8.91823,0.0564 0.0282,0.0565 -0.0282,-0.0565 m 0.90311,0.0282 0.0847,0.16934 -0.0847,-0.16934 m -9.93423,0.14111 -0.0282,0.0564 0.0282,-0.0564 m 9.906,0.16933 -0.0282,0.0564 0.0282,-0.0564 m -0.0564,0.31045 c 0.0655,0 0.0136,0.0421 -0.0282,0.0282 l 0.0282,-0.0282 m -9.05933,0.22578 -0.0847,0.0847 0.0847,-0.0847 m -1.18534,0.0847 v 0.0847 h 0.254 l -0.254,-0.0847 m 0.0847,0.28222 c 0.0655,0 0.0136,0.0421 -0.0282,0.0282 l 0.0282,-0.0282 m 10.24467,-0.0282 v 0.0847 h 0.254 l -0.254,-0.0847 m -9.99067,0.0847 -0.0847,0.0847 0.0847,-0.0847 m -0.254,0.0847 0.16933,0.254 -0.16933,-0.254 m 10.24467,0.0847 v 0.0847 l 0.254,0.0847 v -0.254 l -0.254,0.0847 m -10.414,0.16933 0.16933,0.33867 h -0.0847 l -0.254,-0.254 0.16934,-0.0847 m 10.414,0 v 0.254 h 0.0847 l -0.0847,-0.254 m 0,0.33867 v 0.16933 h 0.16933 l -0.16933,-0.16933 m -10.32934,0.0847 -0.59266,1.016 -0.0847,-0.0847 0.508,-0.93134 h 0.16933 m 10.32934,0.16934 0.254,0.254 -0.254,-0.254 m 0,0.33866 v 0.254 l 0.16933,-0.254 h -0.16933 m 0,0.33867 0.0847,0.33867 h 0.0847 l -0.16933,-0.33867 m 0.16933,0.42333 -0.254,0.59267 0.33867,-0.16933 -0.0847,-0.42334 m -11.51467,0.33867 -0.0847,0.0847 0.0847,-0.0847 m 10.24467,0.254 0.0847,0.0847 -0.0847,-0.0847 m 1.27,0 0.0847,0.0847 -0.0847,-0.0847 m -0.254,0.254 v 0.16917 h 0.16933 v -0.16933 h -0.16933 m -0.0847,0.33867 v 0.0847 l 0.33867,-0.0847 h -0.33867 m -30.56466,0.16933 -0.0847,0.0847 0.0847,-0.0847 m 30.64933,0.16933 -0.0847,0.0847 0.0847,0.59267 h 0.0847 l -0.0847,-0.33867 h 0.16933 v -0.3387 h -0.16933 m -30.64933,0.16934 0.33866,1.016 -0.42333,0.254 0.0847,-1.27 m 30.48,0.508 0.254,0.254 -0.254,-0.254 m 0,0.33866 0.0847,0.0847 -0.0847,-0.0847 m 0.0847,0.16934 0.0847,0.0847 -0.0847,-0.0847 m -0.16933,0.0847 0.0847,0.0847 -0.0847,-0.0847 m 0.0847,0.254 0.0847,0.0847 -0.0847,-0.0847 m -30.39534,0.0847 -0.0847,0.0847 0.0847,-0.0847 m 0.508,0 c 0.40766,0.89925 0.52897,1.64007 0.508,2.62467 h -0.0847 l -0.508,-1.016 c -0.17516,1.43822 0.89792,2.92479 1.18533,4.318 h -0.0847 c -0.63633,-1.05172 -0.94757,-2.309 -1.31703,-3.47134 -0.0484,-0.15237 -0.14148,-1.20982 0.1317,-0.84666 h 0.0847 v -0.33867 l 0.254,-0.16933 -0.508,-0.0847 0.33866,-1.016 m 29.88734,0.0847 -0.16934,0.0847 v 0.0847 l 0.16934,-0.16933 m -30.39534,0.0847 -0.0847,0.508 c -0.15058,-0.22542 -0.10284,-0.32007 0.0847,-0.508 m 30.19778,0.45156 0.0564,0.0282 -0.0564,-0.0282 m -0.14111,0.22578 v 0.33866 h 0.0847 0.0847 l -0.16933,-0.33866 m 0.0847,0.42333 0.0847,0.0847 -0.0847,-0.0847 m -0.16934,0.0847 v 0.33866 0.0847 h -0.16933 v 0.0847 l 0.254,0.0847 -0.0847,-0.59266 m 0.16934,0.0847 0.0847,0.0847 -0.0847,-0.0847 m -28.27867,0.84667 v 0.0847 l -0.42333,0.33866 -0.0847,-0.67733 0.508,0.254 m -0.33867,-0.16933 0.0847,0.0847 -0.0847,-0.0847 m 28.25044,0.0282 0.0564,0.0282 -0.0564,-0.0282 m 0.0282,0.14111 0.0847,0.0847 -0.0847,-0.0847 m 0,0.16933 -0.0847,0.254 h 0.0847 v -0.254 m -27.51667,0.254 c 0.15794,0.69413 -0.0564,1.3952 -0.33866,2.032 h -0.0847 l -0.508,-1.524 0.93133,-0.508 m 27.178,0.254 0.0847,0.0847 -0.0847,-0.0847 m 0.16934,0.16934 0.0847,0.0847 -0.0847,-0.0847 m -26.75467,0.16933 -0.16933,0.33867 h -0.0847 l 0.0847,-0.33867 h 0.16933 m 26.58533,0.16933 0.0847,0.0847 -0.0847,-0.0847 m -26.07733,0.254 c -0.19489,0.6024 -0.6609,1.43756 -0.42333,2.032 h 0.0847 c 0.2266,-0.43075 0.38316,-1.16121 0.93134,-1.18533 8.5e-4,-0.58654 0.42249,-0.45064 0.84666,-0.33867 -0.29819,0.61732 -0.91314,1.71989 -1.524,2.032 l -0.16933,0.42334 h -0.0847 l -1.016,-1.60867 c 0.41094,-0.34693 0.92092,-0.87252 0.93134,-1.43933 l 0.42333,0.0847 m 0.42333,0.0847 -0.254,0.16933 0.254,-0.16933 m 25.56934,0 0.0847,0.0847 -0.0847,-0.0847 m -18.796,0.0847 -0.16934,0.16933 0.16934,-0.16933 m -0.254,0.0847 v 0.0847 l -1.94734,0.33867 1.94734,-0.42334 m 19.02177,0.0282 0.0565,0.0282 -0.0565,-0.0282 m -0.11288,0.19755 0.0282,0.0564 -0.0282,-0.0564 m -0.19756,0.11289 0.0847,0.0847 -0.0847,-0.0847 m -0.0847,0.33867 0.0847,0.0847 -0.0847,-0.0847 m 0,0.254 0.0847,0.0847 -0.0847,-0.0847 m -0.254,0.254 v 0.0847 h 0.254 l -0.254,-0.0847 m -25.146,0.16933 0.0847,0.0847 -0.0847,-0.0847 m 25.146,0.16933 0.0847,0.0847 -0.0847,-0.0847 m -25.23066,0.16934 0.0847,0.0847 -0.0847,-0.0847 m 24.97666,0.33866 h 0.0847 0.0847 l 0.0847,-0.16933 -0.254,0.16933 m -25.06133,0.0847 0.0847,0.0847 -0.0847,-0.0847 m 24.83556,0.47977 0.0282,0.0565 -0.0282,-0.0565 m -2.31423,0.1129 -0.84666,1.10066 0.84666,-1.10066 m 2.20134,0.0847 0.0847,0.0847 -0.0847,-0.0847 m -0.33867,0.42334 0.0847,0.0847 -0.0847,-0.0847 m -24.13,0.84666 1.43933,1.524 c -0.42496,-0.28583 -1.5142,-0.96401 -1.43933,-1.524 m 23.70667,0.16934 0.0847,0.0847 -0.0847,-0.0847 m -24.13,0.16933 c 1.23566,1.60553 2.88381,2.53527 4.56867,3.55933 0.99673,0.60582 1.84025,1.2037 3.05133,1.38576 1.59187,0.23931 3.26628,-0.14053 4.826,-0.42183 1.02934,-0.18566 2.13658,-0.40588 3.13266,-0.71542 0.39194,-0.1218 0.89739,-0.24532 1.016,-0.67517 l 1.18534,-0.254 v 0.0847 l -0.67734,0.254 0.16934,0.33867 h -0.0847 l -0.0847,-0.254 -0.254,0.33867 c -0.60791,0.009 -1.29827,0.52675 -1.86273,0.76101 -1.07748,0.44718 -2.31075,0.84124 -3.47127,0.99249 -1.46684,0.19118 -2.97945,0.0864 -4.42684,-0.19364 -0.63344,-0.12257 -1.17634,-0.55151 -1.83849,-0.54386 v -0.16995 c -0.65948,-0.0702 -1.27125,-0.58214 -1.77833,-0.98013 -0.86943,-0.68238 -1.84157,-1.28199 -2.62068,-2.0712 -0.31417,-0.31824 -0.89028,-0.97149 -0.85032,-1.436 m 23.96066,0 0.0847,0.0847 -0.0847,-0.0847 m -0.67733,0.762 0.0847,0.0847 -0.0847,-0.0847 m -0.33867,0.33867 0.0847,0.0847 -0.0847,-0.0847 m -20.828,0.16933 v 0.16933 l -0.16933,-0.16933 h 0.16933 m 20.15067,0.508 0.0847,0.0847 -0.0847,-0.0847 m -0.508,0.42333 0.0847,0.0847 -0.0847,-0.0847 m -0.16933,0.16934 0.0847,0.0847 -0.0847,-0.0847 m -3.38667,0.0847 -0.0847,0.0847 0.0847,-0.0847 m 2.87867,0.33867 0.0847,0.0847 -0.0847,-0.0847 m -2.96334,0.0847 -0.0847,0.0847 0.0847,-0.0847 m 2.87867,0.0847 0.0847,0.0847 -0.0847,-0.0847 m -0.33867,0.0847 -0.0847,0.16933 0.0847,-0.16933 m -5.41866,0.254 -0.0847,0.0847 0.0847,-0.0847 m 0.254,0 -0.0847,0.0847 0.0847,-0.0847 m -0.508,0.11289 c 0.0655,0 0.0136,0.0421 -0.0282,0.0282 l 0.0282,-0.0282 m 5.08,0.14111 -0.0847,0.16933 h 0.16933 l -0.0847,-0.16933 m -6.51934,0.0847 c -0.32793,0.40554 -1.28213,0.41845 -1.778,0.50119 -1.70863,0.2851 -3.19266,0.48183 -4.91066,0.0915 l 2.28567,-0.0913 4.40299,-0.50133 m 6.23711,0.0282 0.0564,0.0282 -0.0564,-0.0282 m -0.22577,0.0564 0.0847,0.254 -0.0847,-0.254 m -0.42334,0.254 -0.0847,0.254 0.0847,-0.254 m -12.36133,0.0847 v 0.0847 h -0.254 l 0.254,-0.0847 m 12.02267,0.0847 0.16933,0.254 -0.16933,-0.254 m -0.14111,0.31044 0.0282,0.0564 -0.0282,-0.0564 m -0.70556,0.28222 0.508,-0.16933 -0.508,0.16933 m -0.16933,-0.16933 -0.0847,0.254 -0.508,0.0847 0.254,-0.0847 c 0.21936,0.006 0.34608,-0.0152 0.33867,-0.254 m 0.42333,0 -0.0847,0.0847 0.0847,-0.0847 m -1.35467,0.42333 v 0.0847 h 0.33867 l -0.33867,-0.0847 m -0.59266,0.16934 v 0.0847 l 0.508,-0.254 -0.508,0.16934 m -9.99067,-0.0847 -0.0847,0.0847 0.0847,-0.0847 m 9.84956,0.14111 0.0282,0.0564 -0.0282,-0.0564 m -0.45156,0.28222 0.33867,-0.0847 v -0.0847 -0.0847 h -0.254 l -0.0847,0.254 m -0.33867,-0.0847 v 0.0847 l 0.254,0.0847 v -0.254 l -0.254,0.0847 m -0.254,0 0.0847,0.254 h 0.0847 v -0.254 h -0.16934 m -0.42333,0.0847 0.0847,0.254 0.254,-0.0847 v -0.0847 -0.0847 h -0.33867 m -0.84667,0.508 0.59267,-0.0847 v -0.254 l 0.254,0.16933 -0.0847,-0.254 -0.762,0.42333 m -0.0847,-0.254 0.0847,0.0847 -0.0847,-0.0847 m -0.84667,0.16934 0.0847,0.254 0.59266,-0.33867 -0.67733,0.0847 m -0.59267,0.33866 0.508,-0.33866 -0.508,0.33866 m 1.016,-0.33866 -0.0847,0.0847 0.0847,-0.0847 m -1.69327,0.16927 -0.508,0.33867 0.508,-0.33867 m 0.16933,0 v 0.0847 h 0.42334 l -0.42334,-0.0847 m -1.35466,0.16933 v 0.0847 l 0.59266,0.0847 -0.0847,-0.254 -0.508,0.0847"
       style="display:inline;fill:#2e2127;stroke:none"
       id="night-2" />
  </g>
</svg>
