<?xml version="1.0" encoding="UTF-8" standalone="no"?>
<!-- Created with Inkscape (http://www.inkscape.org/) -->

<svg
   width="113.00134mm"
   height="33.192551mm"
   viewBox="0 0 113.00134 33.19255"
   version="1.1"
   id="svg1"
   xmlns="http://www.w3.org/2000/svg"
   xmlns:svg="http://www.w3.org/2000/svg">
  <defs
     id="defs1" />
  <g
     id="layer1"
     transform="rotate(-90,18.28611,101.89444)"
     style="fill:#0f0e47;fill-opacity:1">
    <path
       d="m 118.83781,104.0753 c 0,-0.0486 -0.0377,-0.0651 -0.0838,-0.0366 -0.0718,0.0443 -0.46199,-0.009 -1.14388,-0.15717 -0.60914,-0.13212 -1.54891,-0.44242 -1.68106,-0.55507 -0.0864,-0.0736 -0.1721,-0.12436 -0.1905,-0.11272 -0.0184,0.0116 -0.0525,0.0164 -0.0758,0.0106 -0.0233,-0.006 -0.0709,-0.0158 -0.10583,-0.0221 -0.17849,-0.0325 -0.61383,-0.25025 -0.61383,-0.30703 0,-0.0359 -0.10478,-0.0911 -0.23284,-0.12272 -0.27151,-0.0671 -1.04854,-0.54037 -1.1472,-0.6988 -0.0372,-0.0598 -0.10799,-0.10872 -0.15722,-0.10872 -0.0492,0 -0.28091,-0.1524 -0.51485,-0.33867 -0.23394,-0.18626 -0.3971,-0.33866 -0.36257,-0.33866 0.0345,0 -0.0179,-0.0667 -0.11659,-0.14817 -0.0986,-0.0815 -0.18737,-0.25294 -0.19718,-0.381 -0.01,-0.12806 -0.0476,-0.23283 -0.084,-0.23283 -0.0364,0 -0.0662,-0.0572 -0.0662,-0.127 0,-0.0699 -0.0286,-0.12837 -0.0635,-0.13003 -0.0349,-0.002 -0.9017,-0.0161 -1.92616,-0.0321 -1.02447,-0.016 -2.01507,-0.0502 -2.20133,-0.076 -0.18627,-0.0258 -0.55769,-0.0723 -0.82537,-0.10324 -0.26769,-0.0309 -0.46812,-0.0863 -0.44541,-0.123048 0.0227,-0.0367 -0.006,-0.0651 -0.0636,-0.063 -0.32558,0.0117 -0.41713,-0.0288 -0.36605,-0.16187 0.0444,-0.11574 0.0319,-0.12123 -0.0745,-0.0329 -0.12896,0.10703 -0.40161,0.0635 -0.36681,-0.0586 0.0392,-0.13757 -0.19318,-0.43604 -0.33486,-0.43006 -0.21012,0.009 -0.61368,-0.16607 -0.61368,-0.26604 0,-0.0463 -0.0489,-0.0653 -0.10866,-0.0424 -0.0598,0.0229 -0.27883,-0.0478 -0.48683,-0.15728 -0.55925,-0.29424 -0.98946,-0.51103 -1.61671,-0.81469 -0.30867,-0.14942 -0.67062,-0.37478 -0.80434,-0.50078 -0.30442,-0.28687 -0.87812,-0.71461 -0.87812,-0.65471 0,0.11026 -1.919,-1.12333 -2.32834,-1.49672 -0.45199,-0.4123 -0.76043,-0.65596 -0.83049,-0.65606 -0.0377,-6e-5 -0.043,-0.0414 -0.0118,-0.0919 0.0383,-0.062 -0.063,-0.0832 -0.31168,-0.0652 -0.31339,0.0226 -0.37203,0.002 -0.39256,-0.14102 -0.0133,-0.0922 -0.0608,-0.30096 -0.10567,-0.46394 -0.0448,-0.16299 -0.0979,-0.47295 -0.11779,-0.68882 -0.0199,-0.21586 -0.13469,-0.60053 -0.25499,-0.85483 -0.24639,-0.52082 -0.2929,-0.93483 -0.0966,-0.85949 0.0672,0.0258 0.13898,0.11032 0.15951,0.18785 0.0205,0.0775 0.0427,-0.0305 0.0492,-0.24005 0.0393,-1.26516 0.1853,-2.27748 0.46399,-3.21733 0.0759,-0.25612 0.1627,-0.82371 0.1928,-1.26132 l 0.0547,-0.79565 -0.21814,0.0547 c -0.19199,0.0482 -0.22499,0.0236 -0.27525,-0.20523 -0.0678,-0.30882 -0.0655,-0.31213 0.25467,-0.355 0.18072,-0.0242 0.26368,-0.0903 0.29852,-0.23792 0.0265,-0.11242 0.11326,-0.21692 0.19271,-0.23222 0.1117,-0.0215 0.14445,0.0332 0.14445,0.24137 0,0.18456 0.065,0.32031 0.20666,0.43175 0.11367,0.0894 0.22979,0.23541 0.25804,0.32445 0.0505,0.15925 0.0558,0.15926 0.32462,6.7e-4 0.15028,-0.0887 0.35641,-0.23871 0.45808,-0.33342 0.10167,-0.0947 0.20822,-0.17222 0.23677,-0.17222 0.0286,0 0.10943,-0.0575 0.1797,-0.12778 0.0703,-0.0703 0.16521,-0.10464 0.21096,-0.0764 0.0457,0.0283 0.15697,-0.0154 0.24717,-0.097 0.0902,-0.0816 0.164,-0.12453 0.164,-0.0953 0,0.0292 0.17833,-0.0417 0.39629,-0.15763 0.30497,-0.16216 0.41198,-0.186 0.46437,-0.10345 0.0536,0.0844 0.0684,0.0828 0.0694,-0.008 7.8e-4,-0.0689 0.0539,-0.0947 0.13269,-0.0645 0.0735,0.0282 0.10918,0.0145 0.081,-0.0312 -0.0297,-0.048 0.0819,-0.0737 0.27077,-0.0625 0.27138,0.0161 0.31702,-0.005 0.29426,-0.13809 -0.0173,-0.10073 0.0131,-0.14283 0.0847,-0.11727 0.0614,0.0219 0.17002,0.01 0.24141,-0.0265 0.10071,-0.0515 0.12918,-0.0168 0.127,0.15501 -0.002,0.19932 0.0301,0.22264 0.32787,0.23398 0.37755,0.0144 0.73356,-0.24303 0.56679,-0.4098 -0.0512,-0.0512 -0.0931,-0.17851 -0.0931,-0.28287 0,-0.10435 -0.0381,-0.21328 -0.0847,-0.24206 -0.12404,-0.0767 -0.10499,-0.40163 0.0212,-0.36118 0.0582,0.0187 0.18204,0.17414 0.27517,0.3455 0.0931,0.17135 0.21696,0.31166 0.27517,0.31178 0.0582,1.3e-4 0.10583,0.0352 0.10583,0.0778 0,0.0427 -0.0476,0.0951 -0.10583,0.11642 -0.0824,0.0302 -0.0833,0.0627 -0.004,0.1467 0.0821,0.0872 0.15521,0.0815 0.381,-0.0298 0.24974,-0.12307 0.21537,-0.1863 -0.0804,-0.14789 -0.0582,0.008 -0.10584,-0.0166 -0.10584,-0.0537 0,-0.0371 0.18873,-0.0703 0.4194,-0.0739 0.23067,-0.004 0.39988,0.0251 0.37601,0.0637 -0.0239,0.0386 0.0182,0.0702 0.0936,0.0702 0.0753,0 0.11591,-0.0341 0.0901,-0.0758 -0.081,-0.13102 0.18877,-0.1742 0.29425,-0.0471 0.0553,0.0666 0.13596,0.0991 0.17937,0.0723 0.0434,-0.0268 0.4409,-0.0637 0.88331,-0.082 0.61951,-0.0256 0.79065,-0.009 0.74458,0.0709 -0.0329,0.0572 -0.0286,0.0758 0.01,0.0413 0.0381,-0.0345 0.12773,-0.0155 0.19916,0.0423 0.0714,0.0578 0.10567,0.0646 0.0761,0.0151 -0.0351,-0.0587 0.0843,-0.0878 0.34359,-0.0836 0.27876,0.005 0.39054,0.0392 0.37448,0.11633 -0.0167,0.0802 0.0164,0.088 0.12254,0.0286 0.0836,-0.0468 0.22469,-0.0513 0.33169,-0.0106 0.10244,0.039 0.20666,0.0504 0.23161,0.0255 0.025,-0.025 0.1908,0.004 0.36854,0.0643 0.17775,0.0603 0.36128,0.11759 0.40784,0.1273 0.29796,0.0621 1.4778,0.41131 1.69076,0.50043 0.14112,0.059 0.52328,0.19333 0.84924,0.29839 0.85814,0.2766 3.29573,1.49958 3.66461,1.8386 0.0633,0.0582 0.16006,0.10588 0.21494,0.10594 0.0549,6e-5 0.20029,0.0865 0.32312,0.19219 0.12283,0.10564 0.48962,0.33805 0.81509,0.51646 0.32547,0.17841 0.83388,0.54913 1.12981,0.82381 0.29592,0.27469 0.54998,0.49944 0.56458,0.49944 0.11925,0 1.53761,1.66852 1.6341,1.92229 0.13111,0.34486 -0.048,0.43883 -0.21631,0.11346 -0.34275,-0.66281 -1.13334,-1.56365 -2.05288,-2.33918 -0.26898,-0.22685 -0.50811,-0.43772 -0.53139,-0.46859 -0.0233,-0.0309 -0.20416,-0.14029 -0.40195,-0.24316 -0.19779,-0.10286 -0.33869,-0.2209 -0.3131,-0.26229 0.0256,-0.0414 -0.006,-0.0553 -0.0691,-0.0309 -0.0636,0.0244 -0.18575,-0.0332 -0.27152,-0.12797 -0.0858,-0.0948 -0.18718,-0.17232 -0.22536,-0.17232 -0.0382,0 0.18681,0.23345 0.49996,0.51878 1.12125,1.02163 2.35083,2.32511 2.54599,2.69901 0.5208,0.99777 0.64726,1.76103 0.44182,2.66655 -0.0528,0.23283 -0.13218,0.74718 -0.17635,1.143 -0.1081,0.96876 -0.1229,1.01775 -0.46371,1.53525 -0.1632,0.2478 -0.29672,0.49905 -0.29672,0.55832 0,0.0593 -0.0381,0.10776 -0.0847,0.10776 -0.0466,0 -0.0846,0.0476 -0.0845,0.10583 8e-5,0.0582 -0.2436,0.33444 -0.54152,0.61384 -0.54879,0.51468 -1.91126,1.31233 -2.24161,1.31233 -0.0937,0 -0.19426,0.0387 -0.22348,0.086 -0.0292,0.0473 -0.17434,0.14045 -0.3225,0.20707 -0.48035,0.21599 -0.66338,0.42898 -0.59857,0.696588 0.1022,0.42201 0.75064,1.32685 1.26654,1.76733 0.77193,0.65909 1.93655,1.46729 2.29828,1.59491 0.17903,0.0632 0.46884,0.10348 0.64401,0.0896 0.28071,-0.0223 0.31237,-0.006 0.26689,0.13732 -0.0466,0.14694 -0.004,0.16352 0.44094,0.17233 0.27089,0.005 0.56342,0.002 0.65006,-0.007 0.0979,-0.0103 0.14336,0.026 0.12011,0.0961 -0.0466,0.14036 -1.33597,0.20224 -1.33597,0.0641 z m -3.81,-1.53517 c -0.16299,-0.10239 -0.31539,-0.18942 -0.33867,-0.1934 -0.20343,-0.0348 -0.66418,-0.33459 -0.62117,-0.40419 0.0335,-0.0543 0.0132,-0.0628 -0.0525,-0.0222 -0.059,0.0364 -0.13156,0.0328 -0.16131,-0.008 -0.0795,-0.10932 -0.60441,-0.37295 -0.60373,-0.30324 6.4e-4,0.0658 0.32781,0.28769 0.97309,0.66006 0.67404,0.38897 1.36001,0.62013 0.80433,0.27105 z m 0.1941,-0.39818 c -0.1028,-0.0858 -0.17111,-0.1718 -0.1518,-0.19111 0.0193,-0.0193 -0.0388,-0.0407 -0.12907,-0.0475 -0.14057,-0.0106 -0.13091,0.0169 0.0671,0.19125 0.12721,0.11198 0.2694,0.20355 0.31597,0.20347 0.0466,-8e-5 5.6e-4,-0.0703 -0.10224,-0.15615 z m -1.00913,-0.38604 c -0.0262,-0.0684 -0.22508,-0.23884 -0.44185,-0.37878 -0.21677,-0.13993 -0.44551,-0.29855 -0.50832,-0.35247 -0.0628,-0.0539 -0.28351,-0.18807 -0.49043,-0.29809 l -0.37624,-0.20005 0.15177,0.20313 c 0.13726,0.18372 0.43781,0.39483 1.36486,0.95871 0.37119,0.22578 0.35996,0.22325 0.30021,0.0675 z m -1.134,-0.34337 c -0.0589,-0.071 -0.12915,-0.107 -0.15609,-0.0801 -0.0269,0.0269 0.007,0.0844 0.0756,0.12775 0.17924,0.11335 0.20266,0.0995 0.0805,-0.0477 z m 1.18703,-0.88695 c 0,-0.0466 -0.0168,-0.0847 -0.0373,-0.0847 -0.0205,0 -0.0609,0.0381 -0.0897,0.0847 -0.0288,0.0466 -0.012,0.0847 0.0373,0.0847 0.0493,0 0.0897,-0.0381 0.0897,-0.0847 z m -0.71967,-0.33867 c -0.0288,-0.0466 -0.11675,-0.0841 -0.1955,-0.0834 -0.12338,10e-4 -0.12561,0.0126 -0.0162,0.0834 0.16581,0.10715 0.2779,0.10715 0.21167,0 z m -2.95167,-0.397558 c -0.0902,-0.0902 -0.31524,-0.10599 -0.26107,-0.0183 0.0262,0.0425 0.10899,0.0772 0.18385,0.0772 0.0749,0 0.10961,-0.0265 0.0772,-0.0589 z m -0.51966,-0.11044 c -0.0931,-0.04 -0.32174,-0.0709 -0.508,-0.0687 -0.32366,0.004 -0.32741,0.007 -0.0847,0.0687 0.1397,0.0356 0.3683,0.0665 0.508,0.0687 0.21509,0.003 0.22806,-0.007 0.0847,-0.0687 z m 3.73822,-0.64167 c 0.10319,-0.12009 0.24343,-0.22653 0.31165,-0.23655 0.0682,-0.01 0.17551,-0.0589 0.23842,-0.10865 0.0629,-0.0497 0.22043,-0.1158 0.35005,-0.14678 0.26072,-0.0623 1.24599,-1.01287 1.24599,-1.20207 0,-0.0658 0.0381,-0.11961 0.0847,-0.11961 0.0466,0 0.0847,-0.0487 0.0847,-0.10814 0,-0.0595 0.1143,-0.23327 0.254,-0.38622 0.1397,-0.15295 0.254,-0.29745 0.254,-0.32111 0,-0.0237 0.11017,-0.20315 0.24483,-0.39887 0.36692,-0.53331 0.68664,-1.35771 0.6855,-1.76761 -5.5e-4,-0.19932 -0.0609,-0.57194 -0.13399,-0.82805 -0.0731,-0.25612 -0.15177,-0.56092 -0.17471,-0.67734 -0.0229,-0.11641 -0.0743,-0.28786 -0.11411,-0.381 -0.0398,-0.0931 -0.11768,-0.32173 -0.17304,-0.508 -0.17489,-0.58843 -0.48505,-1.13141 -0.80947,-1.41707 -0.17257,-0.15194 -0.40472,-0.36199 -0.5159,-0.46676 -0.11118,-0.10478 -0.23268,-0.1905 -0.27,-0.1905 -0.1218,0 -0.43251,-0.31326 -0.42975,-0.43327 0.002,-0.094 0.0231,-0.0918 0.10583,0.011 0.0567,0.0704 0.20792,0.17438 0.33598,0.23102 0.12806,0.0566 0.23283,0.14191 0.23283,0.18947 0,0.0476 0.044,0.0865 0.0978,0.0865 0.0588,0 0.0423,-0.0613 -0.0413,-0.15366 -0.0765,-0.0845 -0.18074,-0.27322 -0.23167,-0.41933 -0.0588,-0.16856 -0.22161,-0.34222 -0.44556,-0.47513 -0.19412,-0.11521 -0.4863,-0.34027 -0.64928,-0.50013 -0.3358,-0.32935 -0.76218,-0.56092 -1.43934,-0.78169 -0.25611,-0.0835 -0.65616,-0.2529 -0.889,-0.37644 -0.5239,-0.278 -1.27499,-0.59815 -1.50898,-0.64322 -0.0966,-0.0186 -0.57758,-0.16545 -1.06895,-0.32634 -1.54685,-0.50652 -2.37741,-0.68634 -3.60273,-0.78002 -0.74169,-0.0567 -0.7519,-0.0567 -1.05834,-0.004 -0.55948,0.0961 -0.67733,0.15922 -0.67733,0.36293 0,0.12202 0.0496,0.20249 0.12488,0.20249 0.0935,0 0.11217,0.0636 0.0742,0.25349 -0.0279,0.13942 -0.01,0.35849 0.0407,0.48683 0.0503,0.12834 0.10843,0.35483 0.12928,0.50332 0.0209,0.14849 0.0604,0.30642 0.088,0.35096 0.0275,0.0445 -0.01,0.10384 -0.0823,0.13177 -0.0868,0.0333 -0.11415,0.10812 -0.0795,0.21734 0.0291,0.0916 0.0125,0.24188 -0.0367,0.33395 -0.0647,0.12088 -0.0624,0.18422 0.008,0.22794 0.0608,0.0376 0.075,0.0234 0.0376,-0.0372 -0.0332,-0.0537 -0.0201,-0.0977 0.0292,-0.0977 0.0493,0 0.0941,0.0857 0.0994,0.1905 0.0159,0.30972 0.0269,0.34626 0.19885,0.65617 0.0904,0.16298 0.22333,0.40837 0.29538,0.54529 0.072,0.13693 0.17958,0.2579 0.23895,0.26882 0.0594,0.0109 0.0689,4.9e-4 0.0212,-0.0232 -0.0477,-0.0237 -0.0868,-0.0826 -0.0868,-0.13102 0,-0.0571 0.0404,-0.0545 0.11516,0.008 0.0637,0.0529 0.10102,0.19928 0.0835,0.32787 -0.0272,0.19925 -0.0203,0.20821 0.0482,0.063 0.058,-0.123 0.0843,-0.13458 0.0959,-0.0423 0.009,0.0699 0.0115,0.15557 0.006,0.1905 -0.005,0.0349 0.0344,0.0635 0.0888,0.0635 0.0543,0 0.0752,0.0236 0.0464,0.0524 -0.0288,0.0288 0.005,0.10994 0.0754,0.18025 0.0703,0.0703 0.10458,0.18844 0.0762,0.26251 -0.0284,0.0741 -0.0261,0.10906 0.005,0.0778 0.0933,-0.0933 0.33977,0.24069 0.60801,0.82404 0.1363,0.29644 0.0762,0.19921 0.816,1.31901 0.53189,0.80504 1.07228,1.51579 1.62145,2.13262 0.11473,0.12887 0.2086,0.26101 0.2086,0.29364 0,0.0807 0.43087,0.44574 0.52617,0.44574 0.0421,0 0.053,0.0379 0.0244,0.0843 -0.0287,0.0464 0.0548,0.13177 0.1855,0.18979 0.13069,0.058 0.33247,0.19154 0.44841,0.2967 0.11594,0.10516 0.23828,0.1912 0.27187,0.1912 0.0845,0 0.40633,0.35355 0.40633,0.44641 0,0.0417 -0.1563,-0.0512 -0.34733,-0.20646 -0.19104,-0.15526 -0.44783,-0.35848 -0.57067,-0.45162 l -0.22333,-0.16933 0.19543,0.27517 c 0.10749,0.15134 0.22371,0.27516 0.25828,0.27516 0.0346,0 0.28573,0.25718 0.55814,0.5715 0.27241,0.31433 0.52615,0.56236 0.56386,0.55118 0.0377,-0.0112 0.10838,0.0541 0.15705,0.14501 0.0487,0.0909 0.1411,0.14515 0.20541,0.12047 0.0643,-0.0247 0.17083,0.0321 0.23672,0.12617 0.0659,0.0941 0.22225,0.20999 0.34746,0.2576 0.1252,0.0476 0.22765,0.13058 0.22765,0.18439 0,0.098 0.0636,0.0923 0.91356,-0.0822 0.35153,-0.0722 0.35861,-0.0695 0.21971,0.084 -0.0789,0.0872 -0.19252,0.15858 -0.2524,0.15858 -0.0599,0 -0.13243,0.0381 -0.16121,0.0847 -0.1163,0.18818 0.34635,0.0694 0.52089,-0.13367 z m -1.45222,-0.74644 c -0.23284,-0.10616 -0.47563,-0.25637 -0.53954,-0.33379 -0.0639,-0.0774 -0.17093,-0.14077 -0.23783,-0.14077 -0.0688,0 -0.096,-0.0415 -0.0625,-0.0956 0.0358,-0.0579 0.013,-0.0803 -0.0576,-0.0567 -0.13232,0.0441 -0.46592,-0.33285 -0.37484,-0.42357 0.0326,-0.0325 0.1322,0.0309 0.22132,0.14083 0.0891,0.10994 0.16205,0.17686 0.16205,0.14873 0,-0.0281 0.18097,0.0871 0.40216,0.25597 0.22119,0.16892 0.52599,0.36622 0.67734,0.43846 0.15134,0.0722 0.27516,0.16237 0.27516,0.20031 0,0.0851 0.0388,0.0962 -0.46566,-0.13379 z m 2.41968,-9.07528 c 0.004,-0.0986 0.0241,-0.11869 0.0512,-0.0512 0.0245,0.0611 0.0215,0.13414 -0.007,0.16228 -0.0281,0.0281 -0.0481,-0.0219 -0.0445,-0.11113 z m -9.87035,-0.11994 c 0.0288,-0.0466 0.0691,-0.0847 0.0897,-0.0847 0.0205,0 0.0373,0.0381 0.0373,0.0847 0,0.0466 -0.0403,0.0847 -0.0897,0.0847 -0.0493,0 -0.0661,-0.0381 -0.0373,-0.0847 z m 9.69433,0 c 0,-0.0621 -0.0222,-0.0907 -0.0494,-0.0635 -0.0617,0.0617 -0.37394,-0.243 -0.37394,-0.36484 0,-0.0493 -0.0326,-0.0695 -0.0724,-0.0449 -0.0842,0.0521 -0.48689,-0.35036 -0.41874,-0.41851 0.0252,-0.0252 0.22219,0.12564 0.43778,0.33517 0.21559,0.20953 0.39314,0.35381 0.39456,0.32063 0.001,-0.0332 0.043,0.009 0.0924,0.0942 0.0494,0.085 0.0673,0.17705 0.0398,0.20461 -0.0276,0.0276 -0.0501,-7.1e-4 -0.0501,-0.0628 z m -3.86058,9.97436 c -0.0528,-0.0877 -0.0407,-0.0898 0.0583,-0.01 0.0717,0.0579 0.1727,0.0715 0.23696,0.0318 0.0798,-0.0493 0.0847,-0.0862 0.017,-0.12801 -0.0523,-0.0323 -0.0726,-0.0952 -0.0451,-0.13968 0.0275,-0.0445 0.012,-0.0704 -0.0344,-0.0576 -0.19175,0.0529 -2.00214,-1.66072 -1.91075,-1.80858 0.0263,-0.0425 0.0133,-0.0669 -0.0288,-0.0541 -0.10452,0.0317 -0.80593,-0.75621 -1.44896,-1.62774 -0.29205,-0.39581 -0.59261,-0.79513 -0.66791,-0.88738 -0.22121,-0.27095 -1.65729,-2.49659 -1.96775,-3.04962 -0.15685,-0.2794 -0.31005,-0.52705 -0.34044,-0.55033 -0.1172,-0.0898 -0.52434,-0.8568 -0.47892,-0.90223 0.0264,-0.0264 -0.0309,-0.26276 -0.12717,-0.52534 -0.18269,-0.49818 -0.3235,-0.72565 -0.3235,-0.52259 0,0.0636 -0.0274,0.0883 -0.0609,0.0548 -0.0962,-0.0962 -0.096,-0.67558 3.5e-4,-0.79641 0.0606,-0.076 0.0573,-0.13938 -0.0108,-0.20743 -0.0539,-0.0539 -0.098,-0.18339 -0.098,-0.28775 0,-0.10435 -0.0419,-0.21565 -0.0932,-0.24733 -0.0526,-0.0325 -0.0722,-0.16242 -0.0451,-0.29805 0.0275,-0.13757 0.007,-0.26556 -0.0469,-0.29915 -0.0631,-0.039 -0.0715,-0.0187 -0.025,0.0602 0.0385,0.0654 -0.0117,0.0473 -0.11148,-0.0402 -0.15988,-0.14017 -0.17532,-0.21762 -0.12996,-0.65164 0.0498,-0.47668 0.0445,-0.49433 -0.16655,-0.54729 -0.13203,-0.0331 -0.31195,-0.004 -0.45609,0.0741 -0.13093,0.0709 -0.3714,0.17918 -0.53439,0.2407 -0.49737,0.18775 -1.61529,0.78175 -2.2966,1.2203 -0.35508,0.22856 -0.76712,0.48188 -0.91565,0.56294 -0.15833,0.0864 -0.24578,0.18664 -0.21139,0.2423 0.073,0.1182 -0.11268,0.24231 -0.36519,0.24403 -0.17834,0.001 -0.1905,0.0373 -0.1905,0.56475 0,0.55866 0.001,0.56215 0.16985,0.40974 0.26266,-0.2377 0.31468,-0.0681 0.0958,0.31227 -0.48023,0.83442 -0.24926,1.86148 0.77714,3.45575 0.38634,0.60007 0.39498,0.61135 1.14616,1.49527 0.56409,0.66377 1.60124,1.45693 2.66999,2.04188 1.64875,0.90238 2.40755,1.28709 2.801,1.42011 0.2315,0.0783 0.62756,0.23682 0.88014,0.35235 1.41799,0.64861 2.31227,0.86939 3.80812,0.94016 0.42449,0.0201 0.5232,0.002 0.47058,-0.0853 z m 1.02425,-0.10872 c -0.27198,-0.19215 -0.54071,-0.40346 -0.94468,-0.74281 -0.53797,-0.45193 -0.55487,-0.39343 -0.0245,0.0847 0.52163,0.47018 0.93441,0.77426 1.0538,0.77632 0.0466,8e-4 0.008,-0.0524 -0.0847,-0.11817 z m 4.40267,-0.40394 c 0.60025,-0.30301 1.15872,-0.65637 1.03738,-0.65637 -0.1518,0 -2.14538,0.86063 -2.25618,0.974 -0.24176,0.24737 0.46384,0.0635 1.2188,-0.31763 z m -10.32934,-0.14837 c -0.0288,-0.0466 -0.0977,-0.0841 -0.15316,-0.0834 -0.0606,7.8e-4 -0.0502,0.0341 0.0262,0.0834 0.16266,0.10511 0.19197,0.10511 0.127,0 z m -1.05833,-0.46136 c 0,-0.0707 -1.71143,-0.90343 -1.75902,-0.85584 -0.026,0.026 -0.006,0.0472 0.0455,0.0472 0.051,0 0.14731,0.0546 0.21402,0.12129 0.3178,0.3178 1.49947,0.85947 1.49947,0.68735 z m 11.66651,-0.43161 c 0.24525,-0.16516 0.42715,-0.33066 0.40421,-0.36777 -0.0229,-0.0371 -0.003,-0.20906 0.0452,-0.38209 0.13214,-0.47856 0.0452,-0.55368 -0.20496,-0.17718 -0.12367,0.18609 -0.35833,0.53837 -0.52146,0.78284 -0.16314,0.24448 -0.26787,0.4445 -0.23274,0.4445 0.0351,0 0.26454,-0.13513 0.50979,-0.3003 z m 1.27139,-0.19487 c 0.42822,-0.22832 1.16729,-1.20463 1.23568,-1.63235 0.0312,-0.1954 0.022,-0.39014 -0.0206,-0.43274 -0.12018,-0.12018 -0.45316,0.40808 -0.42684,0.67718 0.0125,0.12765 -0.0284,0.32733 -0.0908,0.44375 -0.12137,0.22629 -0.71477,0.82323 -0.98399,0.98985 -0.25444,0.15748 -0.0262,0.12109 0.28661,-0.0457 z m 0.2325,-1.34099 c 0.10976,-0.16191 0.17868,-0.40973 0.18655,-0.67081 l 0.0125,-0.41403 -0.14433,0.381 c -0.0794,0.20955 -0.21096,0.50293 -0.29239,0.65196 -0.0814,0.14903 -0.14805,0.29508 -0.14805,0.32456 0,0.12397 0.22436,-0.0346 0.38573,-0.27268 z m -19.23211,-1.05245 c -0.0887,-0.0986 -0.40894,-0.42408 -0.71162,-0.7233 -0.43243,-0.42746 -0.55706,-0.51157 -0.58172,-0.39256 -0.0195,0.0941 0.0718,0.23175 0.24109,0.36346 0.14987,0.11661 0.46879,0.37312 0.70872,0.57002 0.48465,0.39774 0.58541,0.45124 0.34353,0.18238 z m 19.83015,-0.47689 c -0.0253,-0.17462 -0.0475,-0.34607 -0.0492,-0.381 -0.002,-0.0349 -0.0363,-0.0635 -0.0768,-0.0635 -0.0712,0 -0.052,0.44123 0.0286,0.65617 0.0828,0.22078 0.14162,0.093 0.0974,-0.21167 z m -10.77589,0.0175 c -0.0276,-0.0719 -0.0683,-0.11249 -0.0905,-0.0903 -0.0222,0.0222 -0.0152,0.081 0.0155,0.13065 0.0835,0.13508 0.13228,0.10884 0.075,-0.0403 z m -0.33333,-0.41968 c -0.0763,-0.11642 -0.16289,-0.21206 -0.19246,-0.21253 -0.0296,-4.8e-4 -0.24426,-0.30489 -0.47709,-0.67647 -0.23284,-0.37158 -0.4538,-0.67599 -0.49104,-0.67647 -0.0372,-4.7e-4 -0.0372,0.0468 0,0.10497 0.75017,1.1726 1.11546,1.67217 1.2227,1.67217 0.0421,0 0.0142,-0.0953 -0.0621,-0.21167 z m -9.11353,-0.127 c -0.0582,-0.0931 -0.1406,-0.16933 -0.18318,-0.16933 -0.0426,0 -0.008,0.0762 0.0758,0.16933 0.0843,0.0931 0.16671,0.16933 0.18318,0.16933 0.0165,0 -0.0177,-0.0762 -0.0758,-0.16933 z m 19.52025,-0.6491 c -0.0339,-0.24694 -0.0188,-0.3669 0.0459,-0.3669 0.0529,0 0.0962,-0.10786 0.0962,-0.23969 0,-0.16668 -0.0622,-0.27298 -0.20418,-0.34897 -0.12495,-0.0669 -0.22385,-0.21414 -0.25488,-0.37955 -0.029,-0.15435 -0.18199,-0.39507 -0.35677,-0.5612 -0.19944,-0.18956 -0.27466,-0.22982 -0.21591,-0.11556 0.22397,0.43562 0.46858,1.23752 0.66856,2.19178 0.12342,0.58889 0.14942,0.64314 0.20631,0.43041 0.0358,-0.13388 0.0425,-0.40852 0.0148,-0.61032 z m 1.11289,0.37581 c 0.12951,-0.75875 0.1437,-0.92996 0.0936,-1.1296 -0.0284,-0.11318 -0.10749,-0.20578 -0.17573,-0.20578 -0.10107,0 -0.11428,0.0939 -0.0712,0.50619 0.0345,0.32975 0.0191,0.54686 -0.0439,0.62288 -0.10303,0.12414 -0.0374,0.67492 0.0723,0.6071 0.0348,-0.0215 0.091,-0.20185 0.12497,-0.40079 z m -20.09499,-0.25729 c -0.0836,-0.083 -0.0933,-0.0733 -0.0474,0.0474 0.0318,0.0835 0.0791,0.13049 0.10521,0.10442 0.0261,-0.0261 5e-5,-0.0944 -0.0578,-0.15182 z m -0.69914,-0.96052 c -0.0554,-0.13451 -0.0946,-0.27315 -0.087,-0.30807 0.007,-0.0349 -0.0435,-0.0635 -0.11333,-0.0635 -0.0699,0 -0.127,0.0381 -0.127,0.0847 0,0.0466 0.0297,0.0847 0.0661,0.0847 0.0364,0 0.11189,0.12131 0.16786,0.26958 0.056,0.14827 0.12254,0.24881 0.14793,0.22341 0.0254,-0.0254 8.6e-4,-0.15623 -0.0545,-0.29075 z m 20.20023,-1.14144 c -0.0745,-0.14403 -0.15308,-0.2442 -0.17468,-0.22261 -0.0577,0.0577 0.15099,0.48448 0.23685,0.48448 0.0403,0 0.0123,-0.11784 -0.0622,-0.26187 z m -20.67582,-0.20178 c -0.0555,-0.29053 -0.10578,-0.26901 -0.10578,0.0453 0,0.14245 0.033,0.23861 0.0733,0.21369 0.0403,-0.0249 0.0549,-0.14147 0.0325,-0.259 z m 17.92477,-3.17205 c -0.20765,-0.17957 -0.39274,-0.31198 -0.41131,-0.29424 -0.0186,0.0177 0.13383,0.18152 0.33867,0.36398 0.20483,0.18246 0.38992,0.31487 0.41131,0.29425 0.0214,-0.0206 -0.13102,-0.18442 -0.33867,-0.36399 z m -11.25721,0.15437 c 0,-0.0466 -0.0381,-0.0611 -0.0847,-0.0323 -0.0466,0.0288 -0.0847,0.0904 -0.0847,0.13699 0,0.0466 0.0381,0.0611 0.0847,0.0323 0.0466,-0.0288 0.0847,-0.0904 0.0847,-0.13699 z m 10.541,-0.24401 c -0.0288,-0.0466 -0.0977,-0.0841 -0.15317,-0.0834 -0.0606,7.8e-4 -0.0502,0.0341 0.0262,0.0834 0.16266,0.10512 0.19197,0.10512 0.127,0 z m -0.97367,-0.5836 c 0,-0.0416 -0.0625,-0.0996 -0.13898,-0.12894 -0.1162,-0.0446 -0.12144,-0.0322 -0.032,0.0756 0.12194,0.14692 0.17095,0.16221 0.17095,0.0533 z m -9.84816,-0.27894 c -0.027,-0.0675 -0.0471,-0.0475 -0.0512,0.0511 -0.004,0.0893 0.0163,0.13926 0.0445,0.11113 0.0281,-0.0281 0.0311,-0.10116 0.007,-0.16228 z m -5.67406,-0.11712 c 0,-0.167 -0.17593,-0.10338 -0.21076,0.0762 -0.0179,0.0921 0.0139,0.12503 0.0917,0.0952 0.0655,-0.0251 0.11904,-0.10225 0.11904,-0.17138 z m 14.16755,0.0483 c -0.11641,-0.0911 -0.244,-0.16641 -0.28353,-0.16745 -0.0395,-0.001 -0.19193,-0.0566 -0.33867,-0.12345 -0.41878,-0.19082 -1.82726,-0.64103 -1.98611,-0.63484 -0.0788,0.003 0.1424,0.0936 0.49165,0.2012 0.68677,0.21156 1.9398,0.71019 2.0701,0.82376 0.0442,0.0386 0.12044,0.0693 0.16933,0.0682 0.0489,-0.001 -0.006,-0.0764 -0.12277,-0.16745 z m 0.84667,-0.003 c 0,-0.0482 -0.16192,-0.15746 -0.35983,-0.24275 -0.19791,-0.0853 -0.53129,-0.23222 -0.74084,-0.3265 -0.51271,-0.23068 -0.69595,-0.301 -0.84666,-0.32492 -0.0699,-0.0111 -0.2413,-0.0611 -0.381,-0.11107 -1.29622,-0.46396 -4.05945,-1.04888 -3.83457,-0.81171 0.0331,0.0349 0.22356,0.0793 0.42334,0.0986 0.41959,0.0407 2.59786,0.56324 3.28423,0.7878 0.59029,0.19313 1.63411,0.61546 2.07433,0.83926 0.40451,0.20566 0.381,0.20002 0.381,0.0913 z m -14.46593,-0.21491 c 0.31265,-0.16167 0.27804,-0.22534 -0.0832,-0.15309 -0.14713,0.0294 -0.26752,0.10589 -0.26752,0.16992 0,0.14776 0.0358,0.14604 0.35074,-0.0168 z m 5.1526,-0.20542 c 0,-0.0466 -0.0168,-0.0847 -0.0373,-0.0847 -0.0205,0 -0.0609,0.0381 -0.0897,0.0847 -0.0288,0.0466 -0.012,0.0847 0.0373,0.0847 0.0493,0 0.0897,-0.0381 0.0897,-0.0847 z m -6.01134,-0.12569 c 0,-0.0126 -0.0572,-0.0703 -0.127,-0.12831 -0.106,-0.088 -0.127,-0.0761 -0.127,0.0716 0,0.12258 0.0391,0.16205 0.127,0.12831 0.0699,-0.0268 0.127,-0.059 0.127,-0.0716 z m 2.43332,-0.69989 c 0.15181,-0.11578 0.27602,-0.22489 0.27602,-0.24246 0,-0.0735 -0.88987,0.3134 -1.01098,0.43954 -0.12114,0.12618 -0.10768,0.13239 0.16346,0.0755 0.16252,-0.0341 0.4197,-0.15676 0.5715,-0.27255 z m 1.58835,-0.37389 c 0.11351,-0.0494 0.0577,-0.057 -0.16933,-0.0232 -0.18627,0.0278 -0.37677,0.0883 -0.42334,0.13453 -0.0921,0.0915 0.29228,0.0192 0.59267,-0.11138 z m 3.429,-0.40488 0.381,-0.0678 -0.42333,-0.005 c -0.23284,-0.003 -0.49954,0.0281 -0.59267,0.0681 -0.1543,0.0663 -0.15054,0.0727 0.0423,0.0724 0.11642,-1.8e-4 0.38312,-0.0308 0.59267,-0.0681 z m -0.93133,-0.21099 c 0,-0.0894 -0.16249,-0.12691 -0.21082,-0.0487 -0.0292,0.0473 0.006,0.0861 0.0788,0.0861 0.0726,0 0.132,-0.0168 0.132,-0.0373 z m -3.13267,0.0373 c 0,-0.0466 0.0381,-0.0847 0.0847,-0.0847 0.0466,0 0.0847,0.0381 0.0847,0.0847 0,0.0466 -0.0381,0.0847 -0.0847,0.0847 -0.0466,0 -0.0847,-0.0381 -0.0847,-0.0847 z m 1.016,-0.254 c 0,-0.0466 0.0403,-0.0847 0.0897,-0.0847 0.0493,0 0.0661,0.0381 0.0373,0.0847 -0.0288,0.0466 -0.0691,0.0847 -0.0897,0.0847 -0.0205,0 -0.0373,-0.0381 -0.0373,-0.0847 z"
       style="fill:#0f0e47;fill-opacity:1"
       id="path1-99" />
    <path
       d="m 99.606623,109.44751 c -0.22858,-0.1059 -0.53888,-0.30884 -0.68956,-0.45096 -0.31112,-0.29346 -1.32574,-1.62497 -1.31287,-1.72291 0.005,-0.0354 -0.0439,-0.16876 -0.10789,-0.29633 -0.064,-0.12757 -0.16289,-0.42245 -0.21977,-0.65528 -0.0569,-0.23284 -0.17604,-0.541 -0.26481,-0.68481 -0.0888,-0.14381 -0.17271,-0.33431 -0.18656,-0.42333 -0.0138,-0.089 -0.0543,-0.20853 -0.0899,-0.26556 -0.0356,-0.057 -0.0826,-0.52813 -0.10439,-1.04688 -0.0218,-0.51876 -0.0605,-0.97692 -0.086,-1.01814 -0.0255,-0.0412 -0.0155,-0.075 0.0222,-0.0751 0.0377,-1e-4 0.0777,-0.13015 0.089,-0.289 0.0195,-0.27399 0.004,-0.29166 -0.30534,-0.34389 -0.17923,-0.0303 -0.55706,-0.0676 -0.83962,-0.083 -0.28256,-0.0154 -0.54972,-0.0502 -0.59368,-0.0774 -0.044,-0.0272 -0.60883,-0.0892 -1.25525,-0.13783 -0.64642,-0.0486 -1.23247,-0.10514 -1.30232,-0.12556 -0.60786,-0.17777 -3.03945,-0.2628 -3.937,-0.13768 -0.75859,0.10574 -0.96884,0.25954 -0.98035,0.7171 -0.004,0.14618 -0.0252,0.2203 -0.0478,0.16471 -0.0226,-0.0556 -0.0985,-0.0791 -0.16861,-0.0521 -0.10375,0.0398 -0.11773,-0.004 -0.075,-0.23759 0.0907,-0.49538 0.19212,-1.55375 0.15517,-1.61923 -0.0195,-0.0345 -0.05,-0.3393 -0.0679,-0.677337 -0.0179,-0.33803 -0.0921,-0.733083 -0.16508,-0.877873 -0.1331,-0.26422 -0.10542,-0.74924 0.0482,-0.84417 0.0406,-0.0251 0.0737,-0.155367 0.0737,-0.289567 0,-0.26896 0.0897,-0.3639 0.27627,-0.29231 0.0868,0.0333 0.12489,0.1989 0.13144,0.571767 0.0141,0.80222 0.16933,1.15476 0.64819,1.471943 0.22397,0.14836 0.55407,0.29455 0.73355,0.32487 0.37831,0.0639 0.49533,0.193317 0.3024,0.334387 -0.10799,0.079 -0.0208,0.0978 0.43157,0.093 0.63732,-0.007 3.08084,0.12107 3.15164,0.16483 0.0252,0.0156 0.44459,0.0713 0.9319,0.12384 0.48732,0.0525 0.98129,0.11078 1.0977,0.12948 1.57522,0.25301 1.94783,0.26897 2.413,0.10336 0.21225,-0.0756 0.61522,-0.11475 1.0795,-0.10496 0.40746,0.009 0.74084,0.001 0.74084,-0.0157 0,-0.087 -0.39281,-0.16618 -0.4793,-0.0966 -0.0615,0.0494 -0.11797,0.0472 -0.15088,-0.006 -0.0289,-0.0468 -0.099,-0.0681 -0.1557,-0.0473 -0.0567,0.0208 -0.16027,5e-5 -0.23012,-0.046 -0.32772,-0.21618 0.37257,-0.27901 1.397,-0.12534 0.18626,0.0279 0.863837,0.097 1.505707,0.15337 1.16069,0.102 1.33062,0.0802 1.33062,-0.17107 0,-0.1705 0.16231,-0.13215 0.58526,0.13828 l 0.38841,0.24834 2.20133,0.0511 c 2.63554,0.0611 3.08502,0.0904 3.2033,0.20869 0.0496,0.0496 0.0551,0.0902 0.0121,0.0902 -0.043,0 0.0104,0.062 0.11869,0.13784 0.25188,0.17643 0.1106,0.28237 -0.379,0.2842 -0.21253,7.9e-4 -0.41578,0.0611 -0.52479,0.1556 -0.13769,0.11942 -0.29486,0.14952 -0.6953,0.13315 -0.61358,-0.0251 -0.98225,0.0848 -1.04121,0.31025 -0.0292,0.11154 -0.10767,0.15835 -0.2463,0.14688 -0.51794,-0.0429 -1.36509,0.92632 -1.45833,1.66841 -0.0974,0.77494 -0.39542,2.11076 -0.57618,2.58234 -0.29861,0.77903 -1.06631,2.30298 -1.24313,2.46771 -0.0916,0.0853 -0.4572,0.2527 -0.81251,0.37197 -0.8295,0.27846 -1.6609,0.27461 -2.276297,-0.0105 z m 2.109187,-0.36521 c 0.2238,-0.099 0.38351,-0.2034 0.35491,-0.232 -0.0286,-0.0286 -0.32977,0.0134 -0.66926,0.0933 -0.33948,0.0799 -0.79822,0.12906 -1.01941,0.10924 -0.460135,-0.0412 -0.535505,0.0638 -0.127,0.17694 0.41235,0.11423 1.00423,0.0545 1.46076,-0.14745 z m -0.49235,-0.47794 c 1.41799,-0.32126 1.34695,-0.20959 1.50695,-2.36855 0.0242,-0.32682 0.0811,-0.72346 0.12641,-0.88141 0.18397,-0.64146 0.18978,-1.71046 0.0136,-2.49349 -0.0931,-0.41348 -0.20461,-0.7872 -0.24791,-0.8305 -0.0433,-0.0433 -0.69369,-0.0854 -1.44532,-0.0935 -0.75163,-0.008 -1.366595,-0.0486 -1.366595,-0.09 0,-0.0414 -0.0476,-0.0365 -0.105832,0.011 -0.0582,0.0475 -0.27729,0.0751 -0.48684,0.0615 -0.51922,-0.0337 -1.32245,0.11574 -1.52889,0.28454 -0.15332,0.12537 -0.17021,0.24463 -0.17549,1.23938 -0.009,1.74135 0.0608,2.08019 0.70002,3.38667 0.50182,1.02565 1.02569,1.68252 1.27799,1.60244 0.11129,-0.0353 0.15124,-0.0224 0.11451,0.037 -0.0567,0.0917 0.10161,0.1481 0.585527,0.20849 0.1397,0.0174 0.29926,0.0374 0.35458,0.0444 0.0553,0.007 0.36012,-0.0461 0.67733,-0.11799 z m 2.19543,-2.64217 c 0.15157,-0.52062 0.22403,-1.27114 0.13642,-1.4129 -0.0429,-0.0693 -0.32724,1.38078 -0.3518,1.7939 -0.0146,0.24587 0.0833,0.0726 0.21538,-0.381 z m -6.344447,-2.11666 c -0.0215,-0.59373 -0.0718,-1.0795 -0.11194,-1.0795 -0.0804,0 -0.0746,0.80725 0.0119,1.62983 0.0918,0.8734 0.14157,0.59961 0.10003,-0.55033 z m 6.576717,-1.18534 c -0.13623,-0.41413 -0.30542,-0.6985 -0.41558,-0.6985 -0.18003,0 -0.15337,0.0947 0.1383,0.49132 0.28346,0.38546 0.35303,0.43743 0.27728,0.20718 z m 1.07006,0.11083 c 0,-0.0205 -0.0381,-0.0609 -0.0847,-0.0897 -0.0466,-0.0288 -0.0847,-0.012 -0.0847,0.0373 0,0.0493 0.0381,0.0897 0.0847,0.0897 0.0466,0 0.0847,-0.0168 0.0847,-0.0373 z m 0.23283,-0.78302 c -0.0815,-0.0213 -0.21484,-0.0213 -0.29633,0 -0.0815,0.0213 -0.0148,0.0387 0.14816,0.0387 0.16299,0 0.22966,-0.0174 0.14817,-0.0387 z m -7.777587,-0.41331 c 0.0912,-0.0875 -0.49551,-0.20601 -1.03325,-0.20865 -0.33458,-0.002 -1.12268,-0.0419 -1.75133,-0.0895 -1.33407,-0.10102 -1.3185,-0.10035 -2.02494,-0.087 -1.01843,0.0192 -0.58586,0.0879 1.94028,0.30829 0.81491,0.0711 1.53881,0.14204 1.60866,0.15764 0.14951,0.0334 1.21263,-0.0347 1.26058,-0.0807 z m 0.98472,-0.0424 c -0.39208,-0.0678 -0.72309,0.0101 -0.38373,0.0904 0.11581,0.0274 0.32536,0.0314 0.46567,0.009 0.24914,-0.04 0.24723,-0.0423 -0.0819,-0.0992 z m 1.841167,0.0793 c -0.0737,-0.0737 -0.615007,-0.11372 -1.080797,-0.0798 -0.20398,0.0148 -0.22277,0.0308 -0.0954,0.0808 0.22469,0.0883 1.264607,0.0874 1.176217,-9.5e-4 z m 0.54727,0.0449 c -0.0281,-0.0281 -0.10116,-0.0311 -0.16228,-0.007 -0.0675,0.027 -0.0475,0.0471 0.0512,0.0512 0.0892,0.004 0.13925,-0.0163 0.11112,-0.0445 z m -12.468827,-0.28751 c 0.0959,0 0.22036,-0.0737 0.27657,-0.16367 0.0854,-0.1368 0.0784,-0.16845 -0.0431,-0.19279 -0.32851,-0.0658 -0.59422,0.0332 -0.63296,0.23586 -0.0451,0.2359 0.0172,0.32852 0.13907,0.20668 0.0473,-0.0473 0.16454,-0.0861 0.26045,-0.0861 z m 17.529427,0.0847 c 0.0316,-0.0511 -0.0754,-0.0823 -0.27017,-0.0787 -0.25753,0.005 -0.28839,0.0206 -0.15317,0.0787 0.23271,0.1 0.36154,0.1 0.42334,0 z m -12.403667,-0.54047 c 0,-0.0718 -0.43053,-0.10905 -0.47268,-0.0409 -0.0249,0.0403 0.0712,0.0733 0.21368,0.0733 0.14245,0 0.259,-0.0146 0.259,-0.0325 z m -0.59765,-0.0851 c -0.026,-0.0262 -0.3402,-0.0675 -0.69817,-0.0919 -0.35796,-0.0244 -0.67957,-0.0488 -0.71468,-0.0544 -0.0351,-0.006 -0.29243,7.8e-4 -0.57183,0.0141 l -0.508,0.0243 0.508,0.0493 c 0.77279,0.075 2.03804,0.11235 1.98468,0.0587 z m -2.53502,-0.085 c 0,-0.0803 -0.25343,-0.12079 -0.29861,-0.0477 -0.0275,0.0445 0.0284,0.081 0.12428,0.081 0.0959,0 0.17433,-0.015 0.17433,-0.0333 z m -1.84443,-0.59049 c -0.54895,-0.440727 -0.52623,-0.431817 -0.52623,-0.206287 0,0.149857 0.0756,0.242667 0.27516,0.337637 0.38205,0.18184 0.53894,0.0998 0.25107,-0.13135 z"
       style="fill:#0f0e47;fill-opacity:1"
       id="path1-3" />
    <path
       d="m 99.834745,118.10496 c -1e-5,-0.15705 -0.044,-0.16382 -1.29408,-0.19911 -0.3851,-0.0109 -0.55952,-0.047 -0.52922,-0.10964 0.0249,-0.0514 0.068,-0.15738 0.0959,-0.23555 0.03,-0.0842 0.18517,-0.16484 0.38061,-0.19786 0.18146,-0.0307 0.34943,-0.0873 0.37327,-0.12587 0.0238,-0.0386 -0.0522,-0.18364 -0.16889,-0.32236 -0.11673,-0.13872 -0.21223,-0.27206 -0.21223,-0.29631 0,-0.0242 -0.0754,-0.13305 -0.16751,-0.24178 -0.56342,-0.66493 -0.83495,-1.04011 -0.79709,-1.10137 0.0238,-0.0385 0.004,-0.07 -0.0442,-0.07 -0.11844,0 -0.36178,-0.46611 -0.48621,-0.93134 -0.0561,-0.20955 -0.17951,-0.59055 -0.27434,-0.84666 -0.0957,-0.25842 -0.17366,-0.67841 -0.17519,-0.94367 -0.003,-0.47513 4.9e-4,-0.48131 0.53992,-1.02876 0.32924,-0.33414 0.63727,-0.56904 0.78317,-0.59723 0.63291,-0.1223 1.28305,-0.14082 1.8622,-0.053 0.552435,0.0837 0.648585,0.079 0.734615,-0.0361 0.0898,-0.12011 0.14578,-0.1201 0.60239,1.3e-4 0.68674,0.18084 1.14867,0.42792 2.03398,1.08796 1.27443,0.95013 1.78776,1.51728 2.31905,2.56213 0.34299,0.67456 0.18577,1.4465 -0.49661,2.43831 -0.29927,0.43497 -0.46512,0.46964 -1.14856,0.24009 -0.7456,-0.25042 -1.96956,-1.66342 -2.81216,-3.24652 -0.613,-1.15171 -0.86896,-1.69321 -0.91926,-1.94471 -0.0286,-0.14308 -0.08691,-0.28169 -0.129485,-0.30801 -0.0426,-0.0263 -0.40189,-0.0208 -0.79843,0.0122 -0.66261,0.0552 -0.74525,0.0829 -1.02057,0.34259 -0.3228,0.30445 -0.31115,0.20977 -0.15542,1.26293 0.27911,1.8874 1.40228,3.63134 2.736075,4.24826 0.60211,0.2785 0.78234,0.52309 0.34433,0.4673 -0.37379,-0.0476 -0.922,0.0715 -0.922,0.20029 0,0.067 -0.0571,0.12182 -0.127005,0.12182 -0.0699,0 -0.127,-0.0667 -0.127,-0.14817 z m 4.780065,-1.72679 c 0.19181,-0.15088 0.22216,-0.22612 0.17934,-0.4445 -0.0284,-0.14458 -0.0573,-0.31051 -0.0643,-0.36871 -0.007,-0.0582 -0.0371,-0.10584 -0.0669,-0.10584 -0.0299,0 -0.1215,-0.1524 -0.20369,-0.33866 -0.0822,-0.18627 -0.1954,-0.33867 -0.2516,-0.33867 -0.0562,0 -0.1571,-0.0762 -0.22423,-0.16933 -0.0671,-0.0931 -0.18067,-0.16934 -0.25232,-0.16934 -0.0717,0 -0.17787,-0.0762 -0.23603,-0.16933 -0.0582,-0.0931 -0.14225,-0.16933 -0.18685,-0.16933 -0.0762,0 -0.43309,-0.29547 -0.90501,-0.74921 -0.11376,-0.10938 -0.37392,-0.34348 -0.57814,-0.52023 -0.20421,-0.17675 -0.34823,-0.34443 -0.32003,-0.37263 0.0282,-0.0282 -0.0175,-0.0513 -0.10164,-0.0513 -0.13322,0 -0.14624,0.0517 -0.10118,0.40217 0.12398,0.96393 0.224,1.17448 1.15635,2.43416 0.62424,0.84341 0.72852,0.9459 1.17491,1.15473 0.42206,0.19745 0.70871,0.19044 0.98133,-0.024 z m 0.34407,-1.84748 c -0.0333,-0.0539 -0.15281,-0.13308 -0.26554,-0.17594 -0.11272,-0.0429 -0.24335,-0.16433 -0.29027,-0.26994 -0.13537,-0.30471 -0.47773,-0.74071 -0.53593,-0.68252 -0.0292,0.0292 -0.053,-0.006 -0.053,-0.079 0,-0.0726 -0.0596,-0.15491 -0.13237,-0.18285 -0.0728,-0.0279 -0.10865,-0.0892 -0.0797,-0.13605 0.029,-0.0469 -0.0258,-0.0853 -0.12163,-0.0853 -0.0959,0 -0.17433,-0.0381 -0.17433,-0.0847 0,-0.0466 -0.0392,-0.0847 -0.0872,-0.0847 -0.0479,0 -0.28342,-0.15514 -0.5233,-0.34476 -0.41911,-0.33128 -1.08288,-0.7194 -1.08288,-0.63317 0,0.0228 0.4045,0.38875 0.89889,0.81315 0.97238,0.83473 2.0185,1.86806 2.16129,2.13486 0.0797,0.14886 0.10255,0.15281 0.21777,0.0376 0.0708,-0.0708 0.1015,-0.17286 0.0682,-0.22676 z m -7.462345,-0.7014 c -0.0264,-0.15134 -0.10551,-0.45861 -0.17584,-0.68281 -0.0703,-0.2242 -0.11258,-0.53853 -0.0939,-0.6985 0.0412,-0.35315 -0.0535,-0.38063 -0.16911,-0.0491 -0.10481,0.30066 -0.001,0.8996 0.23574,1.36427 0.21075,0.41309 0.26679,0.43133 0.20311,0.0661 z m 5.927835,-0.0494 c 0.024,-0.0388 -0.0102,-0.0706 -0.0759,-0.0706 -0.0657,0 -0.0999,0.0318 -0.0759,0.0706 0.024,0.0388 0.0582,0.0705 0.0759,0.0705 0.0178,0 0.052,-0.0318 0.0759,-0.0705 z m -2.53032,-1.44774 c -0.0626,-0.37038 -0.16912,-0.4455 -0.25374,-0.1789 -0.0499,0.15731 0.18767,0.64752 0.27265,0.56254 0.0216,-0.0216 0.0131,-0.19424 -0.0189,-0.38364 z m 1.06847,0.21934 c -0.0519,-0.0625 -0.0761,-0.13177 -0.054,-0.15396 0.0222,-0.0222 -0.0925,-0.16909 -0.2549,-0.32647 -0.23907,-0.23172 -0.31533,-0.26547 -0.4009,-0.17739 -0.0849,0.0874 -0.0672,0.13647 0.09,0.2496 0.10761,0.0775 0.29811,0.22536 0.42334,0.32867 0.2604,0.2148 0.33316,0.24427 0.19645,0.0795 z"
       style="fill:#0f0e47;fill-opacity:1"
       id="path1-91" />
    <path
       d="m 107.17229,125.15958 c -0.2794,-0.0429 -0.62733,-0.0604 -0.77317,-0.039 -0.14585,0.0214 -0.30475,-5.7e-4 -0.3531,-0.0489 -0.0489,-0.0489 -0.50961,-0.0928 -1.03796,-0.0989 -0.81825,-0.009 -0.96305,-0.0322 -1.0439,-0.16409 -0.15651,-0.25532 0.13535,-0.39357 0.81739,-0.38718 0.3238,0.003 0.62594,-0.0317 0.67141,-0.0772 0.13052,-0.13052 0.0451,-0.4832 -0.11697,-0.4832 -0.14365,0 -0.49203,-0.3138 -0.49203,-0.44319 0,-0.0756 -1.94138,-1.99393 -2.51709,-2.48724 -0.19626,-0.16816 -0.32933,-0.3362 -0.29571,-0.3734 0.0336,-0.0372 0.0207,-0.0447 -0.0287,-0.0167 -0.0494,0.028 -0.22084,-0.062 -0.381,-0.20018 -0.16016,-0.13814 -0.38646,-0.2788 -0.50287,-0.31258 -0.36232,-0.10513 -2.3838,-0.0667 -2.802,0.0533 -0.21395,0.0614 -0.55685,0.11782 -0.762,0.12544 -0.38996,0.0145 -0.54311,0.1139 -0.41438,0.269 0.0485,0.0585 0.001,0.14776 -0.13184,0.24753 -0.1558,0.11701 -0.20778,0.23532 -0.20778,0.47297 0,0.24573 -0.038,0.32688 -0.16934,0.36122 -0.0962,0.0251 -0.17135,0.002 -0.17401,-0.0536 -0.003,-0.0539 -6.5e-4,-0.5424 0.004,-1.08568 0.008,-0.92555 -0.002,-0.99124 -0.16465,-1.04287 -0.23472,-0.0745 -0.21866,-0.20008 0.0381,-0.29769 0.19052,-0.0724 0.21167,-0.1272 0.21167,-0.54824 0,-0.35952 0.0404,-0.50815 0.17454,-0.6423 0.23178,-0.23178 0.46825,-0.18115 0.43599,0.0933 -0.0332,0.28249 0.0543,0.6069 0.1481,0.54895 0.042,-0.0259 0.10026,-0.008 0.12951,0.0389 0.0292,0.0473 0.003,0.0887 -0.0576,0.092 -0.13996,0.008 0.18353,0.14986 0.35484,0.15613 0.11289,0.004 0.11289,-0.004 0,-0.0774 -0.1699,-0.1098 0.0117,-0.1082 0.30334,0.003 1.20621,0.4586 3.10119,0.69493 6.46629,0.80643 0.81289,0.0269 1.78444,0.0843 2.159,0.12739 0.84835,0.0977 0.93318,0.0284 0.83584,-0.68226 -0.0351,-0.25624 -0.0652,-0.56703 -0.067,-0.69064 -0.002,-0.12361 -0.0317,-0.20709 -0.0667,-0.1855 -0.0349,0.0216 -0.0635,-0.0179 -0.0635,-0.0878 0,-0.32345 0.30705,-0.20844 0.36998,0.13858 0.0229,0.1263 0.0676,0.27158 0.0992,0.32284 0.0553,0.0894 0.1236,0.75472 0.15222,1.4821 0.0142,0.35994 0.1702,0.58937 0.43587,0.64086 0.086,0.0167 0.17249,0.0788 0.19225,0.13819 0.0282,0.0847 -0.14296,0.0972 -0.79732,0.0582 -0.45828,-0.0273 -1.32854,-0.0633 -1.9339,-0.08 -1.34572,-0.037 -2.09874,-0.11844 -2.17163,-0.23474 -0.0302,-0.0482 -0.12187,-0.062 -0.20366,-0.0306 -0.0937,0.0359 -0.21483,-0.005 -0.32735,-0.11077 -0.10866,-0.10208 -0.22117,-0.14155 -0.28718,-0.10075 -0.13266,0.082 -0.06,0.14699 0.49215,0.44062 0.20955,0.11143 0.4953,0.28382 0.635,0.38308 0.1397,0.0993 0.29684,0.16472 0.34921,0.14544 0.0524,-0.0193 0.2338,0.0904 0.40319,0.24364 0.79075,0.71553 1.04386,1.00643 1.13814,1.30808 0.0559,0.1789 0.21461,0.47767 0.35266,0.66393 0.13804,0.18627 0.3756,0.51786 0.52789,0.73686 0.27587,0.3967 0.36834,0.46541 0.89074,0.66187 0.17608,0.0662 0.27517,0.16076 0.27517,0.26255 0,0.1738 0.0123,0.17277 -0.71967,0.0605 z m -0.46566,-0.57577 c 0,-0.0449 -0.0762,-0.12247 -0.16934,-0.17231 -0.13344,-0.0714 -0.16933,-0.0644 -0.16933,0.0332 0,0.0681 0.0667,0.14119 0.14817,0.16249 0.0815,0.0213 0.15769,0.0431 0.16933,0.0485 0.0116,0.005 0.0212,-0.0269 0.0212,-0.0719 z m -1.2717,-1.23269 c -0.0589,-0.071 -0.12454,-0.11161 -0.14585,-0.0903 -0.0587,0.0587 0.0606,0.21935 0.16291,0.21935 0.0561,0 0.0497,-0.0486 -0.0171,-0.12905 z m -0.2523,-0.24159 c 0,-0.0176 -0.0667,-0.0842 -0.14817,-0.14816 -0.13429,-0.10532 -0.13728,-0.10232 -0.032,0.032 0.11061,0.14104 0.18014,0.18589 0.18014,0.1162 z m -0.67734,-1.27 c 0,-0.0176 -0.0667,-0.0842 -0.14816,-0.14816 -0.13429,-0.10532 -0.13728,-0.10232 -0.032,0.032 0.11061,0.14104 0.18013,0.18589 0.18013,0.1162 z m 3.048,-1.74991 c 0,-0.0396 -0.1143,-0.0321 -0.254,0.0166 -0.1397,0.0487 -0.254,0.12093 -0.254,0.16052 0,0.0396 0.1143,0.0321 0.254,-0.0166 0.1397,-0.0487 0.254,-0.12094 0.254,-0.16053 z m -9.79855,-0.30566 c -0.0573,-0.0232 -0.17162,-0.0246 -0.254,-0.003 -0.0824,0.0215 -0.0355,0.0404 0.10422,0.0422 0.1397,0.002 0.2071,-0.0158 0.14978,-0.039 z"
       style="fill:#0f0e47;fill-opacity:1"
       id="path1-7" />
    <path
       d="m 96.631017,132.69219 c -0.0663,-0.26427 0.0198,-0.44469 0.21238,-0.44469 0.15591,0 0.15437,-0.0199 -0.0377,-0.48683 -0.19676,-0.47845 -0.20018,-0.53496 -0.19848,-3.28083 0.002,-2.78492 0.0413,-3.25309 0.31694,-3.74623 0.19186,-0.34329 1.26602,-0.78082 1.92098,-0.78246 0.55427,-0.001 1.903923,0.31381 2.878673,0.67228 0.2794,0.10276 0.67261,0.24545 0.8738,0.31711 0.63914,0.22763 1.83297,1.47656 2.06105,2.15618 0.0521,0.15535 0.15028,0.34672 0.2181,0.42528 0.0678,0.0786 0.0946,0.18922 0.0596,0.24592 -0.0375,0.0607 -0.0284,0.0813 0.0221,0.05 0.13358,-0.0826 0.33075,0.52335 0.35312,1.08521 0.0272,0.68332 -0.15501,1.08471 -0.74005,1.63005 -0.75743,0.70605 -1.44377,0.81042 -2.41961,0.36795 -0.30532,-0.13844 -0.55513,-0.29445 -0.55513,-0.34668 0,-0.0522 -0.0363,-0.0726 -0.0806,-0.0452 -0.0443,0.0274 -0.37771,-0.24678 -0.74083,-0.60928 -1.028613,-1.02685 -1.658953,-2.47568 -1.428813,-3.28406 0.0823,-0.28892 0.11016,-0.79907 0.0474,-0.86666 -0.0108,-0.0116 -0.025,-0.0497 -0.0315,-0.0847 -0.007,-0.0349 -0.0379,-0.10426 -0.0697,-0.1541 -0.0318,-0.0498 -0.0762,-0.19207 -0.0987,-0.3161 -0.0225,-0.12403 -0.0648,-0.26423 -0.0941,-0.31157 -0.10177,-0.16466 -0.76433,-0.0905 -1.23385,0.13806 -0.25319,0.12327 -0.50629,0.22487 -0.56245,0.22578 -0.0562,9.1e-4 -0.0852,0.0291 -0.0644,0.0626 0.0207,0.0335 -0.017,0.10631 -0.0838,0.16174 -0.0894,0.0742 -0.12126,0.30555 -0.12076,0.87743 3.7e-4,0.42715 -0.004,1.291 -0.0106,1.91965 -0.006,0.62865 0.0139,1.2192 0.0447,1.31233 0.0308,0.0931 0.0849,0.24553 0.12023,0.33867 0.0353,0.0931 0.1517,0.44431 0.25861,0.78039 0.10691,0.33608 0.26737,0.6894 0.35658,0.78515 0.0892,0.0958 0.21482,0.30006 0.27915,0.45402 0.17323,0.41459 0.31823,0.49504 0.89236,0.49504 0.37561,0 0.52917,0.0338 0.56386,0.12422 0.10521,0.27418 -0.12849,0.32451 -1.50677,0.32451 -1.33323,0 -1.35483,-0.003 -1.40187,-0.19031 z m 1.11349,-0.56506 c -0.18626,-0.15795 -0.35517,-0.27105 -0.37535,-0.25133 -0.0202,0.0197 0.008,0.0809 0.0635,0.13605 0.0551,0.0551 0.10019,0.16877 0.10019,0.25259 0,0.11575 0.0662,0.15209 0.27516,0.15114 l 0.27517,-0.001 z m -0.33866,-0.55696 c -0.0288,-0.0466 -0.0977,-0.0841 -0.15317,-0.0834 -0.0606,7.8e-4 -0.0501,0.0341 0.0262,0.0834 0.16265,0.10512 0.19196,0.10512 0.127,0 z m 5.799663,-0.80291 c 0,-0.0225 -0.20002,-0.141 -0.4445,-0.26334 -0.24447,-0.12233 -0.53022,-0.30107 -0.635,-0.39718 -0.10477,-0.0961 -0.1905,-0.1444 -0.1905,-0.1073 0,0.0371 -0.0527,0.0237 -0.11711,-0.0297 -0.0901,-0.0748 -0.12825,-0.0682 -0.16551,0.0289 -0.0555,0.14466 0.25096,0.38801 0.80564,0.63973 0.33907,0.15388 0.74698,0.22427 0.74698,0.1289 z m 0.83776,-0.32936 c 0.0531,-0.064 0.0727,-0.17825 0.0436,-0.254 -0.0357,-0.093 -0.007,-0.13773 0.0871,-0.13773 0.21991,0 0.53879,-0.37493 0.60102,-0.70666 0.0679,-0.362 -0.29849,-1.4097 -0.6108,-1.74651 -0.10817,-0.11665 -0.19668,-0.25493 -0.19668,-0.30728 0,-0.0524 -0.16192,-0.20483 -0.35983,-0.33883 -0.19791,-0.134 -0.42362,-0.31314 -0.50159,-0.39807 -0.078,-0.0849 -0.16245,-0.14241 -0.18775,-0.12771 -0.0253,0.0147 -0.12387,-0.04 -0.21905,-0.12144 -0.0952,-0.0815 -0.22386,-0.14817 -0.28596,-0.14817 -0.0621,0 -0.18187,-0.0762 -0.26615,-0.16933 -0.0843,-0.0931 -0.24484,-0.16933 -0.35679,-0.16933 -0.11194,0 -0.18219,-0.0346 -0.15609,-0.0768 0.0261,-0.0422 -0.0193,-0.0593 -0.10084,-0.0381 -0.0815,0.0213 -0.40632,-0.0585 -0.72171,-0.17722 -0.31539,-0.11876 -0.60538,-0.21593 -0.64443,-0.21593 -0.11401,0 9.9e-4,0.44023 0.19907,0.762 0.10032,0.16298 0.27011,0.48601 0.37729,0.71785 0.17829,0.38561 0.67414,1.14133 1.16779,1.77982 0.32574,0.4213 0.81105,0.8758 1.10313,1.0331 0.15157,0.0816 0.27558,0.17665 0.27558,0.21116 0,0.0345 0.0476,0.0512 0.10583,0.037 0.0582,-0.0142 0.077,-0.01 0.0418,0.01 -0.0352,0.0196 -0.0382,0.0801 -0.007,0.13429 0.0316,0.0542 -0.0189,0.0318 -0.11218,-0.0497 -0.0933,-0.0816 -0.19508,-0.12287 -0.22622,-0.0917 -0.0311,0.0311 -0.0566,0.0134 -0.0566,-0.0395 0,-0.0529 -0.0576,-0.074 -0.12796,-0.047 -0.0918,0.0352 -0.11307,0.0103 -0.0752,-0.0883 0.0388,-0.10098 0.0169,-0.12362 -0.0826,-0.0855 -0.22499,0.0863 -1.84782,-1.68958 -1.76714,-1.93385 0.0115,-0.0349 -0.0175,-0.0635 -0.0645,-0.0635 -0.0855,0 -0.2344,-0.26671 -0.79172,-1.41817 -0.163409,-0.3376 -0.322873,-0.61383 -0.354373,-0.61383 -0.0315,0 -0.0308,0.14288 0.002,0.3175 0.0888,0.4794 0.247373,0.9525 0.319353,0.9525 0.0352,0 0.0641,0.0454 0.0641,0.10091 0,0.0555 0.1524,0.35744 0.33867,0.67097 0.18627,0.31353 0.33867,0.63007 0.33867,0.70342 0,0.0733 0.0489,0.13337 0.10874,0.13337 0.0598,0 0.18132,0.12382 0.27003,0.27517 0.33106,0.56482 0.88999,1.05458 1.59439,1.39709 1.02111,0.49649 1.0821,0.51269 1.23526,0.32814 z m -2.83055,-0.93495 c -0.0737,-0.11251 -0.19836,-0.22925 -0.27698,-0.25941 -0.0839,-0.0322 -0.0402,0.0523 0.10559,0.20455 0.29939,0.3125 0.35104,0.32903 0.17139,0.0549 z m -0.45564,-0.53628 c -0.0436,-0.0815 -0.10693,-0.22437 -0.14082,-0.3175 -0.0571,-0.15701 -0.0643,-0.15809 -0.0983,-0.0149 -0.0202,0.085 0.0297,0.22783 0.11089,0.3175 0.18354,0.20281 0.23165,0.20839 0.1282,0.0149 z m -0.39962,-0.65617 c -0.0268,-0.0699 -0.0874,-0.127 -0.13471,-0.127 -0.0495,0 -0.0413,0.0538 0.0194,0.127 0.058,0.0699 0.11859,0.127 0.13471,0.127 0.0161,0 0.007,-0.0571 -0.0194,-0.127 z m 3.11598,-2.33314 c -0.51597,-0.48525 -0.81911,-0.70138 -1.12732,-0.80375 -0.23187,-0.077 -0.43584,-0.12577 -0.45327,-0.10834 -0.0174,0.0174 0.10887,0.12389 0.28065,0.23658 0.17179,0.11269 0.35045,0.24548 0.39701,0.29509 0.0466,0.0496 0.35888,0.27407 0.69402,0.4988 0.33515,0.22474 0.6549,0.4635 0.71057,0.53057 0.0557,0.0671 0.12436,0.0978 0.15264,0.0684 0.0283,-0.0295 -0.26614,-0.35226 -0.6543,-0.71731 z m -3.983743,-0.8662 c -0.0691,-0.0692 -0.12233,-0.0639 -0.20002,0.0198 -0.0639,0.0689 -0.0675,0.0925 -0.009,0.0597 0.0533,-0.0298 0.12444,0.0122 0.15802,0.0934 0.0453,0.10953 0.0719,0.11843 0.10307,0.0344 0.0231,-0.0623 -3.9e-4,-0.15563 -0.0522,-0.20743 z m 0.685123,-0.53472 c -0.482833,-0.21096 -1.719633,-0.31249 -1.877953,-0.15416 -0.0479,0.0479 0.10915,0.0795 0.40438,0.0816 0.54895,0.004 1.374013,0.0978 1.440193,0.16398 0.0244,0.0244 0.10462,0.0412 0.17835,0.0374 0.0737,-0.004 0.008,-0.0618 -0.14497,-0.12882 z"
       style="fill:#0f0e47;fill-opacity:1"
       id="path1-8" />
    <path
       d="m 116.47312,146.49722 c 0,-0.0607 0.0782,-0.10849 0.16975,-0.10849 0.0914,0 0.13946,0.0475 0.10308,0.10849 -0.0382,0.0607 -0.11251,0.1084 -0.16974,0.1084 -0.0579,0 -0.10313,-0.0475 -0.10313,-0.1084 z m 0.19079,-0.40025 c -0.1157,-0.11562 -0.14989,-0.29426 -0.11036,-0.58352 0.057,-0.41068 0.0483,-0.41748 -0.36564,-0.49556 -0.90625,-0.17021 -14.85564,-0.0668 -15.80965,0.1161 -0.1309,0.0243 -0.591757,0.0567 -1.024171,0.0653 -1.308851,0.0353 -1.521039,0.0884 -1.464076,0.38737 0.05522,0.28906 -0.132868,0.50377 -0.332981,0.38019 -0.158917,-0.0999 -0.920551,-1.64807 -1.167841,-2.37651 -0.09672,-0.28441 -0.239432,-0.85501 -0.317504,-1.26787 -0.12487,-0.65994 -0.119452,-0.83779 0.04447,-1.47212 0.370908,-1.43553 1.158358,-2.59166 2.070892,-3.0399 0.533178,-0.26149 0.717836,-0.29305 1.687104,-0.2879 1.092237,0.005 1.605547,0.13367 2.080427,0.51743 1.12025,0.90457 1.47319,1.16379 1.58501,1.16379 0.07,0 -0.008,-0.14707 -0.18206,-0.32638 -0.17215,-0.17964 -0.26686,-0.32516 -0.21095,-0.32322 0.24219,0.006 1.03528,0.90876 1.57719,1.79089 0.14652,0.23867 0.31549,0.51355 0.37527,0.61085 0.49192,0.79942 0.73369,1.39278 0.74701,1.83334 l 0.0164,0.49638 4.40852,-0.007 c 2.42468,-0.004 4.74211,-0.0452 5.14981,-0.0896 l 0.74138,-0.0825 -0.0683,-0.3172 c -0.0597,-0.26703 -0.0371,-0.31717 0.14594,-0.31717 0.46943,0 0.89027,1.2986 0.89027,2.74703 0,0.85179 -0.1691,1.17353 -0.46256,0.88007 z m -17.389131,-1.23463 c 0.509004,-0.0608 1.537231,-0.13666 2.285061,-0.17052 0.74794,-0.0357 1.37361,-0.0774 1.39038,-0.0905 0.0178,-0.0178 0.001,-0.1056 -0.0354,-0.19731 -0.0656,-0.17247 -0.24428,-0.17481 -1.84606,-0.0237 -0.3591,0.0357 -1.314347,0.0885 -2.122544,0.12411 -0.808213,0.0362 -1.4887,0.081 -1.512201,0.102 -0.02347,0.0211 0.01923,0.11209 0.09505,0.20432 0.160901,0.19387 0.481613,0.20393 1.743784,0.0569 z m 17.303681,-0.51495 c -0.004,-0.4162 -0.21097,-0.62828 -0.59516,-0.61218 -1.1678,0.0473 -1.10606,0.0362 -0.88197,0.20397 0.11256,0.0857 0.25443,0.12669 0.3131,0.0892 0.0622,-0.0391 0.0593,0.0205 -0.007,0.13954 -0.10343,0.18325 -0.0611,0.2187 0.39443,0.32855 0.75795,0.18303 0.78226,0.17834 0.77844,-0.15031 z m -0.37743,-0.24497 c -0.0382,-0.0607 -0.0167,-0.10839 0.0467,-0.10839 0.0634,0 0.1145,0.0475 0.1145,0.10839 0,0.0607 -0.0215,0.1084 -0.0467,0.1084 -0.0252,0 -0.0797,-0.0475 -0.1145,-0.1084 z m -12.00082,0.36338 c -0.0754,-0.0282 -0.19727,-0.0282 -0.27201,0 -0.0753,0.0282 -0.0153,0.0568 0.13598,0.0568 0.14974,0 0.21096,-0.0239 0.13603,-0.0568 z m -6.737859,-0.42116 c -0.03372,-0.0872 -0.105175,-0.15995 -0.158523,-0.15995 -0.111778,0 -0.131324,0.25614 -0.02761,0.35986 0.116127,0.11629 0.251574,-0.0277 0.18612,-0.19991 z m 0.710036,-0.0421 c 0.119251,-0.0252 -0.257862,-0.33534 -0.407619,-0.33388 -0.154147,0.001 -0.155967,0.0167 -0.01406,0.10692 0.139528,0.0889 0.135573,0.1058 -0.02731,0.10702 -0.104867,0.001 -0.190489,0.0519 -0.190489,0.11336 0,0.089 0.244809,0.0906 0.639218,0.004 z m 16.667973,-0.0584 c 0,-0.11393 -0.20888,-0.16314 -0.27101,-0.0628 -0.0387,0.0614 0.006,0.10999 0.10221,0.10999 0.0914,0 0.16973,-0.0215 0.16973,-0.0467 z m -14.20504,-0.27865 c -0.0783,-0.12369 -1.358261,-0.0998 -1.359681,0.0258 -4.9e-4,0.0443 0.320404,0.0823 0.713184,0.0823 0.447817,0 0.688677,-0.0409 0.646497,-0.10838 z m -3.156612,-0.76322 c 0.119751,-0.1788 0.38914,-0.40718 0.598677,-0.50742 0.574428,-0.27456 2.053865,-0.22841 3.699645,0.1151 0.74772,0.15634 1.53391,0.28409 1.74718,0.28409 0.21309,0 0.4379,0.0485 0.49936,0.111 0.0619,0.0619 0.36362,0.14153 0.67138,0.17804 l 0.55985,0.0657 -0.0891,-0.31513 c -0.13332,-0.46489 -0.62213,-1.39396 -0.81959,-1.55786 -0.0931,-0.0798 -0.1717,-0.21822 -0.1717,-0.31064 0,-0.0907 -0.0278,-0.13842 -0.0655,-0.10278 -0.0376,0.0376 -0.17106,-0.0337 -0.29951,-0.15333 -0.507,-0.47668 -1.75626,-1.2229 -2.44552,-1.4609 -0.85701,-0.29574 -1.477207,-0.40227 -2.328079,-0.39967 -1.800023,0.004 -2.823414,2.12819 -2.097211,4.3498 0.06485,0.19776 0.294526,0.0693 0.541944,-0.29879 z m 3.102332,0.14948 1.14286,-0.0661 -0.48993,-0.15621 c -0.7531,-0.24043 -2.580819,-0.24232 -3.020518,-0.002 -0.693214,0.37689 -0.51069,0.39422 2.367588,0.22601 z m -1.553472,-5.112 c -0.03609,-0.0375 -0.130054,-0.0405 -0.20864,-0.007 -0.08677,0.0364 -0.06113,0.0612 0.06567,0.0653 0.114746,0.004 0.179033,-0.021 0.142871,-0.0586 z m 0.464885,-0.0897 c 0,-0.11518 -0.208904,-0.16309 -0.271034,-0.0628 -0.03766,0.0614 0.006,0.11 0.10135,0.11 0.0931,0 0.169694,-0.0215 0.169694,-0.0467 z"
       style="fill:#0f0e47;fill-opacity:1;stroke-width:1.28574"
       id="path1-2" />
    <path
       d="m 96.682388,155.2895 c -0.0023,-0.0263 -0.01715,-0.19124 -0.03312,-0.36653 -0.01598,-0.17534 -0.0366,-0.47654 -0.04586,-0.6694 -0.0092,-0.19285 -0.04066,-0.40145 -0.06987,-0.46357 -0.0292,-0.0623 -0.04046,-0.40638 -0.02493,-0.76502 0.02605,-0.60266 -0.02988,-1.18355 -0.200907,-2.0864 -0.0926,-0.48884 -0.127518,-0.91079 -0.08152,-0.98518 0.02136,-0.0344 0.04534,-0.17847 0.05321,-0.31977 0.0078,-0.14127 0.05736,-0.41466 0.109998,-0.60749 0.05262,-0.19284 0.129543,-0.55146 0.170943,-0.79689 0.109611,-0.64981 0.132863,-0.73311 0.204693,-0.73311 0.03855,0 0.0487,0.0802 0.02498,0.19905 -0.0341,0.17047 -0.02636,0.18779 0.05429,0.1209 0.05183,-0.0433 0.169284,-0.23173 0.261144,-0.41952 0.110163,-0.22516 0.243616,-0.38655 0.391998,-0.47412 0.123732,-0.073 0.209342,-0.14835 0.190241,-0.16748 -0.04654,-0.0465 -0.491336,0.16731 -0.491336,0.23626 0,0.0739 -0.363859,0.44114 -0.437377,0.44114 -0.0786,0 0.01715,-0.41778 0.128265,-0.55959 0.210531,-0.26869 0.724029,-0.49094 0.990511,-0.42876 0.07675,0.0177 0.157366,0.005 0.179157,-0.0316 0.02312,-0.0372 0.151107,-0.0471 0.306719,-0.0243 0.308866,0.0465 1.255236,0.39383 1.255236,0.46078 0,0.0246 0.08957,0.0792 0.199029,0.12021 0.129643,0.049 0.187018,0.1066 0.164482,0.16536 -0.02125,0.0548 0.03182,0.12407 0.135626,0.17696 0.20553,0.10493 0.67981,0.55652 0.63326,0.60307 -0.0178,0.018 0.0512,0.11763 0.15455,0.22085 0.10321,0.1032 0.16973,0.2167 0.14781,0.25214 -0.0221,0.0353 -0.0154,0.0642 0.0143,0.0642 0.0797,0 0.28575,0.37324 0.24371,0.44124 -0.02,0.0321 0.01,0.10178 0.0603,0.15469 0.0531,0.0531 0.0962,0.17141 0.0962,0.2633 0,0.0919 0.0438,0.25172 0.0973,0.35517 0.0537,0.10345 0.0836,0.18808 0.0666,0.18808 -0.0167,0 0.013,0.10352 0.0658,0.23 0.0532,0.12652 0.08,0.24606 0.0607,0.26564 -0.0196,0.0196 -0.0383,-0.007 -0.0419,-0.0545 -0.005,-0.05 -0.0267,-0.0183 -0.0518,0.0693 -0.0247,0.0876 -0.0236,0.24542 0.005,0.35062 0.027,0.10519 0.0656,0.27131 0.0857,0.36918 0.0202,0.0978 0.064,0.16069 0.0983,0.13966 0.034,-0.0212 0.062,-0.01 0.062,0.0293 0,0.16422 1.88027,0.0152 2.01513,-0.15944 0.0389,-0.0507 0.10348,-0.0919 0.14344,-0.0919 0.0403,0 0.0727,-0.0236 0.0727,-0.0524 0,-0.0286 0.0978,-0.16649 0.21725,-0.30611 0.11952,-0.13959 0.24969,-0.37425 0.28933,-0.52145 0.0398,-0.14721 0.10319,-0.26769 0.14122,-0.26769 0.0466,0 0.0484,-0.0256 0.007,-0.0798 -0.0348,-0.044 -0.0856,-0.14999 -0.11178,-0.2359 -0.0617,-0.20047 -0.81307,-1.31017 -1.07056,-1.58098 -0.13757,-0.14465 -0.25574,-0.20749 -0.39169,-0.20814 -0.13104,-6.6e-4 -0.16682,-0.0183 -0.10954,-0.0548 0.0468,-0.0298 0.0786,-0.0651 0.0706,-0.0789 -0.01,-0.0139 0.005,-0.0822 0.0255,-0.1523 0.0726,-0.22778 0.34594,-0.28405 1.55128,-0.31881 0.98246,-0.0281 1.15936,-0.0192 1.19029,0.0612 0.0511,0.13318 -0.47956,0.35797 -0.8132,0.34449 -0.14343,-0.008 -0.4026,-0.008 -0.57595,-7.6e-4 l -0.31514,0.01 0.44956,0.43027 c 0.5925,0.5671 1.05157,1.39406 1.04832,1.88843 -0.002,0.17978 -0.0318,0.42707 -0.0683,0.5496 -0.0365,0.12245 -0.0665,0.35198 -0.067,0.50998 -6.7e-4,0.20381 -0.018,0.2598 -0.0608,0.19273 -0.0463,-0.0734 -0.0909,-0.0233 -0.19812,0.22313 -0.0759,0.17472 -0.18226,0.36788 -0.23598,0.42924 -0.14928,0.17054 -0.005,0.13269 0.19368,-0.0505 0.15406,-0.14288 0.20741,-0.2681 0.18221,-0.42775 -0.006,-0.0263 0.0213,-0.0475 0.0562,-0.0475 0.082,0 0.0827,0.29202 7.4e-4,0.44473 -0.0798,0.14876 -0.48884,0.40514 -0.56824,0.35603 -0.0331,-0.0206 -0.098,-7.1e-4 -0.14464,0.0437 -0.0467,0.0441 -0.23542,0.14985 -0.4195,0.2346 -0.18407,0.0849 -0.33467,0.18267 -0.33467,0.21761 0,0.0346 -0.0187,0.0442 -0.0419,0.0217 -0.0232,-0.0232 -0.0803,-0.0104 -0.12693,0.0284 -0.0867,0.0723 -0.71682,0.0964 -0.94673,0.0366 -0.0703,-0.018 -0.32831,-0.0889 -0.57378,-0.15683 -0.24543,-0.0679 -0.47946,-0.11211 -0.52006,-0.098 -0.0408,0.0143 -0.0926,-0.006 -0.11534,-0.0412 -0.0229,-0.0369 -0.0703,-0.0668 -0.10522,-0.0668 -0.0348,0 -0.0506,0.0218 -0.034,0.0475 0.0162,0.0263 -0.1855,0.056 -0.44827,0.0659 -0.29598,0.0115 -0.53508,0.0558 -0.62829,0.11685 -0.089,0.0581 -0.20484,0.0812 -0.28326,0.0563 -0.348703,-0.11066 -1.115603,-0.15221 -1.57916,-0.0857 -0.201366,0.0289 -0.479142,0.0681 -0.61727,0.0871 -0.447724,0.0615 -0.859682,0.40795 -0.945381,0.79498 -0.0194,0.0876 -0.05413,0.23109 -0.0772,0.31874 -0.02303,0.0877 -0.03998,0.44531 -0.03763,0.7948 0.0024,0.34948 -0.01196,0.68654 -0.03175,0.74905 -0.03458,0.10885 -0.278122,0.16481 -0.286539,0.0657 z m 0.450313,-2.70094 c 0,-0.0348 -0.0287,-0.0459 -0.0638,-0.0242 -0.03508,0.0217 -0.06379,0.068 -0.06379,0.10315 0,0.0348 0.0287,0.0461 0.06379,0.0243 0.03508,-0.0217 0.0638,-0.068 0.0638,-0.10315 z m -0.0682,-0.48653 c -0.004,-0.15304 -0.01099,-0.15913 -0.05581,-0.0475 -0.02822,0.0703 -0.03884,0.149 -0.02364,0.17529 0.054,0.0933 0.08382,0.0454 0.07941,-0.12748 z m 6.947809,-0.0568 c 0.0148,-0.0124 -0.0627,-0.0228 -0.17154,-0.0228 -0.10899,0 -0.21557,0.028 -0.23691,0.0629 -0.0349,0.0568 0.33784,0.0206 0.40845,-0.0403 z m -6.086947,-0.0161 c 0.146071,-0.057 0.06693,-0.11377 -0.149551,-0.10696 -0.08459,0.004 -0.165858,0.0408 -0.180623,0.0846 -0.0296,0.0877 0.134927,0.0989 0.330174,0.0224 z m 0.864847,-0.10895 c 0,-0.0141 -0.121925,-0.0218 -0.270933,-0.0174 -0.248599,0.009 -0.255172,0.0114 -0.07969,0.0518 0.177574,0.0411 0.350624,0.0243 0.350624,-0.0341 z m 0.812791,0.0585 c -0.06138,-0.0159 -0.161752,-0.0159 -0.223097,0 -0.06154,0.0159 -0.01128,0.0291 0.111513,0.0291 0.122723,0 0.172936,-0.0132 0.111584,-0.0291 z m 1.609669,-0.14731 c 0.10419,-0.067 -0.0812,-0.0927 -0.50554,-0.0696 -0.43313,0.024 -0.43683,0.12916 -0.006,0.13016 0.2279,5.6e-4 0.45739,-0.0268 0.50999,-0.0608 z m 1.13094,-0.15348 c 0.025,-0.025 -0.0947,-0.0369 -0.26659,-0.0259 -0.17185,0.0113 -0.32285,0.0514 -0.33549,0.0898 -0.0252,0.0764 0.51921,0.0187 0.60208,-0.0637 z m 2.02041,0.0325 c 0.0929,-0.0365 0.10299,-0.0609 0.0409,-0.0993 -0.0482,-0.0301 -0.10325,-0.0175 -0.13241,0.0297 -0.0283,0.0463 -0.11913,0.0671 -0.21188,0.05 -0.0892,-0.0172 -0.19975,-0.009 -0.24586,0.0221 -0.10619,0.067 0.37685,0.0656 0.54949,-0.003 z m -3.88446,-0.12945 c 0.65718,-0.1044 0.70372,-0.13104 0.69027,-0.39503 -0.0123,-0.24382 -0.3791,-1.31279 -0.50024,-1.45829 -0.0439,-0.0529 -0.19529,-0.33945 -0.33666,-0.6375 -0.14137,-0.298 -0.33062,-0.62792 -0.420516,-0.7331 -0.08988,-0.10518 -0.191018,-0.22404 -0.224645,-0.26414 -0.03358,-0.0404 -0.04844,-0.0856 -0.03312,-0.10106 0.08601,-0.0862 -0.866541,-0.80279 -1.012733,-0.76195 -0.02891,0.01 -0.03625,-0.0118 -0.01633,-0.044 0.01996,-0.0322 -0.0082,-0.0755 -0.06232,-0.0965 -0.0558,-0.0215 -0.08186,-0.0111 -0.06007,0.0243 0.02186,0.035 -0.0049,0.0459 -0.06007,0.0246 -0.05419,-0.0211 -0.08017,-0.0708 -0.0577,-0.11083 0.0247,-0.0439 0.0068,-0.0415 -0.04504,0.009 -0.04724,0.0438 -0.1355,0.0798 -0.196181,0.0798 -0.242124,0 -0.556242,0.28266 -0.699981,0.62988 l -0.142006,0.34304 0.133875,0.48571 c 0.07363,0.26713 0.179313,0.64347 0.234843,0.83636 0.05556,0.19281 0.158337,0.72945 0.228465,1.19251 0.07006,0.46303 0.143972,0.88479 0.164104,0.93726 0.02519,0.0658 0.149031,0.10129 0.397501,0.11435 0.702554,0.0368 1.514843,0.01 2.018414,-0.0724 z m 3.83002,-0.11637 c -0.0448,-0.0448 -0.29195,0.0521 -0.29195,0.11472 0,0.0319 0.072,0.0251 0.15962,-0.0145 0.0878,-0.0403 0.14737,-0.0851 0.13233,-0.10006 z m -7.176849,0.0836 c 0,-0.0152 -0.0287,-0.0459 -0.06379,-0.0673 -0.03508,-0.0218 -0.06378,-0.01 -0.06378,0.0277 0,0.0369 0.02869,0.0673 0.06378,0.0673 0.03508,0 0.06379,-0.0126 0.06379,-0.0277 z m 7.890089,-0.0994 c 0.0733,-0.11713 0.0637,-0.12749 -0.11634,-0.12749 -0.1078,0 -0.25866,0.0348 -0.33525,0.0779 -0.13372,0.0748 -0.13036,0.0797 0.0839,0.11911 0.12269,0.0227 0.23774,0.0447 0.25559,0.0498 0.0176,0.006 0.0683,-0.049 0.11211,-0.11912 z m -7.559661,-0.58754 c -0.04567,-0.0458 -0.07545,-0.0498 -0.07545,-0.01 0,0.0853 0.07539,0.1605 0.11794,0.11793 0.01813,-0.0179 -7.54e-4,-0.0667 -0.04245,-0.10834 z m 0.155861,-0.35548 c -0.01715,-0.0275 -0.04714,-0.16405 -0.06664,-0.3028 -0.08041,-0.57309 -0.202228,-0.98541 -0.291164,-0.98541 -0.08467,0 0.01068,0.59458 0.135132,0.84215 0.06536,0.13006 0.11886,0.29503 0.11886,0.36656 0,0.0716 0.03038,0.13002 0.06755,0.13002 0.03714,0 0.05344,-0.0228 0.03628,-0.0507 z m -0.932537,-0.4951 c 0,-0.0856 -0.0268,-0.1556 -0.05948,-0.1556 -0.03273,0 -0.05707,0.0852 -0.05414,0.18905 0.0058,0.22419 0.113596,0.19262 0.113596,-0.0337 z m 4.551587,-0.10138 c -0.0277,-0.0825 -0.0538,-0.16421 -0.0569,-0.18175 -0.0215,-0.1083 -0.11964,-0.3514 -0.16563,-0.40947 -0.4933,-0.62288 -0.54159,-0.54247 -0.14915,0.24824 0.18852,0.37978 0.32646,0.58944 0.36346,0.55243 0.0334,-0.0337 0.0369,-0.12563 0.01,-0.20945 z m -4.552566,-0.52015 c -7.03e-4,-0.23715 -0.01842,-0.30383 -0.06282,-0.23529 -0.08307,0.12853 -0.08307,0.65695 0,0.60563 0.03508,-0.0217 0.0633,-0.18833 0.06282,-0.37034 z m 3.889686,-0.79947 c 0,-0.19812 -0.795988,-1.02939 -1.333745,-1.39287 -0.29107,-0.19673 -0.684738,-0.33036 -0.608143,-0.20643 0.02031,0.0331 0.07568,0.06 0.12307,0.06 0.09407,0 0.669565,0.43259 0.930318,0.69927 0.08989,0.092 0.286971,0.33076 0.43797,0.5308 0.24341,0.32238 0.45053,0.46464 0.45053,0.30947 z m 4.27118,-0.28864 c 0,-0.0134 -0.0504,-0.0634 -0.11155,-0.11156 -0.10112,-0.0794 -0.10336,-0.0768 -0.0243,0.0242 0.0832,0.10618 0.13564,0.13997 0.13564,0.0875 z m -0.85539,-0.42942 c -0.0942,-0.0739 -0.18705,-0.11906 -0.20626,-0.0999 -0.0592,0.0592 0.13008,0.2296 0.25744,0.23216 0.10082,0.003 0.0927,-0.0192 -0.0513,-0.13231 z"
       style="fill:#0f0e47;fill-opacity:1;stroke-width:0.752945"
       id="path1-36" />
    <path
       d="m 96.481702,174.59734 c 0.0288,-0.0466 0.015,-0.0847 -0.0306,-0.0847 -0.11358,0 -0.1872,-1.21173 -0.18003,-2.96334 4.8e-4,-0.11641 -0.003,-0.42878 -0.008,-0.69415 -0.009,-0.52517 0.0364,-0.66051 0.22342,-0.66051 0.11241,0 0.14555,0.15824 0.14509,0.69298 -6e-5,0.0785 0.10306,0.18539 0.22917,0.23763 0.21707,0.0899 0.84331,0.0662 1.01247,-0.0384 0.043,-0.0266 0.10027,-0.0127 0.12719,0.0309 0.0285,0.046 0.92031,0.076 2.129518,0.0716 1.96512,-0.007 2.0931,-0.0173 2.3064,-0.18212 0.1242,-0.0959 0.23718,-0.19969 0.25105,-0.23052 0.0139,-0.0308 0.094,-0.0381 0.17805,-0.0161 0.41468,0.10844 1.53239,-0.52352 1.53239,-0.86642 0,-0.0613 0.0746,-0.13512 0.16578,-0.16406 0.1587,-0.0504 0.15984,-0.0651 0.0267,-0.34437 -0.0765,-0.16047 -0.17724,-0.29176 -0.22383,-0.29176 -0.0466,0 -0.16335,-0.073 -0.25948,-0.16229 -0.0961,-0.0893 -0.40339,-0.24397 -0.68279,-0.34381 -0.74265,-0.26536 -0.76963,-0.27133 -2.07434,-0.45896 -0.53551,-0.077 -1.33953,-0.19301 -1.786708,-0.25776 -0.44717,-0.0648 -1.18067,-0.11773 -1.62999,-0.11773 -0.78661,0 -0.8188,0.007 -0.86682,0.19873 -0.0387,0.1542 -0.10531,0.19715 -0.29728,0.19169 -0.23937,-0.007 -0.24694,-0.0199 -0.23332,-0.40455 0.008,-0.21863 -0.0149,-0.44443 -0.0504,-0.50177 -0.0894,-0.14469 0.12243,-0.85791 0.27187,-0.91526 0.14444,-0.0554 0.27151,0.11636 0.27333,0.36951 0.002,0.24309 0.19358,0.38595 0.57401,0.42746 0.17395,0.019 0.44963,0.0511 0.61262,0.0714 0.41194,0.0512 2.108898,0.0541 2.275818,0.004 0.0754,-0.0227 0.59767,-0.0804 1.1605,-0.12809 1.23217,-0.10452 2.20559,-0.40586 2.39305,-0.74082 0.087,-0.15549 -0.10027,-0.80467 -0.27367,-0.94858 -0.1786,-0.14822 -1.82052,-0.94458 -2.41157,-1.16964 -1.20522,-0.45894 -1.487161,-0.54155 -2.155708,-0.63164 -0.84974,-0.11449 -0.89938,-0.11611 -1.13659,-0.0371 -0.11821,0.0394 -0.1905,0.0292 -0.1905,-0.0269 0,-0.0497 0.0857,-0.0928 0.1905,-0.0957 0.18734,-0.005 0.18707,-0.007 -0.0165,-0.088 -0.29354,-0.11723 -1.2151,-0.185 -1.15316,-0.0848 0.0275,0.0445 0.004,0.18177 -0.0522,0.30513 -0.0748,0.16422 -0.0774,0.26394 -0.01,0.37237 0.0733,0.11733 0.0593,0.16878 -0.0671,0.24773 -0.0877,0.0548 -0.17659,0.0996 -0.19742,0.0996 -0.0317,0 -0.0474,-0.43137 -0.054,-1.48167 -5.9e-4,-0.0931 0.003,-0.67413 0.007,-1.29109 0.004,-0.61697 -0.0155,-1.1599 -0.0443,-1.2065 -0.0288,-0.0466 -0.002,-0.0853 0.0584,-0.086 0.0883,-10e-4 0.0875,-0.0161 -0.004,-0.0741 -0.09,-0.057 -0.0921,-0.0869 -0.01,-0.13787 0.0664,-0.0411 0.19481,0.0374 0.34771,0.21255 0.13332,0.1527 0.24298,0.2439 0.2437,0.20267 0.003,-0.1575 0.16551,0.1878 0.16674,0.35368 0.002,0.30084 0.43129,0.59747 1.27129,0.8789 0.91554,0.30674 2.018278,0.5493 3.105818,0.68314 0.41058,0.0505 0.87987,0.1108 1.04285,0.13392 0.59026,0.0837 3.60056,0.17183 3.6869,0.10789 0.1215,-0.09 0.4779,-0.0631 0.62619,0.0473 0.0891,0.0663 0.1064,0.0647 0.064,-0.006 -0.0319,-0.0533 -0.004,-0.11775 0.0623,-0.14316 0.0662,-0.0254 0.13268,-0.15323 0.14768,-0.28404 0.0375,-0.3268 0.27262,-0.31453 0.30993,0.0162 0.0158,0.1397 0.0681,0.30162 0.1162,0.35983 0.0606,0.0733 0.0585,0.14077 -0.007,0.21946 -0.0519,0.0625 -0.0789,0.12917 -0.0602,0.14817 0.0188,0.019 0.0459,0.22504 0.0603,0.45787 l 0.0262,0.42334 -0.33618,0.0481 c -0.33749,0.0483 -0.31918,0.0798 0.12711,0.21858 0.10972,0.0341 0.10972,0.0482 0,0.11758 -0.15072,0.0953 -0.27644,0.10543 -0.22246,0.0179 0.0215,-0.0349 -0.10004,-0.0702 -0.27017,-0.0784 -0.17013,-0.008 -0.81285,-0.0363 -1.42826,-0.0625 -0.61541,-0.0262 -1.14881,-0.0526 -1.18533,-0.0586 -0.0365,-0.006 -0.21881,-0.006 -0.40508,6.4e-4 l -0.33866,0.0116 0.381,0.23956 c 0.48812,0.30692 0.9982,0.87181 1.05941,1.17325 0.0262,0.12924 0.12437,0.37918 0.21805,0.55543 0.12068,0.22704 0.16492,0.45423 0.15177,0.77931 -0.0102,0.25236 -0.0502,0.43928 -0.0889,0.41537 -0.0387,-0.0239 -0.0712,-0.0127 -0.0722,0.025 -0.001,0.0377 -0.0806,0.16375 -0.17669,0.28017 -0.0961,0.11641 -0.14675,0.15848 -0.11248,0.0935 0.0496,-0.094 0.0121,-0.10565 -0.18316,-0.0569 -0.135,0.0337 -0.30561,0.11546 -0.37913,0.18168 -0.0735,0.0662 -0.17067,0.1204 -0.2159,0.1204 -0.0452,0 -0.12728,0.0451 -0.18235,0.10012 -0.077,0.077 0.0898,0.17727 0.7239,0.43493 0.45321,0.18415 0.88671,0.38904 0.96333,0.45532 0.1741,0.15061 0.25273,0.62235 0.12925,0.7755 -0.0509,0.0632 -0.13288,0.19652 -0.18209,0.29633 -0.0492,0.0998 -0.17596,0.21957 -0.28165,0.26613 -0.12125,0.0534 -0.18478,0.14718 -0.17213,0.254 0.011,0.0931 -0.0336,0.26459 -0.0992,0.381 -0.0656,0.11642 -0.10965,0.2593 -0.0978,0.3175 0.0118,0.0582 -0.0322,0.10584 -0.0977,0.10584 -0.0655,0 -0.2127,0.0935 -0.32703,0.20787 -0.11433,0.11433 -0.38722,0.24806 -0.60642,0.29718 -0.48879,0.10955 -2.39155,0.23843 -2.59547,0.17581 -0.12034,-0.037 -1.2782,-0.021 -1.608671,0.0221 -0.209547,0.0274 -0.609597,0.074 -0.888997,0.10372 -0.89007,0.0945 -1.58166,0.29969 -1.84736,0.54801 -0.27565,0.25762 -0.32261,0.4539 -0.31055,1.29796 0.005,0.33153 -0.0343,0.62964 -0.0915,0.69851 -0.11269,0.13578 -0.28646,0.16571 -0.20597,0.0355 z m 0.91017,-2.61179 c 0.22119,-0.10457 0.40216,-0.1993 0.40216,-0.21049 0,-0.0813 -0.41668,-0.0248 -0.57325,0.0779 -0.10644,0.0697 -0.23644,0.10028 -0.28889,0.0679 -0.0582,-0.036 -0.0718,-0.0209 -0.0349,0.0388 0.0332,0.0538 0.0178,0.0978 -0.0343,0.0978 -0.0521,0 -0.0699,0.0401 -0.0396,0.0891 0.0303,0.049 0.0802,0.0757 0.11083,0.0592 0.0307,-0.0165 0.23672,-0.11552 0.45791,-0.2201 z m 7.086338,-1.33525 c 0.32206,-0.30546 0.1633,-0.31162 -0.18421,-0.007 -0.17025,0.14915 -0.39746,0.34064 -0.50492,0.42553 -0.13467,0.10638 -0.0901,0.0959 0.14329,-0.0338 0.18626,-0.10346 0.43189,-0.27653 0.54584,-0.38461 z m 0.85116,-1.5036 c 0,-0.0176 -0.0667,-0.0843 -0.14817,-0.14816 -0.13428,-0.10532 -0.13728,-0.10232 -0.032,0.032 0.11061,0.14103 0.18014,0.18588 0.18014,0.1162 z m -1.98421,-1.92509 c 0.0961,-0.0878 0.24853,-0.16045 0.33866,-0.16149 0.0901,-0.001 0.25913,-0.0756 0.37555,-0.16566 0.18525,-0.14335 0.1377,-0.13759 -0.381,0.0462 -0.75939,0.269 -0.97919,0.38262 -0.92132,0.47625 0.0634,0.10264 0.37523,-8.9e-4 0.58811,-0.19527 z m 1.77053,0.042 c 0.0754,-0.0754 0.11515,-0.15901 0.0884,-0.1858 -0.0268,-0.0268 -0.13233,0.0349 -0.23452,0.13708 -0.10218,0.10219 -0.14195,0.18579 -0.0884,0.18579 0.0536,0 0.15912,-0.0617 0.23452,-0.13707 z m -0.1704,-0.77443 c 0.0619,-0.16134 -0.0476,-0.28946 -0.17672,-0.2068 -0.0515,0.033 -0.11946,0.14254 -0.15094,0.24345 -0.0476,0.15279 -0.0293,0.17618 0.10974,0.13983 0.0918,-0.024 0.18989,-0.10343 0.21792,-0.17648 z m -0.29326,-0.6075 c 0,-0.0904 -0.0381,-0.18788 -0.0847,-0.21666 -0.048,-0.0297 -0.0847,0.0414 -0.0847,0.16433 0,0.11917 0.0381,0.21667 0.0847,0.21667 0.0466,0 0.0847,-0.0739 0.0847,-0.16434 z m -0.80862,-1.29798 c -0.0227,-0.0592 -0.1263,-0.15947 -0.23018,-0.2228 -0.18012,-0.10981 -0.17936,-0.10483 0.0164,0.10766 0.22918,0.24876 0.2744,0.27312 0.21378,0.11514 z m -1.23526,-0.47345 c -0.0633,-0.0203 -0.13774,-0.0715 -0.16538,-0.11368 -0.0276,-0.0422 -0.2753,-0.0956 -0.55034,-0.11862 l -0.50006,-0.0419 0.55033,0.24748 c 0.41123,0.18493 0.57943,0.22426 0.66545,0.15558 0.097,-0.0775 0.097,-0.0977 0,-0.12886 z m 0.65037,-0.0906 c -0.0307,-0.0497 -0.0963,-0.0903 -0.14585,-0.0903 -0.0561,0 -0.0497,0.0486 0.0171,0.12905 0.11613,0.13992 0.21991,0.10869 0.12879,-0.0387 z m -2.45882,-0.93519 c -1.513268,-0.26916 -1.904488,-0.31374 -1.911678,-0.21784 -0.004,0.049 -0.0259,0.0414 -0.0494,-0.0168 -0.0235,-0.0582 -0.0967,-0.10583 -0.16265,-0.10583 -0.066,0 -0.12053,0.0476 -0.12124,0.10583 -8e-4,0.0655 -0.025,0.0736 -0.0635,0.0212 -0.0342,-0.0466 -0.15746,-0.0947 -0.27387,-0.10688 -0.39437,-0.0414 -0.42334,-0.0483 -0.42334,-0.10075 0,-0.0985 -0.33438,-0.0526 -0.3743,0.0514 -0.0357,0.0931 0.55077,0.2599 0.96697,0.27501 0.0699,0.002 0.29845,0.0268 0.508,0.0539 0.74336,0.0961 1.826798,0.18534 2.285998,0.18835 0.4152,0.003 0.37392,-0.0133 -0.381,-0.14754 z m 6.08908,0.11617 c 0.0737,-0.0283 0.13392,-0.10934 0.13392,-0.18016 0,-0.10165 -0.0668,-0.11774 -0.3175,-0.0764 -0.55623,0.0917 -0.69147,0.1262 -0.84488,0.21552 -0.11485,0.0669 -0.0277,0.0879 0.37229,0.0899 0.28723,0.001 0.58251,-0.0205 0.65617,-0.0488 z m -8.586748,-0.54128 c 0,-0.0466 -0.0667,-0.0841 -0.14816,-0.0834 -0.12662,0.001 -0.1297,0.0132 -0.0212,0.0834 0.15979,0.10326 0.16933,0.10326 0.16933,0 z m 2.497668,0 c 0.0288,-0.0466 0.012,-0.0847 -0.0373,-0.0847 -0.0493,0 -0.0897,0.0381 -0.0897,0.0847 0,0.0466 0.0168,0.0847 0.0373,0.0847 0.0205,0 0.0609,-0.0381 0.0897,-0.0847 z m -0.21167,-0.0325 c 0,-0.0179 -0.0941,-0.0505 -0.2091,-0.0724 -0.11501,-0.022 -0.18896,-0.007 -0.16434,0.0325 0.0434,0.0702 0.37344,0.10548 0.37344,0.04 z m -1.354658,-0.31476 c -0.67508,-0.17473 -1.54892,-0.2696 -1.48172,-0.16086 0.0516,0.0836 0.46018,0.16165 1.08905,0.20816 0.27298,0.0202 0.51746,0.0578 0.54328,0.0837 0.0258,0.0258 0.14537,0.0439 0.26567,0.0402 0.120287,-0.004 -0.067,-0.0807 -0.41628,-0.17113 z m -2.02201,-0.35774 -0.17933,-0.17933 v 0.18394 c 0,0.10117 0.0667,0.22156 0.14817,0.26755 0.2231,0.12589 0.24428,-0.0591 0.0312,-0.27216 z"
       style="fill:#0f0e47;fill-opacity:1"
       id="path1-32" />
    <path
       d="m 105.52225,183.14277 c -0.21529,-0.20925 -0.45345,-0.40013 -0.52926,-0.4242 -0.0758,-0.0241 -0.19996,-0.17402 -0.2759,-0.33326 -0.15996,-0.33544 -0.8879,-1.34667 -0.99866,-1.38731 -0.15055,-0.0552 0.27494,0.80407 0.63941,1.29136 0.37966,0.50759 0.42445,0.71512 0.11906,0.55168 -0.368,-0.19695 -0.98345,-1.20394 -1.21803,-1.99292 -0.0152,-0.051 -0.32631,-0.12121 -0.69142,-0.15597 -0.36511,-0.0348 -0.75909,-0.0782 -0.87551,-0.0966 -0.45419,-0.0716 -0.635,-0.10696 -0.635,-0.1241 0,-0.01 -0.0762,-0.0282 -0.16933,-0.0408 -0.52998,-0.0717 -2.972318,-0.89889 -3.343238,-1.13239 -0.40359,-0.25405 -1.08008,-0.8124 -1.18991,-0.98211 -0.13521,-0.2089 -0.11907,-1.12261 0.0284,-1.60867 0.0283,-0.0931 0.0717,-0.4526 0.0966,-0.79881 0.0249,-0.34622 0.0806,-0.66484 0.1238,-0.70806 0.14933,-0.14933 0.28271,0.0382 0.23524,0.33075 -0.0537,0.33085 0.052,0.44119 0.21213,0.22158 0.21752,-0.29824 0.62706,-0.5048 1.21229,-0.61145 0.32597,-0.0594 0.84032,-0.18487 1.143,-0.27882 0.643668,-0.19979 2.460788,-0.24757 2.963338,-0.0779 0.16298,0.055 0.46552,0.12098 0.6723,0.14657 0.20678,0.0256 0.41633,0.08 0.46566,0.12099 0.0975,0.0809 0.1319,0.0888 0.38604,0.0888 0.0995,0 0.16933,0.0564 0.16933,0.13687 0,0.0999 0.0565,0.12607 0.2091,0.0969 0.12815,-0.0245 0.18859,-0.007 0.1561,0.0458 -0.0331,0.0536 0.0218,0.0662 0.14632,0.0336 0.10964,-0.0287 0.25266,-0.008 0.31783,0.0462 0.0652,0.0541 0.19009,0.10927 0.27758,0.12262 0.0875,0.0134 0.41715,0.1474 0.73258,0.29788 0.31542,0.15049 0.61052,0.26234 0.65578,0.24858 0.0453,-0.0138 0.0139,0.0505 -0.0697,0.14289 -0.14675,0.16216 -0.14594,0.16985 0.0235,0.22364 0.0965,0.0306 0.17552,0.0912 0.17552,0.13467 0,0.0874 -0.21531,0.11272 -0.70458,0.0829 -0.23072,-0.0141 -0.35572,0.0243 -0.43562,0.13352 -0.11533,0.15772 -0.27972,0.1296 -1.69614,-0.29018 -0.0931,-0.0276 -0.19945,-0.0421 -0.23626,-0.0323 -0.0368,0.01 -0.13206,-0.0161 -0.21167,-0.0577 -0.0796,-0.0416 -0.38939,-0.10103 -0.68842,-0.13212 -0.29903,-0.0311 -0.56817,-0.0717 -0.59809,-0.0902 -0.17137,-0.10591 -2.379998,-0.1771 -2.964558,-0.0955 -0.20955,0.0292 -0.47625,0.0661 -0.59266,0.0819 -0.48704,0.0661 -1.01554,0.2531 -1.15703,0.40944 -0.0931,0.10288 -0.15146,0.29969 -0.15146,0.51082 0,0.30083 0.0471,0.38474 0.37908,0.67608 0.76983,0.67549 1.39558,1.06703 1.99596,1.24888 0.33049,0.10011 0.635288,0.17383 0.677338,0.16381 0.0844,-0.0201 0.24592,0.0175 1.30411,0.30315 1.08838,0.29383 1.73534,0.38232 2.667,0.36477 1.0402,-0.0196 1.651,0.0677 1.651,0.23585 0,0.067 -0.0355,0.12181 -0.0788,0.12181 -0.0433,0 -0.091,0.0857 -0.10583,0.1905 -0.0191,0.13461 -0.0932,0.19815 -0.25258,0.21658 -0.15954,0.0185 -0.26481,0.10889 -0.35983,0.30913 -0.27269,0.57465 -0.0973,1.07961 0.61883,1.78145 0.42918,0.42063 0.55358,0.71967 0.29938,0.71967 -0.073,0 -0.30894,-0.1712 -0.52422,-0.38044 z m -0.73382,-2.3933 c -0.0205,-0.0205 -0.0874,-0.006 -0.14869,0.0326 -0.0613,0.0384 -0.1823,0.0582 -0.26888,0.0439 -0.097,-0.016 -0.13537,0.01 -0.1,0.067 0.0316,0.0511 0.0929,0.071 0.13626,0.0442 0.0433,-0.0268 0.0788,-0.002 0.0788,0.0541 0,0.0637 0.0646,0.0443 0.16986,-0.0509 0.0934,-0.0845 0.1531,-0.17047 0.13263,-0.19094 z m 0.96751,-4.44748 c -0.11641,-0.0538 -0.23965,-0.13691 -0.27387,-0.18477 -0.0394,-0.0552 -0.0627,-0.0473 -0.0635,0.0215 -7.1e-4,0.0597 0.0844,0.14302 0.18921,0.18514 0.27666,0.1112 0.39764,0.0933 0.14816,-0.0219 z m -1.143,-0.22945 c -0.0288,-0.0466 -0.19295,-0.082 -0.36483,-0.0787 -0.25185,0.005 -0.27964,0.0201 -0.14317,0.0787 0.23775,0.10217 0.57114,0.10217 0.508,0 z m -6.392328,-0.46067 c 0,-0.0894 -0.16248,-0.1269 -0.21081,-0.0487 -0.0292,0.0473 0.006,0.086 0.0788,0.086 0.0726,0 0.132,-0.0168 0.132,-0.0373 z m 1.76865,-0.13736 c 0.291158,-0.005 0.295628,-0.009 0.094,-0.0917 -0.266438,-0.10867 -0.992948,-0.0467 -1.126808,0.0961 -0.0811,0.0865 -0.0196,0.0971 0.31313,0.0543 0.22769,-0.0293 0.55154,-0.0557 0.71967,-0.0587 z m 2.231848,0.034 c -0.0582,-0.0235 -0.15346,-0.0235 -0.21167,0 -0.0582,0.0235 -0.0106,0.0427 0.10584,0.0427 0.11641,0 0.16404,-0.0192 0.10583,-0.0427 z m 0.14817,-0.30678 c 0,-0.12532 -0.014,-0.12764 -1.143,-0.19023 -0.53537,-0.0297 -0.79997,-0.0181 -0.71967,0.0316 0.0699,0.0432 0.48495,0.10114 0.92245,0.12885 0.4375,0.0277 0.81533,0.0702 0.83961,0.0945 0.0709,0.0709 0.10061,0.0518 0.10061,-0.0647 z"
       style="fill:#0f0e47;fill-opacity:1"
       id="path1-76" />
    <path
       d="m 107.20722,189.88438 c -0.2794,-0.0429 -0.62733,-0.0604 -0.77317,-0.039 -0.14585,0.0214 -0.30475,-5.7e-4 -0.3531,-0.0489 -0.0489,-0.0489 -0.50961,-0.0928 -1.03796,-0.0989 -0.81825,-0.009 -0.96305,-0.0322 -1.0439,-0.16409 -0.15651,-0.25532 0.13535,-0.39357 0.81739,-0.38718 0.3238,0.003 0.62594,-0.0317 0.67141,-0.0772 0.13052,-0.13052 0.0451,-0.4832 -0.11697,-0.4832 -0.14365,0 -0.49203,-0.3138 -0.49203,-0.44319 0,-0.0756 -1.94138,-1.99393 -2.51709,-2.48724 -0.19626,-0.16816 -0.32933,-0.3362 -0.29571,-0.3734 0.0336,-0.0372 0.0207,-0.0447 -0.0287,-0.0167 -0.0494,0.028 -0.22084,-0.062 -0.381,-0.20018 -0.16016,-0.13814 -0.38646,-0.2788 -0.50287,-0.31258 -0.36232,-0.10513 -2.383795,-0.0667 -2.801995,0.0533 -0.21395,0.0614 -0.55685,0.11782 -0.762,0.12544 -0.38996,0.0145 -0.54311,0.1139 -0.41438,0.269 0.0485,0.0585 0.001,0.14776 -0.13184,0.24753 -0.1558,0.11701 -0.20778,0.23532 -0.20778,0.47297 0,0.24573 -0.038,0.32688 -0.16934,0.36122 -0.0962,0.0251 -0.17135,0.002 -0.17401,-0.0536 -0.003,-0.0539 -6.5e-4,-0.5424 0.004,-1.08568 0.008,-0.92555 -0.002,-0.99124 -0.16465,-1.04287 -0.23472,-0.0745 -0.21866,-0.20008 0.0381,-0.29769 0.19052,-0.0724 0.21167,-0.1272 0.21167,-0.54824 0,-0.35952 0.0404,-0.50815 0.17454,-0.6423 0.23178,-0.23178 0.46825,-0.18115 0.43599,0.0933 -0.0332,0.28249 0.0543,0.6069 0.1481,0.54895 0.042,-0.0259 0.10026,-0.008 0.12951,0.0389 0.0292,0.0473 0.003,0.0887 -0.0576,0.092 -0.13996,0.008 0.18353,0.14986 0.35484,0.15613 0.11289,0.004 0.11289,-0.004 0,-0.0774 -0.1699,-0.1098 0.0117,-0.1082 0.30334,0.003 1.20621,0.4586 3.101185,0.69493 6.466285,0.80643 0.81289,0.0269 1.78444,0.0843 2.159,0.12739 0.84835,0.0977 0.93318,0.0284 0.83584,-0.68226 -0.0351,-0.25624 -0.0652,-0.56703 -0.067,-0.69064 -0.002,-0.12361 -0.0317,-0.20709 -0.0667,-0.1855 -0.0349,0.0216 -0.0635,-0.0179 -0.0635,-0.0878 0,-0.32345 0.30705,-0.20844 0.36998,0.13858 0.0229,0.1263 0.0676,0.27158 0.0992,0.32284 0.0553,0.0894 0.1236,0.75472 0.15222,1.4821 0.0142,0.35994 0.1702,0.58937 0.43587,0.64086 0.086,0.0167 0.17249,0.0788 0.19225,0.13819 0.0282,0.0847 -0.14296,0.0972 -0.79732,0.0582 -0.45828,-0.0273 -1.32854,-0.0633 -1.9339,-0.08 -1.34572,-0.037 -2.09874,-0.11844 -2.17163,-0.23474 -0.0302,-0.0482 -0.12187,-0.062 -0.20366,-0.0306 -0.0937,0.0359 -0.21483,-0.005 -0.32735,-0.11077 -0.10866,-0.10208 -0.22117,-0.14155 -0.28718,-0.10075 -0.13266,0.082 -0.06,0.14699 0.49215,0.44062 0.20955,0.11143 0.4953,0.28382 0.635,0.38308 0.1397,0.0993 0.29684,0.16472 0.34921,0.14544 0.0524,-0.0193 0.2338,0.0904 0.40319,0.24364 0.79075,0.71553 1.04386,1.00643 1.13814,1.30808 0.0559,0.1789 0.21461,0.47767 0.35266,0.66393 0.13804,0.18627 0.3756,0.51786 0.52789,0.73686 0.27587,0.3967 0.36834,0.46541 0.89074,0.66187 0.17608,0.0662 0.27517,0.16076 0.27517,0.26255 0,0.1738 0.0123,0.17277 -0.71967,0.0605 z m -0.46566,-0.57577 c 0,-0.0449 -0.0762,-0.12247 -0.16934,-0.17231 -0.13344,-0.0714 -0.16933,-0.0644 -0.16933,0.0332 0,0.0681 0.0667,0.14119 0.14817,0.16249 0.0815,0.0213 0.15769,0.0431 0.16933,0.0485 0.0116,0.005 0.0212,-0.0269 0.0212,-0.0719 z m -1.2717,-1.23269 c -0.0589,-0.071 -0.12454,-0.11161 -0.14585,-0.0903 -0.0587,0.0587 0.0606,0.21935 0.16291,0.21935 0.0561,0 0.0497,-0.0486 -0.0171,-0.12905 z m -0.2523,-0.24159 c 0,-0.0176 -0.0667,-0.0842 -0.14817,-0.14816 -0.13429,-0.10532 -0.13728,-0.10232 -0.032,0.032 0.11061,0.14104 0.18014,0.18589 0.18014,0.1162 z m -0.67734,-1.27 c 0,-0.0176 -0.0667,-0.0842 -0.14816,-0.14816 -0.13429,-0.10532 -0.13728,-0.10232 -0.032,0.032 0.11061,0.14104 0.18013,0.18589 0.18013,0.1162 z m 3.048,-1.74991 c 0,-0.0396 -0.1143,-0.0321 -0.254,0.0166 -0.1397,0.0487 -0.254,0.12093 -0.254,0.16052 0,0.0396 0.1143,0.0321 0.254,-0.0166 0.1397,-0.0487 0.254,-0.12094 0.254,-0.16053 z m -9.798545,-0.30566 c -0.0573,-0.0232 -0.17162,-0.0246 -0.254,-0.003 -0.0824,0.0215 -0.0355,0.0404 0.10422,0.0422 0.1397,0.002 0.2071,-0.0158 0.14978,-0.039 z"
       style="fill:#0f0e47;fill-opacity:1"
       id="path1-7-6" />
    <path
       d="m 107.01635,196.60379 c -0.0908,-0.001 -0.20194,-0.0151 -0.24682,-0.0301 -0.0451,-0.0151 -0.12824,-0.0249 -0.18488,-0.0206 -0.11599,0.008 -0.66559,-0.19812 -0.82748,-0.31095 -0.0584,-0.0408 -0.13037,-0.0682 -0.16033,-0.0613 -0.0301,0.007 -0.17358,-0.0679 -0.31912,-0.16636 -0.14554,-0.0984 -0.29498,-0.17227 -0.3321,-0.16418 -0.0503,0.011 -0.0544,0.001 -0.0188,-0.0372 0.0344,-0.0348 -0.003,-0.0633 -0.11304,-0.0844 -0.0908,-0.0174 -0.1569,-0.0555 -0.14703,-0.0843 0.0249,-0.0726 -0.29375,-0.24777 -0.40382,-0.2224 -0.0494,0.0114 -0.0923,0.0478 -0.0954,0.0812 -0.007,0.067 -0.28472,0.14218 -0.63374,0.17122 -0.41068,0.0342 -1.913,-0.12887 -2.55178,-0.27693 -0.47065,-0.10907 -0.55069,-0.13616 -1.080582,-0.36591 -0.297868,-0.12914 -1.252695,-0.66993 -1.092218,-0.6186 0.04753,0.0152 -0.06854,-0.0719 -0.25793,-0.19387 -0.416735,-0.2681 -0.503189,-0.33274 -0.515264,-0.38512 -0.0051,-0.0222 -0.09247,-0.089 -0.194188,-0.14861 -0.101688,-0.0595 -0.194643,-0.15059 -0.206561,-0.2023 -0.0119,-0.0516 -0.04741,-0.1027 -0.07882,-0.11334 -0.03303,-0.0113 -0.03666,0.0187 -0.0099,0.0657 0.02605,0.0467 0.0055,0.0347 -0.04523,-0.0266 -0.05096,-0.0615 -0.108911,-0.12016 -0.128859,-0.13026 -0.08131,-0.0408 -0.134788,-0.17698 -0.08364,-0.21295 0.0341,-0.0239 0.02543,-0.0334 -0.02273,-0.0247 -0.09338,0.0133 -0.333548,-0.29492 -0.379373,-0.49019 -0.01789,-0.0762 -0.08859,-0.23635 -0.157072,-0.35559 -0.20814,-0.3625 -0.397877,-1.58937 -0.265998,-1.71988 0.02325,-0.0229 0.02888,-0.0998 0.01252,-0.17083 -0.0251,-0.10891 -0.01078,-0.1287 0.0918,-0.1267 0.128787,0.002 0.419857,-0.15702 0.515709,-0.28289 0.03145,-0.0414 0.112739,-0.1123 0.180559,-0.15761 0.09596,-0.0642 0.121081,-0.0667 0.113323,-0.0112 -0.0057,0.0399 0.0258,0.063 0.07184,0.0524 0.05441,-0.0126 0.06653,-0.0481 0.03611,-0.10602 -0.03364,-0.0643 -0.01778,-0.0936 0.06098,-0.11175 0.08293,-0.0191 0.09626,-0.008 0.05987,0.0502 -0.06831,0.10923 -0.03901,0.16974 0.05596,0.11534 0.04541,-0.0257 0.193075,-0.0875 0.328488,-0.13606 0.317983,-0.11496 0.414022,-0.16973 0.400656,-0.22772 -0.01462,-0.0634 -0.25288,-0.006 -0.277076,0.07 -0.02853,0.0839 -0.175535,0.10594 -0.165374,0.0246 0.0048,-0.0375 0.04165,-0.0685 0.08205,-0.0681 0.04875,3.6e-4 0.05249,-0.0127 0.01117,-0.0381 -0.109668,-0.0677 -0.407982,-0.0208 -0.420266,0.0659 -0.0136,0.0969 -0.146627,0.13447 -0.166415,0.0486 -0.03046,-0.13215 0.156499,-0.24569 0.437808,-0.26591 0.148239,-0.0105 0.302321,-0.0328 0.342579,-0.049 0.330468,-0.13303 0.841018,-0.2465 1.102929,-0.24397 0.316693,0.002 0.904695,0.0837 1.445935,0.20034 0.16969,0.0365 0.36577,0.0535 0.43574,0.0377 0.0699,-0.0159 0.20178,0.014 0.29293,0.0663 0.0913,0.0522 0.25259,0.1291 0.35864,0.17053 0.78284,0.30609 1.8743,0.90511 2.48053,1.3614 0.25895,0.1949 0.72558,0.65365 0.84237,0.82809 0.046,0.0687 0.12263,0.3094 0.16903,0.53476 0.0439,0.22588 0.138,0.63432 0.20859,0.90775 0.15058,0.60875 0.13171,0.96051 -0.0666,1.25785 -0.13029,0.19546 -0.13271,0.21774 -0.0468,0.43583 0.11943,0.30357 0.88533,1.20427 1.15865,1.36294 0.20877,0.12123 0.79853,0.24483 1.04681,0.21932 0.0609,-0.004 0.10605,0.14041 0.0501,0.1585 -0.35859,0.1158 -0.56514,0.16362 -0.70038,0.16187 z m -0.79586,-0.37377 c -0.0409,-0.031 -0.18535,-0.0993 -0.32141,-0.15164 -0.136,-0.0524 -0.32006,-0.15076 -0.40903,-0.21868 -0.0888,-0.068 -0.32301,-0.23028 -0.52015,-0.36073 -0.28442,-0.18827 -0.36837,-0.22139 -0.40661,-0.16036 -0.0383,0.0611 0.0278,0.12335 0.32006,0.30226 0.56805,0.34749 1.63916,0.81949 1.33714,0.58915 z m -0.7125,-1.12631 c -0.0272,-0.0402 -0.0841,-0.15911 -0.12664,-0.26402 -0.0746,-0.18451 -0.18611,-0.23124 -0.23159,-0.0973 -0.0249,0.0735 0.28864,0.46197 0.35957,0.44562 0.0263,-0.006 0.0258,-0.0441 -0.001,-0.0843 z m -0.44041,0.0796 c -0.006,-0.0275 -0.0356,-0.045 -0.0652,-0.0382 -0.0298,0.007 -0.0343,0.0318 -0.0108,0.0558 0.0236,0.0236 0.0531,0.041 0.0651,0.0382 0.0123,-0.003 0.0172,-0.0282 0.0109,-0.0558 z m -1.05356,0.0798 c 0.13945,-0.1835 0.0564,-0.20012 -0.26438,-0.0529 -0.15332,0.0703 -0.35522,0.1456 -0.44869,0.16715 -0.22027,0.0508 -0.16475,0.0823 0.12813,0.0728 0.36474,-0.012 0.47988,-0.0485 0.585,-0.18677 z m 0.43741,-0.31464 c -0.0516,-0.0524 -0.23976,-0.009 -0.2257,0.0518 0.0119,0.0515 0.17664,0.0637 0.23147,0.0174 0.0188,-0.0158 0.0161,-0.047 -0.006,-0.0692 z m -0.52483,-0.0574 c 0.0374,-0.0372 0.0334,-0.0685 -0.0127,-0.104 -0.0473,-0.036 -0.0447,-0.18494 0.0129,-0.51797 0.17072,-1.00254 0.0908,-1.71775 -0.24938,-2.23058 -0.0757,-0.11446 -0.14678,-0.24856 -0.15737,-0.29808 -0.0108,-0.0494 -0.0359,-0.0737 -0.0561,-0.0538 -0.0202,0.02 -0.13252,-0.0875 -0.24965,-0.23871 -0.11706,-0.15122 -0.25948,-0.28756 -0.31629,-0.30299 -0.0567,-0.0155 -0.0949,-0.0525 -0.0848,-0.0824 0.0167,-0.0493 -0.19716,-0.18815 -0.95773,-0.62191 -0.14341,-0.0818 -0.25869,-0.13938 -0.25605,-0.1279 0.003,0.0114 -0.14188,-0.0692 -0.32115,-0.17925 -0.72497,-0.44494 -1.22859,-0.60907 -1.974197,-0.64329 -0.572974,-0.0263 -1.200134,0.18797 -1.692126,0.57805 -0.142171,0.11241 -0.199806,0.27428 -0.124942,0.34994 0.02034,0.0205 0.01399,0.0883 -0.01353,0.1502 -0.05828,0.12999 -0.007,0.42724 0.07868,0.45628 0.03858,0.0131 0.048,0.0567 0.02811,0.12996 -0.02089,0.0769 -0.0062,0.13744 0.04844,0.19993 0.04311,0.0494 0.07017,0.11361 0.06033,0.14286 -0.0099,0.029 0.04529,0.11794 0.122746,0.19713 0.167602,0.17144 0.197983,0.26412 0.0944,0.288 -0.125798,0.029 -0.04931,0.18097 0.210969,0.41916 0.231479,0.21187 0.241727,0.23067 0.170498,0.313 -0.07231,0.0837 -0.06656,0.10123 0.126916,0.38685 0.192142,0.28371 1.353135,1.43263 1.642166,1.62514 0.0745,0.0497 0.15649,0.0688 0.18261,0.0428 0.0263,-0.0258 0.0386,-0.0206 0.0276,0.0118 -0.0413,0.12199 0.5797,0.37347 1.19467,0.48363 0.48606,0.0872 0.80802,0.0851 1.35745,-0.008 0.28213,-0.0482 0.52158,-0.0827 0.53204,-0.077 0.0288,0.0155 0.51406,-0.2276 0.5758,-0.28863 z m 0.45024,-0.58174 c -0.0144,-0.12894 -0.0208,-0.13466 -0.10023,-0.0568 -0.0716,0.0718 -0.0734,0.12061 -0.009,0.25349 0.006,0.009 0.0347,0.002 0.0658,-0.0213 0.032,-0.0194 0.0515,-0.099 0.043,-0.17715 z m 0.73563,-0.0623 c 0.0313,-0.0626 0.0211,-0.0925 -0.0417,-0.12433 -0.0633,-0.032 -0.0937,-0.0207 -0.12778,0.0467 -0.0442,0.0877 0.007,0.18794 0.0865,0.16962 0.023,-0.005 0.0602,-0.0464 0.0829,-0.0918 z m -0.87007,-0.0997 c 0.0172,-0.0628 0.01,-0.10896 -0.0136,-0.10352 -0.0253,0.006 -0.0482,0.0591 -0.0498,0.11814 -0.002,0.059 0.005,0.10536 0.0136,0.10347 0.0107,-0.002 0.0328,-0.0555 0.0498,-0.11809 z m 1.18341,-0.88587 c -0.0943,-0.48554 -0.11285,-0.53407 -0.1553,-0.32557 -0.0187,0.0989 -0.0244,0.22005 -0.0135,0.26966 0.0195,0.0873 0.0245,0.194 0.0248,0.50132 6e-5,0.0799 0.0263,0.18207 0.0613,0.22578 0.0962,0.13435 0.15435,-0.31973 0.086,-0.67196 z m -0.57265,0.29762 c -0.009,-0.0391 -0.0532,-0.0758 -0.0987,-0.0822 -0.0925,-0.013 -0.0946,-0.004 -0.0245,0.10046 0.0605,0.0902 0.14546,0.0775 0.1234,-0.0182 z m -0.5008,-0.31407 c -0.0314,-0.15855 -0.0989,-0.002 -0.0863,0.20545 l 0.0108,0.18245 0.0482,-0.1444 c 0.0267,-0.0793 0.0385,-0.18895 0.027,-0.24344 z m 0.48098,-0.0353 c -0.0785,-0.0396 -0.16826,-0.0655 -0.19984,-0.0576 -0.0316,0.008 0.01,0.0458 0.0917,0.0843 0.19524,0.0913 0.29331,0.067 0.10763,-0.0279 z m -0.0875,-0.33519 c -0.094,-0.0943 -0.41804,-0.20498 -0.40252,-0.13765 0.006,0.0244 0.0963,0.0797 0.20146,0.12246 0.1051,0.0428 0.20366,0.0951 0.21897,0.1164 0.0156,0.0214 0.0358,0.0257 0.0462,0.01 0.0101,-0.0162 -0.0212,-0.0651 -0.064,-0.11102 z m 0.10608,-0.25074 c -0.0917,-0.10497 -0.18901,-0.14247 -0.22413,-0.0863 -0.014,0.0224 0.0409,0.0723 0.12207,0.10928 0.18606,0.085 0.19476,0.0831 0.10209,-0.023 z m -6.187382,1.39952 c -0.01456,-0.01 -0.113657,-0.0845 -0.220352,-0.16575 -0.386214,-0.29433 -0.67654,-0.48063 -0.597925,-0.38373 0.08496,0.10473 0.768139,0.58506 0.816337,0.57395 0.01553,-0.004 0.01637,-0.015 0.0019,-0.0247 z m 5.770642,-1.46609 c -0.0236,-0.0236 -0.0214,-0.0483 0.0135,-0.0564 0.0312,-0.007 0.0368,-0.033 0.0129,-0.0573 -0.024,-0.0239 -0.0617,-0.0261 -0.0841,-0.004 -0.0223,0.0218 -0.0464,0.0127 -0.0545,-0.0223 -0.008,-0.0338 -0.0246,-0.0461 -0.0373,-0.0258 -0.0239,0.0382 0.12034,0.22558 0.16554,0.21516 0.0145,-0.003 0.007,-0.0257 -0.0195,-0.0489 z m -0.15606,-0.52433 c -0.0454,-0.0268 -0.13785,-0.0526 -0.20478,-0.0567 -0.0975,-0.006 -0.11724,0.0117 -0.0987,0.092 0.0169,0.0732 0.047,0.0873 0.11282,0.0531 0.0497,-0.0262 0.11114,-0.0254 0.13718,7.1e-4 0.026,0.0264 0.0677,0.0281 0.092,0.004 0.0288,-0.0285 0.0148,-0.0612 -0.0382,-0.0929 z m -5.898983,1.20477 c -0.0054,-0.0254 -0.01945,-0.0311 -0.03104,-0.0125 -0.01171,0.0186 -0.0985,-0.0115 -0.192882,-0.0666 -0.670814,-0.39294 -0.76504,-0.39578 -0.218659,-0.007 0.28898,0.20583 0.406517,0.26333 0.425877,0.20836 0.01474,-0.0417 0.0223,-0.0969 0.01683,-0.12248 z m 5.729183,-1.5121 c -0.0637,-0.0398 -0.16822,-0.12278 -0.23251,-0.1844 -0.0641,-0.0618 -0.16347,-0.1247 -0.22034,-0.14011 -0.10744,-0.0293 -0.099,-0.009 0.17544,0.41564 0.0168,0.0253 0.1116,0.0316 0.21143,0.0138 0.17711,-0.0306 0.17928,-0.0311 0.0657,-0.10485 z m 0.62666,-0.28008 c -0.10205,-0.0777 -0.66292,-0.22456 -0.59478,-0.15564 0.0659,0.0667 0.64217,0.28296 0.66336,0.24914 0.01,-0.0154 -0.0233,-0.0568 -0.0685,-0.0935 z m -7.128031,0.76179 c -0.0664,-0.076 -0.09054,-0.0799 -0.111492,-0.0183 -0.01678,0.0493 0.01129,0.10527 0.07513,0.14978 0.05601,0.039 0.08567,0.0749 0.06579,0.0794 -0.01984,0.005 -0.01123,0.0325 0.0194,0.0623 0.09222,0.0895 0.04704,-0.1634 -0.04877,-0.2731 z m 5.573251,-1.13354 c -0.067,-0.0799 -0.16671,-0.17084 -0.2219,-0.20214 -0.29441,-0.16676 -0.30011,-0.13615 -0.0185,0.0975 0.35028,0.29043 0.42184,0.32159 0.24016,0.10462 z m -5.724714,0.63527 c -0.02864,-0.0549 -0.08571,-0.10392 -0.126929,-0.10972 -0.04125,-0.006 -0.08177,-0.0399 -0.08997,-0.0754 -0.0082,-0.0358 -0.07466,-0.1078 -0.147609,-0.16021 -0.07297,-0.0524 -0.111612,-0.0701 -0.08593,-0.0394 0.02573,0.0307 0.0194,0.0623 -0.01422,0.0701 -0.03353,0.008 0.0086,0.0537 0.09306,0.1024 0.08477,0.0487 0.208057,0.14016 0.274042,0.20341 0.144386,0.13839 0.166357,0.14043 0.09758,0.009 z m -0.452244,-0.18946 c -0.219606,-0.25257 -0.369801,-0.2767 -0.298385,-0.0479 0.03563,0.1145 0.08314,0.15527 0.194746,0.16744 0.08108,0.009 0.1695,0.0487 0.196423,0.0887 0.02695,0.0402 0.05855,0.0572 0.07031,0.0383 0.01178,-0.0187 -0.06165,-0.12978 -0.16314,-0.24651 z m 5.551368,-1.21781 c -0.0203,-0.0881 -0.31488,-0.32556 -0.44186,-0.35613 -0.0854,-0.0204 -0.1807,-0.0436 -0.21184,-0.0514 -0.0716,-0.0179 0.36902,0.34121 0.49129,0.40031 0.0923,0.0444 0.17181,0.048 0.16246,0.007 z m -0.75473,-0.35805 c -0.0443,-0.0666 -0.20704,-0.11394 -0.1939,-0.0569 0.006,0.0257 0.19067,0.12647 0.22674,0.1235 0.01,-0.002 -0.009,-0.0304 -0.0329,-0.0668 z m -4.681348,0.91687 c -0.06073,-0.0582 -0.118564,-0.14089 -0.128423,-0.18366 -0.0098,-0.0427 -0.04075,-0.0726 -0.0686,-0.0662 -0.02789,0.006 -0.05846,-0.0222 -0.06809,-0.064 -0.0097,-0.0419 -0.05182,-0.0678 -0.09389,-0.0581 -0.05508,0.0127 -0.0067,0.0836 0.172579,0.2534 0.136981,0.12974 0.259823,0.23334 0.273005,0.23031 0.01315,-0.003 -0.02577,-0.0533 -0.08656,-0.11144 z m 4.497218,-1.2784 c -0.0963,-0.0361 -0.20437,-0.059 -0.24019,-0.0509 -0.0358,0.008 -0.13051,-0.009 -0.21056,-0.0389 -0.0799,-0.0295 -0.15299,-0.0417 -0.16214,-0.0269 -0.009,0.0146 0.0773,0.0488 0.19234,0.0754 0.11498,0.0269 0.27312,0.0666 0.35148,0.0885 0.21739,0.0606 0.26688,0.0269 0.0688,-0.0475 z m -4.419841,0.88029 c -0.0041,-0.0554 -0.05062,-0.13742 -0.102983,-0.18268 -0.07932,-0.0686 -0.105734,-0.0684 -0.158588,8.4e-4 -0.0348,0.0458 -0.04586,0.11335 -0.02445,0.15026 0.02144,0.037 0.05637,0.0971 0.07771,0.13389 0.05577,0.0961 0.21757,0.0168 0.208283,-0.1024 z m 2.739796,-1.34601 c -0.04812,-0.0173 -0.110055,-0.0264 -0.137904,-0.02 -0.02742,0.006 -0.01136,0.0259 0.03658,0.0434 0.04812,0.0173 0.110106,0.0266 0.137926,0.0201 0.02768,-0.006 0.01127,-0.0259 -0.03651,-0.0435 z m -0.389004,-0.0686 c -0.0062,-0.027 -0.04215,-0.028 -0.08046,-0.003 -0.03832,0.0255 -0.06712,0.0553 -0.06451,0.0666 0.0025,0.011 0.03905,0.0122 0.08048,0.003 0.04193,-0.01 0.07071,-0.0396 0.06449,-0.0666 z"
       style="fill:#0f0e47;fill-opacity:1;stroke-width:0.613571"
       id="path1-86" />
  </g>
</svg>
