<?xml version="1.0" encoding="UTF-8" standalone="no"?>
<!-- Created with Inkscape (http://www.inkscape.org/) -->

<svg
   width="40mm"
   height="41.851021mm"
   viewBox="0 0 40 41.851021"
   version="1.1"
   id="svg1"
   xmlns="http://www.w3.org/2000/svg"
   xmlns:svg="http://www.w3.org/2000/svg">
  <defs
     id="defs1" />
  <path
     d="m 0.08984887,16.457798 0.30735557,0.07685 0.46102288,-0.230515 c -0.0297937,0.298954 -0.30041301,0.840842 -0.0304914,1.085511 0.20550978,0.186278 0.55200378,0.05811 0.79883798,0.08233 0.4645086,0.04575 0.9167818,0.252165 1.3830876,0.324681 1.8112786,0.281609 3.6227256,0.655431 5.4555157,0.516401 0.5527384,-0.04187 1.253623,0.07675 1.7639548,-0.189199 0.649223,-0.338306 0.615327,-1.277511 0.618088,-1.89659 0.005,-1.158964 -0.195945,-2.228098 -0.293769,-3.374004 -0.04578,-0.536875 -0.180324,-1.048531 0.110258,-1.543631 0.67251,-1.145846 1.7676,-2.0968022 2.782911,-2.9209285 0.902531,-0.7325821 1.729046,-1.6180302 2.849183,-2.0274269 4.899697,-1.7908317 10.083421,0.296711 12.646517,4.7946724 0.729569,1.280322 -0.473054,1.581199 -0.966756,2.689038 -0.776761,1.743026 -0.182341,3.827688 1.315786,4.904847 0.599156,0.430777 1.245976,0.127249 1.911066,0.129481 1.116199,0.004 2.22629,-0.165963 3.332787,-0.295076 0.589809,-0.06888 1.175062,0.009 1.758455,-0.174008 0.354466,-0.11118 0.575833,-0.46391 0.928574,-0.568352 0.662893,-0.196286 2.325503,0.07705 2.28558,-0.999909 l 0.307357,-0.07685 -0.71829,-0.92212 -1.356343,-4.149199 c 0.35247,0.35274 0.77256,0.69307 0.768386,1.229407 0.704276,0.107642 0.195937,-0.892456 -0.02341,-1.152515 C 38.099754,11.313381 37.573463,11.076367 37.13918,10.681922 36.627065,10.216765 36.085828,9.3893403 35.435405,9.1581376 l 0.07687,0.4610398 h -0.07687 C 33.716029,5.4485328 30.727406,0.50611763 25.673918,0.53430652 c -0.469088,0.00299 -0.912585,-0.0818355 -1.380066,0.017942 L 24.216981,0.1680603 C 21.388036,-0.05520806 19.040754,0.34998229 16.302701,1.0538373 12.99774,1.9034412 9.7298505,3.2053631 7.1262997,5.4798515 6.0093609,6.4556276 4.8828789,7.4917886 3.8709945,8.5771006 3.5511353,8.9201817 2.9205944,9.5207904 3.2401555,10.003351 1.7440681,11.453962 1.549811,13.952157 0.81186318,15.758977 0.6794382,16.083209 0.27601714,16.167207 0.08979505,16.457758 m 0.76846716,-0.230515 0.0768715,0.07685 -0.0768715,-0.07685 m 1.69043319,-0.07685 -0.076871,-0.230505 0.076871,-0.07685 0.2305169,0.07685 c 0.2809769,-0.392222 1.4662728,-0.380401 1.9209601,-0.398432 2.0321507,-0.08054 3.8616933,0.911793 5.7628496,1.474165 -0.183381,1.024957 -1.223998,0.890342 -2.0716084,0.973105 C 7.122178,18.092644 5.9753568,17.885095 4.732777,17.675841 3.9869028,17.550187 3.2831685,17.596896 2.5483974,17.359723 2.2126286,17.251353 1.3728051,17.261042 1.1362796,17.070039 c -0.24364549,-0.196774 -9.13e-4,-0.768655 0.2044073,-0.908912 0.3487289,-0.237921 0.8319779,-0.094 1.2080085,-0.01076 M 1.3961238,15.6125 C 2.2604481,13.240995 3.0847897,11.192447 4.6491254,9.1580927 5.2551456,8.37 5.9951199,7.7061158 6.6979512,7.0066765 6.9726912,6.7332702 7.4273885,6.4606514 7.5431773,6.084567 L 8.0042101,5.7772104 C 6.7036219,6.0182414 5.5548629,7.9333414 4.4696555,8.6970629 4.1933256,8.1444191 5.4661466,7.7653842 5.3917112,7.4676466 h 0.230516 L 5.5453556,7.3139833 C 5.781623,7.3139733 5.9811829,7.0141823 6.1600568,6.8529534 6.6813229,6.3830722 7.1347185,5.8480215 7.6968227,5.4186394 9.335226,4.1670747 11.249771,3.0461777 13.229167,2.4731697 l -1.690443,1.075733 -0.69154,0.3841982 -0.307345,0.1536733 c 0.49029,-0.11754 1.053001,-0.383331 1.383089,-0.7683864 l 0.230516,0.076852 0.07687,-0.2305149 c 0.435231,-8.373e-4 0.911966,-0.3516235 1.30625,-0.5316516 0.757424,-0.3458023 1.577395,-0.6733436 2.381983,-0.8906911 2.410724,-0.6511952 4.789708,-0.80363252 7.267015,-0.94066959 0.848622,-0.0468486 1.722181,8.971e-4 2.568279,0.0427618 0.372154,0.0184404 0.86452,-0.092501 0.845217,0.39924949 0.90143,0.1673591 1.777958,0.202057 2.612502,0.6453641 0.71063,0.3774899 1.247882,0.9925419 1.802261,1.5572267 1.490441,1.5181431 2.858508,3.5391907 3.576417,5.5580752 L 33.437662,8.3128447 c 0.877235,0.8795771 2.092674,1.5059724 2.864117,2.4718603 1.165678,1.459542 1.555575,3.136153 2.207205,4.827775 -0.652229,-0.136349 -1.254108,-0.428983 -1.920958,-0.515643 -1.983724,-0.257787 -3.985616,0.131156 -5.916548,0.566748 -0.686824,0.154929 -1.244806,0.671689 -1.920949,0.794113 -0.172251,-0.927801 -0.08612,-1.884618 0.250616,-2.766179 0.366037,-0.958322 1.044386,-1.516857 0.508512,-2.535654 C 27.038295,6.4572823 21.122191,3.3720843 15.995384,5.7109645 14.929085,6.1974322 14.021082,7.2046367 13.13044,7.947396 c -0.834998,0.6963492 -1.795279,1.4488869 -2.411867,2.366261 -1.2270871,1.825699 -0.331032,3.997878 -0.716566,6.06719 L 7.2358297,15.535639 6.9284741,15.458787 6.8516026,15.228282 C 5.8693235,15.615351 4.4834539,14.655643 3.5475639,15.381955 l -2.151476,0.230515 m 0.7683884,20.054769 h 0.1536673 l 0.1536873,-0.307356 c 0.1693695,0.504041 0.2345987,1.574461 0.9220557,1.459941 0.12591,0.624053 0.7453668,1.076451 1.197938,1.485648 0.9400616,0.849963 2.1315345,1.655788 3.335511,2.076239 0.6567104,0.229329 1.3531065,0.286136 2.0046516,0.520139 2.8556298,1.025565 5.6594168,0.83548 8.5990138,0.718697 0.899045,-0.03578 1.785268,0.203104 2.689339,0.09489 1.411846,-0.168854 2.822323,-0.400146 4.226103,-0.608832 0.369759,-0.05502 0.69678,-0.264634 1.075732,-0.28133 2.327518,-0.102509 4.504437,-0.519621 6.685233,-1.437803 0.523795,-0.220547 0.968226,-0.504609 1.45962,-0.776401 0.158493,-0.08772 0.41823,-0.08094 0.536038,-0.224873 0.291618,-0.356328 0.178367,-1.297636 0.122899,-1.72015 -0.173214,-1.319253 -0.420127,-2.605655 -0.625203,-3.918741 -0.578294,-3.702772 -1.662519,-8.211429 -4.644025,-10.723619 -1.200565,-1.01159 -2.601105,-1.553369 -4.072423,-2.01409 -0.568173,-0.177915 -1.016815,-0.526987 -1.613603,-0.632147 v -1.229396 c 0.524113,-0.0913 0.292581,-0.749468 0.257369,-1.152575 -0.0903,-1.033489 -0.03185,-2.115402 -0.02677,-3.150367 0.0018,-0.420162 0.287272,-0.839537 -0.01906,-1.204637 -0.205738,-0.245187 -0.3821,-0.03987 -0.63131,-0.0309 -0.490007,0.01754 -1.082493,-0.11757 -1.576838,-0.167598 -2.257578,-0.228432 -4.100338,-0.05014 -6.22497,0.75171 -0.433364,0.163552 -1.13992,0.0935 -1.459987,0.344058 l -0.230518,-0.153683 c -1.193937,1.835258 0.660066,4.284571 0.07687,6.223893 -1.850834,-0.206552 -3.849815,0.700945 -5.2887879,1.818393 C 8.7836498,21.785937 7.9550879,22.178408 8.004258,22.835155 7.1171812,23.250004 6.6103743,24.223936 6.0755918,24.986631 4.5128549,27.215338 3.7132523,29.64016 2.878633,32.209436 2.5496374,33.222202 1.8566881,34.579585 2.164559,35.66715 m 0,-19.824264 h 0.1536783 v 0.153683 L 2.164555,15.842886 m 0.3841544,0.230554 0.076871,-0.07685 -0.076871,0.07685 m 21.5915386,-2.919862 -0.07687,0.307357 c -0.119413,-0.0937 -0.382862,-0.326974 -0.49714,-0.0936 -0.110265,0.225232 0.02242,0.749787 0.02332,1.009447 0.0037,0.954206 -0.05917,1.979662 0.04647,2.926013 0.03294,0.294867 0.156505,0.839606 -0.03585,1.098858 -0.150969,0.203522 -0.537018,0.290312 -0.766262,0.365339 -0.707698,0.231612 -1.496533,0.58791 -2.228304,0.687279 v 0.153673 c 0.941004,0.175732 1.993588,-0.893572 2.897858,-0.641038 0.590491,0.164907 1.174472,0.996081 1.789275,1.273065 1.77656,0.800363 3.792618,1.447492 5.221973,2.832635 1.337747,1.29637 2.018146,3.173911 2.536432,4.910697 0.878977,2.94553 1.298551,5.936831 1.615853,8.990083 -1.454974,1.33339 -3.047912,2.2244 -4.99448,2.697162 -0.830742,0.201768 -1.696943,0.234034 -2.535661,0.415617 -5.500138,1.190761 -11.345965,1.551345 -16.82757,-0.03937 C 7.5985912,39.260206 4.7590112,38.759056 3.462753,35.977447 3.2360497,35.490949 2.9240372,35.167873 2.9038963,34.591337 c -0.017085,-0.489428 0.2668445,-0.990379 0.3781259,-1.459921 0.3001747,-1.266497 0.4860001,-2.329072 1.042612,-3.534556 1.3813502,-2.99172 2.8950656,-6.390166 5.8310298,-8.186061 0.951939,-0.582288 2.041834,-1.087106 3.15031,-1.254724 0.456078,-0.06888 1.632058,-0.01505 1.947626,-0.344826 0.332959,-0.347955 0.147769,-0.933871 0.124282,-1.355937 -0.04836,-0.869271 -0.142268,-1.747911 -0.249784,-2.612486 -0.04916,-0.395871 -0.249346,-0.972437 -0.08531,-1.360084 0.331478,-0.783348 1.528324,-1.015149 2.258775,-1.119561 2.215285,-0.316657 4.630631,-0.66519 6.838607,-0.209713 m -20.82312,2.919873 0.076871,-0.07685 -0.076871,0.07685 m 0.1536673,0.614693 c 0.4085455,0.174596 0.6864841,-0.200492 0.2305169,-0.384178 l -0.2305169,0.384178 m 1.4599372,0.153683 0.3841842,0.153674 0.1536773,-0.384189 C 5.1905933,16.565251 5.0694309,16.592064 4.9306505,16.841717 M 6.1600937,13.768201 8.3883983,13.281365 9.54097,13.153478 V 12.999815 C 8.7743698,12.686966 6.5901795,12.985063 6.1600937,13.768201 M 6.2369657,12.7693 c 0.8467561,-0.01754 1.6247774,-0.429193 2.4588216,-0.547829 0.3699722,-0.05263 0.774704,0.03867 0.9988944,-0.297389 -1.0951393,-0.323734 -2.4772052,0.226937 -3.457716,0.691535 V 12.7693 m 0.076872,2.074625 c 0.8975749,-0.01884 1.7963708,-0.47362 2.6893276,-0.597629 0.3126684,-0.04336 0.8375997,0.298276 0.9220657,-0.0939 -0.212561,-10e-6 -0.3647192,-0.203822 -0.6147101,-0.217707 -0.7395875,-0.04117 -2.5546399,0.30649 -2.9966832,0.909241 m 0.1452456,2.060411 c 0.1149245,0.429725 0.8989344,0.326239 0.8401504,-0.126168 -0.062468,-0.479999 -0.9750584,-0.378367 -0.8401514,0.126172 m -0.068429,-5.28761 2.9198545,-0.384178 C 9.0148715,10.338906 6.8039067,11.135969 6.3906534,11.616735 M 6.7748776,10.080002 C 7.543563,10.227865 8.3456774,9.7251997 9.1565715,9.8165146 9.2794722,9.8303698 9.6654536,9.8676493 9.582438,9.6251431 9.491173,9.3585249 9.0675073,9.3886675 8.8495149,9.3885778 8.2125876,9.3882887 7.0933352,9.4465903 6.7748776,10.080002 m 0.4610518,29.275287 4.5334506,1.346568 4.226103,0.574383 C 15.285611,41.59479 14.1923,41.405542 13.459823,41.25022 12.04126,40.949426 10.625795,40.693364 9.2337191,40.279023 8.6607301,40.108494 7.4404264,40.00478 7.2359294,39.355309 M 8.2348536,5.7001694 9.0800707,5.0086346 9.233748,5.0854862 10.539999,4.0865948 10.155804,4.3939414 10.002126,4.470793 9.6179422,4.7013079 9.464255,4.6244563 8.2348536,5.7001993 m 0.8452171,3.6113973 0.076872,-0.076852 -0.076872,0.076852 m 0.7683486,-4.8408435 0.076872,0.076852 -0.076872,-0.076852 m 0.5379317,11.9099339 0.07687,0.07685 -0.07687,-0.07685 m 1.075743,15.290817 c 0.426382,0.235101 0.352791,0.799815 0.307346,1.229407 0.352979,0.322378 0.410045,0.812553 0.70874,1.171483 0.922741,1.108836 2.408043,2.183951 3.749002,2.674526 1.509901,0.552354 3.18797,0.747514 4.686014,0.08363 2.53478,-1.123309 4.792897,-2.683626 5.343337,-5.620104 0.24283,-1.295433 0.152866,-3.125737 -0.495779,-4.299912 -1.052263,-1.904833 -3.189088,-2.969552 -5.154912,-3.621295 -0.643899,-0.21348 -1.190888,-0.497104 -1.888356,-0.493216 -0.817766,0.005 -1.685836,0.397355 -2.414587,0.732851 -1.389008,0.639513 -2.159422,1.809631 -2.993913,2.991431 -0.226395,0.320604 -0.578898,0.547082 -0.791716,0.870178 -0.318409,0.483357 -0.182758,1.020681 -0.670982,1.437982 0.159468,0.646022 -0.133885,1.037596 -0.384194,1.613594 0.36314,0.4176 0.114528,0.768108 0,1.229427 m 0.537862,-1.306248 0.461033,-0.07685 0.07687,0.07685 c -0.06853,0.441552 -0.05006,0.787365 -0.537871,0.922049 v -0.922049 m 0.07687,1.229396 0.537872,-0.07685 0.153667,0.768387 -0.537871,0.153683 -0.153668,-0.845218 m 0.998895,-2.612516 c -0.231738,0.511806 -0.32414,0.944148 -0.922056,1.075743 -0.191556,-0.698432 0.20965,-1.196194 0.922056,-1.075743 m -0.768627,3.765111 0.614701,-0.153684 0.461032,0.768387 -0.768377,0.230515 -0.307356,-0.845218 m 0.153668,-4.149259 c 0.320008,-0.749259 0.424485,-1.008939 1.306249,-0.845228 -0.118063,0.6188 -0.662371,1.040845 -1.306249,0.845228 m 3.918749,5.993378 c -0.559781,0.269678 -1.397599,-0.316816 -1.844062,-0.66203 -1.379523,-1.066683 -2.050643,-2.835366 -1.355231,-4.48613 0.188268,-0.446906 0.527324,-0.808288 0.759986,-1.229426 0.53822,-0.974212 1.127277,-2.17211 2.068153,-2.832744 0.504363,-0.354146 1.083787,-0.430419 1.602591,-0.663625 0.404056,-0.181623 0.654534,-0.40532 1.128617,-0.466243 3.265588,-0.419694 6.180727,3.964834 5.409083,6.885484 -0.658336,2.491786 -2.765667,3.625622 -5.156638,3.952146 -0.809653,0.110563 -2.105753,0.351664 -2.612499,-0.497432 m -2.843016,-0.845228 c -0.06098,0.771108 -0.872816,0.192657 0,0 m -0.384184,-6.53124 c 0.365128,-0.691109 0.659454,-1.070094 1.459929,-0.845231 l -0.691539,1.229406 -0.768388,-0.384178 m 0.61471,7.45329 0.537862,-0.230505 -0.307345,0.46102 h -0.07687 l -0.15368,-0.230515 m 0,-0.537862 0.230517,-0.153673 -0.230517,0.153673 m 0.307356,-32.0415348 0.07687,0.076852 -0.07687,-0.076852 m 1.22941,22.6672748 c 0.75664,-0.879637 2.115277,-1.306248 3.2272,-1.306248 v -0.230505 c 0.592712,0.01216 1.05608,0.246274 1.613615,0.403695 2.037161,0.575181 4.245899,1.621449 5.292525,3.59189 1.476148,2.779038 0.05718,6.705277 -2.526412,8.282689 -1.583181,0.966616 -3.602839,1.755705 -5.462324,1.216069 -0.451697,-0.131086 -1.286177,-0.15454 -1.453064,-0.662379 0.425597,-0.122594 0.795441,-0.51668 1.217503,-0.58144 0.303601,-0.04655 0.623996,0.07167 0.933973,0.04216 1.595948,-0.151879 3.248532,-0.416334 4.533397,-1.47873 3.426672,-2.833342 1.896192,-8.451134 -2.074575,-9.963696 -1.32938,-0.506393 -2.959878,-0.205067 -4.149265,0.53241 -0.771536,0.478393 -1.103671,1.621528 -2.151477,1.229825 l 0.627751,-0.703347 0.607817,-0.03927 -0.236664,-0.333193 m -0.922055,10.29632 c 0.487956,-0.255315 0.79708,-0.332326 1.306239,-0.07685 -0.414782,0.46726 -0.962228,0.780179 -1.306239,0.07685 m 0.614701,-16.82758 h 0.07687 v 0.537862 l -0.07687,-0.537862 m -0.07687,-1.229406 0.07687,0.07685 -0.07687,-0.07685 m 0.307345,-3.227199 -0.230516,0.153663 0.230516,-0.153663 m -0.07687,21.97572 c 0.518446,-0.295046 0.849399,-0.640051 1.459917,-0.384188 -0.391592,0.374709 -0.998566,0.862233 -1.459917,0.384188 m 1.101346,5.6092 c 0,-0.05951 0.03834,-0.01236 0.02563,0.02562 l -0.02563,-0.02562 m 0.128055,0 h 0.307366 v 0.07685 l -0.307366,-0.07685 m 0.512279,0.02562 0.05114,0.02562 -0.05114,-0.02562 m 0.332939,-40.212116 0.07687,0.076852 -0.07687,-0.076852 m 0.845236,11.679419 0.07687,0.07685 -0.07687,-0.07685 m 0,-11.90992393 0.07687,0.0768516 -0.07687,-0.0768516 M 18.223631,12.769114 19.376213,12.61544 v 0.07695 l -1.152582,0.07685 m 0,-11.83308235 c 1.083503,-0.4655951 2.915577,-0.70597813 4.072438,-0.46102986 v 0.0768516 l -2.766175,0.26501343 -1.30626,0.1191748 m 0.768478,2.61250588 c 0.369486,0.052231 0.566264,-0.1891686 0.845226,-0.4099948 0.512269,-0.4055093 1.707019,-1.0475541 1.536767,-1.8183129 -0.680347,0.2422869 -2.127116,1.5365037 -2.381993,2.2283077 m 0.461033,9.0669035 0.07687,0.07685 -0.07687,-0.07685 m 0.461061,-7.0691108 0.07687,0.076852 -0.07687,-0.076852 m 0.153545,10.6036068 c 0.382198,0.110911 1.6252,-0.09041 1.690443,-0.537862 l 0.614703,-0.153673 c -0.471593,-0.168645 -2.012817,0.281191 -2.305146,0.691535 m 0.153687,0.92206 c 0.579762,0.09768 2.179429,-0.284202 2.535657,-0.768367 h 0.691542 l -0.07687,-0.384208 -3.15036,0.998911 v 0.153664 m 0.07687,-1.997793 1.997795,-0.537872 c -0.409399,-0.567117 -1.705268,0.07107 -1.997795,0.537872 m 0.07687,3.30405 2.996686,-0.845228 -0.07687,-0.230515 c -0.855583,0.362718 -2.282871,0.378876 -2.919847,1.075743 m 0,-14.2919048 0.07687,0.076852 1.152572,-0.6915448 0.53786,-0.6147032 0.07687,0.230515 -0.46103,0.5378714 0.153674,-0.076852 -0.230515,0.6915448 C 22.583408,3.819528 23.317933,2.7648569 24.076453,2.1155556 24.402432,1.8364976 24.782282,1.638348 24.678105,1.1666427 24.086473,1.4613601 23.462967,2.37719 22.757156,2.2423757 v -0.076852 l 0.845217,-0.7683765 c -0.351098,-0.061601 -1.807924,-0.2951161 -1.53676,0.3841982 l -0.461026,0.076852 v 0.076852 l 0.230512,0.076852 -0.230512,0.076852 0.07686,0.230515 c -0.642716,0.3060408 -1.06022,1.1263893 -1.306249,1.7672877 m 0.07687,17.2117485 c 0.854602,-0.06987 2.898987,-0.733151 3.30404,-1.536753 l -0.153674,0.153663 c -0.769891,0.05213 -2.660274,0.77051 -3.150366,1.38309 m 1.152582,-18.1338381 0.07686,0.076852 -0.07686,-0.076852 m 0.486635,-1.6136045 c 0,-0.059508 0.03821,-0.01226 0.02559,0.025617 l -0.02559,-0.025617 m 0.128053,1.3062579 0.07687,0.076852 -0.07687,-0.076852 m 0.1537,12.4477767 0.07687,-0.07685 -0.07687,0.07685 m 0,-14.82977757 0.230515,-0.0768516 -0.230515,0.0768516 m 0.07687,14.98346057 0.07687,-0.07685 -0.07687,0.07685 m 0,-12.9856579 h 0.07687 v 0.3072653 l -0.07687,-0.3073466 m 0,-1.075743 0.07687,0.076852 -0.07687,-0.076852 m 0.07687,16.2897182 0.07687,0.07685 -0.07687,-0.07685 m 0.07687,-2.30516 0.153682,-0.230514 h -0.07687 l -0.07687,0.230514 m 0,-12.8319736 h 0.153682 l -0.15369,0.1536733 V 2.5496824 m 0.07687,-0.2305149 0.07687,0.076852 -0.07687,-0.076852 m 0,-1.84412942 0.07687,0.0768516 -0.07687,-0.0768516 m 0.153737,1.92096112 0.07687,0.076852 -0.07687,-0.076852 m 0.230661,20.2852838 2.689288,-0.870766 0.998945,-0.512324 -0.07687,-0.07685 -0.53787,0.307367 c -0.91614,-0.144184 -2.307705,0.534403 -3.073531,0.998891 v 0.153684 m 0.30741,-2.689338 0.153674,-0.07685 -0.153674,0.07685 m 0.691581,3.534556 2.534535,-0.635875 1.000026,-0.363027 0.307346,0.07685 0.230514,-0.153673 v -0.07685 l -1.207533,0.163591 -2.864888,0.758479 v 0.230515 m 2.074613,0.998881 2.074632,-0.537861 1.690444,-0.614704 -0.07687,-0.230515 -0.537871,0.307357 -0.153673,-0.153673 -2.99669,1.075743 v 0.153653 m 0.230515,1.152575 c 0.533214,0.04755 2.108056,-0.130209 2.458819,-0.537862 0.360583,0.03588 0.845507,-6.58e-4 1.075741,-0.307356 l 0.307347,0.07685 v -0.153673 l 0.153683,0.07685 0.07687,-0.307347 -4.072424,0.998891 v 0.153674 m 0.461029,14.98346 v -0.07685 l 2.99669,-0.46103 v 0.07685 c -0.7585,0.198339 -2.250574,0.751172 -2.99669,0.46103 m 1.152602,-8.529042 1.920957,-0.153684 3.150364,-1.152574 v -0.07685 l -1.690444,0.46104 h -0.07687 l -0.153683,0.07685 v 0.153663 c -0.368913,-0.08044 -1.007948,0.06928 -1.229404,0.384198 l -1.921377,0.307377 m 0.230515,-15.982352 0.07687,0.845218 c -0.192997,-0.251158 -0.228655,-0.56309 -0.07687,-0.845218 m -0.07687,-0.46104 h 0.07687 v 0.384198 l -0.07687,-0.384198 m 0.153682,13.139351 4.302937,-1.152575 -0.07687,-0.307356 -4.226104,1.306238 v 0.153693 m 0.07687,-1.38309 2.99669,-0.845228 v -0.153682 c -0.896403,-0.22598 -2.290027,0.355471 -3.073523,0.768396 l 0.07687,0.230515 m 0,2.919843 2.612502,-0.693329 0.768386,-0.305563 0.153673,0.153674 0.768386,-0.384188 -4.302947,0.922049 v 0.307357 m 0,-23.5124926 1.920962,-0.7543917 0.845218,-0.4750246 c -0.730733,-0.1988373 -2.42527,0.5579566 -2.766178,1.2294163 m 0.460993,6.4544076 -0.07687,0.230515 0.07687,-0.230515 m -0.07687,-5.6091895 c 1.140458,0.2463836 2.436422,-0.9732742 3.611392,-1.0757231 l -0.153672,-0.3842082 -3.45772,1.306258 v 0.1536733 m 0.194167,9.3007975 c -0.0304,-0.635566 1.712671,-1.018428 2.187812,-1.116402 1.972452,-0.406715 4.08049,-0.786398 6.070521,-0.286793 0.616372,0.15474 1.775462,0.539118 1.831783,1.331507 0.03621,0.509782 -1.703095,0.513779 -2.040653,0.717351 -0.806865,0.486577 -1.426324,0.453654 -2.327091,0.528263 -0.95257,0.07884 -1.882915,0.279397 -2.84307,0.282566 -0.48244,0.002 -1.06585,0.148361 -1.533686,0.05034 -0.487366,-0.102071 -1.320895,-0.990359 -1.345616,-1.50689 m 0.42059,7.91096 0.07687,0.07685 -0.07687,-0.07685 m 0.05118,-1.587977 0.05128,0.02562 -0.05128,-0.02562 M 29.365195,8.696714 C 30.684392,8.5808186 31.921367,7.6284568 33.13027,7.1599511 v -0.076852 h -0.384188 l -0.07687,0.230515 C 32.332587,7.247229 32.075908,7.4248051 31.760194,7.5279915 31.005149,7.774754 29.816873,7.9935867 29.365165,8.6966941 m 0.53787,31.3499899 0.845218,-0.230505 v 0.07685 l -0.845218,0.153673 m 0.07687,-8.298527 0.07687,0.07685 -0.07687,-0.07685 m 0.537871,-2.151466 0.07687,0.07685 -0.07687,-0.07685 m 0,-4.840804 0.07687,-0.07685 -0.07687,0.07685 m 0,-0.153683 0.07687,-0.07685 -0.07687,0.07685 m 1.075732,-6.99228 c -0.02814,-0.148749 -0.04301,-0.313905 -0.09439,-0.456823 -0.254954,-0.709896 -1.260915,0.505237 -0.21634,0.523119 0.113625,0.002 0.203589,-0.03499 0.310724,-0.06629 m -0.76837,22.12942 c 0.928811,-0.367742 1.911475,-0.713245 2.759297,-1.249641 0.459214,-0.290531 0.612234,-0.854927 1.236293,-0.748162 -0.342314,1.029114 -2.038793,1.534201 -2.996999,1.785299 -0.323963,0.08493 -0.664172,0.288578 -0.998591,0.212504 m 0.691544,-31.9646539 0.07687,0.076852 -0.07687,-0.076852 m 1.463531,8.6417479 c 0.293053,0.472064 1.279857,0.172024 0.922304,-0.41169 -0.310104,-0.506283 -1.24113,-0.10191 -0.922304,0.41169 m 2.071257,0.501927 c -0.998555,-0.400366 -0.270855,0.892575 0,0 m 1.075732,-0.691534 c -0.388944,-0.691615 -0.728981,0.194122 0,0 m 1.53687,-4.610379 0.07687,0.07685 -0.07687,-0.07685 m 1.76694,5.14817 0.07687,0.07685 -0.07687,-0.07685"
     style="display:inline;fill:#000000;stroke:#000000;stroke-width:0.213311;stroke-dasharray:none"
     id="phone-27-2" />
</svg>
