<?xml version="1.0" encoding="UTF-8" standalone="no"?>
<!-- Created with Inkscape (http://www.inkscape.org/) -->

<svg
   width="14.635262mm"
   height="16.312344mm"
   viewBox="0 0 14.635262 16.312344"
   version="1.1"
   id="svg1"
   xmlns="http://www.w3.org/2000/svg"
   xmlns:svg="http://www.w3.org/2000/svg">
  <defs
     id="defs1" />
  <g
     id="layer1"
     transform="translate(-45.85386,-101.20351)">
    <path
       d="m 60.36818,106.90113 c -0.0732,0.0732 -0.10835,0.13305 -0.0782,0.13305 0.11518,0 -0.76838,0.64747 -0.95205,0.69766 -0.0354,0.01 -0.14457,0.0873 -0.24255,0.17251 -0.098,0.0852 -0.57424,0.41767 -1.05834,0.73882 -1.21093,0.80335 -1.78163,1.26677 -1.70508,1.38456 0.0346,0.0532 0.065,0.21108 0.0675,0.35078 0.005,0.29182 0.29966,1.25606 0.39636,1.29823 0.0356,0.0155 0.0647,0.0881 0.0647,0.16119 0,0.15371 0.56028,1.62642 0.98159,2.58013 0.15863,0.35909 0.28841,0.67718 0.28841,0.70687 0,0.0297 0.0521,0.17405 0.11569,0.32079 0.51566,1.18917 0.64631,1.55339 0.64631,1.80173 0,0.42911 -0.16055,0.35594 -0.67616,-0.30812 -0.46957,-0.60475 -0.52861,-0.66368 -0.62745,-0.62627 -0.12078,0.0457 -1.14942,-1.00292 -1.43486,-1.46274 -0.12092,-0.19481 -0.38291,-0.54181 -0.5822,-0.7711 -0.19928,-0.2293 -0.42356,-0.48901 -0.4984,-0.57714 -0.35833,-0.42196 -0.93053,-0.73261 -1.32443,-0.71903 -0.10477,0.004 -0.1905,-0.0311 -0.1905,-0.0772 0,-0.046 -0.12715,-0.0837 -0.28256,-0.0837 -0.22031,0 -0.36073,0.0793 -0.63742,0.35983 -0.19518,0.19791 -0.42045,0.418 -0.50061,0.48909 -0.0802,0.0711 -0.29814,0.31518 -0.48441,0.54242 -0.82786,1.00997 -1.67851,1.82744 -2.00266,1.92456 -0.17912,0.0537 -0.32567,0.12526 -0.32567,0.1591 0,0.12753 -0.44047,0.35172 -0.52499,0.2672 -0.13482,-0.13482 0.73636,-2.06044 1.33603,-2.95309 0.0995,-0.14807 0.28533,-0.52907 0.41302,-0.84666 0.1277,-0.3176 0.2707,-0.65038 0.31779,-0.73951 0.10127,-0.19172 0.16199,-0.54825 0.17784,-1.04433 0.008,-0.25717 -0.0361,-0.40643 -0.15559,-0.52358 -0.1648,-0.16162 -1.37042,-0.62449 -2.02977,-0.77929 -0.88902,-0.20873 -1.9312,-0.77149 -2.03513,-1.09895 -0.0385,-0.12123 -0.0784,-0.14844 -0.11964,-0.0816 -0.078,0.12622 -0.85089,-0.58312 -0.85089,-0.78093 0,-0.16521 0.23843,-0.20955 1.43933,-0.26768 0.48895,-0.0237 1.12916,-0.079 1.42269,-0.123 0.29353,-0.044 0.8661,-0.0584 1.27236,-0.0321 0.64599,0.0419 0.78331,0.0251 1.0944,-0.13362 0.3826,-0.19518 0.56935,-0.4711 0.63746,-0.94181 0.0418,-0.28863 0.39103,-1.64964 0.55404,-2.159 0.27445,-0.85754 0.45051,-1.51578 0.544,-2.03388 0.10266,-0.56886 0.11616,-0.59173 0.3639,-0.61603 0.23854,-0.0234 0.27061,0.007 0.44039,0.42333 0.10071,0.24672 0.31791,0.94388 0.48265,1.54924 0.52429,1.9265 0.64936,2.26744 1.00941,2.75167 0.63012,0.84744 0.95399,1.04936 1.37526,0.85741 0.11518,-0.0525 0.32442,-0.0954 0.46499,-0.0954 0.14057,0 0.33211,-0.0409 0.42563,-0.091 0.22958,-0.12286 2.35027,-0.16865 2.77837,-0.06 0.37457,0.0951 0.41022,0.15579 0.2094,0.35661 z m -1.15812,-0.008 c -0.0582,0.0235 -0.0106,0.0427 0.10584,0.0427 0.11641,0 0.16404,-0.0192 0.10583,-0.0427 -0.0582,-0.0235 -0.15346,-0.0235 -0.21167,0 z m -1.35447,0.5087 c -0.25594,0.11319 -0.49191,0.24878 -0.52437,0.3013 -0.0325,0.0525 -0.10038,0.0699 -0.15092,0.0387 -0.0548,-0.0339 -0.0675,-0.0174 -0.0315,0.0409 0.0332,0.0538 0.0201,0.0978 -0.0293,0.0978 -0.0493,0 -0.0897,0.044 -0.0897,0.0978 0,0.0585 0.0622,0.0415 0.15483,-0.0423 0.0852,-0.0771 0.1853,-0.14012 0.22253,-0.14012 0.10886,0 0.99101,-0.52251 0.95052,-0.56301 -0.0203,-0.0203 -0.24624,0.0558 -0.50219,0.16897 z m -0.10771,-0.53729 c -0.0677,0 -0.71798,0.42031 -0.71798,0.46407 0,0.0212 0.0667,0.0172 0.14816,-0.009 0.45515,-0.14626 0.61384,-0.23372 0.61384,-0.33834 0,-0.0642 -0.0198,-0.11673 -0.044,-0.11673 z m -0.9968,1.87166 c -0.38217,0.24688 -0.71072,0.46015 -0.73013,0.47394 -0.0194,0.0138 -0.0154,0.0449 0.009,0.0691 0.0242,0.0242 0.28777,-0.12 0.58561,-0.32053 0.29785,-0.20053 0.65585,-0.41586 0.79555,-0.47851 0.14888,-0.0668 0.20869,-0.13025 0.14451,-0.1534 -0.0602,-0.0217 -0.42217,0.16248 -0.80433,0.40936 z m -0.0586,4.94401 c -0.0894,-0.32597 -0.29609,-0.97367 -0.45924,-1.43934 -0.22124,-0.63148 -0.30005,-0.78211 -0.31009,-0.59266 -0.0229,0.43184 0.0111,0.57213 0.29746,1.22766 0.15255,0.34925 0.36137,0.91048 0.46404,1.24718 0.10268,0.33669 0.21991,0.6327 0.26051,0.6578 0.0406,0.0251 0.0369,-0.0789 -0.008,-0.23118 -0.0451,-0.15224 -0.15512,-0.5435 -0.24456,-0.86946 z m -0.27645,-5.83735 c -0.26511,0.0813 -0.39408,0.19758 -0.62534,0.56392 -0.24038,0.38079 -0.2535,0.45598 -0.0448,0.25693 0.0854,-0.0815 0.31317,-0.28152 0.50608,-0.4445 0.39175,-0.33097 0.44971,-0.46391 0.16408,-0.37635 z m -0.54248,5.12332 c -0.0175,-0.0202 -0.0673,-10e-4 -0.11052,0.0423 -0.0485,0.0487 -0.0147,0.16016 0.0882,0.29069 l 0.16694,0.21167 -0.0564,-0.254 c -0.031,-0.1397 -0.0708,-0.27051 -0.0883,-0.29069 z m -0.28302,-4.91631 c -0.0466,0 -0.0847,0.0403 -0.0847,0.0897 0,0.0493 0.0381,0.0661 0.0847,0.0373 0.0466,-0.0288 0.0847,-0.0691 0.0847,-0.0897 0,-0.0205 -0.0381,-0.0373 -0.0847,-0.0373 z m -0.0786,-1.07723 c -0.14532,-0.0908 -0.16948,-0.0737 -0.21972,0.15502 -0.0709,0.32293 -0.0349,0.35864 0.19761,0.1958 0.22765,-0.15945 0.23147,-0.22008 0.0221,-0.35082 z m -0.0937,3.10367 c -0.12891,-0.24089 -0.25102,-0.19942 -0.25102,0.0852 0,0.26028 0.10975,0.39048 0.254,0.30133 0.10811,-0.0668 0.10723,-0.18064 -0.003,-0.38657 z m -0.23409,1.86823 c -0.0373,0 -0.111,0.0433 -0.16389,0.0962 -0.0718,0.0718 -0.0668,0.12546 0.0194,0.21167 0.16538,0.16538 0.21227,0.14415 0.21227,-0.0962 0,-0.11642 -0.0305,-0.21167 -0.0677,-0.21167 z m -0.10431,-5.37466 c -0.0867,0.0536 -0.26506,0.64777 -0.21078,0.70206 0.0198,0.0198 0.0606,-0.0623 0.0907,-0.18227 0.0301,-0.12 0.10775,-0.26217 0.17252,-0.31592 0.12409,-0.10299 0.0775,-0.28417 -0.0524,-0.20387 z m 0.0196,1.90333 c -0.089,0 -0.27094,0.18389 -0.27094,0.27391 0,0.0389 0.0762,0.0299 0.16934,-0.0199 0.16721,-0.0895 0.23301,-0.254 0.1016,-0.254 z m 0.0438,-0.50095 c -0.0132,0.0194 -0.0799,0.11148 -0.14816,0.20461 -0.1149,0.15664 -0.1131,0.16062 0.024,0.0531 0.0815,-0.0639 0.14817,-0.15598 0.14817,-0.20461 0,-0.0486 -0.0108,-0.0725 -0.024,-0.0531 z m -0.18895,3.37961 c -0.0505,0 -0.37897,0.52361 -0.37944,0.60478 -1.7e-4,0.0299 0.0588,0.0771 0.13108,0.10486 0.0723,0.0277 0.11079,0.0171 0.0856,-0.0237 -0.0252,-0.0408 0.0109,-0.12119 0.0803,-0.17873 0.11594,-0.0962 0.18278,-0.50723 0.0825,-0.50723 z m -0.10154,-0.93133 c -0.0233,0 -0.0209,0.0559 0.005,0.12429 0.0262,0.0684 0.0113,0.1468 -0.0333,0.17433 -0.0445,0.0275 -0.081,0.007 -0.081,-0.0446 0,-0.0521 -0.0422,-0.0686 -0.0937,-0.0367 -0.0656,0.0406 -0.0601,0.0786 0.0183,0.12715 0.14414,0.0891 0.33344,-0.066 0.27295,-0.2236 -0.0255,-0.0665 -0.0654,-0.12081 -0.0887,-0.12081 z m -0.19196,-2.40612 c -0.0457,0.0457 -0.10408,0.21524 -0.12975,0.37676 l -0.0467,0.29369 0.11965,-0.29633 c 0.14901,-0.36904 0.16642,-0.48377 0.0568,-0.37412 z m -0.0403,-2.02526 c -0.10736,-0.14168 -0.12302,-0.11881 -0.17394,0.254 -0.059,0.43235 -0.36256,1.62068 -0.45064,1.76438 -0.0285,0.0466 -0.0541,0.12277 -0.0568,0.16933 -0.003,0.0466 -0.0556,0.29589 -0.11764,0.55405 -0.23691,0.98652 -0.0266,0.75925 0.31683,-0.34238 0.19598,-0.62865 0.41006,-1.31445 0.47573,-1.524 0.15211,-0.48533 0.15356,-0.68128 0.006,-0.87538 z m -0.21529,5.27805 c -0.0466,0 -0.0847,0.0381 -0.0847,0.0847 0,0.0466 0.0381,0.0847 0.0847,0.0847 0.0466,0 0.0847,-0.0381 0.0847,-0.0847 0,-0.0466 -0.0381,-0.0847 -0.0847,-0.0847 z m -0.25725,-6.18703 c -0.21535,-0.42213 -0.32713,-0.36991 -0.25305,0.11824 0.031,0.20454 0.0425,0.47638 0.0254,0.60407 -0.0207,0.15423 0.003,0.22072 0.0714,0.19803 0.0563,-0.0188 0.11267,-0.10374 0.12515,-0.1888 0.0125,-0.085 0.0634,-0.19538 0.11323,-0.24517 0.11561,-0.11561 0.11981,-0.0907 -0.0821,-0.48637 z m -0.25708,6.08966 c -0.19616,0.21055 -0.21893,0.45219 -0.036,0.38199 0.0699,-0.0268 0.127,-0.0855 0.127,-0.13039 0,-0.0449 0.0622,-0.14391 0.13834,-0.21999 0.0982,-0.0982 0.10866,-0.14824 0.036,-0.17246 -0.0563,-0.0188 -0.17569,0.0446 -0.26534,0.14085 z m 0.13333,-0.41063 c -0.0721,0.0598 -0.11204,0.12785 -0.0888,0.15113 0.0233,0.0233 0.10133,-0.007 0.17343,-0.0665 0.0721,-0.0598 0.11204,-0.12784 0.0888,-0.15113 -0.0233,-0.0233 -0.10133,0.007 -0.17343,0.0665 z m 0.0368,0.84667 c -0.14477,0 -0.41777,0.16793 -0.41777,0.25698 0,0.11553 0.28491,0.10157 0.4064,-0.0199 0.12583,-0.12583 0.13117,-0.23707 0.0114,-0.23707 z m -0.92484,-3.15883 c -6.8e-4,-0.2353 -0.0295,-0.30531 -0.10676,-0.25891 -0.0758,0.0456 -0.0738,0.0241 0.007,-0.0756 0.062,-0.0765 0.0984,-0.2077 0.0807,-0.29142 -0.0262,-0.12412 -0.0596,-0.10532 -0.18072,0.10176 l -0.14862,0.254 0.0483,-0.23283 c 0.0266,-0.12806 0.0298,-0.23283 0.007,-0.23283 -0.0227,0 -0.10203,0.10477 -0.17633,0.23283 -0.0743,0.12806 -0.11091,0.15663 -0.0814,0.0635 0.10062,-0.31704 0.18832,-0.8835 0.14371,-0.92812 -0.12748,-0.12748 -0.2787,0.33481 -0.26189,0.80063 0.0172,0.47637 0.0829,0.61689 0.19994,0.42752 0.0275,-0.0445 0.10322,-0.0606 0.16821,-0.0356 0.1011,0.0388 0.10109,0.0937 -5e-5,0.3804 -0.10846,0.3074 -0.10621,0.33306 0.0273,0.31079 0.10877,-0.0181 0.14466,0.0345 0.14216,0.20857 -0.002,0.14627 0.0414,0.23283 0.11691,0.23283 0.0918,0 0.10786,-0.075 0.0678,-0.3175 -0.0289,-0.17462 -0.0529,-0.46262 -0.0534,-0.63999 z m -0.19143,3.49879 c -0.17826,0.002 -0.30266,0.11798 -0.39901,0.3714 -0.0905,0.23797 -0.0887,0.24008 0.10054,0.11916 0.10595,-0.0677 0.24026,-0.15116 0.29847,-0.18547 0.0582,-0.0343 0.10583,-0.11728 0.10583,-0.18438 0,-0.0671 -0.0476,-0.12142 -0.10583,-0.12071 z m -0.33867,-1.65659 c -0.53391,0.59477 -0.61809,0.72655 -0.50948,0.79755 0.10586,0.0692 0.10412,0.34542 -0.002,0.32388 -0.0446,-0.009 -0.0998,0.0348 -0.12264,0.0975 -0.0269,0.0739 0.0118,0.10365 0.11032,0.0847 0.17906,-0.0345 0.32445,-0.46648 0.17672,-0.52506 -0.0567,-0.0225 0.006,-0.12461 0.14912,-0.24423 0.14734,-0.12291 0.22143,-0.24614 0.1842,-0.30638 -0.0342,-0.0554 -0.0309,-0.0953 0.008,-0.0887 0.18694,0.0325 0.27442,-0.0273 0.35239,-0.24077 0.1516,-0.41508 0.10552,-0.40156 -0.3461,0.10154 z m 0.14183,1.0203 c -0.0704,0.0931 -0.1681,0.16933 -0.21718,0.16933 -0.13539,0 -0.83481,0.74197 -0.83481,0.8856 0,0.0692 0.2667,-0.1388 0.59266,-0.46227 0.32597,-0.32347 0.59146,-0.62724 0.58998,-0.67506 -10e-4,-0.0478 -0.0603,-0.0107 -0.13065,0.0824 z m -0.64983,0.68537 -0.1905,0.16129 0.16129,-0.1905 c 0.15158,-0.17902 0.21971,-0.22904 0.21971,-0.16129 0,0.0161 -0.0857,0.1018 -0.1905,0.1905 z m 0.70756,-5.89237 c -0.12854,0 -0.17762,0.24499 -0.0934,0.4664 0.11483,0.30202 0.16905,0.26105 0.16905,-0.12774 0,-0.18626 -0.034,-0.33866 -0.0756,-0.33866 z m -0.0937,-3.25967 c -0.0466,0.0288 -0.0847,0.0904 -0.0847,0.13699 0,0.0466 0.0381,0.0611 0.0847,0.0323 0.0466,-0.0288 0.0847,-0.0904 0.0847,-0.13699 0,-0.0466 -0.0381,-0.0611 -0.0847,-0.0323 z m -0.16934,6.477 c -0.0466,0 -0.15451,0.0667 -0.23988,0.14817 -0.0854,0.0815 -0.20393,0.1591 -0.26345,0.17248 -0.15751,0.0354 -0.76357,0.55352 -0.76384,0.65302 -1.3e-4,0.0466 0.0355,0.14114 0.0791,0.21018 0.0854,0.13512 0.22941,0.0255 0.94336,-0.71818 0.33198,-0.34582 0.39496,-0.46567 0.24468,-0.46567 z m -0.0847,-4.91067 c -0.0451,0.0699 -0.0821,0.18415 -0.0821,0.254 0,0.11289 0.009,0.11289 0.0821,0 0.0451,-0.0699 0.0821,-0.18415 0.0821,-0.254 0,-0.11289 -0.009,-0.11289 -0.0821,0 z m -0.17757,0.58662 c -0.12796,0.32023 -0.19068,0.82564 -0.0901,0.72572 0.0812,-0.0806 0.14901,-0.3941 0.16491,-0.762 0.006,-0.14018 -0.007,-0.13393 -0.0748,0.0363 z m -0.11644,5.28361 c -0.0686,0 -0.22811,0.10795 -0.35451,0.23988 -0.21863,0.22821 -0.22111,0.23989 -0.0508,0.23989 0.0985,0 0.25799,-0.10038 0.35451,-0.22308 0.20914,-0.26588 0.20732,-0.25669 0.0508,-0.25669 z m -0.25633,-0.95956 c -0.0699,0.058 -0.12578,0.14836 -0.1243,0.20087 10e-4,0.0525 0.0586,0.0215 0.127,-0.0689 0.15969,-0.21113 0.15857,-0.26583 -0.003,-0.13199 z m 0.0423,-1.35467 c -0.0466,0 -0.0847,0.0403 -0.0847,0.0897 0,0.0493 0.0381,0.0661 0.0847,0.0373 0.0466,-0.0288 0.0847,-0.0691 0.0847,-0.0897 0,-0.0205 -0.0381,-0.0373 -0.0847,-0.0373 z m -0.13726,1.04423 c -0.0755,0 -0.2237,0.0794 -0.32933,0.17638 -0.10564,0.097 -0.2791,0.23642 -0.38547,0.30978 -0.13167,0.0908 -0.1753,0.18056 -0.13669,0.28118 0.0526,0.13703 0.0752,0.13461 0.31106,-0.0333 0.1399,-0.0996 0.25435,-0.22955 0.25435,-0.28875 0,-0.0592 0.0952,-0.15105 0.21167,-0.20409 0.23966,-0.1092 0.28038,-0.24118 0.0744,-0.24118 z m -0.0109,-0.65079 c -0.0815,0.0214 -0.33571,0.20174 -0.56492,0.40075 -0.31345,0.27213 -0.38453,0.3742 -0.28676,0.41172 0.081,0.0311 0.29397,-0.0935 0.56492,-0.33058 0.45014,-0.39376 0.54256,-0.54908 0.28676,-0.48189 z m -0.28245,2.64278 c -0.23672,0.29198 -0.1985,0.40224 0.0424,0.12234 0.11246,-0.13066 0.18538,-0.25661 0.16205,-0.27989 -0.0233,-0.0233 -0.11534,0.0476 -0.20446,0.15755 z m -0.44459,-3.48173 c -0.13189,0.0768 0.10065,0.21448 0.25568,0.15133 0.14484,-0.059 0.14393,-0.0665 -0.0155,-0.12764 -0.0931,-0.0357 -0.20123,-0.0464 -0.24021,-0.0237 z m 0.10196,4.89856 c -0.17977,0.16055 -0.18031,0.16032 -0.11819,-0.0504 0.0343,-0.11642 0.11559,-0.29605 0.18059,-0.39919 0.1425,-0.22611 0.14973,-0.30277 0.0246,-0.26107 -0.10045,0.0335 -0.3264,0.61241 -0.3285,0.8417 -0.002,0.19855 0.23238,0.26207 0.33258,0.0902 0.15838,-0.27167 0.10648,-0.39774 -0.0911,-0.22127 z m -0.24275,0.83862 c -0.10002,0.23276 -0.10002,0.36643 0,0.21167 0.0451,-0.0699 0.08,-0.18415 0.0774,-0.254 -0.003,-0.0837 -0.0294,-0.0693 -0.0774,0.0423 z m -0.32656,-4.01523 c -0.0299,0.004 -0.18779,0.0564 -0.35078,0.1174 -0.30251,0.11328 -0.29907,0.11974 0.13774,0.25862 0.17825,0.0567 0.37352,-0.10612 0.31384,-0.26165 -0.0255,-0.0664 -0.0709,-0.11791 -0.1008,-0.11437 z m -0.42452,5.37625 c -0.0871,0.0896 -0.14116,0.18197 -0.12008,0.20518 0.0211,0.0232 0.0924,-0.0317 0.15841,-0.12202 0.16947,-0.23175 0.14908,-0.27598 -0.0383,-0.0832 z m -0.54009,-5.38139 c -0.0349,-7.1e-4 -0.0635,0.0368 -0.0635,0.0834 0,0.0466 0.0857,0.0841 0.1905,0.0834 0.15405,-0.001 0.1662,-0.017 0.0635,-0.0834 -0.0699,-0.0451 -0.15557,-0.0827 -0.1905,-0.0834 z m -0.10084,-1.86396 c -0.2068,0 -0.39955,0.0381 -0.42833,0.0847 -0.0323,0.0522 0.11201,0.0847 0.37601,0.0847 0.23558,0 0.42833,-0.0381 0.42833,-0.0847 0,-0.0466 -0.1692,-0.0847 -0.37601,-0.0847 z m -0.21664,1.18533 c -0.10111,0.0541 -0.16479,0.11744 -0.1415,0.14072 0.0233,0.0233 0.12506,-0.002 0.22617,-0.0561 0.10111,-0.0541 0.16478,-0.11744 0.1415,-0.14072 -0.0233,-0.0233 -0.12506,0.002 -0.22617,0.056 z m -1.36511,0.0794 c -0.37024,-0.1869 -0.5445,-0.23565 -0.6096,-0.17055 -0.0501,0.0501 -0.0645,0.0912 -0.0319,0.0912 0.0326,0 0.0786,-5.1e-4 0.10218,-0.001 0.0236,-6.3e-4 0.23188,0.0946 0.46285,0.21166 0.40293,0.20418 0.5949,0.25959 0.5949,0.17169 0,-0.0226 -0.2333,-0.15888 -0.51844,-0.30282 z m -1.51356,-1.01073 c -0.19752,0 -0.21942,0.10703 -0.0506,0.24717 0.0912,0.0757 0.12895,0.0732 0.16265,-0.0108 0.0787,-0.19628 0.0597,-0.23637 -0.11209,-0.23637 z"
       style="display:inline;fill:#000000"
       id="path1" />
  </g>
</svg>
