<?xml version="1.0" encoding="UTF-8" standalone="no"?>
<!-- Created with Inkscape (http://www.inkscape.org/) -->

<svg
   width="50.63047mm"
   height="51.687473mm"
   viewBox="0 0 50.63047 51.687473"
   version="1.1"
   id="svg1"
   xmlns="http://www.w3.org/2000/svg"
   xmlns:svg="http://www.w3.org/2000/svg">
  <defs
     id="defs1" />
  <g
     id="layer1"
     transform="translate(-79.63958,-122.76667)">
    <path
       d="m 100.21285,123.64944 c 0.66408,0.63328 0.73543,2.16243 0.86998,3.04806 0.32893,2.16516 0.9317,4.28542 1.32267,6.43787 0.13826,0.7612 0.24042,1.52218 0.38335,2.28274 0.0361,0.19211 0.0921,0.64632 0.384,0.59932 0.45678,-0.0736 0.088,-1.91697 0.088,-2.29266 h 0.0847 l 0.16934,0.254 c 0.49212,-1.83404 -0.2872,-4.53727 -0.64402,-6.36666 -0.11056,-0.56685 0.0203,-1.52987 -0.45665,-1.93067 l -0.254,-2.54 c -0.16776,-0.37639 -1.40118,-0.48905 -1.73023,-0.24708 -0.18234,0.13409 -0.16809,0.54997 -0.2171,0.75508 m 1.35466,-0.33867 v 0.33867 l -0.33866,0.0847 c 0.31702,0.48117 0.80164,1.39861 0.42333,1.94733 l -0.67733,-2.286 0.59266,-0.0847 m 9.398,1.778 -0.16933,-0.254 -0.95879,6.77334 -0.81921,3.38666 h 0.0847 l 0.0847,-0.33866 h 0.0847 l -0.0847,1.43933 c -0.40417,0.30799 -0.16838,0.62952 0.254,0.67733 l -0.0847,-0.33866 c 0.64955,-0.44049 0.7929,-2.05797 1.01808,-2.794 0.49899,-1.63095 0.79933,-3.33001 1.22676,-4.98097 0.37027,-1.4302 0.86994,-3.01714 0.21049,-4.41703 l -0.84667,0.84666 m -9.05934,0.67737 v 0.84667 l 0.254,1.016 h -0.0847 l -0.42333,-1.86267 h 0.254 m 20.91266,1.778 0.16934,0.254 h 0.0847 v -0.33866 l -0.254,0.0847 m -0.33866,0 c -0.98105,1.2817 -2.41321,2.17086 -3.556,3.30233 -1.59596,1.58014 -2.99087,3.48867 -4.26273,5.33367 -0.5056,0.73343 -1.7886,1.57247 -1.91794,2.45533 h 0.84667 l 0.67733,-0.33867 c -2e-5,-0.1968 0.33156,-0.29683 0.508,-0.45155 0.42536,-0.37302 0.80903,-0.80716 1.17122,-1.24178 1.27764,-1.53318 2.84834,-2.8999 4.02166,-4.48733 0.4648,-0.62884 1.24228,-1.14534 1.41112,-1.94734 l 0.508,0.0847 0.16933,-0.33866 -0.508,-0.0847 c 0.27263,-0.26738 0.68939,-0.54463 0.42334,-0.93134 v -0.0847 l 0.67733,-0.59266 v -0.0847 l -0.16933,-0.59267 m -31.66533,1.35467 -0.42334,1.016 c -0.16834,-0.11648 -0.64944,-0.61435 -0.83543,-0.3068 -0.15912,0.26314 0.17906,0.68463 0.30463,0.89946 0.45054,0.77079 1.16493,2.04058 1.97014,2.45534 0.11528,0.70958 1.01593,1.53845 1.49558,2.06668 1.10865,1.22097 3.00583,3.18612 2.99175,4.96065 l 1.18533,0.0847 c -0.27663,-2.75144 -2.35775,-5.36891 -3.61028,-7.78933 -0.37001,-0.71502 -0.97533,-2.43252 -1.97772,-2.032 l -0.42333,-0.762 v -0.0847 l 0.254,-0.254 h 0.0847 v 0.42333 c 0.95627,-0.32083 -0.79777,-0.6413 -1.016,-0.67733 m 0.16933,0.93133 0.254,0.508 -0.42333,-0.254 0.16933,-0.254 m 30.64933,0.0847 -0.0847,0.0847 0.0847,-0.0847 m -0.16933,0.0847 -0.16934,0.16933 0.16934,-0.16933 m -31.242,0.16933 -0.0847,0.0847 0.0847,-0.0847 m 30.14133,0.0847 -0.0847,0.0847 0.0847,-0.0847 m -29.63333,0.16934 0.762,1.27 h -0.0847 l -0.93133,-1.18534 0.254,-0.0847 m 0.67733,0 -0.0847,0.0847 0.0847,-0.0847 m 19.13467,0 -0.0847,0.0847 0.0847,-0.0847 m 9.652,0 c -0.15627,0.47758 -0.67721,0.87313 -0.98425,1.26973 -0.82149,1.06111 -1.834,2.80564 -3.07975,3.38694 l 3.89466,-4.65667 h 0.16934 m -29.54867,0.59267 -0.0847,0.0847 0.0847,-0.0847 m 1.26996,0.93132 -0.0847,0.0847 0.0847,-0.0847 m 1.01633,0.33866 0.16934,0.254 -0.16934,-0.254 m -0.762,0.50804 0.16934,0.33866 -0.33867,-0.0847 0.16933,-0.254 m 0.508,0.59274 1.18534,1.524 h -0.0847 l -1.10067,-1.18534 v -0.33866 m 10.58334,0.1694 -0.0847,0.0847 0.0847,-0.0847 m 6.35,0 -0.0847,0.0847 0.0847,-0.0847 m -0.0846,0.25427 v 0.42333 h -0.0847 -0.0847 l 0.16933,-0.42333 m -5.75733,0.0847 -0.254,0.254 0.254,0.508 h 0.0847 l -0.0847,-0.762 m 5.67266,0.42343 v 0.16933 h -0.16933 l 0.16933,-0.16933 m -5.64445,0.56449 0.0282,0.0564 -0.0282,-0.0564 m -18.57028,0.0282 0.0847,0.254 -0.254,0.0847 c -0.19973,0.74445 -0.65155,0.8435 -1.27,0.67733 -0.0472,1.04155 0.49491,1.7177 1.35467,2.11667 v 0.33866 l 0.16933,-0.16933 h 0.0847 l 0.16933,0.42333 0.33867,0.254 -0.33867,-0.16933 c 0.39204,0.65863 1.06989,1.07014 1.60867,1.60867 1.02123,1.02077 1.96219,2.1 2.96451,3.13266 0.65859,0.67852 0.95261,1.24137 1.94616,0.93134 -0.17489,-0.62312 -0.93605,-0.90056 -0.67734,-1.60867 v -0.0847 c -0.81797,-0.74705 -1.73851,-1.91792 -2.29162,-2.87834 -0.37649,-0.65374 -0.83649,-1.76838 -1.51838,-2.11699 -0.0603,-0.47243 -0.56205,-1.03938 -1.016,-1.18534 l -0.42333,-0.84666 -0.16933,0.0847 c -0.11802,-0.48382 -0.27765,-0.69933 -0.762,-0.84667 m 0.56443,0.73392 -0.0282,0.0564 0.0282,-0.0564 m 40.16026,0.28227 c -0.27645,0.33356 -0.57832,0.51027 -1.016,0.508 l 0.0847,0.254 -1.016,0.42333 -2.45534,1.86267 -0.254,-0.0847 c -0.52401,0.49438 -2.04806,0.86678 -2.20133,1.60866 l -2.37067,1.524 c 0.0768,0.4603 0.51102,0.54893 0.93134,0.4302 0.72826,-0.20571 2.2083,-0.8822 2.62466,-1.53086 0.68515,0.005 1.37569,-0.64953 1.94734,-0.97999 1.35613,-0.78398 2.76928,-1.49784 4.14866,-2.23735 l 0.16934,-0.84666 h -0.33867 c 0.43582,-0.54839 0.51858,-0.93311 -0.254,-0.93134 m -16.67943,-3e-5 -0.0847,0.0847 0.0847,-0.0847 m -23.7913,0.0847 c -0.13385,0.54585 0.17404,0.81138 0.42333,1.27 l -0.84667,-0.67733 0.254,-0.59267 h 0.16934 m 0.508,0 0.16933,0.0847 v 0.0847 l -0.16933,-0.16933 m 0.33866,0.33873 -0.0847,0.0847 0.0847,-0.0847 m 0.0847,0.16933 -0.0847,0.0847 0.0847,-0.0847 m 38.69266,0 -0.0847,0.0847 0.0847,-0.0847 m -38.43866,0.1694 -0.16933,0.16934 0.16933,-0.16934 m 0.0847,0.1694 v 0.254 l -0.254,-0.0847 v -0.0847 l 0.254,-0.0847 m 0.0847,0.33867 0.254,0.16933 v 0.0847 l -0.254,-0.254 m 27.60133,0.4235 -0.0847,0.0847 0.0847,-0.0847 m -7.87396,20.48937 c 0.9195,0.11348 2.44202,-0.96801 3.21733,-1.43962 2.46676,-1.50047 3.32527,-3.89871 3.93053,-6.60375 0.38369,-1.71477 0.56478,-3.42195 -0.15646,-5.08 -0.34763,-0.79916 -0.96444,-2.28248 -1.74207,-2.70933 0.0404,-0.42856 -0.28751,-0.68327 -0.52237,-1.01933 -0.64343,-0.92071 -1.96319,-2.19182 -3.1183,-2.36734 l -1.43933,-0.0847 c -0.3673,-0.53623 -1.5227,-0.5162 -2.11667,-0.50558 -2.10453,0.0376 -4.38069,1.30801 -5.73192,2.87619 -2.26086,2.62388 -4.51594,6.12374 -4.2511,9.73673 0.10136,1.3828 0.66703,3.00377 1.28339,4.23335 1.16052,2.31511 3.34245,3.14715 5.78504,3.53184 0.78842,0.12416 1.53496,0.32585 2.33629,0.22233 0.70896,-0.0916 2.04571,-0.21175 2.52564,-0.79083 m 6.60399,-19.72741 -0.0847,0.0847 0.0847,-0.0847 m -5.67266,0.84667 v 0.0847 l -3.13267,-0.59267 c 0.89119,-0.37378 2.2799,0.21694 3.13267,0.508 m 0.42333,-0.59267 v 0.16934 h 0.16934 l -0.16934,-0.16934 m 4.99534,0 0.0847,0.0847 -0.0847,-0.0847 m -4.74134,0.0847 0.0847,0.0847 -0.0847,-0.0847 m -4.826,0.28217 c 0.0654,0 0.0136,0.0422 -0.0282,0.0282 l 0.0282,-0.0282 m -0.16933,0.0564 v 0.0847 h -0.254 l 0.254,-0.0847 m -0.42333,0.0847 v 0.16933 h -0.16934 l 0.16934,-0.16933 m -0.254,0.16933 -0.0847,0.0847 0.0847,-0.0847 m 7.95866,1.94734 0.762,1.27 c 0.0346,0.38614 0.30262,0.66838 0.45554,1.016 0.36006,0.81851 0.68912,1.69537 0.98138,2.54 0.86324,2.49471 0.54543,5.03134 -0.76357,7.27377 -0.45744,0.78365 -1.30438,2.51054 -2.36668,2.46291 l 0.0847,0.16934 c -0.2854,-3e-5 -0.65811,0.34968 -0.93134,0.49388 -0.7517,0.39673 -1.5191,0.82319 -2.286,1.18534 -2.09116,0.98753 -4.84851,0.77635 -6.94266,-0.18343 -0.56649,-0.25962 -1.04837,-0.91689 -1.524,-1.32646 -0.61589,-0.53035 -1.2717,-0.97053 -1.69334,-1.69334 -1.62041,-2.77785 -0.70325,-6.59889 0.57856,-9.31335 0.33852,-0.71687 0.6249,-1.40837 1.143,-2.032 1.38063,-1.66185 3.92744,-3.59366 6.15244,-3.81 0.69949,-0.068 1.34836,0.18753 2.032,0.254 0.77897,0.0757 1.70532,0.0531 2.45534,0.28222 0.89524,0.27353 1.16933,0.9753 1.86266,1.41112 m -8.128,-1.86267 -0.0847,0.0847 0.0847,-0.0847 m -0.16933,0.0847 -0.0847,0.0847 0.0847,-0.0847 m -0.16933,0.0847 -0.16934,0.16933 0.16934,-0.16933 m -0.33867,0.19753 c 0.0655,0 0.0136,0.0422 -0.0282,0.0282 l 0.0282,-0.0282 m -0.67733,0.39512 -0.0847,0.0847 0.0847,-0.0847 m 1.94733,1.10067 h -0.0847 l -0.0847,-0.16934 c -1.02653,0.64774 -2.43322,0.89105 -2.87867,2.20134 l 1.10856,-1.14548 1.26211,-0.63252 c 0.22665,0.0676 0.29974,0.0746 0.33866,-0.16934 0.31298,0.0548 0.58246,-0.0129 0.67734,-0.33866 l 1.35342,-0.31333 1.88807,0.0606 2.5442,0.79931 0.98764,0.72345 0.42333,0.42334 v -0.0847 l -0.254,-0.42334 h -0.33866 c 0.0252,-0.70772 -0.88355,-1.01306 -1.43934,-1.22806 -1.29396,-0.50051 -2.87439,-0.93396 -4.23457,-0.49225 -0.45482,0.1477 -1.11307,0.29448 -1.26876,0.78898 m 16.59466,-1.016 -0.33866,0.16933 v -0.0847 l 0.33866,-0.0847 m -18.71133,0.0847 -0.0847,0.0847 0.0847,-0.0847 m 3.81,0.0847 -0.0847,0.0847 0.0847,-0.0847 m 1.86267,0.16934 -0.0847,0.0847 0.0847,-0.0847 m 12.61533,0 v 0.0847 l -0.42333,0.16933 0.42333,-0.254 m -0.67733,0.36688 c 0.0654,0 0.0136,0.0422 -0.0282,0.0282 l 0.0282,-0.0282 m -0.16934,0.16933 c 0.0655,0 0.0136,0.0422 -0.0282,0.0282 l 0.0282,-0.0282 m -18.71133,0.0565 -0.0847,0.0847 0.0847,-0.0847 m 18.542,0 -0.254,0.16934 0.254,-0.16934 m -13.63133,0.3387 0.254,0.254 v -0.0847 l -0.0847,-0.16933 h -0.16933 m 0.254,0 v 0.0847 l 0.67733,0.0847 -0.67733,-0.16933 m 0.762,0 v 0.254 l 0.33867,-0.16934 2.286,0.93134 c 0.0928,0.4384 0.79354,0.97015 1.18533,1.18533 -0.21574,-0.78161 -1.89231,-2.03314 -2.70933,-1.94733 l -1.10067,-0.254 m -3.38667,0.0847 -0.0847,0.0847 0.0847,-0.0847 m 1.86267,0 0.0847,0.0847 -0.0847,-0.0847 m 0.254,0 0.0847,0.0847 -0.0847,-0.0847 m -0.59267,0.0847 v 0.254 h 0.0847 l 0.0847,-0.254 h -0.16934 m -0.16933,0.0847 0.0847,0.0847 -0.0847,-0.0847 m 0.84667,0 0.0847,0.0847 -0.0847,-0.0847 m 2.54,0 -0.0847,0.0847 0.0847,-0.0847 m -3.556,0.0847 0.0847,0.0847 -0.0847,-0.0847 m -0.254,0.0847 v 0.16933 l 0.16933,-0.16933 h -0.16933 m -0.33867,0.16933 0.0847,0.0847 -0.0847,-0.0847 m 0,0.1694 0.0847,0.0847 -0.0847,-0.0847 m 8.97467,0 0.0847,0.254 -0.0847,-0.254 m -9.17222,0.11288 0.0564,0.0282 -0.0564,-0.0282 m -1.83445,0.0564 -0.0847,0.0847 0.0847,-0.0847 m 1.49578,0.11289 0.0564,0.0282 -0.0564,-0.0282 m 1.55222,0.64911 -0.762,0.508 -0.16933,-0.0847 -0.16934,0.33867 -0.16933,-0.0847 -0.0847,0.0847 0.0847,0.254 1.94733,-1.18533 v -0.16934 l 0.67734,-0.0847 c -0.3631,-0.22977 -1.13525,0.0748 -1.35467,0.42334 m 1.43933,-0.33867 0.33867,-0.0847 c -0.18066,-0.15716 -0.28453,-0.1628 -0.33867,0.0847 m 0.508,-0.16933 v 0.16933 h 0.16934 l -0.16934,-0.16933 m -3.72533,0.0847 0.0847,0.0847 -0.0847,-0.0847 m 3.97933,0 0.0847,0.0847 -0.0847,-0.0847 m 0.16934,0.0847 v 0.0847 l 1.10066,0.33866 -1.10066,-0.42333 m 4.23333,0 0.42333,0.59267 0.16934,0.93133 h 0.0847 v -0.67733 l -0.42333,-0.42334 -0.254,-0.42333 m 0.16933,0.0847 -0.0847,0.0847 0.0847,-0.0847 m -19.304,0.0847 -0.0847,0.0847 0.0847,-0.0847 m 10.24467,0.0847 0.0847,0.0847 -0.0847,-0.0847 m 5.842,0 0.0847,0.33867 h 0.0847 l -0.16933,-0.33867 m -7.62,0.0847 0.0847,0.0847 -0.0847,-0.0847 m 3.97933,0 -0.16933,0.16933 0.16933,-0.16933 m 5.24934,0 -0.0847,0.0847 0.0847,-0.0847 m 3.302,0 c 0.92277,1.53254 1.72611,3.07154 1.52399,4.91067 h -0.0847 l -0.79892,-3.38667 -0.64041,-1.524 m -10.75267,0.0847 0.0847,0.0847 -0.0847,-0.0847 m 6.096,0 0.16933,0.16933 0.254,0.508 h 0.0847 l 0.0847,-0.16933 -0.59267,-0.508 m -7.95867,0.0847 0.0847,0.0847 -0.0847,-0.0847 m 0.16934,0 0.0847,0.0847 -0.0847,-0.0847 m -0.254,0.1694 0.0847,0.0847 -0.0847,-0.0847 m -0.16941,0.16933 0.0847,0.0847 -0.0847,-0.0847 m 9.99061,0.0847 0.0847,0.0847 -0.0847,-0.0847 m 0.16933,0 v 0.16934 l 0.16934,-0.16934 h -0.16934 m -10.32933,0.16934 -0.0847,0.33866 h 0.0847 v -0.33866 m 0.16933,0 0.0847,0.0847 -0.0847,-0.0847 m 3.18912,0.0564 -0.0282,0.0564 0.0282,-0.0564 m 5.61622,-0.0564 -0.0847,0.16933 0.0847,-0.16933 m -7.53534,0.0847 0.0847,0.0847 -0.0847,-0.0847 m 9.05934,0 0.0847,0.508 0.16934,-0.0847 0.42333,0.508 -0.33867,-0.42334 v -0.254 l -0.254,0.0847 0.0847,-0.33866 h -0.16933 m -5.842,0.762 -1.016,0.42333 v 0.0847 c 0.44588,-0.11644 1.03784,-0.35299 1.27,-0.762 l 2.11666,-0.0847 0.16934,0.16933 -0.0847,0.16934 0.33867,0.16933 c -0.25983,-1.06739 -2.29799,-1.03008 -2.794,-0.16933 m 4.48733,-0.67734 0.0847,0.0847 -0.0847,-0.0847 m -6.096,0.0847 v 0.16934 l 0.16933,-0.16934 h -0.16933 m 3.64067,0.0847 -0.0847,0.0847 0.0847,-0.0847 m -5.41867,0.0847 0.0847,0.0847 -0.0847,-0.0847 m -1.46756,0.1129 0.0564,0.0282 -0.0564,-0.0282 m 3.16089,-0.0282 0.0847,0.254 h 0.0847 v -0.254 h -0.16934 m 6.096,0 0.254,0.254 -0.254,-0.254 m 2.70934,0 v 0.16934 l 0.16933,-0.16934 h -0.16933 m -10.58334,0.0847 0.0847,0.0847 -0.0847,-0.0847 m 1.69334,0.0847 0.0847,0.0847 -0.0847,-0.0847 m 8.128,0 -0.0847,0.0847 0.0847,-0.0847 m 18.20333,0 -1.43934,0.0859 -2.96333,-0.001 c 2e-5,0.41573 -0.5334,0.1108 -0.762,0.0847 v 0.0847 h 0.16933 v 0.0847 l -0.762,0.0847 -0.59266,-0.16933 c -0.78346,0.74255 -2.87362,0.508 -3.89467,0.508 v 0.0847 h 0.254 v 0.0847 l -0.59267,0.33866 c 0.83427,0.24658 2.13519,0.076 2.96334,-0.16933 0.41577,0.65883 1.63605,0.24193 2.286,0.2312 1.73128,-0.0286 3.51947,-0.095 5.24933,-0.21793 0.66481,-0.0473 1.38731,0.0926 2.032,-0.0979 v -0.0847 h -0.33867 v -0.0847 h 0.33867 l -0.0847,-0.254 h -1.27 l -0.59266,-0.59266 m -17.44133,0.0847 0.254,0.254 -0.254,-0.254 m -12.10734,0.0847 0.0847,0.0847 -0.0847,-0.0847 m 9.48267,0 0.16933,0.254 0.0847,-0.0847 -0.254,-0.16934 m 15.91733,0.0282 c 0.0654,0 0.0136,0.0422 -0.0282,0.0282 l 0.0282,-0.0282 m -22.26733,0.0564 0.0847,0.0847 -0.0847,-0.0847 m -3.24556,0.11288 0.0564,0.0282 -0.0564,-0.0282 m 1.46756,-0.0282 0.0847,0.0847 -0.0847,-0.0847 m 9.906,0 0.0847,0.0847 -0.0847,-0.0847 m 12.02266,0 -0.0847,0.0847 0.0847,-0.0847 m -15.57866,0.0847 0.0847,0.0847 -0.0847,-0.0847 m 3.81,0 0.762,1.86267 c -0.0486,0.20284 -0.0403,0.21055 0.16933,0.254 l -0.16933,-0.254 v -0.0847 l 0.16933,-0.0847 c -0.17541,-0.30766 -0.22138,-0.51666 -0.0847,-0.84667 h -0.33867 c -0.008,-0.37705 -0.19003,-0.6474 -0.508,-0.84666 m 0.67733,0 0.16934,0.16933 v -0.16933 h -0.16934 m 7.28133,0 v 0.0847 h 0.254 l -0.254,-0.0847 m 0.93134,0 0.0847,0.0847 -0.0847,-0.0847 m -19.21933,0.0847 v 0.16933 l 0.16933,-0.16933 h -0.16933 m 1.91911,0.11288 0.0564,0.0282 -0.0564,-0.0282 m 6.604,0 0.0564,0.0282 -0.0564,-0.0282 m 2.39889,-0.0282 v 0.254 h 0.0847 0.0847 l -0.16933,-0.254 m 18.45733,0.0847 -0.0847,0.0847 0.0847,-0.0847 m -30.81867,0.0847 0.0847,0.0847 -0.0847,-0.0847 m 1.43934,0 -0.0847,0.16933 0.0847,-0.16933 m 1.778,0 0.0847,0.0847 -0.0847,-0.0847 m 6.77333,0 0.0847,0.0847 -0.0847,-0.0847 m -6.604,0.0847 0.0847,0.0847 -0.0847,-0.0847 m 27.26266,0 -0.0847,0.0847 0.0847,-0.0847 m 0.33867,0 v 0.16933 h -0.16933 l 0.16933,-0.16933 m 0.33867,0 -0.0847,0.0847 0.0847,-0.0847 m -21.25133,0.0847 -0.0847,0.254 0.254,1.94733 h -0.16933 v 0.42334 l 0.254,-0.0847 0.0651,-1.41739 -0.0651,-0.61461 v -0.0847 l -0.0847,-0.42334 h -0.16933 m -10.16,0.0847 -0.0847,0.16934 0.0847,-0.16934 m 1.4111,0.0282 0.0564,0.0282 -0.0564,-0.0282 m 1.97556,-0.0282 0.0847,0.0847 -0.0847,-0.0847 m 9.144,0.0847 0.0847,0.0847 -0.0847,-0.0847 m -11.34533,0.16934 0.0847,0.254 h 0.0847 l 0.0847,-0.33867 -0.254,0.0847 m 6.94267,-0.0847 0.0847,0.0847 -0.0847,-0.0847 m -4.91067,0.0847 0.0847,0.254 h 0.0847 l -0.16933,-0.254 m 19.38866,0 -0.0847,0.0847 0.0847,-0.0847 m -14.47799,0.0847 0.0847,0.0847 -0.0847,-0.0847 m 0.0282,0.22578 0.0282,0.0564 -0.0282,-0.0564 m -4.93888,0.0282 v 0.508 h 0.0847 l -0.0847,-0.508 m 7.112,0 -0.0847,0.0847 0.0847,-0.0847 m -2.20133,0.16934 -0.67734,1.778 h 0.0847 l 0.67733,-0.762 0.0847,-0.42334 v -0.59266 h -0.16933 m -7.02734,0.0847 -0.0847,0.0847 v 0.0847 l 0.0847,0.0847 h 0.0847 l 0.0847,-0.0847 v -0.0847 l -0.16934,-0.0847 m 11.51467,0.16933 -0.0847,0.0847 0.0847,-0.0847 m -11.59933,0.16933 -0.0847,0.16934 v 0.0847 c 0.21722,-0.0466 0.24216,-0.0965 0.0847,-0.254 m 2.11666,0 c 0.032,0.74412 0.27628,0.88581 0.762,1.35466 h 0.33867 v -0.0847 l -1.10067,-1.27 m 0.16934,0.254 -0.0847,0.0847 0.0847,-0.0847 m -2.37067,0.0847 -0.0847,0.33867 0.254,0.0847 -0.16933,-0.42333 m -1.43933,0.0847 0.0847,0.0847 -0.0847,-0.0847 m 13.09511,0.0282 0.0564,0.0282 -0.0564,-0.0282 m 0.22577,0.0282 0.0282,0.0564 -0.0282,-0.0564 m 2.76578,0.0282 -0.0847,0.0847 0.0847,-0.0847 m -33.86666,0.0847 0.42333,0.508 -0.0847,0.33866 1.35467,0.16934 v 0.0847 l -2.20133,-0.0847 c 0.28389,0.77266 1.76894,0.56858 2.45533,0.70569 1.63301,0.32622 3.50017,0.22124 5.16591,0.35291 1.05231,0.0832 2.26606,0.47972 3.30076,0.38073 -0.13379,-0.86417 -1.6663,-1.49725 -2.45534,-1.59548 -2.65473,-0.33048 -5.27633,-0.85985 -7.95866,-0.85985 m 30.90333,0 0.0847,0.0847 -0.0847,-0.0847 m 2.794,0.0847 -0.0847,0.0847 0.0847,-0.0847 m -3.048,0.0847 0.0847,0.0847 -0.0847,-0.0847 m 0.254,0 0.0847,0.0847 -0.0847,-0.0847 m -15.57867,0.0847 -0.254,1.18533 h -0.0847 l 0.33866,-1.18533 m 3.81,0.16933 0.254,-0.16933 -0.254,0.16933 m -17.94933,0 -0.0847,0.0847 0.0847,-0.0847 m 29.77445,0.0282 0.0564,0.0282 -0.0564,-0.0282 m -11.74045,0.1411 c -0.0968,0.27523 -0.16551,0.4882 0.0847,0.67734 v 0.0847 c -0.30373,0.0608 -0.18374,0.38658 0,0.42333 v 0.0847 h -0.16934 v 0.0847 h 0.16934 v 0.0847 h -0.16934 l 0.254,0.33867 c -0.362,0.52761 0.0697,2.33238 0.67734,2.54 l 0.16933,0.508 0.254,-0.0847 c 0.0726,0.3576 0.34638,0.41434 0.67733,0.33866 l 0.42334,0.25401 -0.33867,-0.33867 c -2.01672,-0.0357 -1.28765,-3.13273 -2.032,-4.14867 0.24594,-0.14757 0.21988,-0.46403 0,-0.508 v -0.33867 m 6.35,0.0847 c -0.43146,0.33274 -0.89386,0.50021 -1.43933,0.508 v 0.0847 c 0.44396,0.13029 1.53367,0.0919 1.43933,-0.59266 m -23.02933,0.0847 -0.0847,0.0847 0.0847,-0.0847 m 0.16933,0 1.18533,0.33866 c -0.23016,0.0406 -1.2936,-0.0764 -1.18533,-0.33866 m 25.82333,0.0847 -0.0847,0.16933 0.0847,-0.16933 m 2.11667,0.0847 0.16933,0.42333 h 0.0847 l -0.254,-0.42333 m -28.702,0.1694 -0.0847,0.0847 0.0847,-0.0847 m 21.92867,0 0.16933,0.16933 v -0.16933 h -0.16933 m 4.48733,0 0.0847,0.0847 -0.0847,-0.0847 m -23.79133,0.0847 0.33866,0.0847 v 0.0847 l -0.42333,-0.0847 0.0847,-0.0847 m 20.066,0 -0.0847,0.0847 0.0847,-0.0847 m 3.69711,0.1129 0.0564,0.0282 -0.0564,-0.0282 m 9.59555,-0.0282 -0.16933,0.0847 v 0.16933 h 0.254 c 0.0885,0.54366 0.55769,0.57654 1.016,0.72033 1.10862,0.3478 2.40597,1.26584 3.556,1.31167 0.25303,0.43999 1.05459,0.39442 1.524,0.42333 v 0.0847 h -0.42334 v 0.0847 l 3.21734,0.84667 c 0.30543,-0.90549 -2.18525,-1.7794 -2.87867,-1.778 -0.42862,-0.60267 -1.38156,-0.58047 -2.032,-0.70908 -1.12082,-0.22163 -2.24896,-0.80622 -3.302,-1.23825 l 0.0847,0.16933 h -0.0847 -0.67733 l -0.0847,-0.16933 m -9.56733,0.16933 0.0847,0.0847 -0.0847,-0.0847 m 10.58333,0 -0.0847,0.0847 0.0847,-0.0847 m 0.16933,0.0847 -0.0847,0.0847 0.0847,-0.0847 m -8.38199,0.16934 -0.16934,0.254 0.16934,-0.254 m -15.748,0.16933 -0.0847,0.84667 h -0.0847 l 0.16934,-0.84667 m 13.17978,0.0282 0.0564,0.0282 -0.0564,-0.0282 m 2.39888,0.1412 0.0847,0.0847 -0.0847,-0.0847 m -0.0847,0.16933 0.16933,0.16934 v -0.16934 h -0.16933 m -2.45534,0.16934 0.0847,0.0847 -0.0847,-0.0847 m 2.37067,0.0847 v 0.16933 h 0.16933 l -0.16933,-0.16933 m -20.066,0.0847 0.0847,0.0847 -0.0847,-0.0847 m 17.46955,0.31043 0.0282,0.0564 -0.0282,-0.0564 m -12.89755,0.1129 -0.0847,0.0847 0.0847,-0.0847 m 15.32467,0 0.0847,0.0847 -0.0847,-0.0847 m -2.62467,0.0847 0.0847,0.33867 h 0.0847 l -0.16933,-0.33867 m 2.54,0.0847 0.16933,0.16933 v -0.16933 h -0.16933 m -10.58333,0.0847 -0.0847,0.0847 0.0847,-0.0847 m 7.95866,0.16933 -0.16933,0.33867 h 0.254 v -0.0847 l -0.0847,-0.254 m -10.16,0.254 0.0847,0.0847 -0.0847,-0.0847 m 12.61534,0 0.0847,0.0847 -0.0847,-0.0847 m 13.20799,0.11288 c 0.0655,0 0.0136,0.0422 -0.0282,0.0282 l 0.0282,-0.0282 m -15.91733,0.0564 -0.16933,0.254 0.0847,0.254 h -0.254 v 0.0847 h 0.254 l 0.254,-0.59267 h -0.16934 m 16.256,0 -0.0847,0.0847 0.0847,-0.0847 m -13.63133,0.16934 0.0847,0.0847 -0.0847,-0.0847 m -12.446,0.0847 0.0847,0.0847 -0.0847,-0.0847 m 26.75466,0.0282 c 0.0655,0 0.0136,0.0422 -0.0282,0.0282 l 0.0282,-0.0282 m -24.46866,0.22578 -0.0847,0.0847 0.0847,-0.0847 m 10.01888,0.0564 0.0282,0.0564 -0.0282,-0.0564 m 6.57578,2.31423 0.254,-0.0847 c 0.32567,0.66259 1.16132,0.9707 1.74208,1.37239 1.15699,0.80028 2.1947,1.76689 3.32323,2.60481 0.33073,0.24557 1.3681,1.77648 1.62336,1.01816 l 0.67733,0.59267 v 0.0847 l -0.16933,0.254 c 0.66307,0.31624 1.17277,0.50157 0.93133,-0.42333 0.95864,-0.3857 -0.89888,-1.37047 -1.18533,-1.69335 l -0.16933,0.0847 c -0.19001,-0.34429 -0.62611,-0.78298 -1.016,-0.84667 -0.17525,-0.62262 -0.8778,-0.99302 -1.35467,-1.38969 -1.18432,-0.98519 -2.416,-1.8999 -3.64067,-2.83387 -0.49446,-0.37707 -1.11209,-1.01728 -1.778,-0.85647 -0.33494,-0.35433 -0.34189,0.47526 -0.2888,0.67401 0.13634,0.5104 0.76685,0.98672 1.0508,1.44267 m -9.51088,-2.17313 0.0564,0.0282 -0.0564,-0.0282 m 0.19755,-0.0282 0.0847,0.0847 -0.0847,-0.0847 m 2.51179,0.11289 0.0564,0.0282 -0.0564,-0.0282 m -11.90979,0.0564 0.0847,0.0847 -0.0847,-0.0847 m 8.80534,0.0847 v 0.0847 l 0.33866,-0.0847 h -0.33866 m -0.16934,0.1694 0.0847,0.0847 -0.0847,-0.0847 m 0.16934,0.0847 0.0847,0.0847 -0.0847,-0.0847 m 2.87866,0.0847 0.0847,0.0847 -0.0847,-0.0847 m -3.21733,0.0847 0.0847,0.0847 -0.0847,-0.0847 m 0.16933,0 0.0847,0.0847 -0.0847,-0.0847 m 2.87867,0 0.0847,0.0847 -0.0847,-0.0847 m -11.43,0.0847 0.0847,0.0847 -0.0847,-0.0847 m 7.95867,0.16933 -0.0847,0.16933 0.0847,-0.16933 m 3.38666,0 0.0847,0.0847 -0.0847,-0.0847 m -11.00667,0.3387 0.0847,0.0847 -0.0847,-0.0847 m 3.64066,0.16934 v 0.254 l 0.508,0.0847 -0.508,-0.33867 m -3.64066,0.0847 v 0.0847 h 0.254 l -0.254,-0.0847 m 10.414,0 0.0847,0.0847 -0.0847,-0.0847 m -6.51934,0.0847 -0.0847,0.0847 0.0847,-0.0847 m 2.794,0 0.0847,0.0847 -0.0847,-0.0847 m 3.556,0 0.0847,0.0847 -0.0847,-0.0847 m -6.01123,0.0847 0.0847,0.254 h 0.254 v -0.0847 -0.0847 l -0.33867,-0.0847 m 6.18067,0 0.0847,0.0847 -0.0847,-0.0847 m -10.16,0.16933 0.0847,0.0847 -0.0847,-0.0847 m 4.48733,0 0.0847,0.0847 -0.0847,-0.0847 m 1.18533,0 0.0847,0.0847 -0.0847,-0.0847 m 4.23334,0 0.0847,0.0847 -0.0847,-0.0847 m -4.99534,0.0847 0.0847,0.0847 -0.0847,-0.0847 m 0.33867,0 0.0847,0.0847 -0.0847,-0.0847 m -5.08,0.0847 0.0847,0.0847 -0.0847,-0.0847 m 4.48733,0 0.0847,0.0847 -0.0847,-0.0847 m 4.826,0.254 0.0847,0.0847 -0.0847,-0.0847 m -9.05933,0.0847 v 0.254 h 0.0847 l -0.0847,-0.254 m 8.89,0.0847 0.0847,0.0847 -0.0847,-0.0847 m -8.72074,0.2541 0.33867,0.25401 v -0.0847 l -0.33867,-0.16933 m 8.128,0.0847 0.0847,0.0847 -0.0847,-0.0847 m -24.29933,2.45534 v 0.0847 l 0.762,-0.16933 -0.762,0.33867 v 0.0847 l 2.032,-0.59267 v 0.0847 l -0.33867,0.508 c -0.21963,-0.0102 -1.93903,0.35897 -1.46795,0.75873 0.17299,0.14681 0.51324,0.0234 0.70595,-0.0134 0.61865,-0.11807 1.24215,-0.15674 1.86267,-0.25817 1.58917,-0.25979 2.96866,-1.18632 4.48733,-1.71118 0.74508,-0.2575 1.51884,-0.54645 2.286,-0.7285 0.38398,-0.0911 0.72427,-0.008 1.10067,-0.16416 -0.70521,-0.68664 -1.74775,-0.39696 -2.70933,-0.3311 -0.56562,0.0387 -1.05906,0.27601 -1.60867,0.36115 -2.08684,0.32327 -4.49623,0.66613 -6.35,1.74796 m 24.46867,-2.37068 0.0847,0.0847 -0.0847,-0.0847 m -0.42334,0.0847 0.0847,0.0847 -0.0847,-0.0847 m -7.53533,0.0847 0.0847,0.0847 -0.0847,-0.0847 m 7.366,0 -0.254,0.33867 0.254,-0.33867 m -6.858,0.254 0.0847,0.0847 -0.0847,-0.0847 m -6.604,0.0847 v 0.0847 l -0.254,0.0847 0.254,-0.16934 m 13.03867,0 -0.0847,0.16934 0.0847,-0.16934 m -5.842,0.0847 -0.0847,0.254 0.254,-0.16934 -0.16933,-0.0847 m -0.33867,0.0847 0.0847,0.0847 -0.0847,-0.0847 m 5.50333,0 0.16934,0.16934 v -0.16934 h -0.16934 m -4.91066,0.25404 0.0847,0.0847 -0.0847,-0.0847 m 0.16933,0 0.0847,0.0847 -0.0847,-0.0847 m 0.254,0 v 0.0847 0.0847 l 0.16933,0.0847 h 0.0847 l -0.254,-0.254 m 3.89467,0 -0.33867,0.16933 v 0.0847 l 0.33867,-0.254 m 0.16933,0 0.0847,0.0847 -0.0847,-0.0847 m -16.93333,0.33867 -0.254,-0.0847 0.254,0.0847 m 13.29266,-0.16934 0.0847,0.0847 -0.0847,-0.0847 m 0.16934,0 v 0.16934 h 0.16933 v -0.16934 h -0.16933 m -13.80067,0.0847 v 0.0847 l -0.254,0.0847 0.254,-0.16933 m 14.478,0 0.16933,0.254 -0.16933,-0.254 m 1.18533,0 v 0.254 h 0.0847 l -0.0847,-0.254 m 0.254,0 -0.0847,0.0847 0.42333,0.0847 v -0.0847 l -0.33867,-0.0847 m 0.508,0.16933 h 0.254 l -0.16933,-0.16933 -0.0847,0.16933 m -2.286,-0.0847 v 0.0847 h 0.254 v -0.0847 h -0.254 m 0.762,0 v 0.16934 h 0.16934 v -0.16934 h -0.16934 m 0.33867,0 v 0.16934 h 0.16933 l -0.16933,-0.16934 m -15.748,0.11289 0.0282,0.0282 c -0.0418,0.0139 -0.0937,-0.0282 -0.0282,-0.0282 m 15.24,-0.0282 0.0847,0.0847 -0.0847,-0.0847 m -15.40933,0.0847 v 0.0847 l -0.762,0.16933 0.762,-0.254 m -0.84667,0.25395 v 0.0847 l -0.508,0.254 h -0.0847 l -0.16933,-0.16933 0.762,-0.16934 m 32.258,9.90606 h 0.0847 l 0.254,-0.33867 -0.16933,-0.67733 c 0.21053,0.23062 0.96774,1.3922 1.35068,0.80863 0.2991,-0.45581 -0.84136,-1.87414 -1.10418,-2.26233 -1.20931,-1.78621 -2.2649,-3.68617 -3.44953,-5.48898 -0.30104,-0.45816 -0.85708,-1.68551 -1.44729,-1.78624 -0.25536,-0.0436 -0.58188,0.24615 -0.52735,0.50644 0.11636,0.55534 0.73693,1.21853 1.03417,1.70314 0.87387,1.42474 1.74092,2.82858 2.50439,4.318 0.53419,1.04211 0.90376,2.20564 1.46978,3.21734 m 4.318,-8.97468 -0.0847,0.0847 0.0847,-0.0847 m -36.576,8.55134 1.35467,-0.16933 0.0847,0.254 c 0.99523,-0.33559 1.89737,-1.38985 2.65727,-2.08793 1.19915,-1.1016 2.48565,-1.88285 3.35407,-3.24607 l -0.0847,-0.16933 -0.762,0.42333 c 0.74923,-0.71708 1.43408,-1.46321 2.16657,-2.19453 0.13762,-0.1374 0.73179,-0.62637 0.40538,-0.84193 -0.2224,-0.14686 -0.53539,0.16105 -0.68479,0.29158 -0.53632,0.46862 -1.08026,0.92502 -1.6344,1.37361 -1.61898,1.31064 -3.09707,2.7796 -4.65543,4.16101 -0.72559,0.64321 -1.78524,1.31335 -2.20133,2.20559 m 36.99933,-7.02733 -0.0847,0.0847 0.0847,-0.0847 m 1.27,0.42333 -0.0847,0.0847 0.0847,-0.0847 m -13.88533,0.16934 0.16933,0.762 h -0.0847 l -0.42334,-0.254 v 0.508 l 0.16934,0.254 c -0.55631,0.11922 0.41727,2.16096 0.53857,2.62466 0.44319,1.69433 0.99057,3.38543 1.45345,5.08 0.30669,1.12279 0.29883,2.29219 0.71731,3.38667 h 0.33866 v -2.286 h 0.0847 c 0.1793,0.43026 0.32151,0.83015 0.84667,0.762 -0.54387,-2.63457 -1.66799,-5.19468 -2.46991,-7.75341 -0.26415,-0.84282 -0.58144,-2.58165 -1.34009,-3.08392 m -0.508,0.16933 0.16933,0.16933 -0.16933,-0.16933 m -15.57867,0.254 0.0847,0.0847 -0.0847,-0.0847 m -0.22577,0.14112 0.0282,0.0564 -0.0282,-0.0564 m 0.0564,7.05555 0.508,-0.84667 -0.0847,-0.16933 c 0.96525,-0.55763 1.21944,-2.15266 1.64709,-3.048 0.27535,-0.57648 0.7076,-1.10489 0.94034,-1.69334 0.0834,-0.2109 0.22766,-1.52176 -0.27948,-1.27235 -0.46744,0.22987 -0.87566,1.42935 -1.1967,1.86502 -0.91672,1.24408 -1.58715,2.65352 -2.36282,3.97933 -0.43841,0.74933 -1.00688,1.43522 -1.40799,2.20134 -0.35055,0.66956 -0.83179,1.27087 -1.16846,1.94733 -0.11366,0.22837 -0.33933,0.74422 0.10818,0.74788 0.54949,0.004 1.03729,-0.60548 1.32566,-0.99717 0.57662,-0.7832 1.20252,-2.15773 1.97085,-2.71404 m 15.748,-7.02734 0.0847,0.0847 -0.0847,-0.0847 m -15.97378,0.14112 0.0282,0.0564 -0.0282,-0.0564 m 3.69711,-0.0564 v 0.33867 h 0.0847 l -0.0847,-0.33867 m 13.03867,0.0847 -0.0847,0.0847 0.0847,-0.0847 m -17.18733,0.16933 0.254,0.16934 -0.254,-0.16934 m 6.35,1.18534 -0.254,-0.0847 -0.0847,0.0847 0.16933,0.508 -0.0847,0.84666 c -0.47422,0.33567 -0.22397,1.5522 -0.23669,2.08825 -0.0505,2.12797 -3.5e-4,4.26225 0.0692,6.37842 0.0139,0.42224 -0.21408,2.34871 0.27145,2.47637 0.34165,0.0898 0.55214,-0.33453 0.60644,-0.59901 0.16222,-0.79009 0.12673,-1.66508 0.21291,-2.47003 0.35688,-3.33365 0.25131,-6.8906 -0.41529,-10.16 -0.43817,0.1459 -0.27027,0.55135 -0.254,0.93134 m -7.19667,-0.67734 -0.33867,0.254 v -0.0847 l 0.33867,-0.16933 m -0.42333,0.33867 v 0.16933 H 92.4241 l 0.16934,-0.16933 m 14.81666,13.12333 0.0847,-1.10067 0.42333,0.84667 c 0.69604,-0.36496 0.17944,-1.91982 0.0779,-2.54 -0.41319,-2.52288 -0.91321,-4.96656 -1.49734,-7.45067 -0.16212,-0.68948 -0.18198,-1.45673 -0.42844,-2.1179 -0.0683,-0.18333 -0.18159,-0.62227 -0.43652,-0.62227 -0.30706,0 -0.18324,0.53857 -0.15974,0.70817 0.10164,0.73344 0.14288,1.46939 0.28027,2.19834 0.47173,2.50273 0.74896,5.08201 0.96511,7.62424 0.0618,0.72678 -0.16931,2.19098 0.69079,2.45409 m -7.366,-12.53067 0.0847,0.254 -0.0847,-0.254 m 0,0.59267 -0.0847,0.0847 0.0847,-0.0847 m 0.16934,0.16933 v 0.42334 h -0.0847 l 0.0847,-0.42334 m -12.02267,2.032 v 0.16934 H 88.0215 l 0.16933,-0.16934 m 30.56466,0.42334 0.0847,0.254 -0.0847,-0.254 m 0.33797,1.18448 0.0847,0.0847 -0.0847,-0.0847 m -6.01133,0.84667 -0.0847,0.0847 0.0847,-0.0847 m 0,0.16952 0.508,1.86267 h -0.0847 l -0.42305,-1.86267 m 0.59269,1.94737 0.0847,0.16934 -0.0847,-0.16934"
       style="display:inline;fill:#2e2127;stroke:none"
       id="sun-1" />
  </g>
</svg>
